<svg id="Layer_1" data-name="Layer 1" xmlns="http://www.w3.org/2000/svg" xmlns:xlink="http://www.w3.org/1999/xlink"  width="874.1px" height="874.1px" viewBox="0 0 435.76 435.76"><defs><style>.cls-1,.cls-5{fill:none;}.cls-2{fill:#808285;}.cls-3{clip-path:url(#clip-path);}.cls-4{fill:#231f20;}.cls-5{stroke:#231f20;stroke-width:17.43px;}.cls-6{fill:#fff;}</style><clipPath id="clip-path" transform="translate(-105.42 -191.21)">
<path class="cls-1" d="M511.55,409.09c0,104-84.28,188.25-188.25,188.25S135.05,513.06,135.05,409.09Z"/>
</clipPath>
</defs>
<path class="cls-2" d="M511.55,409.09c0,104-84.28,188.25-188.25,188.25S135.05,513.06,135.05,409.09Z" transform="translate(-105.42 -191.21)"/>
<g class="cls-3">
<polygon class="cls-4" points="406.13 217.88 20.88 217.88 36.57 279.81 406.13 217.88"/>
<polygon class="cls-4" points="406.13 217.88 40.02 288.82 71.63 345.18 406.13 217.88"/>
<polygon class="cls-4" points="406.13 217.88 80.83 351.65 138.36 394.54 406.13 217.88"/>
<polygon class="cls-4" points="406.13 217.88 150.28 398.63 230.64 417.63 406.13 217.88"/>
<polygon class="cls-4" points="406.13 217.88 251.05 409.86 399.18 408.8 406.13 217.88"/>
</g>
<circle class="cls-5" cx="323.3" cy="409.09" r="209.17" transform="translate(-300 157.22) rotate(-45)"/>
<path class="cls-4" d="M211,304.8h19.08v61.38c0,3.91,1.2,7.27,6.62,7.27,5,0,6.5-4.34,6.5-7.81V304.8h19.09v58.89c0,13.77-6.18,24.4-25.7,24.4-16.16,0-25.59-7.7-25.59-24.4Z" transform="translate(-105.42 -191.21)"/>
<path class="cls-4" d="M286.2,358.92v5.75c0,4.66,1.51,8.78,7.59,8.78,4.44,0,6.4-4,6.4-8.13,
0-6.84-5.64-9.44-10.63-12.48-5.86-3.36-10.85-6.5-14.43-10.62S269.6,333.1,269.6,326c0-15.29,
9.22-23.1,24-23.1,16.6,0,25.05,11.06,24.19,26.35H300.19c-.22-4.77,0-11.28-6.3-11.71-3.9-.33-6.18,
1.84-6.61,5.42-.54,4.88,2,7.37,5.75,10,7.16,4.55,13.34,7.37,17.79,11.5s7,9.54,7,19.41c0,15.62-8.67,
24.29-24.51,24.29-17.46,0-24.83-9.76-24.83-20.5v-8.67Z" transform="translate(-105.42 -191.21)"/>
<path class="cls-4" d="M345.09,319.44c9.32.22,12.47.76,12.58,10.3v26.58c.32,10.84.21,16.05-12.58,
15.18Zm6.61,66.7c5.86,0,11.93-.54,16.92-3.8,5.53-3.47,8-9.43,
8.13-17.57V328.66c0-7.81-1.19-15.73-8.56-20.07-6.18-3.57-14.54-3.79-21.48-3.79H326v81.34Z" transform="translate(-105.42 -191.21)"/>
<path class="cls-4" d="M416.88,356H405.82l5.53-36.44h.22Zm-15.4,30.15,2.28-15.83h15l2.71,15.83h19.3L423.07,304.8h-23l-17.78,81.34Z" transform="translate(-105.42 -191.21)"/><path class="cls-6" d="M204.8,476.38c0,3.49-.33,8.7-5,8.7s-5.21-5.21-5.21-8.7V451.32c0-3.74.57-8.22,5.13-8.22,4.71,0,5,4.48,5,8.22Zm14.32-26c0-11.72-6.76-18.22-19.28-18.22s-19.52,6.5-19.52,18.22v24.8c0,13.75,5,20.91,19.52,20.91s19.28-7.16,19.28-20.91Z" transform="translate(-105.42 -191.21)"/><path class="cls-6" d="M240,444.57c7-.16,10,.16,10,7.4,0,3.74-1,7.57-5.12,7.57H240Zm0,25.95h4.72c3.33.24,4.47,2.68,4.88,6.42s.08,8.79.33,14.16a12.38,12.38,0,0,0,.81,3.5h15.61v-.82a5.35,5.35,0,0,1-1.38-2.12c-.81-3.9-.89-14.39-1.3-19.27-.24-4.23-3.09-7-7.08-7.89v-.16c6-2.77,7.57-7.41,7.57-13.92,0-12.11-5.86-16.83-17.57-16.83H225.7v61H240Z" transform="translate(-105.42 -191.21)"/><path class="cls-6" d="M299.4,494.68l-.65-5.45h-.16c-2.93,5.2-6.19,6.83-12.37,6.83-12.12,0-16-8.38-16-19.44V451.57c0-13.26,6.1-19.44,19.19-19.44,12.21,0,19.44,5.2,19.44,17.65v4.55H294.52V451c0-5.21-.65-7.81-4.48-7.9-4.47-.08-5.52,2.36-5.52,6.35v30.18c0,3.41,1.54,5.45,5.28,5.45,4.88,0,5.05-3.91,5.05-7.81v-4.8h-5.13v-11h19.44v33.19Z" transform="translate(-105.42 -191.21)"/><path class="cls-6" d="M339.42,472h-8.29l4.14-27.33h.16ZM327.87,494.6l1.71-11.88H340.8l2,11.88h14.47l-13.26-61H326.81l-13.34,61Z" transform="translate(-105.42 -191.21)"/><path class="cls-6" d="M373.91,460.43l-.16.16,1.3,34H361.46v-61h14.73l11.06,34.08h.24l-1.38-34.08H399.7v61H385.05Z" transform="translate(-105.42 -191.21)"/><path class="cls-6" d="M407.34,494.6v-61h14.32v61Z" transform="translate(-105.42 -191.21)"/><path class="cls-6" d="M453.38,454.9V451c0-5.21-1.87-7.9-4.56-7.9-4.47-.08-5.53,2.36-5.53,6.35l-.08,30.18c0,3.41,1.38,5.45,5.12,5.45,4.88,0,5.29-5.05,5.29-8.79v-5.53h14.32v7.49c0,10.49-6,17.81-20.66,17.81-13.18,0-18.3-7-18.3-19.44V451.57c0-13.26,6.1-19.44,19.19-19.44,12.21,0,19.53,5.2,19.53,17.65v5.12Z" transform="translate(-105.42 -191.21)"/></svg>