<?xml version="1.0" encoding="utf-8"?>
<!-- Generator: Adobe Illustrator 24.2.0, SVG Export Plug-In . SVG Version: 6.00 Build 0)  -->
<svg version="1.1" id="_1" xmlns="http://www.w3.org/2000/svg" xmlns:xlink="http://www.w3.org/1999/xlink" x="0px" y="0px"
	 viewBox="0 0 2044 978.39" style="enable-background:new 0 0 2044 978.39;" xml:space="preserve">
<style type="text/css">
	.st0{fill:#FFFFFF;}
	.st1{fill:#404040;}
	.st2{fill:#32C787;}
	.st3{fill:none;stroke:#404040;stroke-width:1.75;stroke-linecap:round;stroke-linejoin:round;stroke-miterlimit:10;}
</style>
<g>
	<rect class="st0" width="2044" height="978.39"/>
	<g>
		<g>
			<rect x="1171.59" y="432.83" class="st0" width="708.32" height="381.45"/>
			<path class="st1" d="M1879.9,815.09h-708.32c-0.45,0-0.81-0.36-0.81-0.81V432.83c0-0.45,0.36-0.81,0.81-0.81h708.32
				c0.45,0,0.81,0.36,0.81,0.81v381.45C1880.72,814.73,1880.35,815.09,1879.9,815.09z M1172.4,813.47h706.69V433.64H1172.4V813.47z"
				/>
		</g>
		<g>
			<rect x="1150.3" y="432.83" class="st0" width="750.89" height="31.22"/>
			<path class="st1" d="M1901.19,464.86H1150.3c-0.45,0-0.81-0.36-0.81-0.81v-31.22c0-0.45,0.36-0.81,0.81-0.81h750.89
				c0.45,0,0.81,0.36,0.81,0.81v31.22C1902,464.5,1901.64,464.86,1901.19,464.86z M1151.11,463.24h749.26v-29.6h-749.26V463.24z"/>
		</g>
		<rect x="1171.59" y="464.05" class="st1" width="59.6" height="350.24"/>
		<rect x="1150.3" y="432.83" class="st1" width="21.28" height="31.22"/>
	</g>
	<g>
		<g>
			<g>
				<path class="st2" d="M1448.43,414.31c-2.66-4.53-4.18-9.74-4.36-14.99c-0.02-0.61,0.01-1.3,0.49-1.68
					c0.44-0.35,1.06-0.29,1.62-0.2c1.49,0.23,2.97,0.45,4.46,0.68c1.32-1.53-0.65-3.62-2.19-4.92c-2.36-1.99-4.13-4.68-5.04-7.63
					c-0.36-1.18-0.59-2.48-0.16-3.64c0.43-1.16,1.71-2.08,2.9-1.73c0.66,0.19,1.17,0.72,1.82,0.92c1.71,0.53,3.29-1.52,3.1-3.31
					c-0.19-1.78-1.45-3.23-2.51-4.67c-5.99-8.09-7.05-19.56-2.64-28.62c0.19,8.21,3.57,16.3,9.29,22.19
					c2.13,2.19,4.66,4.23,5.61,7.14c1.42,4.35-1.34,9.15-5.12,11.74c-1.08,0.74-2.42,1.81-1.98,3.04c0.44,1.22,2.17,1.21,3.41,0.83
					s2.78-0.81,3.68,0.13c0.44,0.46,0.57,1.13,0.62,1.77c0.28,3.35-1.08,6.8-3.57,9.06c-1.53,1.38-3.49,2.4-4.44,4.23
					c-0.68,1.33-0.71,2.89-0.72,4.39c-0.01,1.31,0.75,7.33-0.25,8.16C1450.97,418.41,1448.96,415.45,1448.43,414.31z"/>
				<path class="st1" d="M1451.68,418.3c-0.16,0-0.32-0.02-0.48-0.05c-1.67-0.38-3.07-2.66-3.49-3.55
					c-2.73-4.65-4.27-9.95-4.45-15.34c-0.02-0.5-0.06-1.66,0.79-2.34c0.75-0.6,1.72-0.45,2.25-0.37l3.93,0.6
					c0.03-0.1,0.04-0.21,0.03-0.33c-0.04-0.45-0.39-1.44-2.33-3.09c-2.47-2.08-4.35-4.93-5.29-8.02c-0.33-1.07-0.7-2.66-0.14-4.16
					c0.54-1.46,2.18-2.73,3.89-2.23c0.44,0.13,0.8,0.36,1.12,0.55c0.25,0.16,0.49,0.3,0.71,0.37c0.48,0.15,0.89-0.08,1.15-0.29
					c0.6-0.5,0.98-1.4,0.9-2.15c-0.14-1.34-1.03-2.51-1.96-3.75l-0.4-0.53c-6.16-8.32-7.25-20.15-2.72-29.45
					c0.16-0.34,0.53-0.52,0.9-0.44c0.37,0.08,0.63,0.4,0.64,0.77c0.18,8.01,3.48,15.9,9.06,21.64c0.39,0.4,0.79,0.79,1.19,1.19
					c1.85,1.82,3.77,3.71,4.61,6.26c1.64,5.01-1.67,10.08-5.43,12.66c-0.83,0.57-1.92,1.41-1.67,2.1c0.24,0.66,1.55,0.59,2.42,0.33
					c1.29-0.39,3.24-0.98,4.5,0.34c0.64,0.66,0.79,1.56,0.85,2.26c0.3,3.59-1.17,7.31-3.83,9.73c-0.49,0.44-1.02,0.85-1.53,1.24
					c-1.11,0.85-2.16,1.65-2.73,2.76c-0.61,1.19-0.62,2.7-0.63,4.03c0,0.28,0.04,0.86,0.09,1.54c0.31,4.3,0.29,6.48-0.64,7.24
					C1452.58,418.14,1452.14,418.3,1451.68,418.3z M1445.46,398.18c-0.16,0-0.31,0.02-0.4,0.09c-0.22,0.17-0.19,0.81-0.19,1.02
					c0.18,5.13,1.65,10.18,4.25,14.61c0.01,0.02,0.03,0.05,0.04,0.07c0.46,0.98,1.62,2.51,2.4,2.69c0.14,0.03,0.25,0.01,0.37-0.09
					c0.43-0.61,0.15-4.44,0.05-5.88c-0.05-0.74-0.09-1.32-0.09-1.66c0.01-1.44,0.03-3.22,0.81-4.75c0.74-1.44,1.98-2.39,3.19-3.31
					c0.51-0.39,0.99-0.75,1.43-1.15c2.3-2.08,3.57-5.3,3.31-8.39c-0.04-0.44-0.12-0.98-0.4-1.28c-0.53-0.56-1.66-0.27-2.86,0.09
					c-1.77,0.53-3.81,0.33-4.41-1.34c-0.69-1.94,1.39-3.37,2.28-3.98c3.39-2.33,6.13-6.79,4.81-10.82c-0.71-2.18-2.41-3.85-4.2-5.61
					c-0.41-0.4-0.82-0.81-1.22-1.22c-5.05-5.2-8.32-12.07-9.25-19.26c-2.69,8.18-1.29,17.71,3.84,24.64l0.39,0.52
					c0.98,1.29,2.09,2.76,2.28,4.55c0.14,1.3-0.46,2.74-1.48,3.58c-0.81,0.66-1.75,0.87-2.66,0.59c-0.42-0.13-0.77-0.35-1.08-0.54
					c-0.26-0.16-0.5-0.31-0.73-0.38c-0.75-0.22-1.62,0.47-1.91,1.23c-0.29,0.79-0.24,1.79,0.17,3.12c0.86,2.79,2.56,5.37,4.79,7.25
					c1.85,1.57,2.8,2.94,2.9,4.2c0.06,0.69-0.16,1.34-0.62,1.87c-0.18,0.21-0.46,0.31-0.74,0.27l-4.46-0.68
					C1445.91,398.21,1445.67,398.18,1445.46,398.18z"/>
			</g>
		</g>
		<g>
			<g>
				<path class="st2" d="M1454.19,430.61c-4.11-3.28-7.38-7.6-9.43-12.45c-0.24-0.56-0.45-1.22-0.15-1.74
					c0.28-0.48,0.89-0.65,1.44-0.77c1.47-0.32,2.94-0.64,4.41-0.96c0.68-1.9-1.9-3.15-3.8-3.81c-2.92-1.02-5.53-2.89-7.44-5.33
					c-0.76-0.98-1.43-2.11-1.45-3.35c-0.01-1.24,0.85-2.55,2.09-2.65c0.68-0.05,1.35,0.25,2.03,0.21c1.79-0.11,2.53-2.6,1.72-4.2
					c-0.81-1.6-2.51-2.5-4.02-3.47c-8.49-5.42-13.57-15.75-12.69-25.78c3.1,7.6,9.16,13.95,16.6,17.41
					c2.77,1.29,5.86,2.29,7.79,4.67c2.89,3.56,2.01,9.02-0.59,12.8c-0.74,1.08-1.61,2.55-0.76,3.54c0.84,0.99,2.46,0.35,3.49-0.44
					c1.03-0.79,2.31-1.75,3.48-1.2c0.58,0.27,0.94,0.85,1.21,1.43c1.46,3.03,1.42,6.74-0.1,9.74c-0.93,1.84-2.41,3.49-2.63,5.54
					c-0.16,1.49,0.37,2.96,0.89,4.36c0.46,1.23,3.32,6.58,2.68,7.71C1458.03,433.53,1455.09,431.48,1454.19,430.61z"/>
				<path class="st1" d="M1457.84,433.31c-1.62,0-3.51-1.46-4.18-2.09c-4.21-3.37-7.54-7.77-9.64-12.74
					c-0.19-0.46-0.65-1.53-0.1-2.47c0.48-0.83,1.45-1.04,1.97-1.15l3.88-0.84c-0.01-0.11-0.04-0.21-0.09-0.32
					c-0.19-0.4-0.87-1.21-3.28-2.05c-3.05-1.06-5.82-3.05-7.81-5.59c-0.69-0.88-1.6-2.24-1.62-3.84c-0.02-1.56,1.06-3.33,2.83-3.47
					c0.46-0.04,0.88,0.04,1.25,0.12c0.29,0.06,0.57,0.1,0.8,0.09c0.5-0.03,0.81-0.39,0.97-0.68c0.39-0.68,0.42-1.66,0.07-2.33
					c-0.61-1.2-1.85-1.98-3.17-2.8l-0.56-0.35c-8.72-5.57-13.97-16.23-13.06-26.54c0.03-0.37,0.32-0.67,0.69-0.73
					c0.38-0.05,0.73,0.15,0.87,0.49c3.03,7.41,8.93,13.6,16.19,16.98c0.5,0.23,1.02,0.46,1.54,0.69c2.38,1.04,4.84,2.11,6.54,4.21
					c3.32,4.1,2.04,10.01-0.55,13.77c-0.58,0.83-1.29,2.01-0.82,2.56c0.46,0.53,1.66,0,2.38-0.55c1.07-0.82,2.68-2.07,4.33-1.29
					c0.83,0.39,1.29,1.17,1.6,1.81c1.56,3.24,1.52,7.25-0.1,10.46c-0.3,0.59-0.65,1.16-0.99,1.71c-0.73,1.19-1.43,2.31-1.56,3.55
					c-0.15,1.33,0.38,2.74,0.85,3.99c0.1,0.26,0.34,0.79,0.63,1.4c1.82,3.91,2.59,5.95,1.99,7c-0.33,0.57-0.84,0.92-1.49,1.02
					C1458.08,433.3,1457.96,433.31,1457.84,433.31z M1440.04,400.36c-0.03,0-0.07,0-0.1,0c-0.78,0.06-1.35,1.02-1.34,1.83
					c0.01,0.85,0.41,1.75,1.27,2.86c1.8,2.3,4.31,4.1,7.07,5.06c2.29,0.8,3.67,1.74,4.21,2.88c0.3,0.62,0.33,1.3,0.09,1.97
					c-0.09,0.26-0.32,0.46-0.59,0.52l-4.41,0.96c-0.26,0.06-0.79,0.17-0.91,0.38c-0.14,0.24,0.11,0.83,0.19,1.02
					c2,4.73,5.18,8.92,9.19,12.13c0.02,0.02,0.04,0.03,0.06,0.05c0.78,0.75,2.39,1.76,3.21,1.66c0.15-0.02,0.23-0.08,0.31-0.21
					c0.18-0.72-1.44-4.2-2.05-5.51c-0.31-0.67-0.56-1.2-0.68-1.52c-0.53-1.42-1.13-3.02-0.94-4.73c0.18-1.6,1-2.94,1.79-4.23
					c0.33-0.54,0.65-1.06,0.92-1.59c1.4-2.77,1.44-6.22,0.09-9.02c-0.19-0.4-0.46-0.87-0.83-1.05c-0.69-0.33-1.65,0.34-2.64,1.11
					c-1.46,1.13-3.45,1.67-4.6,0.33c-1.34-1.56,0.1-3.64,0.71-4.53c2.33-3.38,3.3-8.53,0.63-11.82c-1.45-1.78-3.62-2.73-5.93-3.74
					c-0.53-0.23-1.06-0.46-1.57-0.7c-6.57-3.06-12.09-8.3-15.52-14.68c0.4,8.6,5.12,17,12.39,21.64l0.55,0.34
					c1.38,0.86,2.94,1.83,3.75,3.44c0.59,1.16,0.55,2.72-0.11,3.87c-0.52,0.91-1.33,1.44-2.28,1.5c-0.44,0.03-0.84-0.05-1.2-0.12
					C1440.49,400.4,1440.25,400.36,1440.04,400.36z"/>
			</g>
		</g>
		<g>
			<g>
				<path class="st0" d="M1488.19,419.59L1488.19,419.59c-4.89-1.39-7.72-6.49-6.33-11.37l28.58-100.29
					c1.39-4.89,6.49-7.72,11.37-6.33l0,0c4.89,1.39,7.72,6.49,6.33,11.37l-28.58,100.29
					C1498.17,418.15,1493.08,420.99,1488.19,419.59z"/>
				<path class="st1" d="M1490.71,420.76c-0.91,0-1.83-0.12-2.74-0.38c-2.57-0.73-4.71-2.42-6.01-4.76
					c-1.3-2.34-1.61-5.04-0.88-7.61l28.58-100.29c1.51-5.31,7.06-8.4,12.38-6.89c2.57,0.73,4.71,2.42,6.01,4.76
					c1.3,2.34,1.61,5.04,0.88,7.61l-28.58,100.3C1499.09,417.88,1495.07,420.76,1490.71,420.76z M1519.29,302.05
					c-3.66,0-7.03,2.41-8.08,6.1l-28.58,100.29c-0.62,2.16-0.35,4.42,0.74,6.38c1.09,1.96,2.88,3.38,5.03,3.99
					c4.45,1.27,9.1-1.32,10.37-5.77l28.58-100.29c0.62-2.16,0.35-4.42-0.74-6.38c-1.09-1.96-2.88-3.38-5.03-3.99
					C1520.82,302.16,1520.05,302.05,1519.29,302.05z"/>
			</g>
			<path class="st1" d="M1507.02,352.43l-8.48-2.42c-0.68-0.19-1.07-0.9-0.88-1.58l0.2-0.71c0.19-0.68,0.9-1.07,1.58-0.88l8.48,2.42
				c0.68,0.19,1.07,0.9,0.88,1.58l-0.2,0.71C1508.41,352.23,1507.7,352.63,1507.02,352.43z"/>
			<path class="st1" d="M1515.83,323.27l-8.48-2.42c-0.68-0.19-1.07-0.9-0.88-1.58l0.2-0.71c0.19-0.68,0.9-1.07,1.58-0.88l8.48,2.42
				c0.68,0.19,1.07,0.9,0.88,1.58l-0.2,0.71C1517.22,323.07,1516.51,323.47,1515.83,323.27z"/>
			<path class="st1" d="M1511.53,338.37l-8.48-2.42c-0.68-0.19-1.07-0.9-0.88-1.58l0.2-0.71c0.19-0.68,0.9-1.07,1.58-0.88l8.48,2.42
				c0.68,0.19,1.07,0.9,0.88,1.58l-0.2,0.71C1512.92,338.17,1512.21,338.56,1511.53,338.37z"/>
			<g>
				<path class="st0" d="M1501.53,410.39L1501.53,410.39c-4.93,1.23-9.93-1.78-11.15-6.71l-25.16-101.21
					c-1.23-4.93,1.78-9.93,6.71-11.15l0,0c4.93-1.23,9.93,1.78,11.15,6.71l25.16,101.21
					C1509.47,404.17,1506.47,409.16,1501.53,410.39z"/>
				<path class="st1" d="M1499.29,411.47c-1.8,0-3.57-0.49-5.15-1.44c-2.29-1.38-3.91-3.57-4.56-6.17l-25.16-101.21
					c-0.65-2.6-0.24-5.29,1.14-7.58c1.38-2.29,3.57-3.91,6.16-4.56c5.36-1.34,10.8,1.94,12.14,7.3l25.16,101.21
					c0.64,2.6,0.24,5.29-1.14,7.58c-1.38,2.29-3.57,3.91-6.16,4.55C1500.92,411.37,1500.1,411.47,1499.29,411.47z M1474.15,291.85
					c-0.67,0-1.35,0.08-2.02,0.25c-4.49,1.12-7.24,5.68-6.12,10.17l25.16,101.21c1.12,4.49,5.68,7.24,10.17,6.12l0,0
					c2.18-0.54,4.01-1.9,5.17-3.82c1.16-1.92,1.5-4.18,0.95-6.35l-25.16-101.21C1481.35,294.41,1477.91,291.85,1474.15,291.85z"/>
			</g>
			<path class="st1" d="M1485.18,342.58l-8.55,2.13c-0.68,0.17-1.38-0.25-1.55-0.93l-0.18-0.72c-0.17-0.68,0.25-1.38,0.93-1.55
				l8.55-2.13c0.68-0.17,1.38,0.25,1.55,0.93l0.18,0.72C1486.28,341.71,1485.87,342.41,1485.18,342.58z"/>
			<path class="st1" d="M1477.54,313.09l-8.55,2.13c-0.68,0.17-1.38-0.25-1.55-0.93l-0.18-0.72c-0.17-0.68,0.25-1.38,0.93-1.55
				l8.55-2.13c0.68-0.17,1.38,0.25,1.55,0.93l0.18,0.72C1478.64,312.23,1478.23,312.92,1477.54,313.09z"/>
			<path class="st1" d="M1481.33,328.32l-8.55,2.13c-0.68,0.17-1.38-0.25-1.55-0.93l-0.18-0.72c-0.17-0.68,0.25-1.38,0.93-1.55
				l8.55-2.13c0.68-0.17,1.38,0.25,1.55,0.93l0.18,0.72C1482.43,327.46,1482.01,328.15,1481.33,328.32z"/>
			<g>
				<polygon class="st1" points="1513.63,355.48 1507.35,344.61 1501.07,355.48 1494.69,344.43 1488.31,355.48 1481.93,344.43 
					1481.8,344.43 1475.42,355.48 1469.04,344.43 1468.91,344.43 1462.53,355.48 1456.15,344.43 1456.15,432.9 1519.94,432.9 
					1519.94,344.55 				"/>
			</g>
		</g>
		<g>
			<g>
				<g>
					<g>
						<path class="st2" d="M1503.94,432.3c-2.32,0-5.3-1.01-8.62-2.92c-8.1-3.57-8.59-7.18-8.61-7.84
							c8.34-17.27,24.55-50.33,26.7-52.84c2.58-3.02,9.61-4.48,9.68-4.49c0.24-0.05,0.45-0.21,0.56-0.43l2.95-5.83l7.63,3.86
							l-2.95,5.83c-0.11,0.22-0.12,0.48-0.01,0.71c0.03,0.07,3.03,6.59,2.12,10.46c-0.75,3.23-17.77,35.88-26.74,52.83
							C1506.41,431.81,1505.58,432.3,1503.94,432.3C1503.94,432.3,1503.94,432.3,1503.94,432.3z"/>
						<path class="st1" d="M1526.95,359.04l3.09,1.56l3.09,1.56l-2.58,5.11c-0.22,0.44-0.23,0.96-0.02,1.41
							c0.81,1.75,2.77,6.94,2.07,9.93c-0.68,2.91-16.19,32.82-26.56,52.44c-0.29,0.16-0.94,0.43-2.1,0.43
							c-1.52,0-4.18-0.49-8.22-2.81c-0.05-0.03-0.1-0.06-0.16-0.08c-7.02-3.09-7.92-6.11-8.03-6.9
							c9.65-19.99,24.55-50.2,26.49-52.47c1.99-2.33,7.33-3.84,9.22-4.22c0.49-0.1,0.9-0.41,1.13-0.86L1526.95,359.04
							 M1487.51,421.5L1487.51,421.5L1487.51,421.5 M1526.23,356.86l-3.32,6.56c0,0-7.34,1.48-10.13,4.76
							c-2.8,3.27-26.89,53.17-26.89,53.17s-0.63,4.5,9.01,8.74c4.13,2.38,7.06,3.03,9.03,3.03c2.38,0,3.35-0.95,3.35-0.95
							s25.91-48.98,26.89-53.17s-2.18-10.98-2.18-10.98l3.32-6.56l-4.54-2.3L1526.23,356.86L1526.23,356.86z"/>
					</g>
				</g>
			</g>
			<g>
				<g>
					
						<rect x="1527.67" y="349.02" transform="matrix(0.4512 -0.8924 0.8924 0.4512 525.4246 1562.6696)" class="st1" width="11.31" height="10.18"/>
				</g>
			</g>
			<g>
				<g>
					<g>
						<path class="st2" d="M1532.42,346.41l1.53-3.02c0.25-0.49,0.74-0.79,1.28-0.79c0.23,0,0.44,0.05,0.65,0.15l5.07,2.57
							c0.71,0.36,0.99,1.22,0.63,1.93l-1.53,3.02L1532.42,346.41z"/>
						<path class="st1" d="M1535.23,343.41c0.1,0,0.19,0.02,0.28,0.07l5.07,2.57c0.2,0.1,0.28,0.27,0.31,0.36
							c0.03,0.09,0.07,0.28-0.04,0.48l-1.16,2.3l-6.19-3.13l1.16-2.3C1534.8,343.5,1535.05,343.41,1535.23,343.41 M1535.23,341.79
							c-0.82,0-1.61,0.45-2.01,1.23l-1.9,3.75l9.08,4.59l1.9-3.75c0.56-1.11,0.12-2.46-0.99-3.02l-5.07-2.57
							C1535.92,341.87,1535.57,341.79,1535.23,341.79L1535.23,341.79z"/>
					</g>
				</g>
			</g>
			<g>
				<g>
					
						<rect x="1498.58" y="389.33" transform="matrix(0.8924 0.4512 -0.4512 0.8924 342.2686 -638.9734)" class="st1" width="24.87" height="17.79"/>
				</g>
			</g>
			<g>
				<g>
					<path class="st0" d="M1514.03,399.91c-1.04,2.05-3.25,3.01-4.95,2.15c-1.7-0.86-2.24-3.22-1.2-5.26
						c1.04-2.05,3.25-3.01,4.95-2.15C1514.53,395.5,1515.07,397.86,1514.03,399.91z"/>
				</g>
			</g>
		</g>
		<g>
			<path class="st1" d="M1511.93,433.69h-75.41c-8.68,0-16.05-6.2-17.54-14.75l-11.45-65.93c-0.04-0.24,0.02-0.48,0.18-0.66
				c0.15-0.18,0.38-0.29,0.62-0.29h131.02c0.24,0,0.46,0.1,0.62,0.29c0.15,0.18,0.22,0.42,0.18,0.65l-10.66,65.74
				C1528.1,427.4,1520.71,433.69,1511.93,433.69z M1409.3,353.68l11.28,64.98c1.35,7.77,8.05,13.41,15.94,13.41h75.41
				c7.98,0,14.69-5.71,15.97-13.59l10.5-64.8H1409.3z"/>
		</g>
		<g>
			<g>
				<path class="st1" d="M1506.14,433.31c-0.04,0-0.08,0-0.12-0.01c-0.44-0.07-0.75-0.48-0.68-0.92l11.74-79.46
					c0.07-0.44,0.48-0.75,0.92-0.68c0.44,0.07,0.75,0.48,0.68,0.92l-11.74,79.46C1506.89,433.02,1506.54,433.31,1506.14,433.31z"/>
			</g>
			<g>
				<path class="st1" d="M1441.55,433.31c-0.4,0-0.74-0.29-0.8-0.69l-11.74-79.46c-0.07-0.44,0.24-0.85,0.68-0.92
					c0.45-0.06,0.86,0.24,0.92,0.68l11.74,79.46c0.07,0.44-0.24,0.85-0.68,0.92C1441.63,433.31,1441.59,433.31,1441.55,433.31z"/>
			</g>
			<g>
				<path class="st1" d="M1465.58,433.31c-0.41,0-0.77-0.31-0.81-0.73l-7.52-79.63c-0.04-0.45,0.29-0.84,0.73-0.88
					c0.44-0.04,0.84,0.29,0.88,0.73l7.52,79.63c0.04,0.45-0.28,0.84-0.73,0.88C1465.63,433.31,1465.6,433.31,1465.58,433.31z"/>
			</g>
			<g>
				<path class="st1" d="M1482.11,433.31c-0.03,0-0.05,0-0.08,0c-0.45-0.04-0.77-0.44-0.73-0.88l7.52-79.63
					c0.04-0.45,0.45-0.77,0.88-0.73c0.45,0.04,0.77,0.44,0.73,0.88l-7.52,79.63C1482.88,432.99,1482.53,433.31,1482.11,433.31z"/>
			</g>
		</g>
		<g>
			<path class="st1" d="M1535.85,375.33H1412.1c-0.45,0-0.81-0.36-0.81-0.81c0-0.45,0.36-0.81,0.81-0.81h123.75
				c0.45,0,0.81,0.36,0.81,0.81C1536.66,374.97,1536.3,375.33,1535.85,375.33z"/>
		</g>
		<g>
			<path class="st1" d="M1531.13,404.46h-113.97c-0.45,0-0.81-0.36-0.81-0.81c0-0.45,0.36-0.81,0.81-0.81h113.97
				c0.45,0,0.81,0.36,0.81,0.81C1531.94,404.09,1531.58,404.46,1531.13,404.46z"/>
		</g>
		<g>
			<g>
				<path class="st2" d="M1405.67,414.85L1405.67,414.85c-2.02-0.74-3.05-2.97-2.31-4.99l20.29-55.33c0.74-2.02,2.97-3.05,4.99-2.31
					l0,0c2.02,0.74,3.05,2.97,2.31,4.99l-20.29,55.33C1409.92,414.56,1407.69,415.59,1405.67,414.85z"/>
				<path class="st1" d="M1407.01,415.9c-0.55,0-1.09-0.1-1.62-0.29c-2.43-0.89-3.69-3.6-2.79-6.03l20.29-55.33
					c0.89-2.43,3.6-3.69,6.03-2.79c2.43,0.89,3.69,3.6,2.79,6.03l-20.29,55.33c-0.43,1.18-1.3,2.12-2.44,2.65
					C1408.36,415.76,1407.69,415.9,1407.01,415.9z M1427.3,352.79c-1.26,0-2.44,0.77-2.89,2.02l-20.29,55.33
					c-0.58,1.59,0.24,3.36,1.83,3.95h0c0.77,0.28,1.61,0.25,2.35-0.1c0.75-0.35,1.31-0.96,1.6-1.73l20.29-55.33
					c0.58-1.59-0.24-3.36-1.83-3.95C1428.01,352.85,1427.65,352.79,1427.3,352.79z"/>
			</g>
		</g>
		<g>
			<g>
				<path class="st2" d="M1541.98,414.85L1541.98,414.85c2.02-0.74,3.05-2.97,2.31-4.99L1524,354.53c-0.74-2.02-2.97-3.05-4.99-2.31
					l0,0c-2.02,0.74-3.05,2.97-2.31,4.99l20.29,55.33C1537.73,414.56,1539.96,415.59,1541.98,414.85z"/>
				<path class="st1" d="M1540.63,415.9c-0.67,0-1.34-0.15-1.97-0.44c-1.14-0.53-2-1.47-2.44-2.65l-20.29-55.33
					c-0.89-2.43,0.36-5.14,2.79-6.03c1.18-0.43,2.45-0.38,3.59,0.15c1.14,0.53,2,1.47,2.44,2.65l20.29,55.33
					c0.89,2.43-0.36,5.14-2.79,6.03l0,0C1541.73,415.81,1541.18,415.9,1540.63,415.9z M1520.35,352.79c-0.36,0-0.72,0.06-1.06,0.19
					c-1.59,0.58-2.41,2.36-1.83,3.95l20.29,55.33c0.28,0.77,0.85,1.39,1.6,1.73c0.75,0.35,1.58,0.38,2.35,0.1c0,0,0,0,0,0
					c1.59-0.58,2.41-2.36,1.83-3.95l-20.29-55.33c-0.28-0.77-0.85-1.39-1.6-1.73C1521.23,352.89,1520.79,352.79,1520.35,352.79z"/>
			</g>
		</g>
	</g>
	<g>
		<g>
			<path class="st0" d="M1498.28,300.14l-6.77,6.46c-0.58,0.56-0.28,1.56,0.51,1.68c6.8,1.02,9.7-6.19,9.7-6.19L1498.28,300.14z"/>
			<path class="st1" d="M1493.33,309.2c-0.45,0-0.92-0.03-1.41-0.11c-0.67-0.1-1.22-0.57-1.42-1.22c-0.21-0.66-0.03-1.37,0.47-1.85
				l6.77-6.46c0.26-0.25,0.65-0.29,0.96-0.12l3.45,1.96c0.35,0.2,0.5,0.63,0.35,1.01C1502.45,302.48,1499.67,309.2,1493.33,309.2z
				 M1498.41,301.15l-6.33,6.05c-0.07,0.07-0.06,0.15-0.04,0.19c0.03,0.09,0.1,0.1,0.12,0.11c4.95,0.74,7.66-3.42,8.52-5.06
				L1498.41,301.15z"/>
		</g>
		<g>
			<g>
				<path class="st0" d="M1711.66,225.91l-4.41,10.93c-5.38,13.33-23.15,11.62-27.79,0.33c-0.51-3.92-1.11-6.49-1.11-6.49l0,0l0,0v0
					c-3.15,0.57-5.93,1.56-8.37,2.91l-151.51,54.93l6.92,18.37c0,0,90.55-12.84,127.93-22.73c0.19,13.57,2.25,21.09,3.11,28.85
					c4.85,43.52,11.21,74.85,11.21,74.85l65.12-1.63C1732.77,386.23,1772.54,232.12,1711.66,225.91z"/>
				<path class="st1" d="M1667.65,388.67c-0.38,0-0.72-0.27-0.79-0.65c-0.06-0.31-6.43-31.87-11.23-74.93
					c-0.26-2.33-0.63-4.66-1.02-7.12c-0.88-5.55-1.88-11.81-2.08-20.77c-37.59,9.76-126.13,22.36-127.02,22.49
					c-0.38,0.05-0.74-0.16-0.87-0.52l-6.92-18.37c-0.08-0.2-0.07-0.43,0.02-0.62c0.09-0.2,0.26-0.35,0.46-0.42l151.45-54.91
					c2.57-1.41,5.45-2.41,8.56-2.97c0.42-0.07,0.83,0.19,0.93,0.61c0.03,0.11,0.61,2.61,1.11,6.46c2.13,5.08,7.46,8.48,13.3,8.48
					c0.01,0,0.03,0,0.04,0c5.84-0.02,10.66-3.34,12.9-8.9l4.41-10.93c0.14-0.33,0.47-0.54,0.83-0.5
					c9.49,0.97,17.15,5.55,22.77,13.62c11.27,16.19,14.53,45.98,9.69,88.56c-3.6,31.62-10.57,58.88-10.64,59.15
					c-0.09,0.35-0.4,0.6-0.77,0.61l-65.12,1.63C1667.66,388.67,1667.66,388.67,1667.65,388.67z M1653.32,283.34
					c0.17,0,0.35,0.06,0.49,0.16c0.2,0.15,0.32,0.38,0.32,0.63c0.13,9.4,1.17,15.87,2.08,21.58c0.4,2.48,0.77,4.83,1.03,7.2
					c4.41,39.53,10.13,69.35,11.07,74.12l63.82-1.6c2.16-8.7,26.4-109.37,1.04-145.79c-5.22-7.49-12.28-11.82-21-12.86l-4.18,10.36
					c-2.5,6.19-7.88,9.89-14.4,9.91c-0.02,0-0.03,0-0.05,0c-6.53,0-12.49-3.85-14.84-9.58c-0.03-0.07-0.05-0.13-0.05-0.2
					c-0.34-2.6-0.72-4.61-0.93-5.64c-2.67,0.55-5.14,1.45-7.35,2.68c-0.04,0.02-0.08,0.04-0.12,0.05L1519.52,289l6.4,16.99
					c8.2-1.18,91.94-13.29,127.19-22.62C1653.18,283.35,1653.25,283.34,1653.32,283.34z"/>
			</g>
			<path class="st1" d="M1655.66,180.86l-4.97,45.05c0,0,26.41,6.04,33.07-3.89S1655.66,180.86,1655.66,180.86z"/>
			<g>
				<path class="st0" d="M1704.2,178.11l-5.94-14.36l-20.57-2.8l-21.25,19.31l7.37,29.02c1.93,7.21,7.71,12.37,14.53,13.85
					l0.01-0.05v7.59v0c-0.61,16.79,22.61,21.74,28.9,6.16l4.41-10.93l-3.06-31.38c0,0,13.58-0.62,9.88-12.12
					C1714.77,170.91,1704.2,178.11,1704.2,178.11"/>
				<path class="st1" d="M1693.5,247.05c-1.18,0-2.34-0.12-3.46-0.36c-6.46-1.38-12.84-6.87-12.5-16.04l0-6.86
					c-7.09-1.78-12.62-7.2-14.52-14.29l-7.37-29.03c-0.07-0.29,0.02-0.6,0.24-0.8l21.25-19.31c0.18-0.16,0.41-0.24,0.66-0.2
					l20.57,2.8c0.29,0.04,0.53,0.23,0.64,0.49l5.58,13.49c1.66-0.92,5.48-2.66,9.04-1.44c2.59,0.89,4.48,3.13,5.62,6.67
					c1.1,3.42,0.87,6.29-0.7,8.54c-2.38,3.43-7.12,4.33-9.07,4.57l2.98,30.56c0.01,0.13-0.01,0.26-0.06,0.38l-4.41,10.93
					C1705.16,244.18,1699.15,247.05,1693.5,247.05z M1678.35,222.3c0.03,0,0.06,0,0.08,0c0.41,0.05,0.73,0.37,0.73,0.78v7.59
					c-0.3,8.26,5.42,13.19,11.22,14.42c5.8,1.23,13.03-0.93,16.11-8.57l4.34-10.74l-3.04-31.18c-0.02-0.22,0.05-0.44,0.19-0.61
					c0.14-0.17,0.35-0.27,0.58-0.28c0.06,0,6.15-0.33,8.66-3.95c1.26-1.81,1.42-4.21,0.48-7.11c-0.97-3.02-2.52-4.92-4.6-5.63
					c-3.85-1.33-8.41,1.72-8.45,1.75c-0.2,0.14-0.46,0.17-0.69,0.11c-0.23-0.07-0.42-0.24-0.52-0.47l-5.76-13.93l-19.74-2.68
					l-20.61,18.73l7.25,28.55c1.78,6.64,7.03,11.69,13.73,13.22C1678.33,222.3,1678.34,222.3,1678.35,222.3z"/>
			</g>
			<path class="st1" d="M1666.9,191.94c0.31,1.14-0.02,2.22-0.72,2.41c-0.7,0.19-1.52-0.58-1.83-1.72
				c-0.31-1.14,0.02-2.22,0.72-2.41C1665.77,190.03,1666.59,190.8,1666.9,191.94z"/>
			<path class="st1" d="M1683.65,187.46c0.31,1.14-0.02,2.22-0.72,2.41c-0.7,0.19-1.52-0.58-1.83-1.72
				c-0.31-1.14,0.02-2.22,0.72-2.41C1682.53,185.54,1683.35,186.32,1683.65,187.46z"/>
			<g>
				<path class="st1" d="M1678.33,184.63c-0.13,0-0.27-0.03-0.4-0.1c-0.39-0.22-0.53-0.71-0.31-1.1c0.93-1.65,3.8-4.24,8.02-2.27
					c0.41,0.19,0.58,0.67,0.39,1.08c-0.19,0.4-0.67,0.58-1.08,0.39c-3.94-1.84-5.84,1.45-5.92,1.6
					C1678.89,184.48,1678.62,184.63,1678.33,184.63z"/>
			</g>
			<g>
				<path class="st1" d="M1661.29,188.89c-0.13,0-0.27-0.03-0.4-0.1c-0.39-0.22-0.53-0.71-0.31-1.1c1.77-3.16,4.91-2.9,6.32-2.33
					c0.41,0.17,0.61,0.64,0.44,1.06c-0.17,0.41-0.64,0.61-1.05,0.44c-0.29-0.11-2.82-1.02-4.29,1.62
					C1661.85,188.74,1661.57,188.89,1661.29,188.89z"/>
			</g>
			<path class="st1" d="M1667.65,387.86c0,0-19.99,15.96-16.84,44.97h104.64c0,0-2.78-27.59-22.68-46.6L1667.65,387.86z"/>
			<g>
				<path class="st2" d="M1653.32,284.15h63.01c0,0-14.1,90.16,16.44,102.07l3.72,46.6h-85.69L1653.32,284.15z"/>
				<path class="st1" d="M1736.49,433.64h-85.69c-0.22,0-0.43-0.09-0.58-0.24c-0.15-0.15-0.24-0.36-0.23-0.58l2.51-148.68
					c0.01-0.44,0.37-0.8,0.81-0.8h63.01c0.24,0,0.46,0.1,0.62,0.28c0.15,0.18,0.22,0.42,0.18,0.65
					c-0.14,0.9-13.65,89.65,15.94,101.19c0.29,0.11,0.49,0.38,0.51,0.69l3.72,46.6c0.02,0.23-0.06,0.45-0.21,0.61
					C1736.94,433.55,1736.72,433.64,1736.49,433.64z M1651.63,432.02h83.98l-3.61-45.23c-12.69-5.35-19.33-24.2-19.72-56.06
					c-0.26-21.08,2.45-41.25,3.1-45.77h-61.27L1651.63,432.02z"/>
			</g>
			<g>
				<path class="st2" d="M1716.33,284.15l10.41-52.48c0,0-4.65-3.94-11.8-5.27l-10.75,57.75H1716.33z"/>
				<path class="st1" d="M1716.33,284.96h-12.14c-0.24,0-0.47-0.11-0.62-0.29c-0.15-0.18-0.22-0.43-0.17-0.67l10.75-57.75
					c0.08-0.44,0.5-0.73,0.94-0.65c7.28,1.35,11.98,5.28,12.18,5.45c0.22,0.19,0.33,0.49,0.27,0.78l-10.41,52.48
					C1717.05,284.69,1716.72,284.96,1716.33,284.96z M1705.16,283.34h10.5l10.18-51.34c-1.16-0.87-4.95-3.48-10.27-4.64
					L1705.16,283.34z"/>
			</g>
			<g>
				<path class="st2" d="M1653.32,284.15c0,0,8.22-38.95,11.18-48.66c0,0,4.68-2.42,11.18-4.21l-12.04,52.87H1653.32z"/>
				<path class="st1" d="M1663.65,284.96h-10.32c-0.24,0-0.48-0.11-0.63-0.3c-0.15-0.19-0.21-0.44-0.16-0.68
					c0.08-0.39,8.26-39.09,11.2-48.73c0.06-0.21,0.21-0.38,0.4-0.48c0.19-0.1,4.83-2.48,11.34-4.27c0.27-0.08,0.57,0,0.77,0.2
					c0.21,0.2,0.29,0.49,0.23,0.77l-12.04,52.87C1664.35,284.7,1664.02,284.96,1663.65,284.96z M1654.32,283.34h8.68l11.59-50.9
					c-4.78,1.43-8.38,3.12-9.41,3.62C1662.45,245.24,1655.6,277.31,1654.32,283.34z"/>
			</g>
			<path class="st1" d="M1711.97,291.04c0,2.5-2.02,4.52-4.52,4.52c-2.5,0-4.52-2.02-4.52-4.52c0-2.5,2.02-4.52,4.52-4.52
				C1709.95,286.52,1711.97,288.54,1711.97,291.04z"/>
			<path class="st1" d="M1664.5,291.04c0,2.5-2.02,4.52-4.52,4.52c-2.5,0-4.52-2.02-4.52-4.52c0-2.5,2.02-4.52,4.52-4.52
				C1662.48,286.52,1664.5,288.54,1664.5,291.04z"/>
			<path class="st1" d="M1689.28,148.68L1689.28,148.68c-3.34-0.37-7.17-0.26-11.59,0.5c-30.04,5.1-22.03,31.68-22.03,31.68
				s21.03,2.44,25.37-19.46c0,0,0.83,1.24,2.3,3.05c9.83,16.05,11.7,60.69,11.7,60.69s20.93-1.77,28.78-16.14
				C1723.82,209.01,1725.71,152.19,1689.28,148.68z"/>
			<g>
				<path class="st1" d="M1673.76,205.11c-0.1,0-0.19-0.02-0.29-0.05c-1.17-0.44-1.92-1.06-2.29-1.91c-0.62-1.4,0.02-2.98,0.63-4.51
					l0.22-0.55c0.6-1.54-0.27-6.22-0.95-8.81c-0.11-0.43,0.14-0.88,0.58-0.99c0.43-0.11,0.88,0.14,0.99,0.58
					c0.2,0.74,1.89,7.28,0.89,9.81l-0.22,0.56c-0.51,1.27-0.99,2.47-0.65,3.25c0.19,0.42,0.64,0.76,1.38,1.04
					c0.42,0.16,0.63,0.62,0.47,1.04C1674.39,204.91,1674.09,205.11,1673.76,205.11z"/>
			</g>
			<g>
				<path class="st1" d="M1676.48,213.83c-1.7,0-2.95-0.51-3.03-0.54c-0.41-0.17-0.61-0.65-0.44-1.06c0.17-0.41,0.65-0.61,1.06-0.44
					c0.06,0.02,2.5,0.98,4.9-0.1c1.74-0.78,3.07-2.43,3.96-4.91c0.15-0.42,0.61-0.64,1.04-0.49c0.42,0.15,0.64,0.62,0.49,1.04
					c-1.05,2.92-2.68,4.89-4.85,5.85C1678.51,213.67,1677.42,213.83,1676.48,213.83z"/>
			</g>
			<g>
				<path class="st1" d="M1679.02,223.96c-0.42,0-0.67-0.01-0.73-0.02c-0.45-0.03-0.79-0.41-0.76-0.86c0.03-0.45,0.4-0.79,0.86-0.76
					c0.06,0,6.96,0.35,11.07-3.27c0.33-0.29,0.85-0.26,1.14,0.07c0.3,0.34,0.26,0.85-0.07,1.14
					C1686.7,223.65,1681.03,223.96,1679.02,223.96z"/>
			</g>
			<g>
				<g>
					<path class="st0" d="M1663.95,368.45c0,0-7.55-1.1-18.36,0.1c-7.12,0.79-9.17,7.63-9.74,12.22c-0.22,1.77,1.68,3.01,3.2,2.09
						c0,0-2.56,4.71,2.52,3.76c0,0,22.53,0.57,26.43,1.06L1663.95,368.45z"/>
					<path class="st1" d="M1667.99,388.49c-0.03,0-0.07,0-0.1-0.01c-3.69-0.46-24.75-1.01-26.26-1.05
						c-1.75,0.31-2.97,0.03-3.61-0.85c-0.56-0.77-0.49-1.78-0.28-2.61c-0.48-0.03-0.96-0.19-1.39-0.46
						c-0.96-0.62-1.46-1.71-1.32-2.84c0.96-7.69,4.67-12.28,10.46-12.92c10.79-1.2,18.26-0.14,18.57-0.1
						c0.34,0.05,0.61,0.3,0.68,0.63l4.04,19.22c0.05,0.26-0.02,0.52-0.2,0.72C1668.43,388.39,1668.22,388.49,1667.99,388.49z
						 M1641.56,385.81c0.01,0,0.01,0,0.02,0c0.85,0.02,19.56,0.5,25.39,0.96l-3.7-17.58c-1.93-0.22-8.67-0.82-17.6,0.17
						c-6.37,0.71-8.42,6.65-9.03,11.51c-0.06,0.52,0.16,1,0.59,1.28c0.43,0.28,0.95,0.28,1.38,0.02c0.31-0.19,0.71-0.15,0.98,0.11
						c0.27,0.25,0.33,0.65,0.16,0.97c-0.37,0.69-0.76,1.92-0.42,2.39c0.23,0.32,1.01,0.39,2.08,0.19
						C1641.46,385.81,1641.51,385.81,1641.56,385.81z"/>
				</g>
				<g>
					<path class="st1" d="M1650.49,368.95c-0.15,0-0.3-0.04-0.43-0.12c-2-1.26-3.32-4.71-2.43-6.37c0.2-0.37,1.01-1.51,3.01-0.61
						c3.75,1.7,9.86,5.42,10.12,5.58c0.38,0.23,0.5,0.73,0.27,1.11c-0.23,0.38-0.73,0.5-1.11,0.27c-0.06-0.04-6.29-3.83-9.94-5.49
						c-0.18-0.08-0.78-0.33-0.91-0.1c-0.42,0.77,0.44,3.33,1.86,4.23c0.38,0.24,0.49,0.74,0.26,1.12
						C1651.02,368.82,1650.76,368.95,1650.49,368.95z"/>
				</g>
				<g>
					<path class="st1" d="M1635.84,381.58c-0.23,0-0.46-0.1-0.62-0.29c-0.29-0.34-0.24-0.85,0.1-1.14l5.45-4.57
						c1.37-1.15,3.1-1.84,4.88-1.95l1.7-0.1c0.48-0.02,0.83,0.31,0.86,0.76c0.03,0.45-0.31,0.83-0.76,0.86l-1.7,0.1
						c-1.44,0.09-2.83,0.64-3.94,1.57l-5.45,4.57C1636.21,381.52,1636.03,381.58,1635.84,381.58z"/>
				</g>
				<g>
					<path class="st1" d="M1639.04,383.67c-0.29,0-0.57-0.16-0.72-0.43c-0.21-0.4-0.05-0.89,0.34-1.09l5.28-2.77
						c0.08-0.04,0.16-0.07,0.25-0.08l3.87-0.59c0.44-0.07,0.86,0.24,0.92,0.68c0.07,0.44-0.24,0.86-0.68,0.92l-3.73,0.57l-5.17,2.71
						C1639.3,383.64,1639.17,383.67,1639.04,383.67z"/>
				</g>
			</g>
			<path class="st0" d="M1663.95,368.45l4.04,19.22c0,0,77.54-14.54,91.21-73.82c10.98-47.6-17.3-75.58-32.47-82.18
				c0,0,0.25,52.01-7.62,82.75C1714.04,334.25,1688.86,354.05,1663.95,368.45z"/>
			<g>
				<path class="st1" d="M1667.99,388.49c-0.38,0-0.71-0.26-0.79-0.64l-4.04-19.22c-0.07-0.34,0.08-0.69,0.39-0.87
					c18.01-10.42,49.08-31.23,54.79-53.53c2.13-8.34,3.87-17.68,5.15-27.75c0.06-0.44,0.47-0.75,0.91-0.7
					c0.44,0.06,0.76,0.46,0.7,0.91c-1.29,10.14-3.03,19.55-5.19,27.95c-5.8,22.66-36.74,43.59-55.04,54.23l3.76,17.86
					c3.82-0.81,21.11-4.82,39.51-14.46c19.08-10,43.29-28.28,50.28-58.58c11.52-49.95-20.04-76.05-32-81.26
					c-0.41-0.18-0.6-0.66-0.42-1.07c0.18-0.41,0.66-0.6,1.07-0.42c7.67,3.34,18.64,11.93,26.43,26.07
					c6.32,11.47,12.59,30.68,6.51,57.04c-7.13,30.92-31.75,49.52-51.15,59.68c-20.96,10.97-40.51,14.72-40.7,14.76
					C1668.09,388.48,1668.04,388.49,1667.99,388.49z"/>
			</g>
			<g>
				<path class="st0" d="M1705.58,432.83h-135.51v-73.71h93.4c13.52,0,25.33,9.13,28.73,22.22L1705.58,432.83z"/>
				<path class="st1" d="M1705.58,433.64h-135.51c-0.45,0-0.81-0.36-0.81-0.81v-73.71c0-0.45,0.36-0.81,0.81-0.81h93.4
					c13.89,0,26.02,9.39,29.52,22.83l13.38,51.49c0.06,0.24,0.01,0.5-0.14,0.7C1706.06,433.52,1705.83,433.64,1705.58,433.64z
					 M1570.87,432.02h133.66l-13.12-50.47c-3.31-12.73-14.8-21.61-27.95-21.61h-92.59V432.02z"/>
			</g>
			<path class="st1" d="M1691.27,377.78l14.31,55.05h-39.02v-73.71h0.59C1678.5,359.12,1688.41,366.79,1691.27,377.78z"/>
			<rect x="1569.12" y="323.1" class="st1" width="87.5" height="16.16"/>
			<g>
				<rect x="1657.43" y="323.91" class="st0" width="8.31" height="14.54"/>
				<path class="st1" d="M1664.93,324.72v12.92h-6.69v-12.92H1664.93 M1666.55,323.1h-9.93v16.16h9.93V323.1L1666.55,323.1z"/>
			</g>
			<g>
				<path class="st1" d="M1570.06,359.94c-0.45,0-0.81-0.36-0.81-0.81v-23.26c0-0.45,0.36-0.81,0.81-0.81
					c0.45,0,0.81,0.36,0.81,0.81v23.26C1570.87,359.57,1570.51,359.94,1570.06,359.94z"/>
			</g>
			<g>
				<path class="st1" d="M1657.27,359.94c-0.45,0-0.81-0.36-0.81-0.81v-23.26c0-0.45,0.36-0.81,0.81-0.81s0.81,0.36,0.81,0.81v23.26
					C1658.08,359.57,1657.72,359.94,1657.27,359.94z"/>
			</g>
			<g>
				<path class="st1" d="M1665.73,359.94c-0.45,0-0.81-0.36-0.81-0.81v-23.26c0-0.45,0.36-0.81,0.81-0.81
					c0.45,0,0.81,0.36,0.81,0.81v23.26C1666.54,359.57,1666.17,359.94,1665.73,359.94z"/>
			</g>
			<g>
				<path class="st0" d="M1524.58,305.13l-17.06,9.27c-1.71,0.93-3.84,0.57-5.15-0.88c-0.66-0.73-0.6-1.85,0.12-2.5l6.19-4.87
					c0.94-0.74,0.15-2.23-0.99-1.86l-5.67-0.31l-6.19,6.29c-1.14,0.71-2.49-0.54-1.87-1.73l4.33-8.4l20.97-9.55L1524.58,305.13z"/>
				<path class="st1" d="M1505.5,315.72c-1.39,0-2.75-0.57-3.73-1.66c-0.96-1.05-0.88-2.69,0.18-3.65l6.23-4.9
					c0.11-0.09,0.14-0.2,0.07-0.33c-0.07-0.13-0.17-0.17-0.31-0.13c-0.09,0.03-0.19,0.04-0.29,0.04l-5.31-0.29l-5.93,6.03
					c-0.05,0.05-0.1,0.09-0.15,0.12c-0.82,0.51-1.86,0.41-2.57-0.25c-0.71-0.66-0.89-1.68-0.45-2.55l4.33-8.39
					c0.08-0.16,0.22-0.29,0.38-0.37l20.97-9.55c0.21-0.09,0.44-0.1,0.65-0.01c0.21,0.09,0.37,0.26,0.45,0.47l5.32,14.54
					c0.14,0.38-0.02,0.8-0.37,0.99l-17.06,9.27C1507.15,315.52,1506.32,315.72,1505.5,315.72z M1508.03,303.42
					c0.68,0,1.31,0.37,1.65,1c0.44,0.82,0.23,1.79-0.5,2.36l-6.19,4.87c-0.35,0.32-0.38,0.93-0.02,1.32
					c1.06,1.17,2.78,1.46,4.16,0.71l16.44-8.93l-4.78-13.06l-19.92,9.07l-4.2,8.15c-0.16,0.31,0.02,0.53,0.11,0.61
					c0.08,0.07,0.28,0.22,0.55,0.1l6.11-6.21c0.16-0.17,0.39-0.25,0.62-0.24l5.54,0.3C1507.75,303.44,1507.89,303.42,1508.03,303.42
					z"/>
			</g>
			<g>
				<path class="st2" d="M1600.13,332.75h-22.23c-0.45,0-0.81-0.36-0.81-0.81c0-0.45,0.36-0.81,0.81-0.81h22.23
					c0.45,0,0.81,0.36,0.81,0.81C1600.94,332.39,1600.58,332.75,1600.13,332.75z"/>
			</g>
			<g>
				<path class="st2" d="M1620.47,331.99h-7.6c-0.45,0-0.81-0.36-0.81-0.81c0-0.45,0.36-0.81,0.81-0.81h7.6
					c0.45,0,0.81,0.36,0.81,0.81C1621.28,331.63,1620.91,331.99,1620.47,331.99z"/>
			</g>
		</g>
	</g>
	<g>
		<g>
			<path class="st0" d="M1459.28,311.84c-0.13-3.26-3.03-5.69-6.26-5.24l-11.26,1.57c-77.47,5.76-158.23-58.34-158.23-58.34
				l7.34,69.31c61.13,40.95,149.47,12.6,149.47,12.6l15.33-4.32c2.44-0.69,4.09-2.96,3.99-5.49L1459.28,311.84z"/>
			<path class="st1" d="M1373.92,342.09c-25.54,0-57.08-4.58-83.5-22.28c-0.2-0.13-0.33-0.35-0.35-0.59l-7.34-69.31
				c-0.03-0.32,0.13-0.64,0.42-0.8c0.29-0.16,0.64-0.13,0.89,0.08c0.2,0.16,20.49,16.17,49.96,31.26
				c27.16,13.91,67.88,29.86,107.71,26.91l11.21-1.57c1.76-0.24,3.56,0.27,4.93,1.41c1.37,1.14,2.19,2.82,2.26,4.6l0.39,10.09
				c0.11,2.92-1.77,5.51-4.58,6.3l-15.33,4.32c-0.19,0.06-22.49,7.13-51.98,9.09C1384,341.91,1379.08,342.09,1373.92,342.09z
				 M1291.64,318.68c31.32,20.82,69.91,23.09,96.8,21.31c29.3-1.94,51.44-8.95,51.66-9.02l15.35-4.33c2.09-0.59,3.49-2.51,3.4-4.68
				l-0.39-10.09l0,0c-0.05-1.32-0.66-2.57-1.68-3.42c-1.02-0.85-2.35-1.23-3.66-1.05l-11.26,1.57c-3.31,0.25-6.63,0.36-9.94,0.36
				c-36.98,0-73.61-14.6-98.71-27.46c-25.01-12.82-43.45-26.29-48.69-30.26L1291.64,318.68z"/>
		</g>
		<polygon class="st1" points="1260.55,800.28 1304.82,829.81 1234.23,829.81 1236.42,800.28 		"/>
		<g>
			<polygon class="st0" points="1237.23,800.36 1237.23,784.01 1263.44,784.01 1259.89,800.36 			"/>
			<path class="st1" d="M1262.44,784.82l-3.2,14.73h-21.2v-14.73H1262.44 M1264.45,783.2h-28.03v17.98h24.13L1264.45,783.2
				L1264.45,783.2z"/>
		</g>
		<g>
			<polygon class="st2" points="1231.17,783.5 1222.14,457.17 1308.42,470.71 1274.45,784.22 			"/>
			<path class="st1" d="M1222.97,458.12l84.56,13.27l-33.8,312.01l-41.77-0.7L1222.97,458.12 M1221.3,456.22l9.08,328.08l44.8,0.75
				l34.12-315.02L1221.3,456.22L1221.3,456.22z"/>
		</g>
		<polygon class="st1" points="1170.02,794.1 1209.48,829.81 1139.65,819.43 1146.16,790.55 		"/>
		<g>
			<polygon class="st0" points="1146.95,790.75 1149.35,774.57 1175.28,778.42 1169.36,794.08 			"/>
			<path class="st1" d="M1150.03,775.49l24.13,3.58l-5.33,14.1l-20.97-3.11L1150.03,775.49 M1148.67,773.65l-2.64,17.78l23.86,3.54
				l6.5-17.21L1148.67,773.65L1148.67,773.65z"/>
		</g>
		<g>
			<polygon class="st2" points="1143.46,773.19 1196.65,463.5 1288.06,469.47 1186.18,780.26 			"/>
			<path class="st1" d="M1197.33,464.36l89.63,5.86l-101.33,309.14l-41.23-6.83L1197.33,464.36 M1195.98,462.64l-53.45,311.21
				l44.21,7.32l102.42-312.45L1195.98,462.64L1195.98,462.64z"/>
		</g>
		<g>
			<path class="st1" d="M1241.1,490.01c-2.29,0-4.71-0.16-7.28-0.5c-0.44-0.06-0.76-0.47-0.7-0.91c0.06-0.44,0.47-0.76,0.91-0.7
				c30.52,4.09,39.94-18.27,40.33-19.23c0.17-0.42,0.64-0.62,1.06-0.45c0.41,0.17,0.62,0.64,0.45,1.05
				C1275.77,469.51,1267.18,490.01,1241.1,490.01z"/>
		</g>
		<g>
			<path class="st1" d="M1166.62,776.41c-0.06,0-0.12-0.01-0.19-0.02c-0.44-0.1-0.71-0.54-0.6-0.97l72.36-308.45
				c0.1-0.44,0.54-0.7,0.97-0.6c0.44,0.1,0.71,0.54,0.6,0.97l-72.36,308.45C1167.32,776.16,1166.99,776.41,1166.62,776.41z"/>
		</g>
		<g>
			<path class="st0" d="M1288.78,269.63c-0.23,0-0.45-0.1-0.61-0.27l-29.09-32.78c-0.19-0.21-0.25-0.5-0.17-0.77l7.7-25.27
				c-1.95-1.48-3.13-3.85-3.52-7.07c-0.42-3.46,0.23-6.18,1.92-8.09c2.2-2.48,5.61-3,8.09-3c0.49,0,0.92,0.02,1.27,0.05l-0.84-14.48
				c-0.01-0.22,0.07-0.44,0.22-0.6c0.15-0.16,0.37-0.25,0.59-0.25c0,0,34.6,0.19,34.6,0.19c0.42,0,0.77,0.32,0.8,0.74l1.46,16.98
				l8.42,12.54c0.14,0.21,0.17,0.46,0.1,0.7c-0.08,0.24-0.26,0.43-0.49,0.51l-5.11,1.88c0.32,6.33-1.53,11.98-5.24,15.97
				c-3.41,3.66-8.14,5.69-13.36,5.73l-5.93,36.63c-0.05,0.31-0.27,0.56-0.57,0.65C1288.93,269.62,1288.86,269.63,1288.78,269.63z"/>
			<path class="st1" d="M1274.34,177.88l34.59,0.19l1.48,17.19l8.54,12.72l-5.68,2.09c0.93,12.98-7.36,21.43-17.9,21.43
				c-0.18,0-0.36,0-0.55-0.01l-6.04,37.32l-29.09-32.78l7.88-25.85l0,0.01c-1.8-1.14-3.23-3.23-3.66-6.84
				c-1.09-9.01,5.62-10.18,9.2-10.18c1.26,0,2.13,0.15,2.13,0.15L1274.34,177.88 M1274.34,176.26c-0.44,0-0.87,0.18-1.18,0.51
				c-0.31,0.32-0.47,0.76-0.44,1.21l0.79,13.58c-0.13,0-0.27,0-0.41,0c-2.64,0-6.3,0.57-8.69,3.27c-1.85,2.09-2.56,5.02-2.12,8.72
				c0.39,3.2,1.53,5.64,3.39,7.26l-7.54,24.75c-0.16,0.54-0.04,1.13,0.34,1.55l29.09,32.79c0.31,0.35,0.76,0.55,1.21,0.55
				c0.15,0,0.3-0.02,0.45-0.06c0.6-0.17,1.05-0.68,1.15-1.3l5.82-35.96c5.17-0.2,9.85-2.3,13.26-5.97
				c3.74-4.02,5.67-9.66,5.48-15.96l4.56-1.68c0.47-0.17,0.83-0.55,0.98-1.02c0.15-0.47,0.08-0.99-0.2-1.4l-8.31-12.37l-1.44-16.77
				c-0.07-0.84-0.77-1.48-1.61-1.48L1274.34,176.26C1274.34,176.26,1274.34,176.26,1274.34,176.26L1274.34,176.26z"/>
		</g>
		<path class="st1" d="M1301.85,192.77c0.2,1.18,0.96,2.04,1.69,1.91c0.73-0.13,1.16-1.19,0.95-2.37c-0.2-1.18-0.96-2.04-1.69-1.91
			C1302.08,190.53,1301.65,191.59,1301.85,192.77z"/>
		<g>
			<path class="st1" d="M1298.12,188.54c-0.21,0-0.42-0.08-0.57-0.24c-0.32-0.32-0.32-0.83,0-1.15c3.13-3.13,6.6-2.09,8-1.1
				c0.37,0.26,0.45,0.76,0.2,1.13c-0.26,0.36-0.76,0.45-1.13,0.2c-0.12-0.09-3-2-5.93,0.92
				C1298.54,188.46,1298.33,188.54,1298.12,188.54z"/>
		</g>
		<g>
			<path class="st1" d="M1266.69,205.01c-0.43,0-0.79-0.34-0.81-0.78c-0.12-3.01,0.61-5.29,2.18-6.78c2.12-2.01,4.97-1.75,5.08-1.74
				c0.45,0.04,0.77,0.44,0.73,0.89c-0.04,0.44-0.44,0.77-0.88,0.73c-0.05,0-2.26-0.18-3.83,1.32c-1.21,1.15-1.77,3.01-1.66,5.52
				c0.02,0.45-0.33,0.82-0.78,0.84C1266.71,205.01,1266.7,205.01,1266.69,205.01z"/>
		</g>
		<g>
			<path class="st1" d="M1272.43,204.8c-0.31,0-0.61-0.18-0.74-0.49c-1.25-2.9-4.44-3.84-4.47-3.85c-0.43-0.12-0.68-0.57-0.56-1
				c0.12-0.43,0.57-0.68,1-0.56c0.16,0.05,3.97,1.16,5.52,4.76c0.18,0.41-0.01,0.89-0.42,1.06
				C1272.65,204.78,1272.54,204.8,1272.43,204.8z"/>
		</g>
		<g>
			<g>
				<path class="st0" d="M1190.37,463.09c-0.37-46.64,7.59-97.18,22.44-142.42c13.08-39.83,30.07-71.12,45.55-83.9l30.25,16.79
					c14.95,7.31,22.99,70.52,23.68,94.44c0.76,26.4-0.92,93.68-3.06,123.04L1190.37,463.09z"/>
				<path class="st1" d="M1258.46,237.75l29.77,16.52c0.02,0.01,0.05,0.03,0.07,0.04c6.34,3.1,12.39,18.05,17.03,42.1
					c4,20.72,5.9,42.66,6.16,51.62c0.75,26.14-0.89,92.41-3,122.15l-117.31-7.84c-0.28-46.34,7.66-96.5,22.41-141.41
					C1226.5,281.59,1243.21,250.65,1258.46,237.75 M1258.28,235.79c-30.66,24.69-69.73,124.95-68.71,228.06l120.42,8.05
					c2.14-28.58,3.91-96.69,3.12-123.92c-0.56-19.44-7.91-87.2-24.1-95.12L1258.28,235.79L1258.28,235.79z"/>
			</g>
		</g>
		<g>
			<path class="st1" d="M1271.81,213.33c-0.04,0-0.08,0-0.13-0.01c-2.87-0.45-5.43-2.1-5.54-2.17c-0.37-0.25-0.48-0.75-0.24-1.12
				c0.24-0.38,0.75-0.48,1.12-0.24c0.02,0.02,2.38,1.54,4.9,1.93c0.44,0.07,0.75,0.48,0.68,0.93
				C1272.55,213.05,1272.2,213.33,1271.81,213.33z"/>
		</g>
		<path class="st1" d="M1313.27,210.07l-32.07-6.29l0.75-23.46c4.63-0.1,11.75-0.2,21-0.15c2.57,0.79,5.41,0.84,8.16-0.07
			c4.69-1.54,7.95-5.4,8.96-9.89c0.12-0.32,0.25-0.63,0.34-0.96c2.39-7.9-2.08-16.25-9.98-18.64c-6.31-1.91-12.9,0.57-16.51,5.66
			c-9.35-1.34-20.08-2.8-22.33-3.15c-0.96-0.15-2-0.18-3.13-0.08c-4.33,0.39-11.48,3.51-14.06,16.71
			c-1.26,6.47-1.93,25.45,0.96,34.86c2.2,7.18,8.38,6.39,11.3,7.24c0,0-1.88-2.21-3-5.42c-0.57-1.63-0.6-4.2-0.5-6.34
			c0.14-2.7,1.62-5.17,3.95-6.54c0.66-0.39,1.27-0.67,1.75-0.79c5.7-1.4,6.36,0.63,6.36,0.63l0.01-0.15l0.01,0.08l-2.6,29.48
			c-0.33,3.73,2.31,7.07,6.01,7.61l15.98,2.35C1294.62,232.76,1314.82,233.15,1313.27,210.07z"/>
		<g>
			<path class="st0" d="M1306.13,219.97c-2.32,0-5.84-0.57-8.45-3.52c-0.3-0.34-0.26-0.85,0.07-1.14c0.34-0.29,0.85-0.26,1.14,0.07
				c3.49,3.96,9.24,2.8,9.3,2.79c0.44-0.09,0.87,0.19,0.96,0.62c0.09,0.44-0.19,0.87-0.62,0.96
				C1308.43,219.78,1307.48,219.97,1306.13,219.97z"/>
		</g>
		<g>
			<g>
				<path class="st2" d="M1483.97,311.28l-21.53,26.39c-0.7,0.86-1.96,0.98-2.81,0.29l-13.88-11.32c-0.86-0.7-0.98-1.96-0.29-2.81
					l21.53-26.39c0.7-0.86,1.96-0.98,2.81-0.29l13.88,11.32C1484.54,309.16,1484.67,310.42,1483.97,311.28z"/>
				<path class="st1" d="M1460.91,339.27c-0.59,0-1.19-0.2-1.68-0.6l-14.11-11.51c-1.14-0.93-1.31-2.61-0.38-3.75l21.72-26.62
					c0.93-1.14,2.61-1.31,3.75-0.38l14.11,11.51c1.14,0.93,1.31,2.61,0.38,3.75l0,0l-21.72,26.62
					C1462.45,338.94,1461.69,339.27,1460.91,339.27z M1468.52,297.44c-0.3,0-0.6,0.13-0.81,0.38L1446,324.44
					c-0.36,0.45-0.3,1.1,0.15,1.47l14.11,11.51c0.45,0.36,1.1,0.3,1.47-0.15l21.72-26.62c0.36-0.44,0.3-1.1-0.15-1.47l-14.11-11.51
					C1468.99,297.52,1468.75,297.44,1468.52,297.44z M1484.07,311.16L1484.07,311.16L1484.07,311.16z"/>
			</g>
			
				<rect x="1445.69" y="314.85" transform="matrix(0.6321 -0.7749 0.7749 0.6321 292.7781 1251.7778)" class="st1" width="38.06" height="5.38"/>
		</g>
		<path class="st0" d="M1447.1,307.41l15.98-3.99c2.37-0.59,4.03,2.32,2.3,4.04c-3.21,3.2-7.56,6.69-12.01,7.64
			c0,0-2.15,4.94-7.15,7.12L1447.1,307.41z"/>
		<g>
			<path class="st1" d="M1446.21,323.03c-0.31,0-0.61-0.18-0.74-0.49c-0.18-0.41,0.01-0.89,0.42-1.07c4.64-2.02,6.71-6.65,6.73-6.7
				c0.1-0.24,0.32-0.41,0.57-0.47c4.38-0.93,8.73-4.55,11.61-7.42c0.63-0.63,0.55-1.4,0.26-1.91c-0.29-0.52-0.91-0.99-1.79-0.77
				l-15.98,3.99c-0.43,0.11-0.87-0.16-0.98-0.59c-0.11-0.43,0.16-0.87,0.59-0.98l15.98-3.99c1.43-0.36,2.87,0.27,3.59,1.54
				c0.73,1.29,0.53,2.81-0.53,3.86c-4.26,4.25-8.3,6.86-12.02,7.77c-0.63,1.25-2.92,5.21-7.39,7.16
				C1446.43,323.01,1446.32,323.03,1446.21,323.03z"/>
		</g>
		<g>
			<path class="st0" d="M1263.97,483.78c-0.08-1.18-0.25-2.35-0.54-3.5c-0.75-2.95-2.6-8.4-6.87-13.61
				c-10-13.48-28.21-98.52,7.41-154.6l-56-9.35c0,0-33.52,84.8,25.51,165.78l7.33,28.34c0.14,2.26,1.46,4.06,3.72,3.91
				c2.26-0.14,3.97-2.09,3.83-4.35l-0.53-8.34l8.18-0.52l0.64,10.12c0.14,2.26,2.09,3.97,4.35,3.83c2.26-0.14,3.97-2.09,3.83-4.35
				L1263.97,483.78z"/>
			<path class="st1" d="M1260.73,502.31c-2.57,0-4.73-2-4.9-4.6l-0.59-9.31l-6.56,0.42l0.48,7.53c0.08,1.31-0.35,2.57-1.21,3.56
				c-0.87,0.98-2.06,1.57-3.37,1.66c-1.32,0.08-2.47-0.37-3.31-1.33c-0.72-0.81-1.17-1.97-1.26-3.26l-7.27-28.12
				c-30.55-41.98-35.87-84.96-34.95-113.64c0.99-31.1,9.35-52.58,9.44-52.79c0.14-0.36,0.51-0.56,0.89-0.5l56.01,9.35
				c0.27,0.04,0.5,0.22,0.61,0.47c0.11,0.25,0.09,0.54-0.06,0.76c-19.19,30.21-21.84,67.14-20.68,92.8
				c1.41,31.25,8.73,54.8,13.24,60.88c4.38,5.35,6.27,11,7.01,13.9c0.29,1.16,0.48,2.38,0.56,3.65c0,0,0,0,0,0l0.85,13.36
				c0.17,2.7-1.89,5.04-4.59,5.21C1260.94,502.31,1260.83,502.31,1260.73,502.31z M1256,486.74c0.2,0,0.39,0.07,0.54,0.2
				c0.16,0.14,0.26,0.34,0.27,0.56l0.64,10.11c0.12,1.81,1.68,3.19,3.49,3.07c0.88-0.06,1.68-0.45,2.26-1.11
				c0.58-0.66,0.87-1.51,0.81-2.38l-0.85-13.36c-0.08-1.17-0.25-2.3-0.52-3.36c-0.7-2.76-2.5-8.16-6.71-13.3
				c-5.54-7.47-12.29-33.21-13.58-61.81c-1.15-25.6,1.46-62.33,20.28-92.71l-54.15-9.04c-1.35,3.69-8.21,23.77-9.1,51.7
				c-0.9,28.43,4.4,71.07,34.74,112.69c0.06,0.08,0.1,0.18,0.13,0.27l7.33,28.34c0.01,0.05,0.02,0.1,0.02,0.15
				c0.06,0.97,0.37,1.81,0.87,2.37c0.5,0.57,1.18,0.84,1.99,0.78c0.88-0.06,1.68-0.45,2.26-1.11c0.58-0.66,0.87-1.5,0.81-2.38
				l-0.53-8.34c-0.01-0.21,0.06-0.43,0.2-0.59c0.14-0.16,0.34-0.26,0.56-0.27l8.18-0.52C1255.96,486.74,1255.98,486.74,1256,486.74z
				"/>
		</g>
		<g>
			<path class="st0" d="M1247.82,486.93l0.82,12.86c0.14,2.26,2.09,3.97,4.35,3.83l0,0c2.26-0.14,3.97-2.09,3.83-4.35l-0.82-12.86"
				/>
			<path class="st1" d="M1252.72,504.44c-1.19,0-2.33-0.43-3.24-1.22c-0.98-0.87-1.57-2.06-1.66-3.37l-0.82-12.86
				c-0.03-0.45,0.31-0.83,0.76-0.86c0.44-0.04,0.83,0.31,0.86,0.76l0.82,12.86c0.06,0.88,0.45,1.68,1.11,2.26s1.5,0.87,2.38,0.81
				c1.81-0.12,3.19-1.68,3.07-3.49l-0.82-12.86c-0.03-0.45,0.31-0.83,0.76-0.86c0.44-0.04,0.83,0.31,0.86,0.76l0.82,12.86
				c0.08,1.31-0.35,2.57-1.21,3.56c-0.87,0.98-2.07,1.57-3.37,1.66C1252.93,504.43,1252.82,504.44,1252.72,504.44z"/>
		</g>
		<g>
			<path class="st0" d="M1258.82,324.8c0,0,29.48-58.84,12.94-73.64c-21.79-19.49-59.35,8.04-70.58,51.48L1258.82,324.8z"/>
			<path class="st1" d="M1258.82,325.61c-0.1,0-0.2-0.02-0.29-0.05l-57.64-22.16c-0.38-0.15-0.6-0.56-0.49-0.96
				c7.14-27.6,25.93-51.05,45.69-57.03c10-3.03,19.07-1.24,26.22,5.15c16.81,15.04-11.54,72.18-12.76,74.6
				C1259.4,325.44,1259.12,325.61,1258.82,325.61z M1202.14,302.14l56.27,21.63c3.15-6.49,27.77-58.62,12.8-72.01
				c-6.71-6-15.24-7.67-24.67-4.81C1227.47,252.73,1209.28,275.37,1202.14,302.14z"/>
		</g>
	</g>
	<g>
		<g>
			<rect x="649.49" y="642.93" class="st2" width="46.35" height="74.84"/>
			<path class="st1" d="M695.83,718.58h-46.35c-0.45,0-0.81-0.36-0.81-0.81v-74.84c0-0.45,0.36-0.81,0.81-0.81h46.35
				c0.45,0,0.81,0.36,0.81,0.81v74.84C696.64,718.22,696.28,718.58,695.83,718.58z M650.3,716.96h44.73v-73.22H650.3V716.96z"/>
		</g>
		<rect x="688" y="642.93" class="st1" width="7.83" height="74.84"/>
		<g>
			<g>
				<path class="st0" d="M559.11,620.58L559.11,620.58c4.99-0.95,8.27-5.77,7.32-10.77l-19.54-102.44
					c-0.95-4.99-5.77-8.27-10.77-7.32l0,0c-4.99,0.95-8.27,5.77-7.32,10.77l19.54,102.44C549.29,618.25,554.11,621.53,559.11,620.58
					z"/>
				<path class="st1" d="M557.38,621.55c-4.71,0-8.92-3.35-9.83-8.14L528,510.97c-1.04-5.42,2.54-10.68,7.96-11.72
					c5.42-1.04,10.68,2.54,11.71,7.96l19.54,102.44c1.03,5.42-2.54,10.68-7.96,11.72l0,0C558.63,621.49,558,621.55,557.38,621.55z
					 M559.11,620.58L559.11,620.58L559.11,620.58z M537.84,500.7c-0.52,0-1.05,0.05-1.58,0.15c-4.55,0.87-7.54,5.27-6.67,9.82
					l19.54,102.44c0.87,4.55,5.28,7.54,9.82,6.67l0,0c4.55-0.87,7.54-5.27,6.67-9.82l-19.54-102.44
					C545.32,503.5,541.79,500.7,537.84,500.7z"/>
			</g>
			<path class="st1" d="M546.32,552l8.66-1.65c0.69-0.13,1.15-0.8,1.01-1.49l-0.14-0.73c-0.13-0.69-0.8-1.15-1.49-1.01l-8.66,1.65
				c-0.69,0.13-1.15,0.8-1.01,1.49l0.14,0.73C544.96,551.68,545.63,552.14,546.32,552z"/>
			<path class="st1" d="M540.14,522.18l8.66-1.65c0.69-0.13,1.15-0.8,1.01-1.49l-0.14-0.73c-0.13-0.69-0.8-1.15-1.49-1.01
				l-8.66,1.65c-0.69,0.13-1.15,0.8-1.01,1.49l0.14,0.73C538.78,521.86,539.45,522.31,540.14,522.18z"/>
			<path class="st1" d="M543.08,537.6l8.66-1.65c0.69-0.13,1.15-0.8,1.01-1.49l-0.14-0.73c-0.13-0.69-0.8-1.15-1.49-1.01l-8.66,1.65
				c-0.69,0.13-1.15,0.8-1.01,1.49l0.14,0.73C541.72,537.27,542.39,537.73,543.08,537.6z"/>
			<g>
				<path class="st0" d="M545.77,630.6L545.77,630.6c4.89-1.39,7.72-6.49,6.33-11.37l-28.58-100.29c-1.39-4.89-6.49-7.72-11.37-6.33
					h0c-4.89,1.39-7.72,6.49-6.33,11.37l28.58,100.29C535.79,629.16,540.88,631.99,545.77,630.6z"/>
				<path class="st1" d="M543.25,631.77c-4.36,0-8.38-2.87-9.64-7.27l-28.58-100.3c-0.73-2.57-0.42-5.28,0.88-7.61
					c1.3-2.34,3.43-4.03,6.01-4.76c2.57-0.73,5.28-0.42,7.61,0.88c2.34,1.3,4.03,3.43,4.76,6.01L552.88,619
					c0.73,2.57,0.42,5.28-0.88,7.62c-1.3,2.34-3.43,4.03-6.01,4.76l0,0C545.08,631.64,544.16,631.77,543.25,631.77z M514.68,513.06
					c-0.77,0-1.55,0.11-2.31,0.32c-2.16,0.61-3.94,2.03-5.03,3.99c-1.09,1.96-1.35,4.23-0.74,6.38l28.58,100.3
					c1.27,4.45,5.92,7.05,10.37,5.77l0,0c2.16-0.61,3.94-2.03,5.03-3.99c1.09-1.96,1.35-4.23,0.74-6.38l-28.58-100.3
					c-0.61-2.16-2.03-3.94-3.99-5.03C517.49,513.42,516.09,513.06,514.68,513.06z"/>
			</g>
			<path class="st1" d="M526.47,563.57l8.48-2.42c0.68-0.19,1.07-0.9,0.88-1.58l-0.2-0.71c-0.19-0.68-0.9-1.07-1.58-0.88l-8.48,2.42
				c-0.68,0.19-1.07,0.9-0.88,1.58l0.2,0.71C525.09,563.37,525.79,563.77,526.47,563.57z"/>
			<path class="st1" d="M518.12,534.28l8.48-2.42c0.68-0.19,1.07-0.9,0.88-1.58l-0.2-0.71c-0.19-0.68-0.9-1.07-1.58-0.88l-8.48,2.42
				c-0.68,0.19-1.07,0.9-0.88,1.58l0.2,0.71C516.74,534.08,517.45,534.48,518.12,534.28z"/>
			<path class="st1" d="M522.43,549.38l8.48-2.42c0.68-0.19,1.07-0.9,0.88-1.58l-0.2-0.71c-0.19-0.68-0.9-1.07-1.58-0.88l-8.48,2.42
				c-0.68,0.19-1.07,0.9-0.88,1.58l0.2,0.71C521.04,549.18,521.75,549.57,522.43,549.38z"/>
			<g>
				<path class="st0" d="M532.43,621.39L532.43,621.39c4.93,1.23,9.93-1.78,11.15-6.71l25.16-101.21c1.23-4.93-1.78-9.93-6.71-11.15
					l0,0c-4.93-1.23-9.93,1.78-11.15,6.71l-25.16,101.21C524.49,615.17,527.49,620.17,532.43,621.39z"/>
				<path class="st1" d="M534.66,622.48c-0.81,0-1.63-0.1-2.43-0.3c-2.6-0.65-4.79-2.26-6.17-4.56c-1.38-2.29-1.78-4.98-1.14-7.58
					l25.16-101.21c1.33-5.36,6.78-8.63,12.14-7.3c2.6,0.65,4.79,2.26,6.17,4.56c1.38,2.29,1.78,4.98,1.14,7.58l-25.16,101.21
					c-0.65,2.6-2.26,4.79-4.56,6.16C538.23,621.99,536.46,622.48,534.66,622.48z M559.81,502.86c-3.77,0-7.2,2.55-8.15,6.37
					L526.5,610.44c-1.12,4.49,1.63,9.05,6.12,10.17c4.49,1.12,9.06-1.63,10.17-6.12l25.16-101.21c1.12-4.49-1.63-9.06-6.12-10.17
					C561.16,502.94,560.48,502.86,559.81,502.86z"/>
			</g>
			<path class="st1" d="M549.07,553.66l8.55,2.13c0.68,0.17,1.38-0.25,1.55-0.93l0.18-0.72c0.17-0.68-0.25-1.38-0.93-1.55
				l-8.55-2.13c-0.68-0.17-1.38,0.25-1.55,0.93l-0.18,0.72C547.97,552.79,548.38,553.49,549.07,553.66z"/>
			<path class="st1" d="M556.42,524.1l8.55,2.13c0.68,0.17,1.38-0.25,1.55-0.93l0.18-0.72c0.17-0.68-0.25-1.38-0.93-1.55l-8.55-2.13
				c-0.68-0.17-1.38,0.25-1.55,0.93l-0.18,0.72C555.31,523.24,555.73,523.93,556.42,524.1z"/>
			<path class="st1" d="M552.63,539.33l8.55,2.13c0.68,0.17,1.38-0.25,1.55-0.93l0.18-0.72c0.17-0.68-0.25-1.38-0.93-1.55
				l-8.55-2.13c-0.68-0.17-1.38,0.25-1.55,0.93l-0.18,0.72C551.53,538.47,551.94,539.16,552.63,539.33z"/>
			<g>
				<polygon class="st1" points="520.33,566.49 526.61,555.62 532.89,566.49 539.27,555.44 545.65,566.49 552.03,555.44 
					552.15,555.44 558.53,566.49 564.91,555.44 565.05,555.44 571.43,566.49 577.81,555.44 577.81,643.9 514.01,643.9 
					514.01,555.55 				"/>
			</g>
		</g>
		<g>
			<path class="st2" d="M581.37,624.58c-3.49,6.32-0.49,14.32,6,17.5c6.49,3.18,14.23,0.44,17.5-6
				C611.52,622.97,588.92,610.93,581.37,624.58z"/>
			<path class="st1" d="M593.12,644.24c-2.05,0-4.13-0.46-6.11-1.43c-3.48-1.7-6.14-4.79-7.3-8.47c-1.09-3.46-0.75-7.06,0.95-10.14
				l0,0c4.18-7.57,12.46-7.64,18.38-4.5c8.15,4.32,9.1,11.71,6.54,16.75C603.08,641.4,598.21,644.24,593.12,644.24z M582.08,624.97
				c-1.49,2.69-1.78,5.84-0.82,8.87c1.03,3.26,3.39,6,6.47,7.5c6.09,2.98,13.3,0.5,16.42-5.64c3.16-6.22-0.82-11.92-5.86-14.59
				C593.04,618.35,585.73,618.37,582.08,624.97L582.08,624.97z"/>
		</g>
		<g>
			<path class="st1" d="M594.42,630.26c-0.07,0-0.14-0.01-0.21-0.03c-3.45-0.95-3.4-3.56-3.4-3.67c0.01-0.45,0.36-0.8,0.84-0.79
				c0.44,0.01,0.79,0.38,0.78,0.82c0,0.16,0.08,1.48,2.21,2.07c0.43,0.12,0.69,0.56,0.57,1
				C595.11,630.02,594.78,630.26,594.42,630.26z"/>
		</g>
		<g>
			<path class="st2" d="M676.33,697.57c-3.75,6.79-0.53,15.37,6.44,18.78c6.96,3.41,15.27,0.48,18.78-6.44
				C708.69,695.84,684.43,682.91,676.33,697.57z"/>
			<path class="st1" d="M688.94,718.6c-2.19,0-4.42-0.49-6.53-1.53c-3.72-1.82-6.56-5.12-7.8-9.06c-1.17-3.7-0.81-7.55,1.01-10.84
				l0,0c4.47-8.09,13.32-8.16,19.65-4.8c8.71,4.62,9.73,12.52,7,17.9C699.59,715.57,694.38,718.6,688.94,718.6z M677.04,697.96
				c-1.6,2.9-1.92,6.3-0.89,9.57c1.11,3.52,3.65,6.46,6.97,8.09c6.57,3.21,14.34,0.55,17.7-6.08c3.41-6.71-0.88-12.86-6.31-15.74
				C688.86,690.81,680.98,690.83,677.04,697.96L677.04,697.96z"/>
		</g>
		<g>
			<path class="st1" d="M690.34,703.6c-0.07,0-0.14-0.01-0.21-0.03c-3.65-1-3.61-3.76-3.61-3.88c0.01-0.45,0.35-0.79,0.84-0.79
				c0.44,0.01,0.79,0.38,0.78,0.82c0,0.17,0.08,1.63,2.41,2.27c0.43,0.12,0.69,0.56,0.57,1C691.02,703.36,690.7,703.6,690.34,703.6z
				"/>
		</g>
		<g>
			<g>
				<path class="st2" d="M561.6,630.11c0,8.01,6.5,14.51,14.51,14.51c8.01,0,14.51-6.5,14.51-14.51c0-14.17-14.51-8.68-14.51-8.68
					C569.58,618.48,561.6,622.09,561.6,630.11z"/>
				<path class="st1" d="M576.11,645.43c-8.45,0-15.32-6.87-15.32-15.32c0-3.75,1.62-6.87,4.57-8.77c3.09-2,7.19-2.29,10.78-0.78
					c1.46-0.49,7.47-2.25,11.56,0.58c2.48,1.71,3.73,4.73,3.73,8.97C591.44,638.56,584.56,645.43,576.11,645.43z M571.42,621.22
					c-1.85,0-3.66,0.5-5.17,1.48c-2.47,1.6-3.83,4.23-3.83,7.41c0,7.55,6.15,13.7,13.7,13.7c7.55,0,13.7-6.15,13.7-13.7
					c0-3.68-1.02-6.25-3.03-7.64c-3.88-2.69-10.32-0.31-10.38-0.29c-0.2,0.08-0.42,0.07-0.62-0.02
					C574.38,621.53,572.89,621.22,571.42,621.22z"/>
			</g>
			<g>
				<path class="st1" d="M576.11,625.57c-0.37,0-0.71-0.26-0.79-0.63c-0.08-0.34-1.81-8.35,2.57-15.03
					c0.25-0.38,0.75-0.48,1.12-0.23c0.37,0.25,0.48,0.75,0.23,1.12c-4.01,6.11-2.36,13.71-2.35,13.78c0.1,0.44-0.18,0.87-0.61,0.97
					C576.23,625.57,576.17,625.57,576.11,625.57z"/>
			</g>
		</g>
		<g>
			<g>
				<g>
					<g>
						<path class="st2" d="M654.61,717.66c-1.63,0-2.46-0.48-2.71-0.66c-8.96-16.95-25.98-49.61-26.74-52.83
							c-0.9-3.88,2.09-10.39,2.12-10.46c0.1-0.23,0.1-0.49-0.01-0.71l-2.95-5.84l7.63-3.86l2.95,5.83c0.11,0.22,0.32,0.38,0.56,0.43
							c0.07,0.01,7.1,1.47,9.68,4.49c2.15,2.52,18.36,35.58,26.7,52.85c-0.02,0.62-0.47,4.24-8.54,7.79
							C659.91,716.66,656.93,717.66,654.61,717.66z"/>
						<path class="st1" d="M631.6,644.4l2.58,5.11c0.22,0.44,0.64,0.76,1.13,0.86c1.89,0.38,7.23,1.88,9.22,4.22
							c1.94,2.27,16.84,32.49,26.49,52.47c-0.11,0.79-1.02,3.81-8.03,6.9c-0.05,0.02-0.1,0.05-0.16,0.08
							c-4.04,2.32-6.7,2.81-8.22,2.81c-1.15,0-1.81-0.27-2.1-0.43c-10.37-19.62-25.88-49.53-26.56-52.44
							c-0.7-2.98,1.26-8.18,2.07-9.93c0.21-0.45,0.2-0.97-0.02-1.41l-2.58-5.11l3.09-1.56L631.6,644.4 M632.32,642.22l-4.54,2.3
							l-4.54,2.3l3.32,6.56c0,0-3.15,6.79-2.18,10.98c0.98,4.19,26.89,53.17,26.89,53.17s0.97,0.95,3.35,0.95
							c1.97,0,4.9-0.65,9.03-3.03c9.64-4.24,9.01-8.74,9.01-8.74s-24.09-49.9-26.89-53.17c-2.8-3.27-10.13-4.76-10.13-4.76
							L632.32,642.22L632.32,642.22z"/>
					</g>
				</g>
			</g>
			<g>
				<g>
					
						<rect x="620.14" y="633.82" transform="matrix(0.8924 -0.4512 0.4512 0.8924 -221.2823 350.9281)" class="st1" width="10.18" height="11.31"/>
				</g>
			</g>
			<g>
				<g>
					<g>
						<path class="st2" d="M616.96,632.61c-0.17-0.34-0.2-0.73-0.08-1.09c0.12-0.36,0.37-0.66,0.72-0.83l5.07-2.57
							c0.2-0.1,0.42-0.15,0.64-0.15c0.55,0,1.04,0.3,1.28,0.79l1.53,3.02l-7.63,3.86L616.96,632.61z"/>
						<path class="st1" d="M623.32,628.77c0.19,0,0.43,0.09,0.56,0.34l1.16,2.3l-6.19,3.13l-1.16-2.3
							c-0.16-0.31-0.03-0.68,0.28-0.84l5.07-2.57C623.12,628.8,623.22,628.77,623.32,628.77 M623.32,627.15
							c-0.34,0-0.69,0.08-1.01,0.24l-5.07,2.57c-1.11,0.56-1.55,1.91-0.99,3.02l1.9,3.75l9.08-4.59l-1.9-3.75
							C624.92,627.6,624.13,627.15,623.32,627.15L623.32,627.15z"/>
					</g>
				</g>
			</g>
			<g>
				<g>
					
						<rect x="635.1" y="674.7" transform="matrix(-0.8924 0.4512 -0.4512 -0.8924 1533.8511 1001.4412)" class="st1" width="24.87" height="17.79"/>
				</g>
			</g>
			<g>
				<g>
					<path class="st0" d="M644.52,685.27c1.04,2.05,3.25,3.01,4.95,2.15c1.7-0.86,2.24-3.22,1.2-5.26
						c-1.04-2.05-3.25-3.01-4.95-2.15C644.02,680.87,643.48,683.22,644.52,685.27z"/>
				</g>
			</g>
		</g>
		<g>
			<rect x="489.25" y="643.63" class="st2" width="134.33" height="74.84"/>
			<path class="st1" d="M623.58,719.29H489.25c-0.45,0-0.81-0.36-0.81-0.81v-74.84c0-0.45,0.36-0.81,0.81-0.81h134.33
				c0.45,0,0.81,0.36,0.81,0.81v74.84C624.39,718.92,624.03,719.29,623.58,719.29z M490.06,717.66h132.7v-73.22h-132.7V717.66z"/>
		</g>
		<rect x="489.25" y="662.55" class="st1" width="134.33" height="10.41"/>
		<rect x="600.87" y="643.63" class="st1" width="22.7" height="74.84"/>
		<g>
			<g>
				<path class="st1" d="M687.68,719.29H478.85c-0.4,0-0.74-0.29-0.8-0.69l-34.53-228.46c-0.04-0.23,0.03-0.47,0.19-0.65
					c0.15-0.18,0.38-0.28,0.61-0.28h344.82c0.24,0,0.48,0.11,0.63,0.3c0.15,0.19,0.21,0.44,0.16,0.68l-37.38,176.53
					C746.1,697.18,718.82,719.29,687.68,719.29z M479.54,717.66h208.14c30.37,0,56.99-21.57,63.28-51.28l37.17-175.55H445.26
					L479.54,717.66z"/>
			</g>
			<g>
				<path class="st1" d="M755.79,793.17H528.62c-22.91,0-42.11-16.43-45.66-39.06l-46.82-293.15c-2.11-13.27-13.4-22.9-26.83-22.9
					h-49.82c-1.02,0-1.85-0.83-1.85-1.85s0.83-1.85,1.85-1.85h49.82c15.27,0,28.09,10.94,30.49,26.02l46.82,293.16
					c3.26,20.82,20.93,35.93,42,35.93h227.17c1.02,0,1.85,0.83,1.85,1.85C757.64,792.34,756.81,793.17,755.79,793.17z"/>
			</g>
			<circle class="st1" cx="515.91" cy="808.47" r="19.24"/>
			
				<ellipse transform="matrix(0.7071 -0.7071 0.7071 0.7071 -420.5714 601.5988)" class="st0" cx="515.91" cy="808.47" rx="7.67" ry="7.67"/>
			
				<ellipse transform="matrix(0.634 -0.7733 0.7733 0.634 -364.4453 851.0889)" class="st1" cx="716.91" cy="810.56" rx="19.24" ry="19.24"/>
			
				<ellipse transform="matrix(0.3052 -0.9523 0.9523 0.3052 -273.7709 1245.9038)" class="st0" cx="716.91" cy="810.56" rx="7.67" ry="7.67"/>
			<g>
				<path class="st1" d="M523.58,719.29c-0.39,0-0.74-0.29-0.8-0.69l-34.32-228.46c-0.07-0.44,0.24-0.86,0.68-0.92
					c0.44-0.07,0.86,0.24,0.92,0.68l34.32,228.46c0.07,0.44-0.24,0.86-0.68,0.92C523.66,719.28,523.62,719.29,523.58,719.29z"/>
			</g>
			<g>
				<path class="st1" d="M554.81,719.29c-0.43,0-0.78-0.33-0.81-0.76l-13.48-228.46c-0.03-0.45,0.31-0.83,0.76-0.86
					c0.44-0.03,0.83,0.31,0.86,0.76l13.48,228.46c0.03,0.45-0.31,0.83-0.76,0.86C554.84,719.29,554.82,719.29,554.81,719.29z"/>
			</g>
			<g>
				<path class="st1" d="M682.02,719.29c-0.02,0-0.03,0-0.05,0c-0.45-0.03-0.79-0.41-0.76-0.86l13.48-228.46
					c0.03-0.45,0.42-0.78,0.86-0.76c0.45,0.03,0.79,0.41,0.76,0.86l-13.48,228.46C682.8,718.95,682.44,719.29,682.02,719.29z"/>
			</g>
			<g>
				<path class="st1" d="M712.36,714.47c-0.04,0-0.08,0-0.12-0.01c-0.44-0.07-0.75-0.48-0.68-0.92l33.6-223.64
					c0.07-0.44,0.48-0.75,0.92-0.68c0.44,0.07,0.75,0.48,0.68,0.92l-33.6,223.64C713.1,714.18,712.75,714.47,712.36,714.47z"/>
			</g>
			<g>
				<path class="st1" d="M596.86,719.29c-0.44,0-0.8-0.35-0.81-0.8l-3.55-228.46c-0.01-0.45,0.35-0.82,0.8-0.82
					c0.44,0,0.82,0.35,0.82,0.8l3.55,228.46c0.01,0.45-0.35,0.82-0.8,0.82C596.87,719.29,596.86,719.29,596.86,719.29z"/>
			</g>
			<g>
				<path class="st1" d="M638.72,719.29c-0.01,0-0.02,0-0.03,0c-0.45-0.02-0.8-0.39-0.78-0.84l8.51-228.46
					c0.02-0.45,0.36-0.81,0.84-0.78c0.45,0.02,0.8,0.39,0.78,0.84l-8.51,228.46C639.51,718.94,639.15,719.29,638.72,719.29z"/>
			</g>
			<g>
				<path class="st1" d="M776.64,549.83H451.7c-0.45,0-0.81-0.36-0.81-0.81c0-0.45,0.36-0.81,0.81-0.81h324.94
					c0.45,0,0.81,0.36,0.81,0.81C777.45,549.46,777.09,549.83,776.64,549.83z"/>
			</g>
			<g>
				<path class="st1" d="M767,595.36H458.84c-0.45,0-0.81-0.36-0.81-0.81c0-0.45,0.36-0.81,0.81-0.81H767
					c0.45,0,0.81,0.36,0.81,0.81C767.81,595,767.45,595.36,767,595.36z"/>
			</g>
			<g>
				<path class="st1" d="M757.82,638.72H466.67c-0.45,0-0.81-0.36-0.81-0.81c0-0.45,0.36-0.81,0.81-0.81h291.15
					c0.45,0,0.81,0.36,0.81,0.81C758.63,638.36,758.27,638.72,757.82,638.72z"/>
			</g>
			<g>
				<path class="st1" d="M748.29,678.61H471.89c-0.45,0-0.81-0.36-0.81-0.81c0-0.45,0.36-0.81,0.81-0.81h276.41
					c0.45,0,0.81,0.36,0.81,0.81C749.11,678.24,748.74,678.61,748.29,678.61z"/>
			</g>
			<g>
				<path class="st2" d="M402.76,442.29h-41.33c-3.36,0-6.08-2.72-6.08-6.08l0,0c0-3.36,2.72-6.08,6.08-6.08h41.33
					c3.36,0,6.08,2.72,6.08,6.08l0,0C408.84,439.57,406.11,442.29,402.76,442.29z"/>
				<path class="st1" d="M402.76,443.1h-41.33c-3.8,0-6.89-3.09-6.89-6.89s3.09-6.89,6.89-6.89h41.33c3.8,0,6.89,3.09,6.89,6.89
					S406.56,443.1,402.76,443.1z M361.42,430.94c-2.91,0-5.27,2.36-5.27,5.27c0,2.91,2.36,5.27,5.27,5.27h41.33
					c2.91,0,5.27-2.36,5.27-5.27c0-2.91-2.36-5.27-5.27-5.27H361.42z"/>
			</g>
		</g>
		<g>
			<g>
				<g>
					<path class="st0" d="M228.01,818.95c-9.09-0.14-14.4-17.63-14.89-19.29l16.35-285.48l61.01,14.85l-62.53,274.36
						c-0.06,0.25,0.01,0.51,0.17,0.7l8.18,9.63c0.03,0.49,0.01,1.82-1,3c-1.26,1.48-3.6,2.23-6.96,2.23L228.01,818.95z"/>
					<path class="st1" d="M230.22,515.19l59.29,14.43L227.16,803.2c-0.11,0.5,0.01,1.02,0.34,1.41l7.99,9.41
						c-0.01,0.48-0.13,1.36-0.8,2.15c-1.08,1.28-3.28,1.96-6.35,1.96c-0.11,0-0.22,0-0.33,0c-7.26-0.11-12.55-13.2-14.08-18.57
						L230.22,515.19 M228.72,513.16L212.3,799.74c0,0,5.47,19.86,15.69,20.01c0.12,0,0.24,0,0.36,0c9.84,0,8.73-6.37,8.73-6.37
						l-8.34-9.82l62.71-275.14L228.72,513.16L228.72,513.16z"/>
				</g>
				<path class="st1" d="M237.06,813.5c-11.61,3.2-24.78-13.64-24.78-13.64l-10.11,17.1l50.84,12.84L237.06,813.5z"/>
			</g>
			<g>
				<path class="st0" d="M345.95,825.05c-8.39,0-16.56-14.16-17.35-15.59l-48.68-281.77l62.79,0.66l1.18,281.39
					c0,0.26,0.12,0.49,0.33,0.65l10.15,7.53c0.14,0.48,0.42,1.79-0.31,3.17c-0.92,1.75-3.2,3.06-6.59,3.79
					C346.97,824.99,346.46,825.05,345.95,825.05z"/>
				<path class="st1" d="M280.87,528.51l61.02,0.64l1.18,280.59c0,0.51,0.24,0.99,0.65,1.29l9.92,7.36c0.1,0.49,0.18,1.4-0.32,2.34
					c-0.82,1.52-2.9,2.68-6.03,3.36c-0.44,0.09-0.89,0.14-1.34,0.14c-6.77,0-14.13-10.64-16.58-15.04L280.87,528.51 M278.94,526.87
					l48.87,282.87c0,0,8.75,16.12,18.13,16.12c0.56,0,1.12-0.06,1.68-0.18c9.99-2.16,7.41-8.26,7.41-8.26l-10.35-7.68l-1.19-282.19
					L278.94,526.87L278.94,526.87z"/>
			</g>
			<g>
				<path class="st0" d="M260.42,412.69c0,0-6.25-117.66,38.4-143.23l29.35,4.89c10.79,10.56,14.16,27.23,13.45,45.7
					c5.18,3.53,8.4,9.64,7.9,16.35c-0.56,7.55-5.65,13.67-12.41,15.91c-8.35,37.52-25.14,72.57-25.14,72.57L260.42,412.69z"/>
				<path class="st1" d="M311.97,425.7c-0.06,0-0.12-0.01-0.19-0.02l-51.55-12.2c-0.35-0.08-0.6-0.39-0.62-0.75
					c-0.02-0.29-1.52-29.86,2.46-62.17c5.37-43.54,17.6-71.07,36.35-81.8c0.16-0.09,0.35-0.13,0.54-0.1l29.35,4.89
					c0.16,0.03,0.31,0.1,0.43,0.22c9.82,9.62,14.43,25.05,13.7,45.87c5.36,3.85,8.37,10.25,7.88,16.82
					c-0.56,7.52-5.46,13.93-12.53,16.47c-8.31,37.02-24.93,71.95-25.1,72.3C312.56,425.52,312.28,425.7,311.97,425.7z M261.2,412.04
					l50.32,11.9c2.22-4.76,17.15-37.45,24.8-71.81c0.06-0.28,0.27-0.5,0.54-0.59c6.69-2.21,11.34-8.18,11.86-15.2
					c0.46-6.15-2.44-12.13-7.55-15.62c-0.23-0.16-0.36-0.42-0.35-0.7c0.79-20.44-3.6-35.55-13.02-44.91l-28.81-4.8
					C257.15,294.69,260.81,402.92,261.2,412.04z"/>
			</g>
			<g>
				<path class="st0" d="M298.82,269.47l3.13-31.7c0,0-10.28,1.49-10.34-9.27c-0.02-3.95,2.92-6.31,4.18-6.83l8.35-26.3l49.38,13.61
					l-2.28,20l-5.62,21.77c-1.78,7.5-7.86,12.86-15.01,14.07l-0.9,0.13l-1.54,9.41C328.17,274.36,318.79,295.65,298.82,269.47z"/>
				<path class="st1" d="M317.08,283.33c-5.78,0-12.13-4.49-18.91-13.37c-0.12-0.16-0.18-0.37-0.16-0.57l3.04-30.74
					c-1.59,0.04-4.73-0.17-7.14-2.25c-2.04-1.75-3.08-4.41-3.1-7.9c-0.02-3.96,2.7-6.55,4.32-7.41l8.24-25.97
					c0.13-0.42,0.57-0.65,0.99-0.54l49.38,13.61c0.38,0.11,0.64,0.48,0.59,0.87l-2.28,20c0,0.04-0.01,0.07-0.02,0.11l-5.62,21.77
					c-1.8,7.6-7.95,13.36-15.66,14.67l-0.33,0.05l-1.45,8.83c-0.01,0.07-0.03,0.13-0.06,0.2c-0.14,0.32-3.48,7.73-10.54,8.57
					C317.95,283.31,317.52,283.33,317.08,283.33z M299.66,269.23c6.84,8.89,13.07,13.07,18.53,12.42c5.77-0.69,8.82-6.73,9.2-7.53
					l1.53-9.3c0.06-0.35,0.33-0.62,0.68-0.67l0.9-0.13c7.05-1.2,12.69-6.48,14.34-13.46l5.61-21.73l2.19-19.25l-47.96-13.22
					l-8.11,25.56c-0.07,0.23-0.24,0.41-0.46,0.5c-1.16,0.48-3.69,2.67-3.67,6.07c0.02,3,0.87,5.24,2.54,6.68
					c2.75,2.37,6.83,1.8,6.87,1.8c0.25-0.04,0.5,0.04,0.68,0.22c0.18,0.17,0.27,0.42,0.25,0.67L299.66,269.23z"/>
			</g>
			<path class="st1" d="M342.15,234.08c-0.26,1.11,0.08,2.14,0.77,2.3c0.69,0.16,1.45-0.61,1.72-1.72c0.26-1.11-0.08-2.14-0.77-2.3
				C343.18,232.2,342.41,232.97,342.15,234.08z"/>
			<path class="st1" d="M325.85,230.22c-0.26,1.11,0.08,2.14,0.77,2.3c0.69,0.16,1.45-0.61,1.72-1.72c0.26-1.11-0.08-2.14-0.77-2.3
				C326.88,228.34,326.11,229.11,325.85,230.22z"/>
			<g>
				<path class="st1" d="M333.3,248.79c-0.27,0-0.53-0.13-0.68-0.37c-0.24-0.38-0.13-0.88,0.24-1.12l1.84-1.19
					c0.74-0.48,0.87-1.26,0.74-1.82c-0.13-0.57-0.58-1.21-1.46-1.32c-0.24-0.03-0.45-0.16-0.58-0.36c-0.13-0.2-0.17-0.44-0.1-0.67
					l2.38-8.33c0.12-0.43,0.58-0.68,1-0.56c0.43,0.12,0.68,0.57,0.56,1l-2.15,7.54c0.97,0.41,1.69,1.25,1.94,2.32
					c0.32,1.39-0.25,2.78-1.44,3.55l-1.84,1.19C333.6,248.74,333.45,248.79,333.3,248.79z"/>
			</g>
			<path class="st1" d="M336.86,254.27c-2.5,0.59-7.5,1.14-11.59-2.4c-0.52-0.45-1.31,0.01-1.15,0.67c0.58,2.45,2.07,6.15,5.86,6.94
				c3.97,0.82,6.48-2.16,7.67-4.12C337.98,254.81,337.49,254.12,336.86,254.27z"/>
			<g>
				<path class="st1" d="M294.07,230.12c-0.1,0-0.19-0.02-0.29-0.05c-0.42-0.16-0.63-0.63-0.47-1.04c1.02-2.69,2.52-4.42,4.46-5.14
					c2.62-0.97,5.03,0.32,5.13,0.37c0.39,0.21,0.54,0.71,0.32,1.1c-0.21,0.39-0.71,0.54-1.1,0.32c-0.03-0.02-1.9-0.99-3.81-0.27
					c-1.47,0.55-2.65,1.96-3.49,4.19C294.71,229.92,294.4,230.12,294.07,230.12z"/>
			</g>
			<g>
				<path class="st1" d="M300.17,234.11c-0.44,0-0.81-0.36-0.81-0.8c-0.04-4.43-3.4-6.99-3.44-7.01c-0.36-0.27-0.43-0.78-0.16-1.13
					c0.27-0.36,0.78-0.43,1.13-0.16c0.17,0.12,4.04,3.08,4.09,8.3C300.98,233.74,300.62,234.11,300.17,234.11
					C300.17,234.11,300.17,234.11,300.17,234.11z"/>
			</g>
			<path class="st0" d="M331.03,257.4c0.15,0.14,0.31,0.31,0.29,0.52c-0.02,0.3-0.37,0.45-0.67,0.48c-1.24,0.12-2.39-0.6-3.37-1.36
				c-0.33-0.25-0.67-0.52-0.85-0.9c-0.73-1.52,1.12-0.82,1.79-0.55C329.26,256.01,330.22,256.63,331.03,257.4z"/>
			<path class="st1" d="M286.55,194.38c-1-10.59,5.75-20.3,16.27-21.84c10.52-1.54,20.3,5.75,21.84,16.27
				c0.01,0.07,0.01,0.14,0.02,0.21c9.86,0.52,17.25,3.99,22.41,7.72c6.13,4.43,8.92,12.1,7.2,19.39l-3.04,12.84
				c-15.22-3.6-25.21-20.54-25.21-20.54s-4.09,11.82-19.79,15.83c0,0-4.55-5.47-11.94-0.87c0,0-1.16-7.4,4.06-13.95
				C298.37,209.43,287.39,203.28,286.55,194.38z"/>
			<g>
				<path class="st1" d="M331,227.35c-0.28,0-0.56-0.15-0.71-0.41c-1.25-2.22-4.43-1.01-4.56-0.96c-0.42,0.16-0.89-0.04-1.05-0.46
					c-0.16-0.42,0.04-0.89,0.46-1.05c1.59-0.63,5.01-1.09,6.57,1.67c0.22,0.39,0.08,0.88-0.31,1.1
					C331.27,227.31,331.13,227.35,331,227.35z"/>
			</g>
			<g>
				<path class="st1" d="M347.42,230.71c-0.28,0-0.56-0.15-0.71-0.41c-1.26-2.24-4.53-0.97-4.56-0.96
					c-0.42,0.16-0.89-0.04-1.05-0.46c-0.17-0.42,0.04-0.89,0.45-1.05c1.59-0.63,5.01-1.09,6.57,1.67c0.22,0.39,0.08,0.88-0.31,1.1
					C347.69,230.68,347.55,230.71,347.42,230.71z"/>
			</g>
			<g>
				<path class="st2" d="M260.53,412.29c0,0-51.82,35-44.04,142.93l130.93,2.84c0,0-2.78-67.15-35.45-133.17L260.53,412.29z"/>
				<path class="st1" d="M347.42,558.87c-0.01,0-0.01,0-0.02,0l-130.93-2.84c-0.42-0.01-0.76-0.33-0.79-0.75
					c-2.23-30.88-0.71-75.44,19.19-112.38c11.94-22.16,24.66-30.92,25.2-31.28c0.19-0.13,0.43-0.17,0.65-0.12l51.44,12.6
					c0.23,0.06,0.43,0.21,0.53,0.43c32.37,65.42,35.5,132.82,35.53,133.49c0.01,0.22-0.07,0.44-0.23,0.6
					C347.84,558.78,347.63,558.87,347.42,558.87z M217.25,554.42l129.31,2.8c-0.48-8.05-5.07-70.66-35.15-131.64l-50.71-12.42
					c-1.96,1.44-13.68,10.56-24.45,30.61C225.44,463.87,213.4,499.36,217.25,554.42z"/>
			</g>
			<g>
				<path class="st1" d="M328.5,265.8c-1.65,0-4.66-0.21-7.84-1.47c-0.42-0.16-0.62-0.64-0.46-1.05c0.16-0.42,0.63-0.62,1.05-0.45
					c4.28,1.69,8.34,1.32,8.38,1.31c0.45-0.04,0.84,0.28,0.89,0.73c0.04,0.44-0.28,0.84-0.72,0.89
					C329.74,265.76,329.27,265.8,328.5,265.8z"/>
			</g>
			<g>
				<path class="st0" d="M298.55,209.73c-0.14,0-0.28-0.03-0.4-0.11c-0.39-0.22-0.52-0.72-0.3-1.11
					c11.57-20.01,26.21-20.29,26.82-20.3c0,0,0,0,0,0c0.45,0,0.81,0.36,0.81,0.81c0,0.45-0.36,0.81-0.81,0.82
					c-0.14,0-14.36,0.33-25.43,19.49C299.1,209.58,298.83,209.73,298.55,209.73z"/>
			</g>
			<path class="st1" d="M355.04,817.54c-10.58,5.74-27.23-7.68-27.23-7.68l-5.98,18.94l52.43,1.01L355.04,817.54z"/>
			<g>
				<path class="st0" d="M281.03,299.43c1.27-9.97,9.95-17.56,19.97-16.87c9.74,0.67,17.3,8.67,17.48,18.39
					c0,0-7.11,53.98,1.13,63.25c8.21,9.23,67.05,49.1,69.64,51.12c2.15,1.67,5.77,7.72,8.26,12.14c1.74,3.11,3.04,6.45,3.86,9.92
					l1.45,6.1c0.41,1.48-0.46,3.01-1.94,3.42c-1.16,0.32-2.33-0.15-2.99-1.07c-0.26,0.06-0.29,0.07-0.55,0.13
					c-0.26,0.9-0.96,1.65-1.92,1.92c-1.32,0.36-2.67-0.29-3.25-1.48l-0.68,0c-0.29,0.94-1.08,1.71-2.14,1.91
					c-1.45,0.28-2.84-0.72-3.24-2.14c0,0-1.48-3.35-1.77-4.05l-4.28-10.48c-17.72-9.38-58.16-25.15-74.61-38.11
					C286.3,378.47,273.78,356.31,281.03,299.43z"/>
				<path class="st1" d="M388.85,449.17c-1.58,0-3.04-1.1-3.52-2.72c-0.19-0.44-1.48-3.36-1.75-4.02l-4.17-10.21
					c-5.78-3.04-14.06-6.81-22.82-10.81c-19-8.66-40.53-18.47-51.66-27.24c-17.37-13.68-32.38-34.64-24.7-94.84
					c1.35-10.57,10.49-18.29,20.84-17.57c10.21,0.71,18.05,8.95,18.23,19.18c0,0.04,0,0.08-0.01,0.12
					c-0.07,0.54-6.97,53.72,0.93,62.61c6.51,7.32,45.46,34.3,62.09,45.82c4.3,2.98,6.9,4.78,7.44,5.2
					c1.79,1.39,4.64,5.56,8.47,12.39c1.77,3.16,3.1,6.56,3.94,10.12l1.45,6.1c0.25,0.9,0.13,1.87-0.35,2.7
					c-0.47,0.83-1.24,1.44-2.17,1.69c-1.16,0.32-2.39,0.02-3.29-0.74c-0.46,0.84-1.24,1.46-2.18,1.72c-1.4,0.39-2.86-0.11-3.74-1.2
					c-0.52,0.85-1.38,1.46-2.39,1.65C389.27,449.15,389.06,449.17,388.85,449.17z M299.74,283.33c-8.97,0-16.72,6.9-17.9,16.2
					c-7.58,59.4,7.1,79.98,24.1,93.37c10.98,8.65,32.42,18.42,51.33,27.04c8.91,4.06,17.33,7.9,23.16,10.99
					c0.17,0.09,0.3,0.23,0.37,0.41l4.28,10.48c0.28,0.69,1.74,4,1.76,4.03c0.02,0.04,0.03,0.07,0.04,0.11
					c0.29,1.06,1.31,1.75,2.3,1.56c0.72-0.14,1.3-0.66,1.52-1.36c0.11-0.34,0.42-0.57,0.77-0.57l0.68,0c0,0,0,0,0,0
					c0.31,0,0.6,0.18,0.73,0.46c0.41,0.86,1.38,1.3,2.3,1.05c0.66-0.18,1.17-0.69,1.36-1.36c0.08-0.28,0.31-0.5,0.59-0.56l0.55-0.13
					c0.32-0.08,0.66,0.05,0.85,0.32c0.48,0.67,1.33,0.98,2.12,0.76c0.51-0.14,0.93-0.47,1.19-0.93c0.26-0.46,0.33-0.99,0.19-1.5
					l-1.45-6.13c-0.81-3.42-2.08-6.68-3.78-9.71c-3.62-6.45-6.48-10.68-8.05-11.9c-0.5-0.39-3.38-2.38-7.36-5.14
					c-16.68-11.55-55.74-38.61-62.38-46.07c-8.33-9.36-1.72-60.87-1.34-63.83c-0.2-9.35-7.38-16.89-16.72-17.53
					C300.54,283.35,300.14,283.33,299.74,283.33z M281.03,299.43L281.03,299.43L281.03,299.43z"/>
			</g>
			<g>
				<path class="st1" d="M391.98,447.23c-0.38,0-0.72-0.27-0.8-0.66l-1.19-6.33c-0.08-0.44,0.21-0.86,0.65-0.95
					c0.44-0.08,0.86,0.21,0.95,0.65l1.19,6.33c0.08,0.44-0.21,0.86-0.65,0.95C392.08,447.23,392.03,447.23,391.98,447.23z"/>
			</g>
			<g>
				<path class="st1" d="M397.65,446.62c-0.38,0-0.72-0.27-0.79-0.66l-1.28-6.59c-0.08-0.44,0.2-0.86,0.64-0.95
					c0.44-0.09,0.86,0.2,0.95,0.64l1.28,6.59c0.09,0.44-0.2,0.86-0.64,0.95C397.75,446.62,397.7,446.62,397.65,446.62z"/>
			</g>
		</g>
	</g>
	<g>
		<g>
			<path class="st0" d="M946.87,258.45c0,0,55.79,58.1,68.56,119.12c12.77,61.02-18.71,91.53-18.71,91.53L946.87,258.45z"/>
			<path class="st1" d="M996.72,469.91c-0.08,0-0.15-0.01-0.23-0.03c-0.28-0.08-0.49-0.31-0.56-0.59l-49.85-210.64
				c-0.08-0.36,0.08-0.72,0.4-0.9c0.32-0.18,0.72-0.11,0.97,0.15c0.56,0.58,56.09,58.97,68.76,119.51
				c6.64,31.72,1.16,55.1-4.61,69.12c-6.27,15.24-14,22.84-14.33,23.16C997.13,469.83,996.93,469.91,996.72,469.91z M948.37,261.27
				l48.79,206.17c2.31-2.59,8.16-9.84,12.99-21.62c5.66-13.8,11.03-36.81,4.49-68.09C1003.46,324.33,958.61,272.55,948.37,261.27z"
				/>
		</g>
		<g>
			<path class="st2" d="M946.87,258.45c0,0,30.01,5.83,53.18,59.39l-39.16,16.98L946.87,258.45z"/>
			<path class="st1" d="M960.9,335.64c-0.13,0-0.26-0.03-0.38-0.1c-0.22-0.12-0.37-0.33-0.42-0.57l-14.02-76.38
				c-0.05-0.26,0.04-0.53,0.23-0.72c0.19-0.19,0.46-0.27,0.73-0.22c1.24,0.24,30.69,6.53,53.77,59.87c0.18,0.41-0.01,0.89-0.42,1.07
				l-39.16,16.98C961.12,335.62,961.01,335.64,960.9,335.64z M947.9,259.57l13.61,74.11l37.48-16.26
				C978.92,271.56,953.63,261.35,947.9,259.57z"/>
		</g>
		<g>
			<g>
				<path class="st0" d="M910.2,220.73l0.13,34.73c0,0,6.01,12.38,12.16,14.27c13.51,4.16,20.02,1.66,24.39-9.54l-0.12-16.8l0,0
					c7.04-2.61,12.24-9.17,12.73-17.14l2.37-38.27l-54.95-3.88l-0.55,17.12l-0.19,0.48c0,0-5.88,0.07-6.55,9.5
					C898.93,220.61,908.46,220.86,910.2,220.73"/>
				<path class="st1" d="M932.88,272.43c-3.01,0-6.51-0.66-10.64-1.93c-6.41-1.97-12.4-14.18-12.65-14.69
					c-0.05-0.11-0.08-0.23-0.08-0.35l-0.13-33.9c-2.19-0.02-5.83-0.65-8.19-3c-1.82-1.81-2.63-4.31-2.41-7.44
					c0.37-5.17,2.29-7.68,3.84-8.87c1.14-0.88,2.25-1.2,2.91-1.31l0.55-16.88c0.01-0.22,0.1-0.43,0.27-0.58s0.38-0.22,0.6-0.21
					l54.95,3.88c0.44,0.03,0.78,0.41,0.75,0.86l-2.37,38.27c-0.49,7.85-5.46,14.72-12.73,17.64l0.12,16.24c0,0.1-0.02,0.2-0.06,0.3
					C944.44,268.67,940.08,272.43,932.88,272.43z M911.14,255.26c0.73,1.44,6.21,12.04,11.59,13.69
					c13.03,4.01,19.16,1.68,23.34-8.91l-0.12-16.64c0-0.34,0.21-0.65,0.53-0.77c6.95-2.58,11.75-9.03,12.2-16.43l2.32-37.47
					l-53.31-3.77l-0.53,16.27c0,0.09-0.02,0.19-0.06,0.28l-0.19,0.48c-0.12,0.3-0.41,0.5-0.74,0.51c-0.2,0.01-5.15,0.24-5.76,8.75
					c-0.19,2.63,0.46,4.71,1.93,6.17c2.38,2.36,6.43,2.61,7.79,2.5c0.23-0.02,0.45,0.06,0.61,0.21c0.17,0.15,0.26,0.37,0.26,0.59
					L911.14,255.26z"/>
			</g>
			<path class="st1" d="M913.16,195.59l-1.52,9.19c0,0-3.56-1.67-6.32-2.96c0,0-0.12-14.17,0.41-19.46
				c0.84-8.44,2.39-17.37,29.92-17.33c32.12,0.05,30.24,23.26,25.95,27.17c-4.2,3.83-20.25,1.18-26.99-1.09
				c-3.07-1.04-5.8-2.74-8.69-3.68C920.11,185.56,914.03,189.55,913.16,195.59z"/>
			<path class="st1" d="M951.28,208.53c-0.07,1.2,0.47,2.2,1.2,2.25c0.74,0.05,1.4-0.89,1.47-2.08c0.07-1.2-0.47-2.2-1.2-2.25
				C952.01,206.4,951.35,207.33,951.28,208.53z"/>
			<path class="st1" d="M932.71,207.38c-0.07,1.2,0.47,2.2,1.2,2.25c0.74,0.05,1.4-0.89,1.47-2.08c0.07-1.2-0.47-2.2-1.2-2.25
				C933.44,205.24,932.78,206.18,932.71,207.38z"/>
			<g>
				<path class="st1" d="M909.7,221.55c-0.32,0-0.66-0.01-1.02-0.03c-0.45-0.02-0.79-0.41-0.77-0.85c0.02-0.45,0.4-0.8,0.85-0.77
					c1.72,0.09,3.03-0.11,3.04-0.11c0.44-0.07,0.86,0.23,0.92,0.68c0.07,0.44-0.23,0.86-0.68,0.92
					C912.01,221.4,911.07,221.55,909.7,221.55z"/>
			</g>
			<g>
				<path class="st1" d="M946.22,226.4c-0.33,0-0.64-0.2-0.76-0.53c-0.15-0.42,0.06-0.89,0.48-1.04l2.6-0.96l-2.74-9.76
					c-0.03-0.1-0.04-0.2-0.03-0.31l0.84-7.78c0.05-0.44,0.44-0.77,0.89-0.72c0.45,0.05,0.77,0.45,0.72,0.89l-0.82,7.62l2.9,10.33
					c0.11,0.41-0.1,0.83-0.5,0.98l-3.3,1.21C946.41,226.38,946.31,226.4,946.22,226.4z"/>
			</g>
			<g>
				<path class="st1" d="M937.86,200.67c-0.27,0-0.53-0.13-0.68-0.37c-0.09-0.13-2.01-3-5.83-1.41c-0.41,0.17-0.89-0.03-1.06-0.44
					c-0.17-0.41,0.03-0.89,0.44-1.06c4.09-1.69,6.9,0.6,7.82,2.04c0.24,0.38,0.13,0.88-0.25,1.12
					C938.16,200.63,938.01,200.67,937.86,200.67z"/>
			</g>
			<g>
				<path class="st1" d="M956.63,201.53c-0.22,0-0.45-0.09-0.61-0.27c-0.11-0.12-2.46-2.63-5.98-0.47
					c-0.38,0.24-0.88,0.12-1.12-0.27c-0.23-0.38-0.12-0.88,0.27-1.12c3.77-2.32,6.91-0.51,8.04,0.77c0.3,0.34,0.27,0.85-0.07,1.14
					C957.01,201.46,956.82,201.53,956.63,201.53z"/>
			</g>
			<g>
				<path class="st1" d="M902.18,212.79c-0.05,0-0.1,0-0.15-0.01c-0.44-0.08-0.73-0.51-0.64-0.95c0.57-2.96,1.81-5.01,3.68-6.09
					c2.53-1.47,5.23-0.57,5.35-0.53c0.42,0.14,0.65,0.61,0.5,1.03c-0.14,0.42-0.6,0.65-1.03,0.5c-0.04-0.01-2.16-0.69-4.03,0.4
					c-1.44,0.84-2.41,2.52-2.89,4.99C902.9,212.52,902.56,212.79,902.18,212.79z"/>
			</g>
			<g>
				<path class="st1" d="M909.21,215.84c-0.38,0-0.73-0.27-0.8-0.67c-0.83-4.57-4.79-6.66-4.83-6.68c-0.4-0.2-0.55-0.69-0.35-1.09
					c0.2-0.4,0.69-0.56,1.09-0.35c0.19,0.1,4.71,2.46,5.69,7.84c0.08,0.44-0.21,0.86-0.65,0.94
					C909.3,215.83,909.26,215.84,909.21,215.84z"/>
			</g>
			<g>
				<path class="st1" d="M938,233.45c-0.03,0-0.07,0-0.1-0.01c-1.2-0.15-2.56-0.31-3.8-0.86c-1.49-0.66-2.54-1.8-2.9-3.11
					c-0.12-0.43,0.14-0.88,0.57-0.99c0.43-0.11,0.88,0.14,0.99,0.57c0.22,0.83,0.97,1.6,1.99,2.05c1.02,0.45,2.2,0.6,3.34,0.74
					c0.44,0.05,0.76,0.46,0.71,0.9C938.76,233.15,938.41,233.45,938,233.45z"/>
			</g>
			<g>
				<path class="st2" d="M871.83,468.92l124.89,0.18c0,0,7.12-144.3-49.85-210.64c0,0-0.66,3.31-2.47,5.75
					c-4.49,6.06-12.51,7.35-20.02,4.81c-7.12-2.41-14.05-13.56-14.05-13.56s-33.25-0.27-40.18,54
					C864.34,355.01,871.83,468.92,871.83,468.92z"/>
				<path class="st1" d="M996.72,469.91C996.72,469.91,996.72,469.91,996.72,469.91l-124.89-0.18c-0.43,0-0.78-0.33-0.81-0.76
					c-0.08-1.14-7.44-114.51-1.68-159.62c2-15.63,7.61-36.63,23.01-47.9c9.28-6.8,17.62-6.82,17.98-6.81c0.28,0,0.54,0.15,0.68,0.38
					c0.07,0.11,6.86,10.93,13.62,13.22c7.77,2.63,15.09,0.9,19.11-4.52c1.69-2.27,2.32-5.4,2.33-5.43c0.06-0.3,0.29-0.55,0.59-0.63
					c0.3-0.08,0.62,0.02,0.82,0.26c29.56,34.43,41.59,90.04,46.48,130.63c5.29,43.93,3.58,80.22,3.56,80.58
					C997.51,469.57,997.15,469.91,996.72,469.91z M872.59,468.11l123.35,0.18c0.21-5.48,1.26-39.3-3.59-79.56
					c-4.8-39.9-16.53-94.37-45.1-128.57c-0.39,1.25-1.09,3.03-2.2,4.53c-4.46,6.01-12.48,7.96-20.93,5.09
					c-6.62-2.24-12.88-11.44-14.22-13.5c-1.8,0.1-8.96,0.87-16.67,6.55c-14.87,10.95-20.32,31.46-22.27,46.74
					C865.46,352.57,871.96,458.1,872.59,468.11z"/>
			</g>
			<g>
				<polygon class="st0" points="996.72,469.1 1039.21,650.34 1011.81,800.28 959.12,800.28 975.83,649.58 940.37,546.77 
					932.13,812.58 870.15,812.58 871.9,469.1 				"/>
				<path class="st1" d="M932.13,813.39h-61.98c-0.22,0-0.42-0.09-0.57-0.24c-0.15-0.15-0.24-0.36-0.24-0.58l1.75-343.48
					c0-0.45,0.36-0.81,0.81-0.81h124.82c0.38,0,0.7,0.26,0.79,0.63L1040,650.15c0.03,0.11,0.03,0.22,0.01,0.33l-27.4,149.95
					c-0.07,0.39-0.41,0.66-0.8,0.66h-52.69c-0.23,0-0.45-0.1-0.6-0.27c-0.15-0.17-0.23-0.4-0.2-0.63L975,649.67l-33.95-98.46
					l-8.1,261.4C932.93,813.04,932.57,813.39,932.13,813.39z M870.96,811.77h60.38l8.21-265.02c0.01-0.39,0.3-0.72,0.69-0.78
					c0.39-0.06,0.76,0.17,0.89,0.54l35.45,102.81c0.04,0.11,0.05,0.23,0.04,0.35l-16.61,149.8h51.11l27.24-149.11l-42.3-180.45
					H872.71L870.96,811.77z"/>
			</g>
			<polygon class="st1" points="885.06,812.58 879.21,829.81 923.64,829.81 920.13,812.58 			"/>
			<polygon class="st1" points="994.93,800.28 1039.21,829.81 968.61,829.81 970.8,800.28 			"/>
			<g>
				<path class="st1" d="M940.11,245.32c-0.43,0-0.86-0.01-1.29-0.04l-4.64-0.29c-0.45-0.03-0.79-0.41-0.76-0.86
					c0.03-0.45,0.42-0.77,0.86-0.76l4.64,0.29c2.63,0.16,5.22-0.22,7.67-1.13c0.42-0.16,0.89,0.06,1.04,0.48
					c0.16,0.42-0.06,0.89-0.48,1.04C944.89,244.9,942.52,245.32,940.11,245.32z"/>
			</g>
			<g>
				<g>
					<path class="st3" d="M871.9,469.1"/>
				</g>
			</g>
			<g>
				<path class="st1" d="M940.37,547.58c-0.01,0-0.02,0-0.03,0c-0.45-0.01-0.8-0.39-0.78-0.84l0.76-24.41
					c0.01-0.19,0.08-0.37,0.2-0.51l17.99-20.56c0.3-0.34,0.81-0.37,1.14-0.08c0.34,0.29,0.37,0.81,0.08,1.14l-17.8,20.34
					l-0.75,24.12C941.17,547.23,940.81,547.58,940.37,547.58z"/>
			</g>
			<g>
				<path class="st1" d="M871.76,497.47c-0.41,0-0.77-0.31-0.81-0.73c-0.04-0.45,0.29-0.84,0.73-0.88
					c1.01-0.1,24.83-2.63,28.43-27.01c0.07-0.44,0.48-0.75,0.92-0.68c0.44,0.07,0.75,0.48,0.68,0.92
					c-3.8,25.65-29.63,28.36-29.89,28.38C871.81,497.47,871.78,497.47,871.76,497.47z"/>
			</g>
		</g>
		<g>
			<path class="st0" d="M883.57,506.74c0,0-7.8-4.58-6.15-8.28c1.12-2.52,7.57,1.31,7.57,1.31s-3.17-2.75-2.65-6.88
				c0.52-4.13,12.91,4.15,12.91,4.15l-3.93,10.88L883.57,506.74z"/>
			<path class="st1" d="M891.33,508.73c-0.04,0-0.08,0-0.12-0.01l-7.76-1.18c-0.1-0.02-0.2-0.05-0.29-0.1
				c-0.86-0.51-8.37-5.07-6.48-9.31c0.26-0.58,0.73-0.99,1.36-1.19c1.18-0.37,2.87,0.07,4.34,0.65c-0.62-1.26-1.09-2.89-0.85-4.8
				c0.1-0.76,0.5-1.34,1.15-1.63c2.95-1.35,11.36,4.1,13.02,5.21c0.31,0.21,0.44,0.6,0.31,0.95l-3.93,10.88
				C891.97,508.52,891.67,508.73,891.33,508.73z M883.85,505.96l6.94,1.05l3.48-9.65c-3.82-2.48-9.41-5.42-10.91-4.73
				c-0.08,0.03-0.18,0.08-0.21,0.36c-0.46,3.63,2.35,6.14,2.38,6.16c0.31,0.28,0.37,0.75,0.12,1.09c-0.25,0.34-0.71,0.43-1.07,0.22
				c-1.66-0.98-4.77-2.39-6.04-1.98c-0.24,0.08-0.32,0.2-0.37,0.31C877.08,501.22,881.89,504.78,883.85,505.96z"/>
		</g>
		<g>
			<rect x="855.8" y="597.4" class="st1" width="61.91" height="35.52"/>
			<g>
				<rect x="876.08" y="571.22" class="st2" width="41.02" height="26.85"/>
				<path class="st1" d="M917.1,598.88h-41.02c-0.45,0-0.81-0.36-0.81-0.81v-26.85c0-0.45,0.36-0.81,0.81-0.81h41.02
					c0.45,0,0.81,0.36,0.81,0.81v26.85C917.91,598.52,917.54,598.88,917.1,598.88z M876.89,597.26h39.4v-25.23h-39.4V597.26z"/>
			</g>
			<rect x="876.08" y="571.22" class="st1" width="10.68" height="26.85"/>
			<g>
				<g>
					<path class="st0" d="M940,577.32l-1.54-3.99l13.09-20.99l-13.14-8.2l-13.09,20.99l-4.26,0.37c-5.82,0.5-11.06,3.72-14.15,8.67
						l-21.57,34.57c-2.8,4.49-1.43,10.39,3.06,13.19l15.28,9.53c4.49,2.8,10.39,1.43,13.19-3.06l21.57-34.57
						C941.53,588.89,942.11,582.76,940,577.32z"/>
					<path class="st1" d="M908.73,633.72c-1.88,0-3.77-0.51-5.48-1.57l-15.28-9.53c-2.35-1.47-3.99-3.76-4.62-6.47
						c-0.63-2.7-0.16-5.49,1.31-7.84l21.57-34.57c3.21-5.14,8.73-8.53,14.77-9.05l3.86-0.33l12.88-20.64
						c0.11-0.18,0.3-0.31,0.5-0.36c0.21-0.05,0.43-0.01,0.61,0.1l13.14,8.2c0.18,0.11,0.31,0.29,0.36,0.5
						c0.05,0.21,0.01,0.43-0.1,0.61l-12.88,20.64l1.4,3.61c2.19,5.65,1.58,12.1-1.63,17.24l-21.57,34.57
						C915.59,631.99,912.19,633.72,908.73,633.72z M938.67,545.26l-12.66,20.3c-0.13,0.22-0.36,0.36-0.62,0.38l-4.26,0.37
						c-5.53,0.48-10.59,3.58-13.53,8.29l-21.57,34.57c-1.24,1.99-1.63,4.34-1.1,6.62c0.53,2.28,1.91,4.22,3.9,5.46l15.28,9.53
						c4.1,2.56,9.52,1.3,12.08-2.8l21.57-34.57c2.94-4.71,3.5-10.62,1.5-15.8l-1.54-3.99c-0.09-0.24-0.07-0.5,0.07-0.72l12.66-20.3
						L938.67,545.26z"/>
				</g>
				<g>
					<path class="st0" d="M952.77,543.35l-6.81-4.25c-1.79-1.12-4.16-0.57-5.28,1.22l-2.35,3.77l13.31,8.3l2.35-3.77
						C955.11,546.83,954.56,544.47,952.77,543.35z"/>
					<path class="st1" d="M951.64,553.21c-0.15,0-0.3-0.04-0.43-0.12l-13.31-8.3c-0.38-0.24-0.5-0.74-0.26-1.12l2.5-4.01
						c0.62-0.99,1.58-1.68,2.71-1.94c1.13-0.26,2.3-0.07,3.29,0.55l7.29,4.55l0,0c2.04,1.27,2.66,3.97,1.39,6l-2.5,4.01
						c-0.11,0.18-0.3,0.31-0.5,0.36C951.76,553.2,951.7,553.21,951.64,553.21z M939.44,543.83l11.93,7.45l2.08-3.33
						c0.8-1.28,0.41-2.97-0.87-3.77l-7.29-4.55c-0.62-0.39-1.35-0.51-2.07-0.34c-0.71,0.17-1.32,0.6-1.7,1.22L939.44,543.83z"/>
				</g>
				<g>
					
						<rect x="895.94" y="586.74" transform="matrix(0.8484 0.5293 -0.5293 0.8484 454.6737 -393.5765)" class="st2" width="37.16" height="20.65"/>
					<path class="st1" d="M924.82,616.48c-0.15,0-0.29-0.04-0.43-0.12l-31.53-19.67c-0.38-0.24-0.5-0.74-0.26-1.12l10.93-17.52
						c0.11-0.18,0.3-0.31,0.5-0.36c0.21-0.05,0.43-0.01,0.61,0.1l31.53,19.67c0.38,0.24,0.5,0.74,0.26,1.12l-10.93,17.52
						C925.35,616.34,925.09,616.48,924.82,616.48z M894.41,595.74l30.15,18.81l10.07-16.15l-30.15-18.81L894.41,595.74z"/>
				</g>
				<path class="st0" d="M919.01,599.15c-1.43,2.3-4.46,3-6.76,1.57c-2.3-1.43-3-4.46-1.57-6.76c1.43-2.3,4.46-3,6.76-1.57
					C919.74,593.82,920.44,596.85,919.01,599.15z"/>
			</g>
			<g>
				<path class="st2" d="M857.31,611.99c-3.58,6.49-0.5,14.69,6.15,17.95c6.65,3.26,14.59,0.45,17.95-6.15
					C888.24,610.34,865.05,597.98,857.31,611.99z"/>
				<path class="st1" d="M869.37,632.13c-2.1,0-4.23-0.47-6.26-1.46c-3.56-1.74-6.29-4.91-7.48-8.68
					c-1.12-3.54-0.77-7.23,0.97-10.39l0,0c4.28-7.75,12.76-7.82,18.83-4.6c8.35,4.42,9.33,11.99,6.7,17.16
					C879.56,629.22,874.58,632.13,869.37,632.13z M867.71,606.63c-3.74,0-7.4,1.63-9.68,5.75l0,0c-1.53,2.76-1.83,6-0.84,9.12
					c1.06,3.35,3.48,6.16,6.64,7.71c6.25,3.06,13.67,0.52,16.87-5.79c3.24-6.39-0.84-12.25-6.02-14.99
					C872.56,607.31,870.12,606.63,867.71,606.63z M857.32,611.99L857.32,611.99L857.32,611.99z"/>
			</g>
			<g>
				<path class="st1" d="M870.7,617.79c-0.07,0-0.14-0.01-0.22-0.03c-3.52-0.97-3.47-3.63-3.47-3.74c0.01-0.45,0.39-0.79,0.84-0.78
					c0.44,0.01,0.79,0.38,0.78,0.82c0,0.16,0.08,1.53,2.28,2.14c0.43,0.12,0.69,0.56,0.57,1
					C871.38,617.55,871.06,617.79,870.7,617.79z"/>
			</g>
			<g>
				<g>
					<path class="st2" d="M837.04,617.66c0,8.22,6.66,14.88,14.88,14.88c8.22,0,14.88-6.66,14.88-14.88
						c0-14.54-14.88-8.91-14.88-8.91C845.22,605.73,837.04,609.44,837.04,617.66z"/>
					<path class="st1" d="M851.92,633.35c-8.65,0-15.69-7.04-15.69-15.69c0-3.84,1.66-7.03,4.68-8.98c3.16-2.04,7.36-2.34,11.05-0.8
						c1.48-0.5,7.65-2.31,11.84,0.59c2.54,1.75,3.82,4.84,3.82,9.19C867.62,626.31,860.58,633.35,851.92,633.35z M847.11,608.52
						c-1.9,0-3.76,0.51-5.32,1.52c-2.54,1.64-3.94,4.35-3.94,7.62c0,7.76,6.31,14.07,14.07,14.07c7.76,0,14.07-6.31,14.07-14.07
						c0-3.78-1.05-6.42-3.12-7.85c-4-2.77-10.6-0.32-10.66-0.29c-0.2,0.08-0.42,0.07-0.62-0.02
						C850.15,608.84,848.61,608.52,847.11,608.52z"/>
				</g>
				<g>
					<path class="st1" d="M851.92,612.98c-0.37,0-0.71-0.26-0.79-0.63c-0.08-0.35-1.85-8.55,2.64-15.4
						c0.25-0.38,0.75-0.48,1.12-0.23c0.37,0.25,0.48,0.75,0.23,1.12c-4.12,6.28-2.43,14.08-2.41,14.15c0.1,0.44-0.18,0.87-0.61,0.97
						C852.04,612.98,851.98,612.98,851.92,612.98z"/>
				</g>
			</g>
			<g>
				<g>
					<path class="st1" d="M925.07,633.73h-75.41c-8.68,0-16.05-6.2-17.54-14.75l-11.45-65.93c-0.04-0.24,0.02-0.48,0.18-0.66
						c0.15-0.18,0.38-0.29,0.62-0.29H952.5c0.24,0,0.46,0.1,0.62,0.28c0.15,0.18,0.22,0.42,0.18,0.65l-10.66,65.74
						C941.24,627.44,933.85,633.73,925.07,633.73z M822.44,553.72l11.28,64.98c1.35,7.77,8.05,13.41,15.94,13.41h75.41
						c7.98,0,14.69-5.71,15.97-13.59l10.5-64.8H822.44z"/>
				</g>
				<g>
					<g>
						<path class="st1" d="M919.28,633.35c-0.04,0-0.08,0-0.12-0.01c-0.44-0.07-0.75-0.48-0.68-0.92l11.74-79.46
							c0.07-0.44,0.48-0.75,0.92-0.68c0.44,0.07,0.75,0.48,0.68,0.92l-11.74,79.46C920.02,633.06,919.68,633.35,919.28,633.35z"/>
					</g>
					<g>
						<path class="st1" d="M854.69,633.35c-0.4,0-0.74-0.29-0.8-0.69l-11.74-79.46c-0.07-0.44,0.24-0.85,0.68-0.92
							c0.44-0.07,0.85,0.24,0.92,0.68l11.74,79.46c0.07,0.44-0.24,0.85-0.68,0.92C854.77,633.35,854.73,633.35,854.69,633.35z"/>
					</g>
					<g>
						<path class="st1" d="M878.72,633.35c-0.41,0-0.77-0.31-0.81-0.73l-7.52-79.63c-0.04-0.45,0.28-0.84,0.73-0.88
							c0.45-0.05,0.84,0.29,0.88,0.73l7.52,79.63c0.04,0.45-0.28,0.84-0.73,0.88C878.77,633.35,878.74,633.35,878.72,633.35z"/>
					</g>
					<g>
						<path class="st1" d="M895.25,633.35c-0.03,0-0.05,0-0.08,0c-0.45-0.04-0.77-0.44-0.73-0.88l7.52-79.63
							c0.04-0.45,0.44-0.78,0.88-0.73c0.45,0.04,0.77,0.44,0.73,0.88l-7.52,79.63C896.02,633.04,895.67,633.35,895.25,633.35z"/>
					</g>
				</g>
				<g>
					<path class="st1" d="M948.99,575.38H825.24c-0.45,0-0.81-0.36-0.81-0.81c0-0.45,0.36-0.81,0.81-0.81h123.75
						c0.45,0,0.81,0.36,0.81,0.81C949.8,575.01,949.43,575.38,948.99,575.38z"/>
				</g>
				<g>
					<path class="st1" d="M944.27,604.5H830.29c-0.45,0-0.81-0.36-0.81-0.81c0-0.45,0.36-0.81,0.81-0.81h113.97
						c0.45,0,0.81,0.36,0.81,0.81C945.08,604.14,944.71,604.5,944.27,604.5z"/>
				</g>
			</g>
			<g>
				<g>
					<path class="st2" d="M887.59,499.77L887.59,499.77c2.15,0.04,3.86,1.81,3.82,3.96l-1.06,58.92c-0.04,2.15-1.81,3.86-3.96,3.82
						l0,0c-2.15-0.04-3.86-1.81-3.82-3.96l1.06-58.92C883.67,501.44,885.44,499.73,887.59,499.77z"/>
					<path class="st1" d="M886.46,567.28c-0.03,0-0.06,0-0.08,0c-2.59-0.05-4.66-2.19-4.61-4.78l1.06-58.92
						c0.02-1.26,0.53-2.43,1.44-3.3c0.9-0.87,2.11-1.33,3.35-1.32c1.26,0.02,2.43,0.53,3.3,1.44c0.87,0.9,1.34,2.09,1.32,3.35
						l-1.06,58.92C891.11,565.22,889.01,567.28,886.46,567.28z M887.51,500.58c-0.8,0-1.56,0.3-2.13,0.86
						c-0.59,0.57-0.93,1.34-0.94,2.16l-1.06,58.92c-0.03,1.7,1.33,3.1,3.02,3.13c0.02,0,0.04,0,0.06,0c1.67,0,3.05-1.35,3.08-3.02
						l1.06-58.92c0.01-0.82-0.29-1.6-0.86-2.19c-0.57-0.59-1.34-0.93-2.16-0.94l0,0C887.55,500.58,887.53,500.58,887.51,500.58z"/>
				</g>
			</g>
		</g>
		<g>
			<path class="st0" d="M900.62,506.25c1.75-0.1,5.49-1.34,4.96-10.84c-0.17-3.04-2.6-8.4-6.87-13.61
				c-10-13.48-28.21-98.52,7.41-154.6l-56-9.35c0,0-33.52,84.8,25.51,165.78l16.07,23.27L900.62,506.25z"/>
			<path class="st1" d="M891.7,507.71c-0.26,0-0.52-0.13-0.67-0.35l-16.07-23.27c-30.61-42-35.95-85.04-35.03-113.74
				c0.99-31.1,9.35-52.58,9.44-52.79c0.14-0.36,0.51-0.56,0.89-0.5l56,9.35c0.27,0.04,0.5,0.22,0.61,0.47
				c0.11,0.25,0.09,0.54-0.06,0.76c-19.19,30.21-21.84,67.14-20.68,92.8c1.41,31.25,8.73,54.8,13.24,60.88
				c4,4.88,6.83,10.54,7.03,14.05c0.57,10.21-3.8,11.58-5.72,11.69l-8.92,0.65C891.73,507.71,891.71,507.71,891.7,507.71z
				 M850.64,318.76c-1.35,3.69-8.21,23.77-9.1,51.7c-0.9,28.43,4.4,71.07,34.74,112.69l15.82,22.91l8.46-0.62c0,0,0.01,0,0.01,0
				c3.06-0.18,4.55-3.72,4.2-9.98c-0.15-2.66-2.28-7.76-6.69-13.15c-5.54-7.47-12.29-33.21-13.58-61.8
				c-1.15-25.6,1.46-62.33,20.28-92.71L850.64,318.76z"/>
		</g>
		<g>
			<path class="st2" d="M900.97,339.93c0,0,29.48-58.84,12.94-73.64c-21.79-19.49-59.35,8.04-70.58,51.48L900.97,339.93z"/>
			<path class="st1" d="M900.97,340.74c-0.1,0-0.2-0.02-0.29-0.05l-57.64-22.16c-0.38-0.15-0.6-0.56-0.49-0.96
				c7.14-27.6,25.93-51.05,45.69-57.03c10-3.03,19.07-1.24,26.22,5.15c16.81,15.04-11.54,72.18-12.76,74.6
				C901.56,340.57,901.27,340.74,900.97,340.74z M844.3,317.27l56.27,21.63c3.15-6.49,27.77-58.62,12.8-72.01
				c-6.71-6-15.24-7.66-24.67-4.81C869.62,267.86,851.43,290.5,844.3,317.27z"/>
		</g>
	</g>
</g>
</svg>
