<?xml version="1.0" encoding="utf-8"?>
<!-- Generator: Adobe Illustrator 24.2.0, SVG Export Plug-In . SVG Version: 6.00 Build 0)  -->
<svg version="1.1" id="_1" xmlns="http://www.w3.org/2000/svg" xmlns:xlink="http://www.w3.org/1999/xlink" x="0px" y="0px"
	 viewBox="0 0 2649.26 2361.24" style="enable-background:new 0 0 2649.26 2361.24;" xml:space="preserve">
<style type="text/css">
	.st0{fill:#FFFFFF;}
	.st1{fill:#404040;}
	.st2{fill:#32C787;}
	.st3{fill:#E6E6E6;}
	.st4{fill:#CCCCCC;}
	.st5{fill:none;stroke:#404040;stroke-width:1.75;stroke-linecap:round;stroke-linejoin:round;stroke-miterlimit:10;}
</style>
<g>
	<rect x="0" y="0" class="st0" width="2649.26" height="2361.24"/>
	<g>
		<g>
			<path class="st0" d="M293.49,2017.72l-55.03-200.77c-4.53-16.51,7.9-32.81,25.02-32.81h126.68c11.85,0,22.2,8.03,25.14,19.51
				l48.87,190.83h54.16c9.04,0,16.38,7.33,16.38,16.38c0,14.33-11.62,25.95-25.95,25.95h-29.14l24.1,176.04h-12.71l-43.37-176.04
				H343.57l-43.37,176.04h-12.71l24.22-176.96C303.02,2033.52,295.96,2026.73,293.49,2017.72z"/>
			<path class="st1" d="M503.73,2213.72h-12.71c-0.4,0-0.75-0.27-0.85-0.67l-43.2-175.37h-102.7l-43.2,175.37
				c-0.1,0.39-0.45,0.67-0.85,0.67h-12.71c-0.25,0-0.49-0.11-0.66-0.3c-0.17-0.19-0.24-0.44-0.21-0.69l24.12-176.2
				c-8.77-2.66-15.67-9.71-18.1-18.57l-55.03-200.77c-2.23-8.14-0.57-16.65,4.54-23.36c5.12-6.71,12.89-10.55,21.33-10.55h126.68
				c12.26,0,22.94,8.29,25.98,20.17l48.7,190.17h53.48c9.51,0,17.25,7.74,17.25,17.25c0,14.79-12.03,26.82-26.82,26.82h-28.14
				l23.96,175.04c0.03,0.25-0.04,0.5-0.21,0.69C504.22,2213.61,503.98,2213.72,503.73,2213.72z M491.7,2211.97h11.02l-23.96-175.04
				c-0.03-0.25,0.04-0.5,0.21-0.69c0.17-0.19,0.41-0.3,0.66-0.3h29.14c13.82,0,25.07-11.25,25.07-25.07c0-8.55-6.95-15.5-15.5-15.5
				h-54.16c-0.4,0-0.75-0.27-0.85-0.66l-48.87-190.83c-2.84-11.1-12.83-18.85-24.29-18.85H263.48c-7.89,0-15.15,3.6-19.93,9.87
				s-6.33,14.23-4.25,21.83l55.03,200.77l0,0c2.33,8.51,9.08,15.24,17.61,17.56c0.42,0.12,0.7,0.53,0.64,0.96l-24.09,175.96h11.02
				l43.2-175.37c0.1-0.39,0.45-0.67,0.85-0.67h104.07c0.4,0,0.75,0.27,0.85,0.67L491.7,2211.97z"/>
		</g>
		<g>
			<path class="st1" d="M343.57,2037.68c-0.01,0-0.02,0-0.03,0l-31.86-0.92c-0.48-0.01-0.86-0.42-0.85-0.9
				c0.01-0.48,0.44-0.86,0.9-0.85l31.86,0.92c0.48,0.01,0.86,0.42,0.85,0.9C344.43,2037.3,344.04,2037.68,343.57,2037.68z"/>
		</g>
		<g>
			<path class="st1" d="M479.63,2037.68h-31.98c-0.48,0-0.88-0.39-0.88-0.88s0.39-0.88,0.88-0.88h31.98c0.48,0,0.88,0.39,0.88,0.88
				S480.11,2037.68,479.63,2037.68z"/>
		</g>
	</g>
	<g>
		<rect x="1189.5" y="1957.89" class="st1" width="491.74" height="49.02"/>
		<g>
			<path class="st0" d="M1741.75,713.98c0,266.55,0,1243.91,0,1243.91h-612.76c0,0,0-977.36,0-1243.91
				c0-71.22,21.87-152.29,53.93-232.85c42.67-107.22,103.37-213.55,154.56-294.61c45.45-71.97,150.33-71.97,195.78,0
				c51.19,81.06,111.89,187.39,154.56,294.61C1719.88,561.69,1741.75,642.76,1741.75,713.98z"/>
			<path class="st1" d="M1741.75,1959.39h-612.76c-0.83,0-1.5-0.67-1.5-1.5V713.98c0-64.78,18.18-143.31,54.04-233.4
				c35.64-89.55,87.68-188.76,154.69-294.86c21.62-34.24,58.69-54.68,99.16-54.68s77.54,20.44,99.16,54.68
				c67,106.1,119.05,205.31,154.69,294.86c35.86,90.1,54.04,168.63,54.04,233.4v1243.91
				C1743.25,1958.71,1742.58,1959.39,1741.75,1959.39z M1130.49,1956.39h609.76V713.98c0-64.4-18.11-142.55-53.82-232.3
				c-35.57-89.38-87.53-188.42-154.44-294.36c-21.07-33.36-57.19-53.28-96.62-53.28s-75.55,19.92-96.62,53.28
				c-66.9,105.94-118.86,204.98-154.43,294.36c-35.71,89.74-53.82,167.9-53.82,232.3V1956.39z"/>
		</g>
		<g>
			<path class="st2" d="M1687.82,481.13h-504.9c42.67-107.22,103.37-213.55,154.56-294.61c45.45-71.97,150.33-71.97,195.78,0
				C1584.45,267.58,1645.15,373.91,1687.82,481.13z"/>
			<path class="st1" d="M1687.82,482.63h-504.9c-0.5,0-0.96-0.25-1.24-0.66c-0.28-0.41-0.34-0.93-0.15-1.4
				c35.64-89.55,87.68-188.76,154.69-294.86c21.62-34.24,58.69-54.68,99.16-54.68s77.54,20.44,99.16,54.68
				c67,106.1,119.05,205.31,154.69,294.86c0.18,0.46,0.13,0.99-0.15,1.4C1688.78,482.38,1688.32,482.63,1687.82,482.63z
				 M1185.13,479.63h500.47c-35.55-88.84-87.22-187.17-153.61-292.31c-21.07-33.36-57.19-53.28-96.62-53.28
				s-75.55,19.92-96.62,53.28C1272.36,292.45,1220.68,390.78,1185.13,479.63z"/>
		</g>
		<g>
			<path class="st1" d="M1711.96,549.76h-553.18c-0.83,0-1.5-0.67-1.5-1.5s0.67-1.5,1.5-1.5h553.18c0.83,0,1.5,0.67,1.5,1.5
				S1712.79,549.76,1711.96,549.76z"/>
		</g>
		<g>
			<path class="st2" d="M1741.75,1476.44l127.01,154.95c24.86,30.32,38.44,68.32,38.44,107.53v466.34l-165.45-499.4V1476.44z"/>
			<path class="st1" d="M1907.2,2206.77c-0.64,0-1.22-0.41-1.42-1.03l-165.45-499.4c-0.05-0.15-0.08-0.31-0.08-0.47v-229.42
				c0-0.63,0.4-1.2,1-1.41c0.6-0.22,1.26-0.03,1.67,0.46l127.01,154.95c25.01,30.51,38.78,69.04,38.78,108.48v466.34
				c0,0.74-0.53,1.36-1.26,1.48C1907.36,2206.76,1907.28,2206.77,1907.2,2206.77z M1743.25,1705.62l162.45,490.35v-457.04
				c0-38.76-13.53-76.61-38.1-106.58l-124.35-151.7V1705.62z"/>
		</g>
		<g>
			<path class="st2" d="M1128.99,1476.44l-127.01,154.95c-24.86,30.32-38.44,68.32-38.44,107.53v466.34l165.45-499.4V1476.44z"/>
			<path class="st1" d="M963.55,2206.77c-0.08,0-0.16-0.01-0.24-0.02c-0.73-0.12-1.26-0.74-1.26-1.48v-466.34
				c0-39.45,13.77-77.97,38.78-108.48l127.01-154.95c0.4-0.49,1.07-0.68,1.67-0.46c0.6,0.21,1,0.78,1,1.41v229.42
				c0,0.16-0.03,0.32-0.08,0.47l-165.45,499.4C964.76,2206.36,964.18,2206.77,963.55,2206.77z M1127.49,1480.64l-124.35,151.7
				c-24.57,29.97-38.1,67.82-38.1,106.58v457.04l162.45-490.35V1480.64z"/>
		</g>
		<path class="st1" d="M1749.26,1222.57h-627.78c-13.54,0-24.51-10.97-24.51-24.51l0,0c0-13.54,10.97-24.51,24.51-24.51h627.78
			c13.54,0,24.51,10.97,24.51,24.51l0,0C1773.77,1211.59,1762.8,1222.57,1749.26,1222.57z"/>
		<path class="st1" d="M1749.26,1957.89h-627.78c-13.54,0-24.51-10.97-24.51-24.51l0,0c0-13.54,10.97-24.51,24.51-24.51h627.78
			c13.54,0,24.51,10.97,24.51,24.51l0,0C1773.77,1946.91,1762.8,1957.89,1749.26,1957.89z"/>
		<g>
			<path class="st2" d="M1435.37,1455.51l-58.42,122.1c-28.59,59.75-37.3,127.09-24.86,192.15l83.28,435.51l83.28-435.51
				c12.44-65.06,3.73-132.39-24.86-192.15L1435.37,1455.51z"/>
			<path class="st1" d="M1435.37,2206.77c-0.72,0-1.34-0.51-1.47-1.22l-83.28-435.51c-6.22-32.53-7.22-65.69-2.97-98.54
				c4.25-32.85,13.65-64.66,27.95-94.54l58.42-122.1c0.25-0.52,0.78-0.85,1.35-0.85s1.1,0.33,1.35,0.85l58.42,122.1
				c14.3,29.88,23.7,61.69,27.95,94.54c4.25,32.85,3.25,66-2.97,98.54l-83.28,435.51
				C1436.71,2206.26,1436.09,2206.77,1435.37,2206.77z M1435.37,1458.99l-57.07,119.27c-14.16,29.59-23.47,61.09-27.68,93.63
				c-4.21,32.53-3.22,65.37,2.94,97.59l81.81,427.81l81.81-427.81c6.16-32.22,7.15-65.05,2.94-97.59
				c-4.21-32.53-13.52-64.03-27.68-93.63L1435.37,1458.99z"/>
		</g>
		
			<ellipse transform="matrix(0.866 -0.5 0.5 0.866 66.5576 800.0851)" class="st0" cx="1526.26" cy="275.84" rx="19.91" ry="53.62"/>
	</g>
	<g>
		<g>
			<path class="st1" d="M1516.29,2215.55c-3.26,0-5.9-2.64-5.9-5.9V1036.78c0-3.26,2.64-5.9,5.9-5.9s5.9,2.64,5.9,5.9v1172.88
				C1522.18,2212.91,1519.54,2215.55,1516.29,2215.55z"/>
		</g>
		<g>
			<path class="st1" d="M1780.89,2214.65C1780.89,2214.65,1780.88,2214.65,1780.89,2214.65c-3.26,0-5.9-2.65-5.9-5.9l1.58-1150.3
				c0-3.25,2.64-5.89,5.9-5.89c0,0,0.01,0,0.01,0c3.26,0,5.89,2.65,5.89,5.9l-1.58,1150.3
				C1786.78,2212.01,1784.14,2214.65,1780.89,2214.65z"/>
		</g>
		<g>
			<path class="st1" d="M1778.24,1152.73h-261.96c-3.26,0-5.9-2.64-5.9-5.9s2.64-5.9,5.9-5.9h261.96c3.26,0,5.9,2.64,5.9,5.9
				S1781.5,1152.73,1778.24,1152.73z"/>
		</g>
		<g>
			<path class="st1" d="M1778.24,1245.23h-261.96c-3.26,0-5.9-2.64-5.9-5.9c0-3.26,2.64-5.9,5.9-5.9h261.96c3.26,0,5.9,2.64,5.9,5.9
				C1784.14,1242.59,1781.5,1245.23,1778.24,1245.23z"/>
		</g>
		<g>
			<path class="st1" d="M1778.24,1337.72h-261.96c-3.26,0-5.9-2.64-5.9-5.9s2.64-5.9,5.9-5.9h261.96c3.26,0,5.9,2.64,5.9,5.9
				S1781.5,1337.72,1778.24,1337.72z"/>
		</g>
		<g>
			<path class="st1" d="M1778.24,1430.22h-261.96c-3.26,0-5.9-2.64-5.9-5.9c0-3.26,2.64-5.9,5.9-5.9h261.96c3.26,0,5.9,2.64,5.9,5.9
				C1784.14,1427.58,1781.5,1430.22,1778.24,1430.22z"/>
		</g>
		<g>
			<path class="st1" d="M1778.24,1522.71h-261.96c-3.26,0-5.9-2.64-5.9-5.9c0-3.26,2.64-5.9,5.9-5.9h261.96c3.26,0,5.9,2.64,5.9,5.9
				C1784.14,1520.07,1781.5,1522.71,1778.24,1522.71z"/>
		</g>
		<g>
			<path class="st1" d="M1778.24,1615.21h-261.96c-3.26,0-5.9-2.64-5.9-5.9s2.64-5.9,5.9-5.9h261.96c3.26,0,5.9,2.64,5.9,5.9
				S1781.5,1615.21,1778.24,1615.21z"/>
		</g>
		<g>
			<path class="st1" d="M1778.24,1707.7h-261.96c-3.26,0-5.9-2.64-5.9-5.9c0-3.26,2.64-5.9,5.9-5.9h261.96c3.26,0,5.9,2.64,5.9,5.9
				C1784.14,1705.06,1781.5,1707.7,1778.24,1707.7z"/>
		</g>
		<g>
			<path class="st1" d="M1778.24,1800.2h-261.96c-3.26,0-5.9-2.64-5.9-5.9s2.64-5.9,5.9-5.9h261.96c3.26,0,5.9,2.64,5.9,5.9
				S1781.5,1800.2,1778.24,1800.2z"/>
		</g>
		<g>
			<path class="st1" d="M1778.24,1892.69h-261.96c-3.26,0-5.9-2.64-5.9-5.9s2.64-5.9,5.9-5.9h261.96c3.26,0,5.9,2.64,5.9,5.9
				S1781.5,1892.69,1778.24,1892.69z"/>
		</g>
		<g>
			<path class="st1" d="M1778.24,1985.19h-261.96c-3.26,0-5.9-2.64-5.9-5.9s2.64-5.9,5.9-5.9h261.96c3.26,0,5.9,2.64,5.9,5.9
				S1781.5,1985.19,1778.24,1985.19z"/>
		</g>
		<g>
			<path class="st1" d="M1778.24,2077.69h-261.96c-3.26,0-5.9-2.64-5.9-5.9s2.64-5.9,5.9-5.9h261.96c3.26,0,5.9,2.64,5.9,5.9
				S1781.5,2077.69,1778.24,2077.69z"/>
		</g>
	</g>
	<g>
		<g>
			<path class="st0" d="M1644.04,831.84c0,0-57.51-17.94-121.99-67.55l-15.86,22.34c0,0,74.26,68.94,133.26,88.31L1644.04,831.84z"
				/>
			<path class="st1" d="M1639.45,875.81c-0.09,0-0.18-0.01-0.27-0.04c-16.88-5.54-46.03-18.99-89.01-51.55
				c-25.68-19.46-44.39-36.77-44.57-36.95c-0.32-0.3-0.37-0.79-0.12-1.15l15.86-22.34c0.14-0.19,0.35-0.32,0.58-0.36
				c0.24-0.03,0.47,0.03,0.66,0.17c63.6,48.93,121.14,67.23,121.71,67.4c0.4,0.12,0.65,0.51,0.61,0.93l-4.59,43.1
				c-0.03,0.26-0.17,0.5-0.4,0.64C1639.78,875.77,1639.62,875.81,1639.45,875.81z M1507.35,786.51
				c6.95,6.35,76.06,68.62,131.34,87.26l4.4-41.32c-6.68-2.21-61.03-21.07-120.85-66.91L1507.35,786.51z"/>
		</g>
		<g>
			<path class="st0" d="M1592.55,1315.05l13.39-7.57c0.38-0.21,0.54-0.68,0.38-1.08l-19.28-48.92l32.93-7.4l1.22,56.4l-8.43,13.23
				L1592.55,1315.05z"/>
			<path class="st1" d="M1619.12,1251.17l1.2,55.06l-7.96,12.48l-17.42-4.01l11.43-6.46c0.76-0.43,1.09-1.35,0.77-2.17l-18.9-47.97
				L1619.12,1251.17 M1620.83,1248.99l-34.97,7.86l19.65,49.87l-15.35,8.67l23.01,5.3l8.91-13.97L1620.83,1248.99L1620.83,1248.99z"
				/>
		</g>
		<path class="st1" d="M1593.63,1313.39c10.66,6.41,28.45-6.67,28.45-6.67l5.29,19.82l-54.15-1.38L1593.63,1313.39z"/>
		<g>
			<path class="st0" d="M1643.71,1413.48l0.45-3.69l11.67-6.55c0.34-0.19,0.51-0.59,0.42-0.97l-14.51-60.04h31.27l-2.09,60.14
				l-4.95,11.11H1643.71z"/>
			<path class="st1" d="M1672.11,1343.11l-2.05,59.07l-4.65,10.44h-20.71l0.28-2.27l11.29-6.34c0.68-0.38,1.03-1.18,0.84-1.94
				l-14.25-58.96H1672.11 M1673.92,1341.36h-33.28l14.77,61.12l-12.06,6.77l-0.63,5.12h23.83l5.25-11.79L1673.92,1341.36
				L1673.92,1341.36z"/>
		</g>
		<g>
			<path class="st3" d="M1681.49,991.23l-89.2,96.24c-8.19,8.83-12.56,20.53-12.18,32.57l5.19,163.66l35.43-2.28l-4.22,63.75
				l60.85-0.4l10.9-168.43l60.75-94.37c12.33-16.8,15.28-38.82,7.4-58.11c-9.49-23.23-17.53-42.87-17.53-42.87L1681.49,991.23z"/>
			<path class="st1" d="M1616.5,1346.04c-0.24,0-0.47-0.1-0.64-0.28c-0.17-0.18-0.25-0.41-0.24-0.66l4.15-62.75l-34.43,2.21
				c-0.24,0.01-0.47-0.07-0.64-0.23c-0.18-0.16-0.28-0.38-0.29-0.62l-5.19-163.66c-0.39-12.35,4.02-24.13,12.41-33.19l89.2-96.24
				c0.13-0.14,0.3-0.23,0.49-0.27l57.39-10.24c0.41-0.07,0.81,0.15,0.96,0.53c0,0,8.05,19.65,17.53,42.87
				c7.89,19.31,5.01,41.9-7.51,58.96l-60.6,94.13l-10.88,168.21c-0.03,0.46-0.41,0.82-0.87,0.82L1616.5,1346.04
				C1616.51,1346.04,1616.5,1346.04,1616.5,1346.04z M1620.72,1280.55c0.23,0,0.45,0.09,0.62,0.26c0.18,0.18,0.27,0.42,0.25,0.68
				l-4.16,62.81l59.09-0.39l10.85-167.62c0.01-0.15,0.06-0.29,0.14-0.42l60.75-94.37c12.19-16.61,14.99-38.55,7.33-57.3
				c-8.47-20.74-15.8-38.63-17.26-42.22l-56.4,10.07l-89,96.02c-8.08,8.72-12.33,20.07-11.95,31.95l5.16,162.76l34.52-2.22
				C1620.68,1280.55,1620.7,1280.55,1620.72,1280.55z"/>
		</g>
		<g>
			<path class="st0" d="M1672.43,801.12c0,0,4.14-15.05,2.8-28.53c-1.69-17-10.56-34.93-27.54-33.43
				c-30.45,2.7-21.24,39.41-21.24,39.41l0.8,2.04l-4.17,6.95c-1.18,1.97-0.06,4.51,2.19,4.97l2.87,0.58l0.4,5.9
				c0.71,8.05,6.07,14.57,13.2,17.15l0.61-0.12l1.93,18.12l-0.43,7.5c-0.57,9.86,12.66,13.62,17.36,4.93l12.75-18.1
				C1673.96,828.49,1672.72,803.5,1672.43,801.12z"/>
			<path class="st1" d="M1653.16,852.32c-0.98,0-1.95-0.14-2.84-0.39c-3.88-1.1-7.66-4.72-7.34-10.31l0.43-7.43l-1.83-17.17
				c-0.04-0.01-0.09-0.02-0.13-0.04c-7.65-2.77-13.06-9.79-13.78-17.9l-0.36-5.26l-2.22-0.45c-1.35-0.28-2.45-1.16-3.01-2.42
				c-0.56-1.26-0.47-2.67,0.24-3.85l3.95-6.58l-0.64-1.64c-0.01-0.03-0.02-0.07-0.03-0.11c-0.19-0.78-4.67-19.15,3.78-31.04
				c3.95-5.55,10.08-8.73,18.23-9.45c17.18-1.53,26.69,16.09,28.49,34.21c1.27,12.73-2.34,27-2.79,28.69
				c0.32,3.19,1.46,26.26,1.51,27.26c0.01,0.19-0.05,0.39-0.16,0.55l-12.72,18.06C1659.9,850.81,1656.42,852.32,1653.16,852.32z
				 M1642.36,815.16c0.19,0,0.37,0.06,0.52,0.17c0.2,0.15,0.32,0.37,0.35,0.61l1.93,18.12c0,0.05,0.01,0.1,0,0.14l-0.43,7.5
				c-0.29,4.94,3.09,7.68,6.07,8.53c2.98,0.85,7.29,0.29,9.64-4.07c0.02-0.03,0.03-0.06,0.05-0.09l12.57-17.85
				c-0.14-2.84-1.24-24.82-1.51-27.01c-0.01-0.11-0.01-0.23,0.02-0.34c0.04-0.15,4.08-15.06,2.78-28.22
				c-1.72-17.27-10.6-34.06-26.59-32.64c-7.62,0.67-13.32,3.61-16.96,8.72c-7.78,10.94-3.78,28.47-3.52,29.55l0.78,1.99
				c0.1,0.25,0.07,0.54-0.06,0.77l-4.17,6.95c-0.41,0.69-0.47,1.51-0.14,2.25c0.32,0.74,0.96,1.25,1.75,1.41l2.87,0.59
				c0.39,0.08,0.67,0.41,0.7,0.8l0.4,5.9c0.65,7.33,5.51,13.71,12.4,16.3l0.37-0.07C1642.24,815.17,1642.3,815.16,1642.36,815.16z"
				/>
		</g>
		<path class="st1" d="M1637.95,777.31c0.11,1.23-0.42,2.28-1.18,2.35s-1.46-0.87-1.57-2.1s0.42-2.28,1.18-2.35
			C1637.14,775.14,1637.84,776.08,1637.95,777.31z"/>
		<g>
			<path class="st1" d="M1639.74,774.51c-0.24,0-0.47-0.1-0.64-0.28c-2.88-3.14-5.87-1.29-5.99-1.21c-0.41,0.26-0.95,0.14-1.21-0.26
				c-0.26-0.41-0.14-0.95,0.26-1.21c1.49-0.96,5.13-1.87,8.22,1.5c0.33,0.36,0.3,0.91-0.05,1.24
				C1640.17,774.43,1639.95,774.51,1639.74,774.51z"/>
		</g>
		<g>
			<path class="st1" d="M1636.16,804.52c-0.36,0-0.7-0.23-0.83-0.59c-0.16-0.46,0.08-0.96,0.54-1.11c2.35-0.82,4.51-2.21,6.23-4.01
				c0.33-0.35,0.89-0.36,1.24-0.03c0.35,0.33,0.36,0.89,0.03,1.24c-1.91,2-4.3,3.55-6.92,4.46
				C1636.36,804.5,1636.26,804.52,1636.16,804.52z"/>
		</g>
		<g>
			<path class="st1" d="M1642.35,816.91c-0.45,0-0.83-0.34-0.87-0.8c-0.04-0.48,0.32-0.9,0.8-0.95c0.07-0.01,7.31-0.67,10.19-3.99
				c0.32-0.37,0.87-0.4,1.23-0.09c0.37,0.32,0.4,0.87,0.09,1.23c-3.35,3.86-11.04,4.56-11.36,4.59
				C1642.4,816.91,1642.38,816.91,1642.35,816.91z"/>
		</g>
		<g>
			<path class="st1" d="M1669.35,783.31c-0.38,0-0.73-0.25-0.84-0.64c-0.55-1.95-1.44-3.23-2.64-3.79
				c-1.54-0.72-3.15-0.05-3.17-0.04c-0.44,0.19-0.96-0.01-1.15-0.45c-0.19-0.44,0.01-0.96,0.45-1.15c0.09-0.04,2.35-1.01,4.62,0.06
				c1.68,0.79,2.88,2.44,3.58,4.9c0.13,0.46-0.14,0.95-0.6,1.08C1669.51,783.3,1669.43,783.31,1669.35,783.31z"/>
		</g>
		<g>
			<path class="st1" d="M1663.77,786.33c-0.03,0-0.06,0-0.08,0c-0.48-0.05-0.83-0.47-0.79-0.95c0.43-4.61,4.08-6.93,4.24-7.03
				c0.41-0.25,0.95-0.13,1.21,0.28c0.25,0.41,0.13,0.95-0.28,1.2l0,0c-0.03,0.02-3.07,1.98-3.42,5.7
				C1664.6,785.99,1664.21,786.33,1663.77,786.33z"/>
		</g>
		<g>
			<path class="st1" d="M1665.02,791.29c-0.42,0-0.79-0.3-0.86-0.73c-0.08-0.48,0.24-0.93,0.72-1.01c4.76-0.81,6.71-3.41,6.73-3.43
				c0.28-0.39,0.83-0.48,1.22-0.19c0.39,0.28,0.48,0.82,0.2,1.22c-0.09,0.13-2.33,3.19-7.85,4.14
				C1665.12,791.28,1665.07,791.29,1665.02,791.29z"/>
		</g>
		<path class="st1" d="M1643.35,1409.24c10.66,6.41,28.45-6.67,28.45-6.67l5.29,19.82l-54.15-1.38L1643.35,1409.24z"/>
		<g>
			<path class="st1" d="M1620.83,1282.74c-0.48,0-0.88-0.39-0.88-0.88v-101.92c0-14.31,2.98-28.18,8.85-41.22l46.68-103.66
				l-4.87-16.19c-0.14-0.46,0.12-0.95,0.59-1.09c0.46-0.14,0.95,0.12,1.09,0.59l4.97,16.5c0.06,0.2,0.05,0.42-0.04,0.61
				l-46.81,103.96c-5.77,12.82-8.7,26.45-8.7,40.5v101.92C1621.7,1282.35,1621.31,1282.74,1620.83,1282.74z"/>
		</g>
		<g>
			<path class="st2" d="M1633.82,927.95c6.58,9.78,24.35,11.66,24.35,11.66l23.41,52.93l57.05-10.71c0,0-16.4-163.78-72.24-159.9
				c0,0-28.02-2.89-52.2,55.74L1633.82,927.95z"/>
			<path class="st1" d="M1681.58,993.42c-0.34,0-0.66-0.2-0.8-0.52l-23.21-52.48c-3.04-0.39-18.3-2.79-24.48-11.98
				c-0.04-0.05-0.07-0.11-0.09-0.17L1613.38,878c-0.08-0.21-0.08-0.44,0.01-0.65c23.75-57.6,51.01-56.45,53.02-56.29
				c23.6-1.59,43.08,25.04,57.89,79.14c10.97,40.07,15.17,81.14,15.21,81.55c0.05,0.45-0.26,0.86-0.71,0.95l-57.05,10.71
				C1681.68,993.41,1681.63,993.42,1681.58,993.42z M1634.6,927.54c6.31,9.26,23.49,11.18,23.66,11.2c0.31,0.03,0.58,0.23,0.71,0.52
				l23.13,52.3l55.58-10.43c-1.35-12.36-18.82-161.95-71.22-158.32c-0.05,0-0.1,0-0.15,0c-0.27-0.03-27.6-1.99-51.17,54.88
				L1634.6,927.54z"/>
		</g>
		<g>
			
				<ellipse transform="matrix(0.7071 -0.7071 0.7071 0.7071 -195.5475 1277.7855)" class="st4" cx="1444.65" cy="874.94" rx="159.32" ry="159.32"/>
			<path class="st1" d="M1444.65,1035.76c-88.68,0-160.82-72.14-160.82-160.82c0-88.68,72.14-160.82,160.82-160.82
				c88.68,0,160.82,72.14,160.82,160.82C1605.47,963.62,1533.33,1035.76,1444.65,1035.76z M1444.65,717.12
				c-87.02,0-157.82,70.8-157.82,157.82c0,87.02,70.8,157.82,157.82,157.82c87.02,0,157.82-70.8,157.82-157.82
				C1602.47,787.92,1531.67,717.12,1444.65,717.12z"/>
		</g>
		
			<ellipse transform="matrix(0.866 -0.5 0.5 0.866 -200.1432 880.3849)" class="st0" cx="1542.75" cy="813.66" rx="19.91" ry="53.62"/>
		<g>
			<path class="st0" d="M1648.13,909.2c0,0-40.23,61.7-135.74,21.29l-16.49,3.73c-4.26,0.89-3.91-1.69-6.88-5.62
				c0,0-2.6-1.8-2.62-3.7c-0.01-1.02,0.94-3.38,0.94-3.38c-2.92-5.98,3-5.6,3.74-4.72l2.66,1.79c4.04-0.86,5.04-3.34,2.72-6.75
				l-2.11-1.37c-1.27-0.83-1.51-2.59-0.5-3.73l0,0c0.81-0.92,2.17-1.1,3.2-0.43c1.29,0.84,2.97,1.94,3.95,2.64
				c2.36,1.67,8.94,5.45,8.94,5.45c19.09,0.7,46.88-3.52,66.41-6.51c17.48-2.68,32.03-11.18,38.77-27.52L1648.13,909.2z"/>
			<path class="st1" d="M1573.18,945.01c-16.9,0-37.16-3.61-60.88-13.61l-16.21,3.67c-3.71,0.78-4.7-0.94-5.95-3.12
				c-0.46-0.81-0.99-1.72-1.74-2.72c-0.6-0.44-2.85-2.23-2.88-4.32c-0.01-0.94,0.57-2.58,0.86-3.36c-1.55-3.43-0.28-4.93,0.64-5.52
				c1.43-0.92,3.75-0.72,4.61,0.1l2.27,1.52c1.1-0.28,2.36-0.81,2.76-1.81c0.43-1.06-0.2-2.39-0.84-3.38l-1.96-1.28
				c-0.82-0.53-1.36-1.4-1.49-2.37c-0.13-0.97,0.17-1.94,0.82-2.68c1.11-1.25,2.93-1.5,4.33-0.59c1.26,0.81,2.97,1.94,3.98,2.66
				c2.08,1.47,7.59,4.67,8.68,5.29c19.25,0.66,47.39-3.65,66.03-6.51c18.83-2.89,32.01-12.22,38.1-26.99
				c0.11-0.26,0.33-0.45,0.61-0.52c0.28-0.06,0.56,0.01,0.78,0.19l33,28.85c0.33,0.29,0.4,0.77,0.16,1.14
				c-0.1,0.16-10.45,15.75-32.41,26.11C1605.93,940.75,1591.55,945.01,1573.18,945.01z M1512.38,929.62c0.12,0,0.23,0.02,0.34,0.07
				c27.07,11.45,66.91,21.53,102.98,4.52c19.04-8.98,29.12-21.9,31.26-24.86l-31.5-27.54c-6.53,14.72-19.98,24.02-38.97,26.94
				c-18.78,2.88-47.16,7.23-66.58,6.52c-0.14-0.01-0.28-0.04-0.4-0.12c-0.27-0.15-6.64-3.81-9.01-5.49
				c-0.99-0.7-2.68-1.81-3.92-2.62c-0.67-0.44-1.54-0.32-2.07,0.28c-0.31,0.35-0.45,0.82-0.39,1.28c0.06,0.46,0.32,0.88,0.71,1.13
				l2.11,1.37c0.1,0.06,0.18,0.15,0.25,0.24c1.66,2.44,1.52,4.15,1.11,5.16c-0.41,1.01-1.49,2.34-4.38,2.95
				c-0.23,0.05-0.47,0-0.67-0.13l-2.66-1.79c-0.07-0.05-0.13-0.1-0.19-0.17c-0.25-0.18-1.78-0.41-2.55,0.23
				c-0.9,0.75-0.22,2.54,0.27,3.54c0.11,0.22,0.12,0.48,0.03,0.71c-0.37,0.91-0.88,2.46-0.88,3.04c0.02,1.17,1.67,2.59,2.25,3
				c0.08,0.05,0.14,0.12,0.2,0.19c0.86,1.14,1.46,2.17,1.94,3.01c1.24,2.15,1.61,2.8,4.06,2.28l16.47-3.73
				C1512.26,929.62,1512.32,929.62,1512.38,929.62z"/>
		</g>
		<g>
			<path class="st1" d="M1648.13,910.12c-0.23,0-0.46-0.09-0.63-0.27c-0.33-0.35-0.32-0.9,0.03-1.24c0.17-0.17,17.43-16.71,24.33-34
				c0.18-0.45,0.69-0.67,1.14-0.49c0.45,0.18,0.67,0.69,0.49,1.14c-7.04,17.66-24.57,34.45-24.75,34.62
				C1648.56,910.04,1648.35,910.12,1648.13,910.12z"/>
		</g>
		<path class="st1" d="M1698.88,808.37c0.39-1.51,0.61-3.09,0.61-4.72c0-10.58-8.58-19.15-19.15-19.15c-1.09,0-2.14,0.11-3.18,0.29
			l3.29-10.01c0.2-0.58,0.38-1.17,0.53-1.76l0.02-0.08c0,0,0,0,0,0c1.22-4.77,0.86-9.94-1.14-14.64
			c-1.51-3.56-13.58-26.23-38.45-18.61c-18.4,5.64-16.38,20.18-16.38,20.18c4.17,14.58,22.86,18.43,34.42,22.98l0.25-2.41
			c0.4-3.89,4.05-6.77,7.86-5.92c2.1,0.47,4.07,2,4.97,5.7c1.28,5.27-2.96,7.55-2.96,7.55l0,0.02c-5.07,3.45-8.39,9.26-8.39,15.85
			c0,8.42,5.45,15.56,13.01,18.13c0.75,7.73,7.26,13.77,15.18,13.77c8.43,0,15.26-6.83,15.26-15.26
			C1704.62,815.46,1702.38,811.16,1698.88,808.37z"/>
		<g>
			<path class="st1" d="M1492.88,924.23c-0.07,0-0.14-0.01-0.21-0.03l-5.24-1.3c-0.47-0.12-0.75-0.59-0.64-1.06
				c0.12-0.47,0.59-0.75,1.06-0.64l5.24,1.3c0.47,0.12,0.75,0.59,0.64,1.06C1493.63,923.97,1493.28,924.23,1492.88,924.23z"/>
		</g>
		<g>
			<path class="st1" d="M1493.67,930.14c-0.06,0-0.11-0.01-0.17-0.02l-4.81-0.95c-0.47-0.09-0.78-0.55-0.69-1.03
				c0.09-0.47,0.55-0.78,1.03-0.69l4.81,0.95c0.47,0.09,0.78,0.55,0.69,1.03C1494.45,929.85,1494.08,930.14,1493.67,930.14z"/>
		</g>
		<g>
			<path class="st0" d="M1559.97,764.85l1.78-1.41c0.99-0.78,1.15-2.21,0.37-3.2l0,0c-0.78-0.99-2.21-1.15-3.2-0.37l-1.78,1.41
				c-0.99,0.78-1.15,2.21-0.37,3.2l0,0C1557.55,765.47,1558.98,765.64,1559.97,764.85z"/>
			<path class="st1" d="M1558.56,766.22c-0.12,0-0.25-0.01-0.37-0.02c-0.84-0.1-1.59-0.51-2.11-1.17c-0.52-0.66-0.76-1.48-0.66-2.32
				c0.1-0.84,0.51-1.59,1.17-2.11l1.78-1.41c0.66-0.52,1.49-0.76,2.32-0.66c0.84,0.1,1.59,0.51,2.11,1.17
				c1.08,1.36,0.85,3.35-0.51,4.43l-1.78,1.41C1559.95,765.99,1559.27,766.22,1558.56,766.22z M1560.33,760.25
				c-0.31,0-0.62,0.1-0.87,0.3l-1.78,1.41c-0.29,0.23-0.48,0.57-0.52,0.94c-0.04,0.37,0.06,0.74,0.29,1.03
				c0.23,0.29,0.57,0.48,0.94,0.52c0.37,0.04,0.74-0.06,1.03-0.29c0,0,0,0,0,0l1.78-1.41c0.29-0.23,0.48-0.57,0.52-0.94
				c0.04-0.37-0.06-0.74-0.29-1.03c-0.23-0.29-0.57-0.48-0.94-0.52C1560.44,760.26,1560.39,760.25,1560.33,760.25z"/>
		</g>
		<g>
			<path class="st0" d="M1562.86,768.5l1.78-1.41c0.99-0.78,1.15-2.21,0.37-3.2l0,0c-0.78-0.99-2.21-1.15-3.2-0.37l-1.78,1.41
				c-0.99,0.78-1.15,2.21-0.37,3.2l0,0C1560.44,769.12,1561.87,769.28,1562.86,768.5z"/>
			<path class="st1" d="M1561.45,769.87c-0.93,0-1.85-0.41-2.48-1.19c-1.08-1.36-0.85-3.35,0.51-4.43l1.78-1.41
				c1.36-1.08,3.35-0.85,4.43,0.51c0.52,0.66,0.76,1.48,0.66,2.32c-0.1,0.84-0.51,1.59-1.17,2.11l-1.78,1.41h0
				C1562.82,769.65,1562.13,769.87,1561.45,769.87z M1563.22,763.9c-0.31,0-0.62,0.11-0.87,0.3l-1.78,1.41
				c-0.61,0.48-0.71,1.36-0.23,1.97c0.48,0.61,1.36,0.71,1.97,0.23c0,0,0,0,0,0l1.78-1.41c0.29-0.23,0.48-0.57,0.52-0.94
				c0.04-0.37-0.06-0.74-0.29-1.03c-0.23-0.29-0.57-0.48-0.94-0.52C1563.33,763.91,1563.28,763.9,1563.22,763.9z"/>
		</g>
		<g>
			<path class="st0" d="M1565.78,772.19l1.78-1.41c0.99-0.78,1.15-2.21,0.37-3.2l0,0c-0.78-0.99-2.21-1.15-3.2-0.37l-1.78,1.41
				c-0.99,0.78-1.15,2.21-0.37,3.2l0,0C1563.36,772.81,1564.79,772.97,1565.78,772.19z"/>
			<path class="st1" d="M1564.37,773.56c-0.12,0-0.25-0.01-0.37-0.02c-0.84-0.1-1.59-0.51-2.11-1.17c-0.52-0.66-0.76-1.48-0.66-2.32
				c0.1-0.84,0.51-1.59,1.17-2.11l1.78-1.41c1.36-1.08,3.35-0.85,4.43,0.51c1.08,1.36,0.85,3.35-0.51,4.43l-1.78,1.41
				C1565.76,773.32,1565.08,773.56,1564.37,773.56z M1566.14,767.59c-0.31,0-0.61,0.1-0.87,0.3l-1.78,1.41
				c-0.29,0.23-0.48,0.57-0.52,0.94c-0.04,0.37,0.06,0.74,0.29,1.03c0.23,0.29,0.57,0.48,0.94,0.52c0.37,0.04,0.74-0.06,1.03-0.29h0
				l1.78-1.41c0.61-0.48,0.71-1.36,0.23-1.97C1566.97,767.77,1566.56,767.59,1566.14,767.59z"/>
		</g>
	</g>
	<g>
		<g>
			<g>
				<path class="st0" d="M375.35,1678.22l-0.1,37.72c0,0,4.13,7.99,6.22,10.08c7.43,7.42,25.5,2.4,25.5-10.29l0.02-6.16l0,0
					c7.71-1,14.48-6.42,16.82-14.35l12.87-41.41l-56.17-13.32l-4.53,17.15l-0.5,0.72c0,0-5.76-1.57-8.62,7.79
					C364,1675.49,373.56,1677.95,375.35,1678.22"/>
				<path class="st1" d="M390.9,1730.34c-3.94,0-7.62-1.28-10.05-3.71c-2.17-2.16-6.21-9.96-6.38-10.29c-0.06-0.13-0.1-0.26-0.1-0.4
					l0.1-36.99c-2.2-0.5-5.85-1.98-7.73-4.97c-1.42-2.26-1.66-4.98-0.71-8.09c2.5-8.19,7.31-8.6,9.04-8.47l0.11-0.15l4.49-17
					c0.12-0.46,0.59-0.73,1.05-0.63l56.17,13.32c0.24,0.06,0.44,0.21,0.56,0.42s0.15,0.46,0.08,0.69l-12.87,41.41
					c-2.29,7.76-8.84,13.51-16.78,14.84l-0.02,5.4c0,5.74-3.57,10.65-9.54,13.13C395.88,1729.85,393.34,1730.34,390.9,1730.34z
					 M376.12,1715.72c0.63,1.21,4.16,7.87,5.96,9.67c3.45,3.44,9.84,4.2,15.54,1.84c5.3-2.2,8.47-6.5,8.47-11.51l0.02-6.16
					c0-0.44,0.33-0.81,0.76-0.86c7.6-0.99,13.92-6.38,16.1-13.73l12.6-40.53l-54.43-12.91l-4.31,16.32
					c-0.03,0.1-0.07,0.19-0.13,0.28l-0.5,0.72c-0.21,0.3-0.59,0.44-0.95,0.34c-0.19-0.05-5-1.16-7.55,7.2
					c-0.8,2.6-0.62,4.84,0.52,6.65c1.84,2.92,5.86,4.11,7.26,4.32c0.43,0.06,0.75,0.43,0.75,0.87L376.12,1715.72z"/>
			</g>
			<path class="st1" d="M385.25,1653.01l-3.22,8.31c0,0-3.18-3.27-6.92-3.95c0,0,3.54-14.86,5.41-20.41
				c2.98-8.86,6.86-18.08,36.43-11.24c34.51,7.98,23.55,30.22,17.97,33.36c-5.46,3.07-18.84-1.49-25.53-5.6
				c-3.04-1.87-5.55-4.38-8.43-6.1C395.19,1643.94,387.67,1646.74,385.25,1653.01z"/>
			<path class="st1" d="M419.64,1675.42c-0.35,1.19-0.04,2.33,0.69,2.55c0.74,0.22,1.62-0.57,1.97-1.76
				c0.35-1.19,0.04-2.33-0.69-2.55C420.87,1673.44,419.99,1674.23,419.64,1675.42z"/>
			<path class="st1" d="M401.16,1669.96c-0.35,1.19-0.04,2.33,0.69,2.55c0.74,0.22,1.62-0.57,1.97-1.76
				c0.35-1.19,0.04-2.33-0.69-2.55C402.4,1667.98,401.52,1668.77,401.16,1669.96z"/>
			<g>
				<path class="st1" d="M377.13,1679.36c-0.02,0-0.04,0-0.06,0c-0.06-0.01-1.55-0.12-3.45-0.66c-0.46-0.13-0.73-0.62-0.6-1.08
					c0.13-0.46,0.62-0.73,1.08-0.6c1.72,0.49,3.07,0.59,3.09,0.59c0.48,0.03,0.85,0.45,0.81,0.94
					C377.97,1679.01,377.59,1679.36,377.13,1679.36z"/>
			</g>
			<g>
				<path class="st1" d="M410.58,1692.34c-0.43,0-0.81-0.32-0.87-0.76c-0.06-0.48,0.28-0.92,0.76-0.98l2.82-0.36l-0.5-10.45
					c-0.01-0.11,0.01-0.22,0.05-0.33l2.65-7.65c0.16-0.46,0.66-0.7,1.11-0.54c0.46,0.16,0.7,0.66,0.54,1.11l-2.59,7.49l0.53,11.09
					c0.02,0.46-0.31,0.85-0.76,0.91l-3.62,0.46C410.65,1692.34,410.61,1692.34,410.58,1692.34z"/>
			</g>
			<g>
				<path class="st1" d="M408.1,1664.44c-0.36,0-0.7-0.22-0.82-0.58c-0.05-0.15-1.32-3.46-5.52-2.75c-0.48,0.08-0.93-0.24-1.01-0.72
					c-0.08-0.48,0.24-0.93,0.72-1.01c4.54-0.76,6.86,2.21,7.46,3.89c0.16,0.46-0.08,0.96-0.53,1.12
					C408.29,1664.43,408.19,1664.44,408.1,1664.44z"/>
			</g>
			<g>
				<path class="st1" d="M426.85,1669.66c-0.31,0-0.61-0.16-0.77-0.45c-0.08-0.15-1.86-3.2-5.88-1.84
					c-0.46,0.16-0.95-0.09-1.11-0.55c-0.16-0.46,0.09-0.95,0.55-1.11c4.36-1.48,7.13,1.09,7.98,2.66c0.23,0.42,0.08,0.96-0.35,1.19
					C427.13,1669.62,426.99,1669.66,426.85,1669.66z"/>
			</g>
			<g>
				<path class="st1" d="M369.28,1668.41c-0.12,0-0.24-0.02-0.35-0.08c-0.44-0.2-0.64-0.71-0.45-1.15c1.27-2.86,3-4.65,5.15-5.32
					c2.91-0.9,5.44,0.65,5.55,0.71c0.41,0.25,0.54,0.79,0.28,1.2c-0.25,0.41-0.79,0.54-1.2,0.28c-0.04-0.02-2-1.19-4.13-0.52
					c-1.64,0.51-3,1.97-4.05,4.34C369.94,1668.21,369.62,1668.41,369.28,1668.41z"/>
			</g>
			<g>
				<path class="st1" d="M375.67,1673.11c-0.01,0-0.03,0-0.04,0c-0.48-0.02-0.86-0.43-0.83-0.91c0.22-4.82-3.28-7.8-3.32-7.83
					c-0.37-0.31-0.42-0.86-0.11-1.23c0.31-0.37,0.86-0.42,1.23-0.11c0.17,0.14,4.2,3.58,3.94,9.26
					C376.52,1672.74,376.13,1673.11,375.67,1673.11z"/>
			</g>
			<g>
				<path class="st1" d="M400.65,1697.56c-0.1,0-0.2-0.02-0.3-0.05c-1.31-0.47-2.59-1.06-3.85-2.97c-0.27-0.4-0.15-0.95,0.25-1.21
					c0.4-0.26,0.95-0.15,1.21,0.25c0.97,1.47,1.85,1.88,2.98,2.29c0.45,0.17,0.69,0.67,0.52,1.12
					C401.35,1697.34,401.01,1697.56,400.65,1697.56z"/>
			</g>
			<g>
				<path class="st0" d="M329.29,1867.49l0.55,52.87h128.95c0,0,41.83-196.03-52.25-201.18l-4.56,4.99
					c-4.33,4.74-12.18,6.72-17.64,3.36c-6.63-4.08-9.1-11.6-9.1-11.6s-48.74,0.07-61,52.94
					C303.51,1815.19,307.63,1864.51,329.29,1867.49z"/>
				<path class="st1" d="M458.79,1921.23H329.84c-0.48,0-0.87-0.39-0.88-0.87l-0.55-52.13c-4.45-0.83-8.29-3.57-11.44-8.13
					c-10.92-15.85-12.39-53.45-3.58-91.43c6.41-27.65,22.88-40.75,35.57-46.88c13.74-6.64,25.78-6.73,26.28-6.73c0,0,0,0,0,0
					c0.38,0,0.71,0.24,0.83,0.6c0.02,0.07,2.46,7.27,8.73,11.13c4.81,2.95,12.22,1.51,16.54-3.21l4.56-4.99
					c0.18-0.2,0.44-0.29,0.69-0.28c16.96,0.93,30.69,8.11,40.82,21.35c20.57,26.89,22.79,74.68,21.03,110.03
					c-1.9,38.21-8.73,70.53-8.79,70.86C459.56,1920.94,459.21,1921.23,458.79,1921.23z M330.71,1919.48h127.38
					c2.08-10.25,25.26-129.97-12.06-178.76c-9.72-12.71-22.88-19.65-39.11-20.64l-4.28,4.68c-4.85,5.31-13.26,6.89-18.75,3.52
					c-5.78-3.55-8.49-9.51-9.25-11.45c-2.61,0.11-13.3,0.91-24.98,6.57c-12.32,5.97-28.31,18.73-34.56,45.67
					c-8.7,37.54-7.34,74.57,3.32,90.05c3.03,4.4,6.72,6.93,10.98,7.51c0.43,0.06,0.75,0.42,0.76,0.86L330.71,1919.48z"/>
			</g>
			<g>
				<path class="st1" d="M404.53,1710.54c-2.02,0-4.02-0.29-5.99-0.88l-4.61-1.36c-0.46-0.14-0.73-0.62-0.59-1.09
					c0.14-0.46,0.62-0.73,1.09-0.59l4.61,1.36c2.62,0.77,5.31,0.99,7.99,0.64c0.48-0.06,0.92,0.28,0.98,0.75
					c0.06,0.48-0.28,0.92-0.75,0.98C406.34,1710.48,405.43,1710.54,404.53,1710.54z"/>
			</g>
			<g>
				<path class="st0" d="M329.29,1867.49c21.66,2.98,76.26-38.19,84.24-85.79c3.27-19.52-2.33-36.95-2.33-36.95l-14.39-11.32
					l4.89-4.19c1.93-1.65,2.21-4.54,0.64-6.53l0,0c-1.67-2.11-4.77-2.41-6.81-0.65l-13.91,11.99c-3.54,3.05-4.55,8.12-2.44,12.29
					l8.72,17.29c-5.09,11.02-14.81,22.37-24.56,31.95c-14.22,13.99-28.49,24.24-28.49,24.24"/>
				<path class="st1" d="M331.62,1868.52c-0.86,0-1.67-0.05-2.45-0.16c-0.48-0.07-0.81-0.51-0.75-0.99
					c0.07-0.48,0.51-0.81,0.99-0.75c21.2,2.91,75.38-38.08,83.25-85.06c2.98-17.82-1.56-34.09-2.22-36.29l-14.17-11.16
					c-0.21-0.16-0.33-0.41-0.33-0.67c-0.01-0.26,0.11-0.51,0.31-0.68l4.89-4.19c1.58-1.35,1.81-3.69,0.52-5.33
					c-0.66-0.83-1.6-1.35-2.66-1.45c-1.06-0.09-2.08,0.22-2.89,0.92l-13.91,11.99c-3.24,2.79-4.16,7.41-2.23,11.24l8.72,17.29
					c0.12,0.24,0.13,0.52,0.01,0.76c-4.42,9.58-12.75,20.41-24.74,32.21c-14.11,13.88-28.45,24.22-28.6,24.32
					c-0.39,0.28-0.94,0.19-1.22-0.2c-0.28-0.39-0.19-0.94,0.2-1.22c0.14-0.1,14.38-10.37,28.39-24.15
					c11.68-11.49,19.82-22.02,24.2-31.31l-8.53-16.91c-2.29-4.54-1.2-10.03,2.65-13.35l13.91-11.99c1.17-1.01,2.65-1.49,4.2-1.33
					c1.54,0.15,2.91,0.9,3.87,2.11c1.88,2.37,1.54,5.77-0.75,7.74l-4.08,3.5l13.55,10.67c0.14,0.11,0.24,0.25,0.29,0.42
					c0.06,0.18,5.62,17.86,2.35,37.37c-3.56,21.23-17.14,43.96-37.26,62.36C360.86,1859.08,343.05,1868.52,331.62,1868.52z"/>
			</g>
			<g>
				<line class="st0" x1="396.81" y1="1733.43" x2="386.71" y2="1742.2"/>
				<path class="st1" d="M386.71,1743.08c-0.24,0-0.49-0.1-0.66-0.3c-0.32-0.37-0.28-0.92,0.09-1.23l10.1-8.78
					c0.36-0.32,0.92-0.28,1.23,0.09c0.32,0.37,0.28,0.92-0.09,1.23l-10.1,8.78C387.12,1743.01,386.91,1743.08,386.71,1743.08z"/>
			</g>
			<g>
				<line class="st0" x1="402.38" y1="1737.82" x2="393.1" y2="1746.09"/>
				<path class="st1" d="M393.1,1746.97c-0.24,0-0.48-0.1-0.65-0.29c-0.32-0.36-0.29-0.91,0.07-1.24l9.29-8.28
					c0.36-0.32,0.91-0.29,1.24,0.07c0.32,0.36,0.29,0.91-0.07,1.24l-9.29,8.28C393.51,1746.89,393.3,1746.97,393.1,1746.97z"/>
			</g>
			<g>
				<line class="st0" x1="407.64" y1="1741.95" x2="398.63" y2="1750.27"/>
				<path class="st1" d="M398.63,1751.14c-0.24,0-0.47-0.09-0.64-0.28c-0.33-0.35-0.31-0.91,0.05-1.24l9.01-8.31
					c0.36-0.33,0.91-0.31,1.24,0.05c0.33,0.35,0.31,0.91-0.05,1.24l-9.01,8.31C399.05,1751.06,398.84,1751.14,398.63,1751.14z"/>
			</g>
			<g>
				<path class="st1" d="M352.36,1806.6c-0.03,0-0.06,0-0.09,0c-0.48-0.05-0.83-0.48-0.78-0.96l4.09-37.91
					c0.05-0.48,0.49-0.81,0.96-0.78c0.48,0.05,0.83,0.48,0.78,0.96l-4.09,37.91C353.18,1806.27,352.8,1806.6,352.36,1806.6z"/>
			</g>
			<g>
				<path class="st1" d="M406.06,1676.31c-0.36,0-0.72-0.06-1.08-0.18c0,0,0,0,0,0l-8.02-2.8c-0.83-0.29-1.49-0.88-1.87-1.67
					c-0.38-0.79-0.43-1.68-0.14-2.51l0.89-2.55c0.6-1.71,2.47-2.61,4.18-2.02l8.02,2.8c1.71,0.6,2.61,2.47,2.02,4.18l-0.89,2.55
					C408.69,1675.46,407.41,1676.31,406.06,1676.31z M405.55,1674.47c0.8,0.28,1.67-0.14,1.95-0.94l0.89-2.55
					c0.28-0.8-0.14-1.67-0.94-1.95l-8.02-2.8c-0.8-0.28-1.67,0.14-1.95,0.94l-0.89,2.55c-0.13,0.39-0.11,0.8,0.07,1.17
					c0.18,0.37,0.49,0.65,0.87,0.78L405.55,1674.47z"/>
			</g>
			<g>
				<path class="st1" d="M425.12,1682.42c-0.36,0-0.72-0.06-1.08-0.18l0,0l-8.02-2.8c-1.71-0.6-2.61-2.47-2.02-4.18l0.89-2.55
					c0.29-0.83,0.88-1.49,1.67-1.87c0.79-0.38,1.68-0.43,2.51-0.14l8.02,2.8c0.83,0.29,1.49,0.88,1.87,1.67
					c0.38,0.79,0.43,1.68,0.14,2.51l-0.89,2.55C427.75,1681.57,426.48,1682.42,425.12,1682.42z M424.62,1680.58
					c0.8,0.28,1.67-0.14,1.95-0.94l0.89-2.55c0.13-0.39,0.11-0.8-0.07-1.17c-0.18-0.37-0.49-0.65-0.87-0.78l-8.02-2.8
					c-0.39-0.13-0.8-0.11-1.17,0.07c-0.37,0.18-0.65,0.49-0.78,0.87l-0.89,2.55c-0.28,0.8,0.14,1.67,0.94,1.95L424.62,1680.58z"/>
			</g>
			<g>
				<path class="st1" d="M415.34,1675.66c-0.31,0-0.6-0.16-0.76-0.45c-1.42-2.52-5.09-2.03-5.12-2.03
					c-0.47,0.07-0.92-0.27-0.99-0.74c-0.07-0.48,0.26-0.92,0.74-0.99c0.2-0.03,4.89-0.67,6.9,2.9c0.24,0.42,0.09,0.95-0.33,1.19
					C415.64,1675.62,415.49,1675.66,415.34,1675.66z"/>
			</g>
			<g>
				<path class="st1" d="M410.58,1794.38c-0.16,0-0.32-0.04-0.46-0.13L380.56,1776c-0.41-0.25-0.54-0.79-0.29-1.2
					c0.25-0.41,0.79-0.54,1.2-0.28l29.56,18.25c0.41,0.25,0.54,0.79,0.29,1.2C411.16,1794.24,410.87,1794.38,410.58,1794.38z"/>
			</g>
			<g>
				<path class="st1" d="M404.85,1805.69c-0.17,0-0.33-0.05-0.48-0.14l-31-20.43c-0.4-0.27-0.52-0.81-0.25-1.21
					c0.27-0.4,0.81-0.51,1.21-0.25l31,20.43c0.4,0.27,0.52,0.81,0.25,1.21C405.42,1805.55,405.14,1805.69,404.85,1805.69z"/>
			</g>
		</g>
		<g>
			<path class="st2" d="M458.79,1920.36H329.84c0,0-39.76,97.19,114.98,87.6l-9.13,176.24l57.15-1.08l33.04-213.13
				c1.03-13.78-4.46-33.65-22.69-33.17l-43.02-2.32L458.79,1920.36z"/>
			<path class="st1" d="M435.69,2185.07c-0.24,0-0.46-0.1-0.63-0.27c-0.17-0.18-0.26-0.41-0.25-0.65l9.08-175.26
				c-55.92,3.32-92.81-6.89-109.64-30.36c-18.36-25.59-5.36-58.18-5.23-58.5c0.13-0.33,0.45-0.54,0.81-0.54h128.95
				c0.45,0,0.83,0.34,0.87,0.79l1.3,13.39l42.27,2.28c6.13-0.16,11.3,1.9,15.34,6.15c7.02,7.37,8.79,19.67,8.17,27.96l-33.04,213.2
				c-0.07,0.42-0.42,0.73-0.85,0.74l-57.15,1.08C435.7,2185.07,435.7,2185.07,435.69,2185.07z M444.82,2007.08
				c0.23,0,0.45,0.09,0.62,0.25c0.18,0.18,0.27,0.42,0.26,0.67l-9.08,175.3l55.47-1.05l32.92-212.4c0.59-7.87-1.07-19.6-7.7-26.56
				c-3.68-3.87-8.42-5.77-14.1-5.6l-43.09-2.32c-0.43-0.02-0.78-0.36-0.82-0.79l-1.3-13.34H330.44
				c-1.59,4.31-11.27,33.28,5.24,56.29c16.56,23.07,53.26,33.02,109.08,29.56C444.78,2007.08,444.8,2007.08,444.82,2007.08z"/>
		</g>
		<polygon class="st1" points="476.49,2184.06 522.34,2214.63 449.24,2214.63 451.51,2184.06 		"/>
		<polygon class="st1" points="554.12,2177.04 607.26,2191.65 537.86,2214.63 530.4,2184.9 		"/>
		<g>
			<path class="st1" d="M461.14,1935.29h-21.39c-0.48,0-0.88-0.39-0.88-0.88s0.39-0.88,0.88-0.88h21.39c0.48,0,0.88,0.39,0.88,0.88
				S461.63,1935.29,461.14,1935.29z"/>
		</g>
		<g>
			<path class="st1" d="M444.82,2008.83c-0.47,0-0.86-0.38-0.87-0.85l-0.32-13.2c-0.01-0.48,0.37-0.88,0.85-0.9
				c0.47,0.01,0.88,0.37,0.9,0.85l0.32,13.2c0.01,0.48-0.37,0.88-0.85,0.9C444.83,2008.83,444.83,2008.83,444.82,2008.83z"/>
		</g>
		<g>
			<polygon class="st2" points="523.54,2188.82 564.36,2173.04 525.98,1965.76 503.98,2111.22 			"/>
			<path class="st1" d="M523.54,2189.7c-0.14,0-0.28-0.03-0.4-0.1c-0.22-0.12-0.39-0.32-0.45-0.56l-19.56-77.6
				c-0.03-0.11-0.03-0.23-0.02-0.34l22-145.47c0.06-0.42,0.42-0.74,0.85-0.74c0.43,0.02,0.8,0.3,0.88,0.72l38.38,207.28
				c0.08,0.41-0.15,0.82-0.54,0.98l-40.82,15.78C523.76,2189.68,523.65,2189.7,523.54,2189.7z M504.87,2111.18l19.28,76.47
				l39.22-15.17l-37.3-201.45L504.87,2111.18z"/>
		</g>
	</g>
	<g>
		<g>
			<path class="st0" d="M608.32,2215.36v-338.08c0-0.48-0.39-0.88-0.88-0.88H396.53c-0.47,0-0.86,0.38-0.87,0.85l-11,338.11h-10.93
				v-338.08c0-0.48-0.39-0.88-0.88-0.88h-45.71v-16.55h476.88v355.51H608.32z"/>
			<path class="st1" d="M803.15,1860.73v16.55v337.21h-55.89h-12.65H609.19v-337.21c0-0.97-0.78-1.75-1.75-1.75H396.53
				c-0.94,0-1.72,0.75-1.75,1.69l-10.97,337.26h-9.2v-337.21c0-0.97-0.78-1.75-1.75-1.75h-44.83v-14.8H803.15 M804.9,1858.98H326.28
				v18.3h46.58v338.96h12.65l11.03-338.96h210.91v338.96h127.17h12.65h57.64v-338.96V1858.98L804.9,1858.98z"/>
		</g>
		<rect x="607.44" y="1877.28" class="st1" width="50.95" height="338.96"/>
		<g>
			<path class="st0" d="M388.4,1823.65c-5.37,0-9.74-4.37-9.74-9.74v-92.01c0-5.37,4.37-9.74,9.74-9.74h173.5
				c5.37,0,9.74,4.37,9.74,9.74v92.01c0,5.37-4.37,9.74-9.74,9.74H388.4z"/>
			<path class="st1" d="M561.9,1713.03c4.89,0,8.87,3.98,8.87,8.87v92.01c0,4.89-3.98,8.87-8.87,8.87H388.4
				c-4.89,0-8.87-3.98-8.87-8.87v-92.01c0-4.89,3.98-8.87,8.87-8.87H561.9 M561.9,1711.28H388.4c-5.86,0-10.62,4.75-10.62,10.62
				v92.01c0,5.86,4.75,10.62,10.62,10.62h173.5c5.86,0,10.62-4.75,10.62-10.62v-92.01C572.52,1716.04,567.77,1711.28,561.9,1711.28
				L561.9,1711.28z"/>
		</g>
		<g>
			<path class="st0" d="M452.63,1859.83l12.81-56.15c0.41-1.79,1.97-3.03,3.8-3.03H481c1.82,0,3.43,1.29,3.81,3.08l12.11,56.1
				H452.63z"/>
			<path class="st1" d="M481,1801.53c1.41,0,2.66,1,2.96,2.39l11.88,55.05h-42.11l12.57-55.08c0.32-1.38,1.53-2.35,2.95-2.35H481
				 M481,1799.78h-11.75c-2.23,0-4.16,1.54-4.66,3.71l-13.06,57.22h46.47l-12.33-57.16C485.2,1801.35,483.25,1799.78,481,1799.78
				L481,1799.78z"/>
		</g>
		<g>
			<path class="st1" d="M804.9,1878.16H607.44c-0.48,0-0.88-0.39-0.88-0.88s0.39-0.88,0.88-0.88H804.9c0.48,0,0.88,0.39,0.88,0.88
				S805.39,1878.16,804.9,1878.16z"/>
		</g>
		<g>
			<path class="st1" d="M396.53,1878.16h-23.68c-0.48,0-0.88-0.39-0.88-0.88s0.39-0.88,0.88-0.88h23.68c0.48,0,0.88,0.39,0.88,0.88
				S397.02,1878.16,396.53,1878.16z"/>
		</g>
		<path class="st1" d="M474.52,1829.19c5.04,0,9.14,4.1,9.14,9.14c0,5.04-4.1,9.14-9.14,9.14c-5.04,0-9.14-4.1-9.14-9.14
			C465.37,1833.29,469.47,1829.19,474.52,1829.19 M474.52,1827.44c-6.02,0-10.89,4.88-10.89,10.89c0,6.02,4.88,10.89,10.89,10.89
			c6.02,0,10.89-4.88,10.89-10.89C485.41,1832.32,480.53,1827.44,474.52,1827.44L474.52,1827.44z"/>
		<g>
			<path class="st1" d="M444.62,1805.42h-26.04c-0.48,0-0.88-0.39-0.88-0.88s0.39-0.88,0.88-0.88h26.04c0.48,0,0.88,0.39,0.88,0.88
				S445.1,1805.42,444.62,1805.42z"/>
		</g>
		<g>
			<path class="st1" d="M444.62,1797.84h-26.04c-0.48,0-0.88-0.39-0.88-0.88s0.39-0.88,0.88-0.88h26.04c0.48,0,0.88,0.39,0.88,0.88
				S445.1,1797.84,444.62,1797.84z"/>
		</g>
		<g>
			<path class="st1" d="M444.62,1813h-26.04c-0.48,0-0.88-0.39-0.88-0.88s0.39-0.88,0.88-0.88h26.04c0.48,0,0.88,0.39,0.88,0.88
				S445.1,1813,444.62,1813z"/>
		</g>
	</g>
	<g>
		<polygon class="st1" points="2238.1,2184.35 2190.41,2215.25 2265.79,2216.24 2263.86,2184.68 		"/>
		<polygon class="st1" points="2337.2,2184.35 2289.51,2215.25 2364.89,2216.24 2362.96,2184.68 		"/>
		<polygon class="st1" points="2180.22,1864.59 2215.92,2187.12 2276.7,2187.12 2249.87,1926.02 2314.32,2186.18 2371.22,2187.12 
			2314.03,1864.59 		"/>
		<g>
			<path class="st0" d="M2318.63,1889.88c-0.24,0-24.21-0.28-29.6-24.85c-0.1-0.47,0.19-0.94,0.67-1.04
				c0.47-0.1,0.94,0.19,1.04,0.67c5.1,23.21,27.67,23.47,27.89,23.47c0.48,0,0.88,0.39,0.88,0.88S2319.11,1889.88,2318.63,1889.88z"
				/>
		</g>
		<g>
			<path class="st0" d="M2182.41,1885.25c-0.32,0-0.63-0.18-0.78-0.48c-0.22-0.43-0.04-0.96,0.39-1.17
				c9.33-4.68,7.54-18.75,7.53-18.89c-0.06-0.48,0.27-0.92,0.75-0.98c0.48-0.06,0.92,0.27,0.98,0.75
				c0.09,0.63,1.96,15.46-8.48,20.69C2182.68,1885.22,2182.54,1885.25,2182.41,1885.25z"/>
		</g>
		<g>
			<path class="st0" d="M2249.87,1926.89c-0.39,0-0.75-0.26-0.85-0.66l-4.35-16.94l-11.24-13.43c-0.31-0.37-0.26-0.92,0.11-1.23
				c0.37-0.31,0.92-0.26,1.23,0.11l11.36,13.58c0.08,0.1,0.14,0.22,0.18,0.34l4.4,17.14c0.12,0.47-0.16,0.95-0.63,1.07
				C2250.01,1926.88,2249.94,1926.89,2249.87,1926.89z"/>
		</g>
		<g>
			<path class="st2" d="M2286.16,1636.35c-4.16-0.14-16.52-2.05-16.52-2.05l-37.56-0.11c-35.21,4.43-32.99,24.35-79.49,33.49
				c-20.29,3.99-82.61-4.33-82.61-4.33l-12.6,27.03c86.06,43.55,134.46,4.68,134.46,4.68c-16.2,67.51-11.75,167.78-11.62,169.53
				c0.19,2.59,133.36-0.19,133.36-0.19s3.31-121.21,3.67-173.22C2317.38,1671.75,2319.06,1637.44,2286.16,1636.35z"/>
			<path class="st1" d="M2212.13,1866.57c-4.04,0-7.71-0.01-11-0.04c-21.66-0.18-21.7-0.78-21.78-1.87
				c-0.07-0.92-4.54-99.7,11.11-167.52c-4.27,2.88-15.53,9.44-33.41,12.78c-20.99,3.92-55.39,3.86-100.06-18.75
				c-0.42-0.21-0.6-0.72-0.4-1.15l12.6-27.03c0.16-0.35,0.53-0.54,0.91-0.5c0.62,0.08,62.41,8.25,82.33,4.34
				c23.91-4.7,34.95-12.35,44.69-19.09c9.09-6.3,17.68-12.25,34.86-14.41c0.04-0.01,0.08,0.01,0.11-0.01l37.56,0.11
				c0.04,0,0.09,0,0.13,0.01c0.12,0.02,12.35,1.9,16.41,2.04v0c32.46,1.07,32.15,33.8,31.96,53.35l-0.02,2.35
				c-0.36,51.43-3.64,172.03-3.67,173.24c-0.01,0.47-0.39,0.84-0.86,0.85c-0.33,0.01-33.68,0.7-66.62,1.07
				C2233.38,1866.49,2221.71,1866.57,2212.13,1866.57z M2181.07,1864.04c6.55,1.51,81.36,0.55,131.66-0.5
				c0.29-10.83,3.31-123.22,3.65-172.37l0.02-2.35c0.2-20.14,0.49-50.57-30.26-51.59l0,0c-4.05-0.13-15.48-1.88-16.56-2.05
				l-37.44-0.11c-16.72,2.11-24.74,7.67-34.03,14.1c-9.88,6.84-21.08,14.6-45.34,19.37c-19.34,3.8-75.27-3.32-82.26-4.24
				l-11.97,25.68c24.39,12.23,60.96,25.14,98.08,18.23c22.42-4.17,34.57-13.74,34.69-13.84c0.29-0.23,0.7-0.26,1.02-0.06
				c0.32,0.2,0.47,0.58,0.38,0.94C2177.05,1760.45,2180.72,1856.35,2181.07,1864.04z M2313.58,1864.4L2313.58,1864.4L2313.58,1864.4
				z"/>
		</g>
		<g>
			<path class="st5" d="M2313.51,1864.59"/>
		</g>
		<g>
			<path class="st0" d="M2241.98,1657.13c-0.09,0-0.19-0.01-0.28-0.05c-0.26-0.09-0.46-0.29-0.55-0.54l-7.62-22.06
				c-0.04-0.11-0.05-0.22-0.05-0.33l0.58-11.76c-8.21-2.96-13.68-10.71-13.68-19.49l0-36.38c0-11.89,13.96-11.92,27.47-11.95
				c3.99-0.01,7.76-0.02,11.18-0.32c0.38-0.03,0.74-0.05,1.1-0.05c2.94,0,5.45,1.09,7.46,3.23c5.64,6.02,5.76,18.7,5.64,22.72
				c0.88-0.21,2.15-0.43,3.54-0.43c3.19,0,8.53,1.24,8.53,9.58c0,5.96-3.85,9.37-10.57,9.37c-0.61,0-1.14-0.03-1.57-0.07l0.48,36.87
				c0,0.3-0.14,0.57-0.39,0.74l-30.79,20.76C2242.33,1657.08,2242.16,1657.13,2241.98,1657.13z"/>
			<path class="st1" d="M2260.13,1555.08c13.89,0,12.18,26.25,12.18,26.25s2.05-0.73,4.47-0.73c3.46,0,7.65,1.48,7.65,8.7
				c0,7.43-6.15,8.5-9.69,8.5c-1.44,0-2.45-0.18-2.45-0.18l0.49,37.86l-30.79,20.76l-7.62-22.06l0.51-10.51l0.09-1.9
				c-7.96-2.58-13.71-10.06-13.71-18.88l0-36.38c0-14.32,22.85-10.08,37.85-11.4C2259.46,1555.1,2259.8,1555.08,2260.13,1555.08
				 M2260.13,1553.33c-0.39,0-0.78,0.02-1.18,0.05c-3.39,0.3-7.13,0.31-11.1,0.31c-13.28,0.03-28.34,0.06-28.34,12.83l0,36.38
				c0,8.94,5.43,16.84,13.65,20.08l-0.03,0.61l-0.51,10.51c-0.01,0.22,0.02,0.45,0.09,0.66l7.62,22.06c0.18,0.51,0.58,0.92,1.1,1.09
				c0.18,0.06,0.37,0.09,0.55,0.09c0.34,0,0.69-0.1,0.98-0.3l30.79-20.76c0.49-0.33,0.78-0.88,0.77-1.47l-0.47-35.93
				c0.21,0.01,0.44,0.01,0.68,0.01c7.17,0,11.44-3.83,11.44-10.25c0-6.64-3.43-10.45-9.4-10.45c-0.96,0-1.87,0.1-2.65,0.23
				c0.04-4.97-0.49-16.47-5.9-22.25C2266.05,1554.52,2263.32,1553.33,2260.13,1553.33L2260.13,1553.33z"/>
		</g>
		<g>
			<path class="st1" d="M2237.01,1602.14c-0.18,0-0.37-0.06-0.52-0.18l-3.81-2.87c-0.91-0.68-1.49-1.72-1.6-2.84
				c-0.11-1.13,0.26-2.25,1.02-3.1l2.83-3.15l-0.37-7.98c-0.02-0.48,0.35-0.89,0.83-0.91c0.5-0.01,0.89,0.35,0.91,0.83l0.38,8.34
				c0.01,0.23-0.07,0.46-0.22,0.63l-3.07,3.41c-0.44,0.48-0.64,1.11-0.58,1.76s0.38,1.22,0.91,1.61l3.81,2.87
				c0.39,0.29,0.46,0.84,0.17,1.22C2237.54,1602.02,2237.28,1602.14,2237.01,1602.14z"/>
		</g>
		<g>
			<path class="st1" d="M2234.18,1623.45c-0.47,0-0.86-0.38-0.87-0.85c-0.01-0.48,0.37-0.88,0.85-0.9c0.1,0,10.38-0.27,14.74-2.18
				c0.44-0.2,0.96,0.01,1.15,0.45c0.19,0.44-0.01,0.96-0.45,1.15c-4.68,2.05-14.96,2.32-15.4,2.33
				C2234.2,1623.45,2234.19,1623.45,2234.18,1623.45z"/>
		</g>
		<g>
			<path class="st1" d="M2242.93,1576.06c-0.18,0-0.36-0.05-0.52-0.17c-0.39-0.28-0.48-0.83-0.19-1.22
				c1.07-1.48,4.23-3.74,8.48-1.66c0.43,0.21,0.61,0.74,0.4,1.17c-0.21,0.43-0.74,0.62-1.17,0.4c-3.97-1.93-6.2,0.99-6.29,1.12
				C2243.47,1575.94,2243.2,1576.06,2242.93,1576.06z"/>
		</g>
		<g>
			<path class="st1" d="M2224.05,1576.06c-0.23,0-0.45-0.09-0.62-0.26c-0.34-0.34-0.34-0.89,0-1.23c1.3-1.29,4.77-3.02,8.63-0.29
				c0.39,0.28,0.49,0.82,0.21,1.22c-0.28,0.39-0.82,0.49-1.22,0.21c-3.61-2.54-6.28-0.01-6.39,0.1
				C2224.49,1575.98,2224.27,1576.06,2224.05,1576.06z"/>
		</g>
		<g>
			<path class="st1" d="M2280.49,1595.86c-0.17,0-0.34-0.05-0.49-0.15c-0.4-0.27-0.5-0.82-0.23-1.22
				c4.52-6.62-0.92-10.62-1.16-10.79c-0.39-0.28-0.49-0.83-0.2-1.22c0.28-0.39,0.83-0.48,1.22-0.2c0.07,0.05,7.05,5.17,1.59,13.2
				C2281.05,1595.72,2280.77,1595.86,2280.49,1595.86z"/>
		</g>
		<g>
			<path class="st1" d="M2275.46,1591.31c-0.16,0-0.33-0.04-0.47-0.14c-0.41-0.26-0.52-0.8-0.26-1.21c2.29-3.56,6.54-3.6,6.72-3.6
				c0.48,0,0.88,0.39,0.88,0.88c0,0.48-0.39,0.87-0.87,0.88c-0.06,0-3.5,0.07-5.25,2.8
				C2276.03,1591.17,2275.75,1591.31,2275.46,1591.31z"/>
		</g>
		<path class="st1" d="M2244.58,1582.14c-0.08,1.4,0.49,2.57,1.28,2.61c0.78,0.04,1.48-1.05,1.56-2.45s-0.5-2.57-1.28-2.61
			C2245.36,1579.64,2244.66,1580.74,2244.58,1582.14z"/>
		<path class="st1" d="M2225.97,1582.14c-0.08,1.4,0.5,2.57,1.28,2.61c0.78,0.04,1.48-1.05,1.56-2.45s-0.49-2.57-1.28-2.61
			C2226.74,1579.64,2226.05,1580.74,2225.97,1582.14z"/>
		<path class="st1" d="M2268.11,1545.15c-0.14-0.34,5.86,7.76,6.29,20.24c0.21,6.18,0.68,14.46,0.68,14.46
			c-3.54,1.26-7.75,5.8-7.75,5.8l-1.29-26.2v0c-7.92,4.2-36.06,13.81-47.91,4.98c-7.58-5.65-9.77-11.38-9.77-17.36
			c13.2,4.3,18.34-6.49,25.8-9.48c5.89-2.37,9.76-3.5,16.11-3.54c2.7-0.02,7.85,0.86,10.6,2.16
			C2264.49,1537.9,2268.06,1540.83,2268.11,1545.15L2268.11,1545.15z"/>
		<path class="st1" d="M2248.63,1605.15c0,0-8.33,4.44-14.45,1.59c0,0,4.89,6.67,8.75,6.35
			C2246.79,1612.77,2248.63,1605.15,2248.63,1605.15z"/>
		<g>
			<g>
				<path class="st4" d="M2038.04,1624.85l138.62,316.22c8.2,18.71,30.02,27.23,48.73,19.03c18.71-8.2,27.23-30.02,19.03-48.73
					l-138.62-316.22L2038.04,1624.85z M2231.14,1939.24l-24.97,10.95l-21.97-16.15l3.01-27.1l24.97-10.95l21.97,16.15
					L2231.14,1939.24z"/>
				<path class="st1" d="M2210.55,1964.1c-4.66,0-9.32-0.87-13.78-2.61c-9.42-3.68-16.85-10.81-20.91-20.07l-138.62-316.22
					c-0.19-0.44,0.01-0.96,0.45-1.15l67.75-29.7c0.44-0.19,0.96,0.01,1.15,0.45l138.62,316.22c8.38,19.12-0.35,41.5-19.48,49.88
					C2220.87,1963.03,2215.71,1964.1,2210.55,1964.1z M2039.2,1625.3l138.27,315.42c3.87,8.83,10.95,15.63,19.94,19.14
					c8.99,3.51,18.8,3.31,27.64-0.57c18.24-8,26.57-29.34,18.58-47.58l-138.27-315.42L2039.2,1625.3z M2206.16,1951.06
					c-0.18,0-0.37-0.06-0.52-0.17l-21.97-16.15c-0.25-0.19-0.39-0.49-0.35-0.8l3.01-27.1c0.03-0.31,0.23-0.58,0.52-0.71l24.97-10.95
					c0.29-0.12,0.62-0.09,0.87,0.1l21.97,16.15c0.25,0.19,0.39,0.49,0.35,0.8l-3.01,27.1c-0.03,0.31-0.23,0.58-0.52,0.71
					l-24.97,10.95C2206.4,1951.04,2206.28,1951.06,2206.16,1951.06z M2185.12,1933.63l21.15,15.56l24.05-10.54l2.9-26.1
					l-21.15-15.56l-24.05,10.54L2185.12,1933.63z M2231.14,1939.24h0.01H2231.14z"/>
			</g>
			<g>
				<path class="st4" d="M2053.92,1485.94l25.11,57.27l-61.03,26.76l-25.11-57.27c-18.74,21.79-24.5,53.23-12.19,81.31
					c17.1,39.01,62.59,56.77,101.6,39.67c39.01-17.1,56.77-62.59,39.67-101.6C2109.66,1503.99,2082.65,1486.93,2053.92,1485.94z"/>
				<path class="st1" d="M2051.45,1641.04c-30.05,0-58.74-17.45-71.55-46.68c-11.98-27.32-7.14-59.6,12.33-82.23
					c0.2-0.23,0.5-0.34,0.79-0.29c0.3,0.04,0.55,0.24,0.67,0.51l24.76,56.47l59.43-26.05l-24.76-56.47
					c-0.12-0.28-0.09-0.59,0.08-0.84c0.17-0.25,0.46-0.39,0.75-0.38c29.83,1.02,56.85,19.33,68.82,46.66
					c17.27,39.39-0.73,85.49-40.12,102.75C2072.49,1638.93,2061.89,1641.04,2051.45,1641.04z M1992.65,1514.33
					c-18.27,22.06-22.67,53.04-11.15,79.32c12.53,28.58,40.58,45.63,69.94,45.64c10.21,0,20.57-2.06,30.5-6.41
					c38.51-16.88,56.1-61.94,39.22-100.45c-11.52-26.28-37.28-44.04-65.89-45.55l24.54,55.99c0.09,0.21,0.1,0.45,0.01,0.67
					c-0.08,0.22-0.25,0.39-0.46,0.48l-61.03,26.75c-0.21,0.09-0.45,0.1-0.67,0.01c-0.22-0.08-0.39-0.25-0.48-0.46L1992.65,1514.33z"
					/>
			</g>
		</g>
		<g>
			<path class="st0" d="M2133.15,1749.44c-4.55,1.27-7.97,2.17-9.78,2.63l-19.19,9.7c-1.86,0.75-5.67,2.09-7.29-0.85
				c-1.03-1.87-0.83-3.45,0.8-4.58c-1.79,0.3-4.27,1.31-5.87-1.74v0c-0.77-1.9,0.06-4.04,1.83-4.97c-1.93,0.57-4.01-0.39-4.78-2.29
				c-0.82-2.02,0.16-4.33,2.18-5.15l19.34-8.27c0,0-1.02-0.99-6.09-4.24c-2.54-1.62-2.29-6.68,6.8-4.62
				c4.55,1.03,14.82,2.6,14.82,2.6L2133.15,1749.44z"/>
			<path class="st1" d="M2100.12,1763.6c-1.84,0-3.18-0.75-4-2.25c-0.76-1.38-0.93-2.65-0.54-3.75c-1.54,0.13-3.29-0.21-4.54-2.58
				c-0.63-1.55-0.45-3.19,0.37-4.47c-1.47-0.35-2.74-1.38-3.35-2.87c-1-2.47,0.19-5.29,2.66-6.29l17.97-7.69
				c-0.86-0.64-2.36-1.68-4.87-3.28c-1.51-0.97-2.18-2.82-1.55-4.31c0.45-1.08,2.24-3.43,9.02-1.9c4.09,0.93,12.95,2.31,14.69,2.57
				c0.28,0.04,0.6,0.23,0.72,0.48c0.02,0.04,0.03,0.08,0.05,0.12l7.22,21.78c0.08,0.23,0.05,0.48-0.06,0.69
				c-0.11,0.21-0.31,0.37-0.54,0.43c-4.56,1.28-8.01,2.18-9.71,2.61l-19.11,9.66C2102.85,1763.25,2101.37,1763.6,2100.12,1763.6z
				 M2097.69,1755.47c0.35,0,0.67,0.21,0.81,0.55c0.15,0.38,0.02,0.82-0.31,1.05c-0.82,0.57-1.62,1.47-0.53,3.44
				c0.91,1.66,2.88,1.8,6.19,0.46l19.13-9.67c0.06-0.03,0.12-0.05,0.18-0.07c1.55-0.4,4.69-1.22,8.88-2.38l-6.76-20.4
				c-2.6-0.41-10.52-1.66-14.35-2.53c-4.48-1.01-6.57-0.22-7.02,0.86c-0.3,0.71,0.09,1.66,0.88,2.16c5.01,3.21,6.12,4.25,6.23,4.36
				c0.21,0.21,0.3,0.5,0.25,0.79c-0.05,0.29-0.25,0.53-0.52,0.64l-19.34,8.27c-1.59,0.64-2.35,2.45-1.71,4.02
				c0.59,1.46,2.19,2.23,3.72,1.78c0.43-0.12,0.89,0.09,1.06,0.51c0.17,0.42-0.01,0.89-0.4,1.1c-1.41,0.74-2.02,2.4-1.43,3.87
				c1.06,2,2.5,1.69,4.17,1.35c0.26-0.05,0.51-0.11,0.75-0.15C2097.59,1755.48,2097.64,1755.47,2097.69,1755.47z"/>
		</g>
		<g>
			<path class="st1" d="M2097.69,1757.22c-0.31,0-0.61-0.17-0.77-0.46c-0.23-0.43-0.07-0.96,0.36-1.19l9.11-4.91
				c0.42-0.23,0.96-0.07,1.19,0.36c0.23,0.43,0.07,0.96-0.36,1.19l-9.11,4.91C2097.97,1757.19,2097.83,1757.22,2097.69,1757.22z"/>
		</g>
		<g>
			<path class="st1" d="M2093,1750.67c-0.31,0-0.61-0.17-0.77-0.46c-0.23-0.43-0.07-0.96,0.36-1.19l9.11-4.91
				c0.43-0.23,0.96-0.07,1.19,0.36c0.23,0.43,0.07,0.96-0.36,1.19l-9.11,4.91C2093.28,1750.64,2093.14,1750.67,2093,1750.67z"/>
		</g>
		<g>
			<path class="st2" d="M2124.52,1723.32c0,0,83.55-32.61,113.7-51.83c16.05-10.23,43.91-42.2,63.41-30.23
				c22.29,13.69,12.48,42.35-9.46,62.44c-7.31,6.7-57.71,54.6-162.18,47.37L2124.52,1723.32z"/>
			<path class="st1" d="M2151.26,1752.7c-6.99,0-14.1-0.25-21.33-0.75c-0.39-0.03-0.72-0.32-0.8-0.7l-5.47-27.76
				c-0.08-0.41,0.15-0.83,0.54-0.98c0.83-0.33,83.82-32.8,113.55-51.75c3.89-2.48,8.58-6.33,13.55-10.42
				c15.83-13,35.53-29.18,50.78-19.82c7.65,4.7,12.12,11.55,12.91,19.81c1.28,13.42-7.23,30.29-22.23,44.02l-0.36,0.33
				c-12.66,11.64-28.06,21.49-45.75,29.27C2218.33,1746.42,2186.32,1752.7,2151.26,1752.7z M2130.72,1750.25
				c31.26,2.08,107.94,1.45,160.5-46.86l0.36-0.33c14.6-13.37,22.9-29.68,21.67-42.56c-0.75-7.8-4.81-14.03-12.08-18.49
				c-14.19-8.71-33.36,7.03-48.76,19.68c-5.01,4.12-9.74,8-13.72,10.54c-28.43,18.12-105.11,48.47-113.17,51.64L2130.72,1750.25z"/>
		</g>
		<g>
			<path class="st0" d="M2054.46,1667.06l3.19-1.25c1.76-0.69,2.63-2.69,1.94-4.45l0,0c-0.69-1.76-2.69-2.63-4.45-1.93l-3.19,1.25
				c-1.76,0.69-2.63,2.69-1.94,4.45l0,0C2050.71,1666.89,2052.7,1667.76,2054.46,1667.06z"/>
			<path class="st1" d="M2053.2,1668.18c-0.58,0-1.17-0.12-1.72-0.36c-1.05-0.46-1.87-1.3-2.29-2.37c-0.87-2.21,0.22-4.71,2.43-5.58
				l3.19-1.25c2.21-0.87,4.71,0.22,5.58,2.43c0.42,1.07,0.4,2.24-0.06,3.29c-0.46,1.05-1.3,1.87-2.37,2.29l-3.19,1.25
				C2054.27,1668.08,2053.74,1668.18,2053.2,1668.18z M2056.39,1660.06c-0.31,0-0.63,0.06-0.93,0.18l-3.19,1.25
				c-1.31,0.52-1.96,2-1.44,3.31c0.25,0.63,0.73,1.13,1.36,1.41c0.63,0.27,1.32,0.29,1.95,0.03l0,0l3.19-1.25
				c0.64-0.25,1.13-0.73,1.41-1.36c0.27-0.63,0.28-1.32,0.03-1.96C2058.37,1660.68,2057.41,1660.06,2056.39,1660.06z"/>
		</g>
		<g>
			<path class="st0" d="M2057.03,1673.58l3.19-1.25c1.76-0.69,2.63-2.69,1.93-4.45l0,0c-0.69-1.76-2.69-2.63-4.45-1.94l-3.19,1.25
				c-1.76,0.69-2.63,2.69-1.94,4.45l0,0C2053.27,1673.41,2055.26,1674.28,2057.03,1673.58z"/>
			<path class="st1" d="M2055.77,1674.7c-0.58,0-1.17-0.12-1.72-0.36c-1.05-0.46-1.87-1.3-2.29-2.37c-0.87-2.21,0.22-4.71,2.43-5.58
				l3.19-1.25c1.07-0.42,2.24-0.4,3.29,0.06c1.05,0.46,1.87,1.3,2.29,2.37c0.42,1.07,0.4,2.24-0.06,3.29
				c-0.46,1.05-1.3,1.87-2.37,2.29l-3.19,1.25C2056.84,1674.6,2056.3,1674.7,2055.77,1674.7z M2058.96,1666.58
				c-0.32,0-0.63,0.06-0.94,0.18l-3.19,1.25c-1.31,0.52-1.96,2-1.44,3.31c0.25,0.63,0.73,1.13,1.36,1.41
				c0.62,0.27,1.32,0.29,1.95,0.03l0,0l3.19-1.25c0.64-0.25,1.13-0.73,1.41-1.36c0.27-0.63,0.28-1.32,0.03-1.96
				c-0.25-0.63-0.73-1.13-1.36-1.41C2059.65,1666.65,2059.3,1666.58,2058.96,1666.58z"/>
		</g>
		<g>
			<path class="st0" d="M2059.62,1680.17l3.19-1.25c1.76-0.69,2.63-2.69,1.93-4.45l0,0c-0.69-1.76-2.69-2.63-4.45-1.93l-3.19,1.25
				c-1.76,0.69-2.63,2.69-1.93,4.45v0C2055.87,1680,2057.86,1680.87,2059.62,1680.17z"/>
			<path class="st1" d="M2058.37,1681.29c-1.72,0-3.35-1.04-4.01-2.73c-0.42-1.07-0.4-2.24,0.06-3.29c0.46-1.05,1.3-1.87,2.37-2.29
				l3.19-1.25c2.21-0.86,4.71,0.22,5.58,2.43c0.42,1.07,0.4,2.24-0.06,3.29c-0.46,1.05-1.3,1.87-2.37,2.29l-3.19,1.26c0,0,0,0,0,0
				C2059.43,1681.19,2058.89,1681.29,2058.37,1681.29z M2059.62,1680.17L2059.62,1680.17L2059.62,1680.17z M2061.55,1673.17
				c-0.31,0-0.63,0.06-0.93,0.18l-3.19,1.26c-0.64,0.25-1.13,0.73-1.41,1.36c-0.27,0.63-0.28,1.32-0.03,1.96
				c0.52,1.31,2,1.96,3.31,1.44l3.19-1.26c0.64-0.25,1.13-0.73,1.41-1.36c0.27-0.63,0.28-1.32,0.03-1.96
				C2063.53,1673.79,2062.57,1673.17,2061.55,1673.17z"/>
		</g>
	</g>
	<g>
		<g>
			<path class="st0" d="M1428.54,1583.96c-0.3,0-0.59-0.16-0.75-0.42l-10.77-17.59c-0.15-0.25-0.17-0.56-0.05-0.83
				c0.12-0.27,0.37-0.45,0.66-0.5l6.75-1.01l4.37-4.2l5.72-8.37c0.59-0.87,1.58-1.39,2.63-1.39c1.14,0,2.16,0.58,2.74,1.56
				l8.49-6.58c0.61-0.5,1.4-0.78,2.21-0.78c1.19,0,2.29,0.59,2.95,1.59c1.02,1.55,0.66,3.63-0.82,4.75l-6.87,5.03l4.35,8.51
				c0.62,1.22,0.68,2.64,0.15,3.9c-0.52,1.24-1.54,2.19-2.82,2.62l-14.75,6.82l-3.44,6.42c-0.15,0.28-0.43,0.45-0.75,0.46
				C1428.55,1583.96,1428.55,1583.96,1428.54,1583.96z"/>
			<path class="st1" d="M1450.56,1544.74c0.86,0,1.7,0.41,2.22,1.19c0.77,1.17,0.5,2.73-0.62,3.57l-7.46,5.46l4.69,9.18
				c1.06,2.07,0.01,4.59-2.21,5.3l-15.06,6.97l-3.58,6.68l-10.77-17.59l7.03-1.05l4.64-4.45l5.78-8.44
				c0.46-0.67,1.18-1.01,1.91-1.01c0.78,0,1.56,0.39,2,1.16l0.2,0.34l0.27,0.5l9.3-7.2
				C1449.38,1544.93,1449.97,1544.74,1450.56,1544.74 M1450.56,1542.99c-1.01,0-2,0.35-2.79,1l-7.77,6.01
				c-0.75-0.77-1.78-1.21-2.89-1.21c-1.34,0-2.59,0.66-3.35,1.77l-5.67,8.3l-4.1,3.94l-6.48,0.96c-0.58,0.09-1.08,0.46-1.33,0.99
				s-0.21,1.15,0.09,1.65l10.77,17.59c0.32,0.52,0.88,0.84,1.49,0.84c0.02,0,0.03,0,0.05,0c0.63-0.02,1.2-0.37,1.49-0.92l3.31-6.16
				l14.44-6.68c1.49-0.51,2.69-1.63,3.3-3.09c0.62-1.5,0.56-3.19-0.18-4.63l-4.01-7.85l6.26-4.58c1.87-1.41,2.32-4.01,1.05-5.94
				C1453.42,1543.73,1452.04,1542.99,1450.56,1542.99L1450.56,1542.99z"/>
		</g>
		<g>
			<path class="st1" d="M1432.49,1569.29c-0.22,0-0.44-0.08-0.61-0.24c-0.35-0.33-0.36-0.89-0.02-1.24c3.59-3.73,2.36-9.25,2.35-9.3
				c-0.1-0.42,0.12-0.84,0.51-1.01c0.39-0.16,0.85-0.02,1.08,0.34l1.63,2.57c0.37,0.59,0.95,0.99,1.63,1.14
				c0.68,0.15,1.38,0.02,1.96-0.36c1.13-0.73,1.51-2.23,0.87-3.41l-3.71-6.79c-0.24-0.42-0.1-0.95,0.32-1.2
				c0.42-0.24,0.95-0.1,1.19,0.32l0.19,0.34l3.54,6.49c1.08,1.98,0.44,4.49-1.45,5.72c-0.98,0.63-2.14,0.85-3.28,0.6
				c-1.02-0.22-1.9-0.79-2.53-1.61c-0.12,2.2-0.79,5.04-3.04,7.38C1432.95,1569.2,1432.72,1569.29,1432.49,1569.29z"/>
		</g>
		<g>
			<path class="st1" d="M1442.62,1557.87c-0.32,0-0.62-0.17-0.78-0.48c-0.22-0.43-0.05-0.96,0.38-1.18l2.62-1.34
				c0.43-0.22,0.96-0.05,1.18,0.38c0.22,0.43,0.05,0.96-0.38,1.18l-2.62,1.34C1442.89,1557.84,1442.75,1557.87,1442.62,1557.87z"/>
		</g>
		<g>
			<path class="st1" d="M1438.34,1570.92c-1.19,0-2.34-0.63-2.96-1.72c-0.9-1.58-0.4-3.59,1.14-4.56l0.8-0.5
				c0.41-0.26,0.95-0.13,1.21,0.27c0.26,0.41,0.14,0.95-0.27,1.21l-0.79,0.5c-0.75,0.47-0.99,1.44-0.55,2.21
				c0.41,0.72,1.3,1.03,2.07,0.71l6.84-2.83c0.45-0.18,0.96,0.03,1.14,0.47c0.18,0.45-0.03,0.96-0.47,1.14l-6.84,2.83
				C1439.21,1570.84,1438.77,1570.92,1438.34,1570.92z"/>
		</g>
		<g>
			<path class="st1" d="M1437.42,1565.99c-0.3,0-0.59-0.16-0.76-0.43c-0.24-0.42-0.1-0.95,0.31-1.2l7.9-4.61
				c0.42-0.24,0.95-0.1,1.2,0.31c0.24,0.42,0.1,0.95-0.31,1.2l-7.9,4.61C1437.72,1565.95,1437.57,1565.99,1437.42,1565.99z"/>
		</g>
		<g>
			<path class="st4" d="M1252.39,1614.04l14.15,37.56c0,0,83.04-13.02,162-68.53l-10.77-17.59
				C1417.77,1565.49,1285.65,1613.14,1252.39,1614.04z"/>
			<path class="st1" d="M1266.54,1652.48c-0.36,0-0.69-0.22-0.82-0.57l-14.15-37.56c-0.1-0.26-0.07-0.56,0.09-0.8
				c0.16-0.23,0.42-0.38,0.7-0.39c32.74-0.89,163.79-48.03,165.11-48.5c0.39-0.14,0.83,0.01,1.04,0.37l10.77,17.59
				c0.24,0.39,0.13,0.91-0.24,1.17c-78.22,54.99-161.54,68.54-162.37,68.67C1266.63,1652.48,1266.58,1652.48,1266.54,1652.48z
				 M1253.63,1614.87l13.47,35.76c8.2-1.43,86.39-16.1,160.26-67.79l-9.97-16.28c-4.89,1.75-35.69,12.75-69.57,23.71
				C1299.79,1605.79,1268.12,1614.07,1253.63,1614.87z"/>
		</g>
		<g>
			<path class="st0" d="M1246.27,2195.38l-23.11-255.66l69.24-5.21l-30.49,258.34c-0.03,0.27,0.07,0.55,0.27,0.74l12.3,11.74
				l-21.63,2.99L1246.27,2195.38z"/>
			<path class="st1" d="M1291.41,1935.46l-30.36,257.28c-0.06,0.55,0.13,1.09,0.53,1.47l10.99,10.48l-19.22,2.66l-6.22-12.22
				l-23.01-254.61L1291.41,1935.46 M1293.4,1933.56L1293.4,1933.56L1293.4,1933.56z M1293.4,1933.56l-71.19,5.36l23.2,256.71
				l6.94,13.63l24.04-3.32l-13.62-12.99L1293.4,1933.56L1293.4,1933.56z"/>
		</g>
		<path class="st1" d="M1273.54,2203.56c-10.93,5.93-28.12-7.93-28.12-7.93l-6.17,19.57l54.15,1.04L1273.54,2203.56z"/>
		<g>
			<path class="st0" d="M1222.53,2195.38l-23.11-255.66l69.25-5.21l-29.22,258.85c-0.03,0.25,0.05,0.5,0.22,0.68l10.93,12.09
				l-21.48,2.19L1222.53,2195.38z"/>
			<path class="st1" d="M1267.68,1935.46l-29.1,257.8c-0.06,0.5,0.1,1,0.44,1.37l9.77,10.81l-19.16,1.96l-6.25-12.26l-23.01-254.61
				L1267.68,1935.46 M1269.66,1933.56L1269.66,1933.56L1269.66,1933.56z M1269.66,1933.56l-71.19,5.36l23.2,256.71l6.94,13.63
				l23.79-2.43l-12.09-13.37L1269.66,1933.56L1269.66,1933.56z"/>
		</g>
		<path class="st1" d="M1249.8,2203.56c-10.93,5.93-28.12-7.93-28.12-7.93l-6.5,20.61h54.48L1249.8,2203.56z"/>
		<g>
			<path class="st4" d="M1272.06,1613.95c-8.73-4.87-23.8-5.2-23.8-5.2c-54.82,11.29-26.46,171.15-26.46,171.15l58.05-0.64
				l10.55-73.78c0,0,0.32-0.01,0.88-0.07c10.51-1.22,16.7-12.44,12.33-22.07L1272.06,1613.95z"/>
			<path class="st1" d="M1221.8,1780.77c-0.42,0-0.79-0.3-0.86-0.72c-0.07-0.4-7.11-40.51-7.34-81.49
				c-0.32-55.39,11.29-85.89,34.49-90.67c0.06-0.01,0.13-0.02,0.2-0.02c0.62,0.01,15.39,0.39,24.21,5.32
				c0.16,0.09,0.29,0.23,0.37,0.4l31.53,69.38c2.22,4.9,1.98,10.39-0.67,15.08c-2.61,4.62-7.11,7.62-12.35,8.22
				c-0.07,0.01-0.14,0.02-0.21,0.02l-10.45,73.08c-0.06,0.43-0.42,0.75-0.86,0.75L1221.8,1780.77
				C1221.8,1780.77,1221.8,1780.77,1221.8,1780.77z M1248.34,1609.62c-51.37,10.77-27.78,157.66-25.8,169.39l56.55-0.62l10.44-73.03
				c0.06-0.42,0.41-0.74,0.84-0.75c0.02,0,0.31-0.01,0.8-0.07c4.68-0.54,8.7-3.22,11.03-7.35c2.37-4.2,2.59-9.11,0.6-13.5
				l-31.41-69.12C1263.27,1610.19,1249.62,1609.66,1248.34,1609.62z"/>
		</g>
		<g>
			<g>
				<path class="st2" d="M1295.47,1952.45h-98.24c-26.55-133.83,24.99-172.55,24.99-172.55l58.05-0.64
					C1280.26,1779.25,1299.7,1850.79,1295.47,1952.45z"/>
				<path class="st1" d="M1295.47,1953.32h-98.24c-0.42,0-0.78-0.29-0.86-0.7c-7.59-38.27-13.31-93.08,2.57-136.93
					c9.54-26.35,22.21-36.09,22.75-36.49c0.15-0.11,0.33-0.17,0.52-0.18l58.05-0.64c0,0,0.01,0,0.01,0c0.39,0,0.74,0.26,0.84,0.65
					c0.19,0.72,19.42,72.83,15.24,173.46C1296.32,1952.95,1295.94,1953.32,1295.47,1953.32z M1197.95,1951.57h96.68
					c3.83-94.83-13.14-164.03-15.04-171.44l-57.06,0.63c-1.72,1.41-13.32,11.61-22,35.69
					C1184.95,1859.63,1190.48,1913.63,1197.95,1951.57z"/>
			</g>
		</g>
		
			<rect x="1242.08" y="1659.58" transform="matrix(-0.9884 0.152 -0.152 -0.9884 2804.5159 3208.1387)" class="st1" width="75.06" height="103.41"/>
		<g>
			<g>
				<path class="st0" d="M1307.37,1703.79l7.42-1.95c1.66-0.43,2.65-2.13,2.21-3.79l0,0c-0.43-1.66-2.13-2.65-3.79-2.21l-14.9,3.91
					l3.9-3.94l3.6-1.02c1.56-0.44,2.57-1.94,2.4-3.55l-0.07-0.68c-0.12-1.15-1.28-1.9-2.38-1.54l-7.03,2.29l-9.4,9.5v15.63
					l7.58,0.18c4.03,0.1,8.07-0.12,12.06-0.76c2.27-0.37,4.53-0.84,6.76-1.43l0.91-0.24c1.66-0.43,2.65-2.13,2.21-3.79l0,0
					c-0.43-1.66-2.13-2.65-3.79-2.21l-6.12,1.61"/>
				<path class="st1" d="M1298.69,1717.52c-0.6,0-1.2-0.01-1.81-0.02l-7.58-0.18c-0.48-0.01-0.85-0.4-0.85-0.88v-15.63
					c0-0.23,0.09-0.45,0.25-0.62l9.4-9.5c0.1-0.1,0.22-0.17,0.35-0.22l7.03-2.29c0.78-0.25,1.62-0.14,2.31,0.3
					c0.69,0.45,1.13,1.17,1.22,1.98l0.07,0.68c0.22,2.04-1.06,3.92-3.03,4.48l-3.38,0.96l-1.49,1.5l11.8-3.1
					c2.12-0.55,4.3,0.72,4.86,2.84c0.56,2.12-0.72,4.3-2.84,4.86l-7.42,1.95c-0.47,0.12-0.95-0.16-1.07-0.63
					c-0.12-0.47,0.16-0.95,0.62-1.07l7.42-1.95c1.19-0.31,1.9-1.53,1.59-2.72c-0.31-1.19-1.53-1.91-2.72-1.59l-14.9,3.91
					c-0.38,0.09-0.78-0.07-0.98-0.41c-0.2-0.34-0.14-0.77,0.14-1.05l3.9-3.94c0.11-0.11,0.24-0.18,0.38-0.23l3.6-1.02
					c1.15-0.33,1.89-1.43,1.77-2.62l-0.07-0.68c-0.03-0.29-0.19-0.54-0.43-0.7s-0.54-0.19-0.81-0.11l-6.83,2.22l-9,9.1v14.41
					l6.72,0.16c4.2,0.1,8.21-0.15,11.9-0.75c2.24-0.36,4.48-0.84,6.68-1.41l0.91-0.24c0.58-0.15,1.06-0.52,1.36-1.03
					c0.3-0.51,0.38-1.11,0.23-1.69c-0.31-1.19-1.53-1.91-2.72-1.59l-6.12,1.61c-0.47,0.12-0.95-0.16-1.07-0.63
					c-0.12-0.47,0.16-0.95,0.62-1.07l6.12-1.61c2.12-0.55,4.3,0.72,4.86,2.84c0.27,1.03,0.12,2.1-0.41,3.02
					c-0.54,0.92-1.4,1.57-2.43,1.84l-0.91,0.24c-2.25,0.59-4.55,1.08-6.85,1.45C1305.84,1717.25,1302.34,1717.52,1298.69,1717.52z"
					/>
			</g>
			<g>
				<path class="st0" d="M1308.94,1709.79l9.44-2.48c1.66-0.43,2.65-2.13,2.21-3.79l0,0c-0.44-1.66-2.13-2.65-3.79-2.21l-9.44,2.48"
					/>
				<path class="st1" d="M1308.94,1710.67c-0.39,0-0.74-0.26-0.85-0.65c-0.12-0.47,0.16-0.95,0.62-1.07l9.44-2.48
					c0.58-0.15,1.06-0.52,1.36-1.03c0.3-0.51,0.38-1.11,0.23-1.69c-0.31-1.19-1.53-1.9-2.72-1.59l-9.44,2.48
					c-0.47,0.12-0.95-0.16-1.07-0.63c-0.12-0.47,0.16-0.95,0.62-1.07l9.44-2.48c2.12-0.55,4.3,0.72,4.86,2.84
					c0.27,1.03,0.12,2.1-0.41,3.02c-0.54,0.92-1.4,1.57-2.43,1.84l-9.44,2.48C1309.09,1710.66,1309.02,1710.67,1308.94,1710.67z"/>
			</g>
		</g>
		<g>
			<path class="st4" d="M1233.8,1616.68c0,0-47.27,11.43-42.83,99.96c1.7,33.93,98.36-0.2,98.36-0.2v-21.22
				c0,0-53.7-0.83-65.65,0.54"/>
			<path class="st1" d="M1217.06,1732.56c-9.22,0-16.13-1.52-20.66-4.56c-3.95-2.65-6.07-6.46-6.32-11.32
				c-1.27-25.39,1.16-60.54,19.95-83.77c11.32-13.99,23.06-16.96,23.55-17.08c0.47-0.11,0.94,0.18,1.06,0.64
				c0.11,0.47-0.17,0.94-0.64,1.06c-0.12,0.03-11.75,3-22.69,16.59c-18.36,22.81-20.73,57.44-19.47,82.47
				c0.22,4.34,2.03,7.6,5.54,9.95c19.68,13.2,84.23-8.38,91.07-10.73v-19.73c-6.96-0.1-53.74-0.7-64.67,0.54
				c-0.49,0.05-0.91-0.29-0.97-0.77c-0.05-0.48,0.29-0.91,0.77-0.97c11.87-1.35,63.57-0.58,65.76-0.54c0.48,0.01,0.86,0.4,0.86,0.88
				v21.22c0,0.37-0.23,0.7-0.58,0.83c-0.18,0.06-18.07,6.35-38.34,10.8C1237.64,1731.06,1226.22,1732.56,1217.06,1732.56z"/>
		</g>
		<g>
			<g>
				<path class="st0" d="M1233.8,1563.68l1.4-16.15l19.59-9.23l28.4,19.46l0.57,24.27c0.34,7.78-3.79,14.72-10.11,18.34l-0.03-0.04
					l0.03,16.86l-2.84,17.02l-31.36-17.11l-4.87-35.69c0,0-13.71,3.65-13.63-8.96C1221.02,1559.83,1233.8,1563.68,1233.8,1563.68"/>
				<path class="st1" d="M1270.81,1635.07c-0.14,0-0.29-0.04-0.42-0.11l-31.36-17.11c-0.24-0.13-0.41-0.38-0.45-0.65l-4.74-34.76
					c-2.07,0.38-6.98,0.91-10.38-1.72c-2.27-1.75-3.41-4.55-3.38-8.3c0.02-3.89,1.2-6.72,3.51-8.42c3.15-2.33,7.47-1.82,9.43-1.42
					l1.32-15.14c0.03-0.31,0.22-0.58,0.5-0.71l19.59-9.24c0.28-0.13,0.61-0.11,0.87,0.07l28.4,19.46c0.23,0.16,0.37,0.42,0.38,0.7
					l0.57,24.27c0.34,7.71-3.53,14.9-10.14,18.87l0.03,16.3c0,0.05,0,0.1-0.01,0.15l-2.84,17.02c-0.05,0.28-0.23,0.52-0.48,0.64
					C1271.07,1635.04,1270.94,1635.07,1270.81,1635.07z M1240.25,1616.53l29.9,16.31l2.63-15.73l-0.03-16.79
					c0-0.4,0.27-0.75,0.65-0.85c0.02-0.01,0.04-0.01,0.06-0.01c6.13-3.63,9.74-10.27,9.42-17.39l-0.56-23.84l-27.62-18.92
					l-18.68,8.81l-1.36,15.65c-0.02,0.26-0.16,0.5-0.38,0.65c-0.22,0.15-0.49,0.19-0.74,0.11c-0.06-0.02-5.53-1.61-8.93,0.9
					c-1.83,1.36-2.77,3.72-2.79,7.02c-0.02,3.18,0.89,5.5,2.7,6.9c3.62,2.8,9.77,1.23,9.83,1.21c0.24-0.06,0.5-0.02,0.71,0.12
					c0.21,0.14,0.35,0.36,0.38,0.61L1240.25,1616.53z"/>
			</g>
			<path class="st1" d="M1275.24,1565.74c0.05,1.23,0.71,2.2,1.47,2.17c0.76-0.03,1.33-1.06,1.28-2.29
				c-0.05-1.23-0.71-2.2-1.47-2.17C1275.76,1563.48,1275.19,1564.51,1275.24,1565.74z"/>
			<path class="st1" d="M1257.17,1566.53c0.05,1.23,0.71,2.2,1.47,2.17c0.76-0.03,1.33-1.06,1.28-2.29
				c-0.05-1.23-0.71-2.2-1.47-2.17C1257.69,1564.27,1257.12,1565.3,1257.17,1566.53z"/>
			<g>
				<path class="st1" d="M1270.14,1583.65c-0.21,0-0.41-0.07-0.58-0.22c-0.36-0.32-0.4-0.87-0.08-1.23l1.56-1.77
					c0.63-0.72,0.53-1.56,0.23-2.11s-0.96-1.08-1.91-0.94c-0.25,0.04-0.51-0.03-0.7-0.2s-0.31-0.41-0.31-0.67l0.02-9.35
					c0-0.48,0.39-0.87,0.88-0.87c0,0,0,0,0,0c0.48,0,0.87,0.39,0.87,0.88l-0.02,8.46c1.13,0.14,2.13,0.8,2.7,1.84
					c0.74,1.34,0.56,2.96-0.45,4.11l-1.56,1.77C1270.62,1583.55,1270.38,1583.65,1270.14,1583.65z"/>
			</g>
			<g>
				<path class="st1" d="M1223.68,1574.53c-0.02,0-0.05,0-0.08,0c-0.48-0.04-0.84-0.46-0.8-0.95c0.26-3.1,1.31-5.33,3.12-6.65
					c2.44-1.78,5.32-1.15,5.44-1.13c0.47,0.11,0.77,0.58,0.66,1.05c-0.11,0.47-0.58,0.77-1.04,0.66c-0.05-0.01-2.26-0.46-4.04,0.84
					c-1.37,1.01-2.17,2.82-2.39,5.38C1224.51,1574.18,1224.13,1574.53,1223.68,1574.53z"/>
			</g>
			<g>
				<path class="st1" d="M1231.19,1576.88c-0.38,0-0.73-0.25-0.84-0.63c-1.34-4.59-5.59-6.26-5.63-6.27
					c-0.45-0.17-0.68-0.68-0.51-1.13c0.17-0.45,0.68-0.68,1.13-0.5c0.21,0.08,5.1,2.01,6.69,7.42c0.14,0.46-0.13,0.95-0.59,1.09
					C1231.35,1576.87,1231.27,1576.88,1231.19,1576.88z"/>
			</g>
			<g>
				<path class="st1" d="M1233.8,1564.55c-0.4,0-0.76-0.28-0.85-0.69c-0.1-0.47,0.19-0.94,0.67-1.04
					c20.23-4.46,16.8-22.44,16.65-23.2c-0.1-0.47,0.21-0.94,0.68-1.03c0.48-0.1,0.94,0.21,1.03,0.68
					c0.04,0.2,3.95,20.42-17.99,25.26C1233.92,1564.55,1233.86,1564.55,1233.8,1564.55z"/>
			</g>
			<path class="st1" d="M1282.56,1543.52c-0.35-8.07-5.54-15.16-13.19-18.02c-8.17-3.05-19.97-4.61-34.94,1.62
				c-7.78,3.24-12.58,11.07-12.21,19.4l0.84,19.13c3.65-4.11,10.73-1.98,10.73-1.98l0,0c15.13-8.78,17.15-19.84,17.15-19.84
				s16.24,15.03,33.11,14.29L1282.56,1543.52z"/>
			<g>
				<path class="st1" d="M1253.78,1562.38c-0.24,0-0.47-0.1-0.64-0.28c-0.33-0.36-0.3-0.91,0.05-1.24c3.6-3.3,7.29-1.61,8.73-0.26
					c0.35,0.33,0.37,0.88,0.04,1.24c-0.33,0.35-0.88,0.37-1.23,0.04c-0.31-0.29-3.12-2.7-6.35,0.27
					C1254.2,1562.31,1253.99,1562.38,1253.78,1562.38z"/>
			</g>
			<g>
				<path class="st1" d="M1279.61,1561.01c-0.22,0-0.43-0.08-0.6-0.24c-2.28-2.14-4.5-0.46-4.74-0.26c-0.37,0.3-0.92,0.25-1.23-0.12
					c-0.31-0.37-0.26-0.92,0.11-1.23c1.23-1.02,4.29-2.27,7.06,0.33c0.35,0.33,0.37,0.88,0.04,1.24
					C1280.08,1560.92,1279.85,1561.01,1279.61,1561.01z"/>
			</g>
			<g>
				<path class="st1" d="M1268.12,1593.48c-3.21,0-7.6-1.13-10.01-6.64c-0.19-0.44,0.01-0.96,0.45-1.15
					c0.44-0.19,0.96,0.01,1.15,0.45c3.42,7.82,11.41,5.24,11.75,5.13c0.46-0.15,0.95,0.09,1.11,0.55c0.15,0.46-0.09,0.95-0.55,1.11
					C1271.99,1592.93,1270.34,1593.48,1268.12,1593.48z"/>
			</g>
			<g>
				<path class="st1" d="M1259.8,1604.06c-0.47,0-0.85-0.37-0.87-0.84c-0.02-0.48,0.35-0.89,0.84-0.91l4.77-0.21
					c3.1-0.14,6.02-0.98,8.69-2.51c0.42-0.24,0.95-0.09,1.19,0.33c0.24,0.42,0.09,0.95-0.33,1.19c-2.91,1.67-6.1,2.59-9.48,2.73
					l-4.77,0.21C1259.82,1604.06,1259.81,1604.06,1259.8,1604.06z"/>
			</g>
			<path class="st1" d="M1191.39,1607.47l0.05-0.03c0.02-4.61,1.69-9.58,5.96-14.25c8.3-9.09,22.59-7.28,26.98-3.58l-0.01,0.01
				l0.01-0.01l-0.42-9.61c2.25,1.76,6.94,3.55,10.99,1.22c0,0,24.75,28.2,2.7,52.07
				C1226.56,1645.29,1186.42,1648.22,1191.39,1607.47z"/>
		</g>
	</g>
	<g>
		<path class="st1" d="M2486.1,2217.11H148.16c-0.63,0-1.15-0.39-1.15-0.88s0.51-0.88,1.15-0.88H2486.1c0.64,0,1.15,0.39,1.15,0.88
			S2486.73,2217.11,2486.1,2217.11z"/>
	</g>
</g>
</svg>
