<?xml version="1.0" encoding="utf-8"?>
<!-- Generator: Adobe Illustrator 24.2.0, SVG Export Plug-In . SVG Version: 6.00 Build 0)  -->
<svg version="1.1" id="_1" xmlns="http://www.w3.org/2000/svg" xmlns:xlink="http://www.w3.org/1999/xlink" x="0px" y="0px"
	 viewBox="0 0 1488 1320" style="enable-background:new 0 0 1488 1320;" xml:space="preserve">
<style type="text/css">
	.st0{fill:#FFFFFF;}
	.st1{fill:#32C787;}
	.st2{fill:#404040;}
	.st3{fill:#E6E6E6;}
</style>
<g>
	<rect class="st0" width="1488" height="1320"/>
	<g>
		<g>
			<g>
				<path class="st1" d="M469.3,710.7c-5.25,0-10.57-0.27-15.8-0.8c-26-2.7-52.44-4.07-78.59-4.07c-20.94,0-42.13,0.88-62.97,2.62
					c-4.92,0.39-10.05,0.87-15.69,1.45c-5.25,0.53-10.57,0.81-15.81,0.81c-6.61,0-13.29-0.43-19.86-1.28
					c-30.49-3.87-60.96-19.64-85.79-44.39c-24.83-24.75-40.67-55.17-44.62-85.65c-4.8-36.93,3.8-74.05,24.23-104.53
					c11.91-17.76,16.1-39.56,11.5-59.81c-2.14-9.54-3.22-19.31-3.22-29.04c0-46.59,25.08-90.01,65.46-113.32
					c23.8-13.78,38.36-39.47,38-67.06c-0.02-1.57-0.01-3.24,0.05-5.24c1.86-54.29,43.99-99.19,98.01-104.44
					c1.82-0.18,3.41-0.3,4.88-0.37c1.92-0.1,3.87-0.15,5.79-0.15c59.97,0,108.76,48.79,108.76,108.75v0.57
					c-0.16,28.29,14.4,54.3,38,67.9C562,296,587.08,339.44,587.08,386c0,9.77-1.09,19.54-3.25,29.04
					c-4.59,20.24-0.39,42.04,11.53,59.81c20.4,30.48,29,67.61,24.22,104.53c-3.95,30.48-19.8,60.9-44.63,85.65
					c-24.83,24.75-55.3,40.52-85.81,44.39C482.59,710.27,475.92,710.7,469.3,710.7z"/>
				<path class="st2" d="M374.86,96.3c59.58,0,107.88,48.29,107.88,107.88v0.57c-0.16,28.11,14.07,54.62,38.44,68.66
					c38.86,22.47,65.02,64.47,65.02,112.59c0,9.91-1.12,19.56-3.22,28.84c-4.73,20.86-0.26,42.73,11.65,60.5
					c19.45,29.08,29.08,65.31,24.08,103.93c-8.11,62.63-67,121.33-129.68,129.29c-6.65,0.86-13.25,1.27-19.74,1.27
					c-5.31,0-10.55-0.27-15.71-0.8c-26.14-2.72-52.41-4.08-78.68-4.08c-21.04,0-42.07,0.87-63.04,2.62
					c-5.25,0.42-10.48,0.91-15.71,1.46c-5.17,0.53-10.41,0.8-15.72,0.8c-6.49,0-13.08-0.41-19.75-1.27
					c-62.65-7.96-121.54-66.66-129.65-129.29c-5.02-38.62,4.6-74.85,24.08-103.93c11.91-17.76,16.36-39.64,11.63-60.5
					c-2.08-9.29-3.2-18.93-3.2-28.84c0-48.12,26.14-90.12,65.02-112.56c24.08-13.94,38.8-40.03,38.44-67.83
					c-0.03-1.74,0-3.46,0.05-5.2c1.85-53.99,43.93-98.42,97.22-103.59c1.61-0.16,3.23-0.29,4.84-0.36
					C371.04,96.35,372.96,96.3,374.86,96.3 M374.87,94.55v1.75V94.55c-1.94,0-3.9,0.05-5.84,0.15c-1.47,0.07-3.08,0.19-4.92,0.37
					c-54.45,5.29-96.93,50.55-98.8,105.27c-0.06,2.01-0.08,3.69-0.05,5.29c0.36,27.27-14.04,52.67-37.57,66.29
					c-19.68,11.36-36.18,27.71-47.72,47.28c-11.89,20.16-18.17,43.26-18.17,66.8c0,9.79,1.09,19.63,3.24,29.23
					c4.55,20.03,0.4,41.58-11.37,59.14c-10.05,15-17.27,31.46-21.48,48.95c-4.39,18.25-5.36,37.15-2.89,56.18
					c3.97,30.67,19.91,61.27,44.87,86.16c24.96,24.89,55.61,40.74,86.29,44.64c6.61,0.85,13.33,1.28,19.97,1.28
					c5.28,0,10.63-0.27,15.9-0.81c5.64-0.59,10.76-1.06,15.67-1.45c20.82-1.73,41.98-2.61,62.9-2.61c26.11,0,52.52,1.37,78.5,4.07
					c5.27,0.54,10.61,0.81,15.89,0.81c6.65,0,13.37-0.43,19.96-1.28c30.69-3.9,61.35-19.75,86.31-44.64
					c24.97-24.89,40.9-55.49,44.88-86.16c2.46-19.03,1.48-37.93-2.91-56.18c-4.2-17.48-11.42-33.95-21.46-48.95
					c-11.79-17.58-15.94-39.13-11.4-59.14c2.17-9.56,3.27-19.39,3.27-29.23c0-23.54-6.29-46.63-18.18-66.8
					c-11.54-19.57-28.04-35.93-47.71-47.3c-23.33-13.44-37.72-39.17-37.57-67.14v-0.58C484.5,143.73,435.32,94.55,374.87,94.55
					L374.87,94.55z"/>
			</g>
			<g>
				<path class="st2" d="M374.87,1194.37c-0.48,0-0.88-0.39-0.88-0.88V196.15c0-0.48,0.39-0.88,0.88-0.88s0.88,0.39,0.88,0.88
					v997.34C375.75,1193.98,375.36,1194.37,374.87,1194.37z"/>
			</g>
			<g>
				<path class="st2" d="M374.87,477.09c-0.17,0-0.34-0.05-0.49-0.15c-0.4-0.27-0.5-0.82-0.23-1.22l96.5-142.27
					c0.27-0.4,0.82-0.5,1.22-0.23c0.4,0.27,0.5,0.82,0.23,1.22L375.6,476.7C375.43,476.95,375.15,477.09,374.87,477.09z"/>
			</g>
			<g>
				<path class="st2" d="M374.87,600.6c-0.22,0-0.44-0.08-0.61-0.24L245.65,476.84c-0.35-0.33-0.36-0.89-0.02-1.24
					c0.33-0.35,0.89-0.36,1.24-0.03l128.61,123.51c0.35,0.33,0.36,0.89,0.02,1.24C375.33,600.51,375.1,600.6,374.87,600.6z"/>
			</g>
		</g>
		<g>
			<g>
				<path class="st1" d="M1017.34,1177.68c-30.7,0-55.68-24.98-55.68-55.68c0-27.11,19.99-50.59,46.64-54.94
					c-0.06-1.29-0.09-2.55-0.09-3.76c0-42.98,34.97-77.95,77.95-77.95c8.12,0,16.12,1.25,23.79,3.7
					c10.8-31.54,40.32-52.67,73.75-52.67c32.12,0,60.47,19.21,72.39,48.99c42.32,0.69,76.66,35.53,76.66,77.93
					c0,2.6-0.13,5.25-0.4,7.88c20.03,8.97,32.93,28.85,32.93,50.82c0,30.7-24.98,55.68-55.68,55.68H1017.34z"/>
				<path class="st2" d="M1183.71,937.26c32.65,0,60.56,20.31,71.79,48.98c42.25,0.37,76.38,34.73,76.38,77.06
					c0,2.85-0.16,5.66-0.46,8.43c19.41,8.43,33,27.77,33,50.28c0,30.27-24.54,54.8-54.8,54.8c-23.85,0-267.78,0-292.27,0
					c-30.27,0-54.8-24.54-54.8-54.8c0-27.51,20.27-50.28,46.68-54.2c-0.09-1.49-0.13-2.99-0.13-4.51
					c0-42.57,34.51-77.07,77.07-77.07c8.51,0,16.69,1.38,24.35,3.93C1120.65,959.43,1149.59,937.26,1183.71,937.26 M1183.71,935.51
					c-33.52,0-63.16,21.01-74.3,52.46c-7.51-2.32-15.32-3.49-23.25-3.49c-43.46,0-78.82,35.36-78.82,78.82c0,0.98,0.02,2,0.06,3.03
					c-12.66,2.25-24.24,8.81-32.74,18.58c-8.94,10.28-13.87,23.45-13.87,37.09c0,31.18,25.37,56.55,56.55,56.55h292.27
					c31.18,0,56.55-25.37,56.55-56.55c0-22.11-12.86-42.13-32.88-51.36c0.23-2.45,0.34-4.92,0.34-7.34
					c0-20.93-8.12-40.64-22.86-55.5c-14.45-14.57-33.62-22.82-54.08-23.29c-5.77-14.13-15.45-26.19-28.05-34.95
					C1215.41,940.37,1199.87,935.51,1183.71,935.51L1183.71,935.51z"/>
			</g>
			<g>
				<path class="st2" d="M1169.13,1154.26c-0.29,0-0.58-0.15-0.75-0.42l-61.62-100.33c-0.25-0.41-0.12-0.95,0.29-1.2
					c0.41-0.25,0.95-0.12,1.2,0.29l61.62,100.33c0.25,0.41,0.13,0.95-0.29,1.2C1169.45,1154.22,1169.29,1154.26,1169.13,1154.26z"/>
			</g>
			<g>
				<path class="st2" d="M1218.91,1083.16c-0.21,0-0.41-0.07-0.58-0.22c-0.36-0.32-0.4-0.87-0.08-1.24l54.51-61.62
					c0.32-0.36,0.87-0.4,1.24-0.08c0.36,0.32,0.4,0.87,0.08,1.24l-54.51,61.62C1219.39,1083.06,1219.15,1083.16,1218.91,1083.16z"/>
			</g>
			<g>
				<path class="st2" d="M1131.62,1093.18c-0.12,0-0.24-0.02-0.36-0.08l-87.31-39.25c-0.44-0.2-0.64-0.72-0.44-1.16
					c0.2-0.44,0.71-0.64,1.16-0.44l87.31,39.25c0.44,0.2,0.64,0.72,0.44,1.16C1132.27,1092.99,1131.95,1093.18,1131.62,1093.18z"/>
			</g>
			<g>
				<path class="st2" d="M1241.24,1057.91c-0.4,0-0.77-0.28-0.85-0.69c-0.1-0.47,0.2-0.94,0.67-1.04l66.15-14.25
					c0.47-0.1,0.94,0.2,1.04,0.67c0.1,0.47-0.2,0.94-0.67,1.04l-66.15,14.25C1241.36,1057.9,1241.3,1057.91,1241.24,1057.91z"/>
			</g>
		</g>
		<g>
			<g>
				<path class="st2" d="M967.58,1199.19h-8.26c-1.1,0-2-0.9-2-2s0.9-2,2-2h8.26c1.77,0,3.2-1.44,3.2-3.2v-16.74c0-1.1,0.9-2,2-2
					s2,0.9,2,2v16.74C974.78,1195.96,971.55,1199.19,967.58,1199.19z"/>
			</g>
			<g>
				<path class="st2" d="M952.12,1199.19h-8.26c-1.1,0-2-0.9-2-2s0.9-2,2-2h8.26c1.77,0,3.2-1.44,3.2-3.2v-16.74c0-1.1,0.9-2,2-2
					c1.1,0,2,0.9,2,2v16.74C959.32,1195.96,956.09,1199.19,952.12,1199.19z"/>
			</g>
			<g>
				<path class="st3" d="M948.83,1105.61c15.15-4.51,39.56-11.37,63.7-16.41c0,0-8.45,44.72-42.59,51.56
					c-5.99,1.2-11.01,1.04-15.19-0.04C937.8,1136.36,933.44,1110.2,948.83,1105.61z"/>
				<path class="st2" d="M962,1142.6c-2.65,0-5.16-0.3-7.49-0.9c-10.38-2.67-15.98-12.9-16.14-21.61
					c-0.14-7.72,3.66-13.49,10.19-15.43c15.96-4.75,39.97-11.46,63.79-16.43c0.32-0.07,0.67,0.03,0.9,0.26
					c0.24,0.23,0.34,0.57,0.28,0.9c-0.09,0.45-8.97,45.46-43.38,52.36C967.3,1142.31,964.58,1142.6,962,1142.6z M949.12,1106.57
					c-5.61,1.67-8.88,6.71-8.76,13.48c0.15,7.96,5.22,17.29,14.64,19.71c4.32,1.11,9.28,1.12,14.75,0.02
					c29.61-5.94,39.64-41.54,41.48-49.28C987.99,1095.42,964.7,1101.92,949.12,1106.57L949.12,1106.57z"/>
			</g>
			<g>
				<path class="st3" d="M1033.15,1143.1c-0.12,0-0.23-0.02-0.34-0.06c-0.33-0.12-0.57-0.41-0.64-0.75
					c-0.15-0.82-3.71-20.05,1.29-26.96c1.06-1.46,2.43-2.32,4.08-2.54c0.45-0.06,0.91-0.09,1.36-0.09c1.95,0,3.84,0.57,5.63,1.7
					c3.09,1.95,5,5.2,5.23,8.92c0.24,3.87-1.4,7.63-4.38,10.07l-11.59,9.49C1033.6,1143.02,1033.37,1143.1,1033.15,1143.1z"/>
				<path class="st2" d="M1038.89,1113.7c1.9,0,3.6,0.6,5.09,1.54c6.14,3.86,6.36,12.79,0.75,17.38l-11.59,9.49
					c0,0-5.1-27.05,4.52-28.32C1038.08,1113.72,1038.49,1113.7,1038.89,1113.7 M1038.89,1111.7
					C1038.89,1111.7,1038.89,1111.7,1038.89,1111.7c-0.49,0-0.99,0.03-1.49,0.1c-1.9,0.25-3.55,1.27-4.76,2.94
					c-5.16,7.13-1.86,25.65-1.47,27.73c0.13,0.69,0.62,1.27,1.28,1.51c0.22,0.08,0.45,0.12,0.68,0.12c0.46,0,0.9-0.16,1.27-0.45
					l11.59-9.49c3.23-2.64,5.01-6.72,4.75-10.91c-0.25-4.05-2.33-7.59-5.7-9.71C1043.1,1112.32,1041.03,1111.7,1038.89,1111.7
					L1038.89,1111.7z"/>
			</g>
			<g>
				<path class="st0" d="M963.49,1177.7c-37.83,0-50.25-15.93-54.28-25.42c-4.19-9.86-3.31-21.4,2.36-30.89
					c2.63-4.41,5.14-8.11,7.36-11.38c5.46-8.07,9.08-13.4,7.89-19.52c-1.22-6.31-6.97-10.88-13.68-10.88l-6.77,0.1
					c-0.11-1.77-0.24-6.27,0.84-10.99c1.2-5.24,3.49-9.14,6.82-11.6c3.43-2.54,8.36-4,13.53-4c5.51,0,10.46,1.68,13.57,4.62
					c2.06,1.93,3.29,4.35,3.65,7.19c1.75,13.54-1.74,45.41-1.78,45.73c-0.03,0.26,0.06,0.52,0.25,0.71
					c0.17,0.17,0.39,0.26,0.63,0.26c0.03,0,0.05,0,0.08,0c0.03,0,2.62-0.23,6.95-0.23c15.68,0,54.88,3.03,81.22,30.95
					C1030.35,1146.6,1015.71,1177.7,963.49,1177.7z"/>
				<path class="st2" d="M927.55,1053.98c5.29,0,10.02,1.6,12.97,4.38c1.9,1.79,3.04,4.03,3.38,6.66
					c1.74,13.43-1.75,45.2-1.78,45.52c-0.06,0.52,0.12,1.04,0.49,1.42c0.33,0.34,0.78,0.53,1.25,0.53c0.05,0,0.11,0,0.16-0.01
					c0.03,0,2.59-0.23,6.87-0.23c15.49,0,54.09,2.97,80.19,30.27c-1.1,2.52-4.69,9.64-12.67,16.67
					c-9.13,8.05-26.08,17.64-54.91,17.64c-37.32,0-49.53-15.6-53.48-24.89c-4.08-9.6-3.22-20.85,2.3-30.1
					c2.62-4.39,5.12-8.08,7.33-11.34c5.59-8.25,9.28-13.7,8.02-20.18c-1.3-6.72-7.41-11.59-14.54-11.59l-0.2,0l-5.74,0.08
					c-0.08-2.07-0.06-5.91,0.86-9.91c1.15-5.03,3.33-8.76,6.48-11.09C917.83,1055.37,922.57,1053.98,927.55,1053.98 M927.55,1052.23
					c-5.15,0-10.36,1.44-14.05,4.17c-4.07,3.02-6.13,7.68-7.15,12.11c-1.44,6.27-0.79,12.07-0.79,12.07l7.4-0.11
					c0.06,0,0.11,0,0.17,0c6.11,0,11.66,4.17,12.82,10.18c1.58,8.14-6.07,15.13-15.14,30.29c-5.39,9.02-6.95,21-2.41,31.68
					c5.99,14.08,22.6,25.96,55.09,25.96c57.13,0,69.63-36.45,69.63-36.45c-26.56-28.54-66.26-31.63-82.24-31.63
					c-4.43,0-7.03,0.24-7.03,0.24s3.56-32.14,1.78-45.94c-0.41-3.2-1.85-5.77-3.92-7.71
					C938.23,1053.79,932.91,1052.23,927.55,1052.23L927.55,1052.23z"/>
			</g>
			<g>
				<path class="st3" d="M909.06,1151.58c-3.87-9.68-2.9-20.88,2.62-30.13c2.63-4.4,5.14-8.11,7.35-11.38
					c5.48-8.1,9.1-13.44,7.91-19.62c-1.23-6.37-7.03-10.99-13.8-10.99l-6.65,0.09c-0.11-1.84-0.21-6.23,0.84-10.83
					c1.19-5.21,3.47-9.08,6.77-11.53c3.41-2.53,8.31-3.98,13.45-3.98c5.48,0,10.4,1.67,13.48,4.58c2.04,1.91,3.25,4.3,3.61,7.11
					c1.75,13.52-1.74,45.38-1.78,45.7C942.81,1110.99,936.99,1149.61,909.06,1151.58z"/>
				<path class="st2" d="M927.55,1054.23c5.23,0,9.89,1.57,12.8,4.31c1.86,1.75,2.97,3.94,3.3,6.51
					c1.71,13.21-1.65,44.22-1.78,45.43c-0.18,1.18-5.92,37.53-32.15,40.04c-3.44-9.23-2.42-19.8,2.81-28.55
					c2.62-4.38,5.12-8.07,7.32-11.33c5.62-8.3,9.34-13.79,8.06-20.37c-1.32-6.84-7.54-11.8-14.78-11.8l-0.2,0l-5.49,0.08
					c-0.07-2.1-0.01-5.78,0.86-9.6c1.14-4.97,3.29-8.65,6.39-10.95C917.93,1055.6,922.62,1054.23,927.55,1054.23 M927.55,1052.23
					c-5.15,0-10.36,1.44-14.05,4.17c-4.07,3.02-6.13,7.68-7.15,12.11c-1.44,6.27-0.79,12.07-0.79,12.07l7.4-0.11
					c0.06,0,0.11,0,0.17,0c6.11,0,11.66,4.17,12.82,10.18c1.58,8.14-6.07,15.13-15.14,30.29c-5.39,9.02-6.95,21-2.41,31.68
					c29.72-1.43,35.45-41.88,35.45-41.88s3.56-32.14,1.78-45.94c-0.41-3.2-1.85-5.77-3.92-7.71
					C938.23,1053.79,932.91,1052.23,927.55,1052.23L927.55,1052.23z"/>
			</g>
			<path class="st2" d="M907.95,1063.62c0,0-5.49,8.62-16.99,12.22c-2.61,0.81-1.07,5.09,1.66,5.03l12.94-0.29L907.95,1063.62z"/>
			<path class="st2" d="M915.27,1064.78c0,1.1,0.89,1.99,1.99,1.99s1.99-0.89,1.99-1.99c0-1.1-0.89-1.99-1.99-1.99
				S915.27,1063.68,915.27,1064.78z"/>
			<path class="st2" d="M1033.12,1142.1c0,0,12.05-24.74,20.53-20.03c2.12,1.18,3.43,2.95,4.2,4.94c2.62,6.76-2.53,14.06-9.77,14.39
				L1033.12,1142.1z"/>
			<g>
				<path class="st3" d="M965.4,1118.34c13.46,8.3,34.81,21.95,54.65,36.62c0,0-39,23.45-66.83,2.53
					c-4.89-3.67-8.1-7.52-10.09-11.36C935.11,1130.57,951.73,1109.9,965.4,1118.34z"/>
				<path class="st2" d="M980.57,1167.11c-9.41,0-19.24-2.26-27.96-8.82c-4.7-3.53-8.19-7.47-10.37-11.7
					c-4.91-9.53-1.01-20.51,5.39-26.43c5.67-5.25,12.51-6.25,18.3-2.67l0,0c14.16,8.74,35.15,22.2,54.71,36.67
					c0.27,0.2,0.42,0.52,0.4,0.85c-0.02,0.33-0.2,0.64-0.48,0.81C1020.29,1155.98,1001.44,1167.11,980.57,1167.11z M958.7,1117.39
					c-3.31,0-6.69,1.43-9.71,4.23c-5.84,5.41-9.43,15.41-4.97,24.05c2.04,3.96,5.34,7.67,9.8,11.02
					c24.13,18.13,57.38,1.93,64.39-1.85c-19.15-14.08-39.5-27.12-53.33-35.66l0,0C962.93,1117.99,960.83,1117.39,958.7,1117.39z"/>
			</g>
		</g>
		<g>
			<g>
				<path class="st3" d="M1109.84,1121.53c15.8,0.72,41.1,2.26,65.56,5.44c0,0-22.68,39.45-57.17,34.7
					c-6.06-0.83-10.74-2.63-14.34-5.03C1089.31,1146.95,1093.79,1120.8,1109.84,1121.53z"/>
				<path class="st2" d="M1123.92,1163.06c-1.91,0-3.85-0.13-5.83-0.4c-5.83-0.8-10.79-2.55-14.75-5.18
					c-8.92-5.94-10.85-17.43-8.14-25.72c2.4-7.34,7.92-11.54,14.69-11.23l0,0c16.63,0.75,41.52,2.31,65.64,5.45
					c0.33,0.04,0.62,0.25,0.77,0.55c0.15,0.3,0.14,0.65-0.03,0.94C1176.05,1127.84,1155.42,1163.06,1123.92,1163.06z
					 M1109.21,1122.51c-5.58,0-10.08,3.65-12.11,9.87c-2.48,7.57-0.75,18.05,7.35,23.43c3.71,2.47,8.4,4.11,13.92,4.87
					c29.89,4.11,51.08-26.21,55.37-32.92c-23.57-2.99-47.7-4.5-63.94-5.24C1109.6,1122.52,1109.4,1122.51,1109.21,1122.51z"/>
			</g>
			<g>
				<path class="st2" d="M1127.88,1215.42h-8.26c-1.1,0-2-0.9-2-2s0.9-2,2-2h8.26c1.77,0,3.2-1.44,3.2-3.2v-16.75c0-1.1,0.9-2,2-2
					s2,0.9,2,2v16.75C1135.08,1212.18,1131.85,1215.42,1127.88,1215.42z"/>
			</g>
			<g>
				<path class="st2" d="M1112.42,1215.42h-8.26c-1.1,0-2-0.9-2-2s0.9-2,2-2h8.26c1.77,0,3.2-1.44,3.2-3.2v-16.75c0-1.1,0.9-2,2-2
					s2,0.9,2,2v16.75C1119.63,1212.18,1116.4,1215.42,1112.42,1215.42z"/>
			</g>
			<g>
				<path class="st3" d="M1206.55,1161.93c-0.58,0-1.18-0.04-1.76-0.13l-14.82-2.19c-0.35-0.05-0.65-0.28-0.78-0.61
					c-0.13-0.33-0.09-0.7,0.13-0.98c0.53-0.7,13.1-17.24,21.64-17.24c1.45,0,2.73,0.46,3.79,1.36c1.88,1.58,3.06,3.68,3.51,6.24
					c0.59,3.32-0.29,6.6-2.49,9.23C1213.48,1160.35,1210.11,1161.93,1206.55,1161.93z"/>
				<path class="st2" d="M1210.96,1141.78c1.16,0,2.22,0.34,3.15,1.12c1.85,1.56,2.8,3.55,3.18,5.65
					c1.18,6.6-4.24,12.37-10.73,12.37c-0.53,0-1.07-0.04-1.61-0.12l-14.82-2.19C1190.12,1158.62,1202.82,1141.78,1210.96,1141.78
					 M1210.96,1139.78L1210.96,1139.78c-8.88,0-21.07,15.83-22.44,17.64c-0.43,0.56-0.52,1.31-0.25,1.96
					c0.27,0.65,0.86,1.12,1.56,1.22l14.82,2.19c0.63,0.09,1.27,0.14,1.9,0.14c3.86,0,7.5-1.7,9.99-4.68
					c2.36-2.82,3.35-6.48,2.71-10.05c-0.5-2.8-1.8-5.1-3.85-6.83C1214.14,1140.32,1212.65,1139.78,1210.96,1139.78L1210.96,1139.78z
					"/>
			</g>
			<g>
				<path class="st0" d="M1123.8,1193.92c-37.83,0-50.25-15.93-54.28-25.42c-4.19-9.86-3.31-21.4,2.36-30.89
					c2.63-4.41,5.14-8.11,7.36-11.38c5.46-8.07,9.08-13.4,7.89-19.52c-1.22-6.31-6.97-10.88-13.68-10.88l-6.77,0.1
					c-0.11-1.77-0.24-6.27,0.84-10.99c1.2-5.24,3.49-9.14,6.82-11.6c3.43-2.54,8.36-4,13.53-4c5.51,0,10.46,1.68,13.57,4.62
					c2.06,1.93,3.29,4.35,3.65,7.19c1.75,13.54-1.74,45.41-1.78,45.73c-0.03,0.26,0.06,0.52,0.25,0.71
					c0.17,0.17,0.39,0.26,0.63,0.26c0.03,0,0.05,0,0.08,0c0.03,0,2.62-0.23,6.95-0.23c15.68,0,54.88,3.03,81.22,30.95
					C1190.65,1162.82,1176.02,1193.92,1123.8,1193.92z"/>
				<path class="st2" d="M1087.85,1070.2c5.29,0,10.02,1.6,12.97,4.38c1.9,1.79,3.04,4.03,3.38,6.66
					c1.74,13.43-1.75,45.2-1.78,45.52c-0.06,0.52,0.12,1.04,0.49,1.42c0.33,0.34,0.78,0.53,1.25,0.53c0.05,0,0.11,0,0.16-0.01
					c0.03,0,2.59-0.23,6.87-0.23c15.49,0,54.09,2.97,80.2,30.27c-1.08,2.5-4.6,9.51-12.51,16.53c-9.14,8.11-26.11,17.78-55.08,17.78
					c-37.32,0-49.53-15.6-53.48-24.89c-4.08-9.6-3.22-20.85,2.3-30.1c2.62-4.39,5.12-8.08,7.33-11.34
					c5.59-8.25,9.28-13.7,8.02-20.18c-1.3-6.72-7.41-11.59-14.54-11.59l-0.2,0l-5.74,0.08c-0.08-2.07-0.06-5.91,0.86-9.91
					c1.15-5.03,3.33-8.76,6.48-11.09C1078.13,1071.59,1082.87,1070.2,1087.85,1070.2 M1087.85,1068.45
					c-5.15,0-10.36,1.44-14.05,4.17c-4.07,3.02-6.13,7.68-7.15,12.11c-1.44,6.27-0.79,12.07-0.79,12.07l7.4-0.11
					c0.06,0,0.11,0,0.17,0c6.11,0,11.66,4.17,12.82,10.18c1.58,8.14-6.07,15.13-15.14,30.29c-5.39,9.02-6.95,21-2.41,31.68
					c5.99,14.08,22.6,25.96,55.09,25.96c57.13,0,69.63-36.45,69.63-36.45c-26.56-28.54-66.26-31.63-82.24-31.63
					c-4.43,0-7.03,0.24-7.03,0.24s3.56-32.14,1.78-45.94c-0.41-3.2-1.85-5.77-3.92-7.71
					C1098.53,1070.01,1093.22,1068.45,1087.85,1068.45L1087.85,1068.45z"/>
			</g>
			<g>
				<path class="st3" d="M1069.36,1167.8c-3.87-9.68-2.9-20.88,2.62-30.13c2.63-4.4,5.14-8.11,7.35-11.38
					c5.48-8.1,9.1-13.44,7.91-19.62c-1.23-6.37-7.03-10.99-13.8-10.99l-6.65,0.09c-0.11-1.84-0.21-6.23,0.84-10.83
					c1.19-5.21,3.47-9.08,6.77-11.53c3.41-2.53,8.31-3.98,13.45-3.98c5.48,0,10.4,1.67,13.48,4.58c2.04,1.91,3.25,4.3,3.61,7.11
					c1.75,13.52-1.74,45.38-1.78,45.7C1103.11,1127.21,1097.3,1165.83,1069.36,1167.8z"/>
				<path class="st2" d="M1087.85,1070.45c5.23,0,9.89,1.57,12.8,4.31c1.86,1.75,2.97,3.94,3.3,6.51
					c1.71,13.21-1.65,44.22-1.78,45.43c-0.18,1.18-5.92,37.53-32.15,40.04c-3.44-9.23-2.42-19.8,2.81-28.55
					c2.62-4.38,5.12-8.07,7.32-11.33c5.62-8.3,9.34-13.79,8.06-20.37c-1.32-6.84-7.54-11.8-14.78-11.8l-0.2,0l-5.49,0.08
					c-0.07-2.1-0.01-5.78,0.86-9.6c1.14-4.97,3.29-8.65,6.39-10.95C1078.24,1071.83,1082.93,1070.45,1087.85,1070.45
					 M1087.85,1068.45c-5.15,0-10.36,1.44-14.05,4.17c-4.07,3.02-6.13,7.68-7.15,12.11c-1.44,6.27-0.79,12.07-0.79,12.07l7.4-0.11
					c0.06,0,0.11,0,0.17,0c6.11,0,11.66,4.17,12.82,10.18c1.58,8.14-6.07,15.13-15.14,30.29c-5.39,9.02-6.95,21-2.41,31.68
					c29.72-1.43,35.45-41.88,35.45-41.88s3.56-32.14,1.78-45.94c-0.41-3.2-1.85-5.77-3.92-7.71
					C1098.53,1070.01,1093.22,1068.45,1087.85,1068.45L1087.85,1068.45z"/>
			</g>
			<path class="st2" d="M1068.26,1079.84c0,0-5.49,8.62-16.99,12.22c-2.61,0.81-1.07,5.09,1.66,5.03l12.94-0.29L1068.26,1079.84z"/>
			<path class="st2" d="M1075.57,1081c0,1.1,0.89,1.99,1.99,1.99c1.1,0,1.99-0.89,1.99-1.99s-0.89-1.99-1.99-1.99
				C1076.46,1079.01,1075.57,1079.9,1075.57,1081z"/>
			<path class="st2" d="M1190.1,1158.6c0,0,26.41-7.74,28.63,1.7c0.55,2.36,0.13,4.52-0.83,6.43c-3.24,6.49-12.09,7.59-17.22,2.46
				L1190.1,1158.6z"/>
			<g>
				<path class="st3" d="M1119.7,1138.8c15.03,4.91,39,13.15,61.73,22.75c0,0-32.39,31.97-64.36,18.17
					c-5.61-2.42-9.64-5.4-12.47-8.67C1093.13,1157.81,1104.43,1133.81,1119.7,1138.8z"/>
				<path class="st2" d="M1133.8,1184.14c-5.61,0-11.38-1.02-17.13-3.5c-5.4-2.33-9.72-5.34-12.83-8.94
					c-7.02-8.1-5.8-19.69-0.98-26.96c4.27-6.43,10.69-9.01,17.16-6.9l0,0c15.83,5.17,39.4,13.31,61.8,22.78
					c0.31,0.13,0.53,0.4,0.59,0.73c0.06,0.33-0.04,0.67-0.28,0.9C1181.86,1162.52,1159.6,1184.14,1133.8,1184.14z M1115.64,1139.14
					c-4.23,0-8.22,2.35-11.11,6.72c-4.41,6.63-5.54,17.19,0.82,24.54c2.92,3.37,6.99,6.2,12.12,8.41
					c27.71,11.96,56.22-11.61,62.15-16.94c-21.91-9.18-44.76-17.07-60.22-22.12l0,0
					C1118.13,1139.34,1116.87,1139.14,1115.64,1139.14z"/>
			</g>
		</g>
		<g>
			<path class="st2" d="M703.12,561.9c-2.45-3.38-7.22-5.47-10.93-3.55c-2.56,1.33-4,4.28-4.05,7.16c-0.05,2.88,1.12,5.67,2.72,8.06
				c-5.96,0.14-12.01,2.39-15.98,6.83c-3.97,4.44-5.51,11.19-3.06,16.62c2.45,5.43,9.17,8.8,14.78,6.78
				c-1.8,3.32-3.64,6.72-4.22,10.45c-0.59,3.73,0.3,7.92,3.19,10.36c2.89,2.44,7.23,2.61,10.74,1.2
				c6.93-2.78,10.55-10.38,12.62-17.56c2.24-7.76,3.4-16.15,1.81-24.15c-0.77-3.86-2.84-7.1-3.9-10.75
				C705.68,569.34,705.69,565.44,703.12,561.9z"/>
			<g>
				<path class="st0" d="M808.2,820.53l7.79,7.31c0.67,0.63,0.34,1.78-0.57,1.93c-7.75,1.23-11.13-6.96-11.13-6.96L808.2,820.53z"/>
				<path class="st2" d="M813.86,830.76c-7.14,0-10.35-7.55-10.38-7.63c-0.17-0.41-0.01-0.87,0.37-1.09l3.91-2.27
					c0.33-0.19,0.76-0.15,1.04,0.12l7.79,7.31c0.56,0.53,0.77,1.31,0.54,2.05c-0.22,0.73-0.83,1.26-1.57,1.38
					C814.97,830.72,814.41,830.76,813.86,830.76z M805.43,823.15c0.97,1.85,4.08,6.66,9.86,5.75c0.09-0.01,0.15-0.07,0.18-0.16
					c0.02-0.06,0.03-0.17-0.07-0.26l-7.31-6.86L805.43,823.15z"/>
			</g>
			<g>
				<path class="st0" d="M690.32,662.6l95.69,146.63l22.19,11.3l5.03,9.54c0.72,1.36-0.81,2.79-2.12,2l-7.13-7.12l-6.47,0.41
					c-1.3-0.4-2.19,1.3-1.11,2.14l7.11,5.49c0.83,0.74,0.91,2.02,0.16,2.86c-1.48,1.66-3.9,2.1-5.87,1.05l-19.56-10.4
					c-6.11-4.35-89.8-82.97-89.8-82.97S680.31,652.67,690.32,662.6z"/>
				<path class="st2" d="M800.08,838.33c-0.91,0-1.83-0.22-2.68-0.67l-19.56-10.4c-0.03-0.02-0.07-0.04-0.1-0.06
					c-6.08-4.33-86.47-79.84-89.89-83.05c-0.16-0.15-0.25-0.35-0.27-0.56c-0.02-0.2-1.76-19.82-2.63-39.59
					c-1.78-40.54,1.78-42.22,3.12-42.85c0.63-0.3,1.65-0.39,2.87,0.82c0.04,0.04,0.08,0.09,0.12,0.14l95.57,146.43l21.98,11.19
					c0.16,0.08,0.29,0.21,0.38,0.37l5.03,9.54c0.51,0.96,0.31,2.11-0.48,2.85c-0.79,0.75-1.95,0.87-2.88,0.3
					c-0.06-0.04-0.11-0.08-0.16-0.13l-6.85-6.84l-6.08,0.38c-0.1,0.01-0.21-0.01-0.31-0.04c-0.23-0.07-0.35,0.05-0.41,0.17
					c-0.06,0.12-0.09,0.29,0.1,0.44l7.11,5.49c1.24,1.1,1.35,2.94,0.29,4.13C803.22,837.67,801.66,838.33,800.08,838.33z
					 M778.71,825.75l19.51,10.37c1.61,0.86,3.59,0.5,4.81-0.86c0.42-0.47,0.38-1.2-0.09-1.62l-7.06-5.45
					c-0.82-0.63-1.06-1.71-0.58-2.63c0.45-0.86,1.37-1.29,2.31-1.08l6.33-0.4c0.23-0.02,0.5,0.08,0.67,0.25l7.04,7.03
					c0.34,0.16,0.61-0.05,0.69-0.12c0.08-0.08,0.34-0.36,0.13-0.76l-4.9-9.29l-21.94-11.17c-0.14-0.07-0.25-0.17-0.33-0.3
					l-95.64-146.54c-0.19-0.18-0.6-0.53-0.83-0.42c-3.12,1.46-4,30.12,0.48,80.37C694.28,747.79,772.54,821.27,778.71,825.75z"/>
			</g>
			<g>
				<path class="st0" d="M725.08,1208.38c-8.84,0-17.44-14.93-18.28-16.42l-38.96-212.42l58.57-6.76l-3.53,219.47
					c0,0.28,0.13,0.55,0.35,0.72l10.69,7.94c0.15,0.5,0.44,1.87-0.33,3.33c-0.97,1.84-3.37,3.22-6.93,3.99
					C726.15,1208.32,725.62,1208.38,725.08,1208.38z"/>
				<path class="st2" d="M725.52,973.76l-3.51,218.47c-0.01,0.56,0.25,1.1,0.71,1.43l10.44,7.75c0.1,0.5,0.18,1.43-0.32,2.38
					c-0.84,1.61-3.04,2.84-6.36,3.56c-0.46,0.1-0.93,0.15-1.41,0.15c-7.12,0-14.87-11.21-17.44-15.84L668.88,980.3L725.52,973.76
					 M727.31,971.79L727.31,971.79L727.31,971.79z M727.31,971.79l-60.49,6.98l39.15,213.48c0,0,9.22,17,19.11,17
					c0.59,0,1.18-0.06,1.78-0.19c10.53-2.28,7.81-8.71,7.81-8.71l-10.91-8.1L727.31,971.79L727.31,971.79z"/>
			</g>
			<g>
				<path class="st0" d="M635.03,773.24c0,0,11.59-154.21,61.89-143.56l29.87,9.58c9.65,12.66,10.62,30.57,7.06,49.72
					c4.87,4.48,7.29,11.34,5.75,18.26c-1.73,7.79-7.98,13.4-15.37,14.7c-14.43,37.87-37.28,71.87-37.28,71.87L635.03,773.24z"/>
				<path class="st2" d="M686.95,794.69c-0.11,0-0.22-0.02-0.32-0.06l-51.92-20.58c-0.36-0.14-0.58-0.5-0.55-0.88
					c0.02-0.28,2.21-28.76,8.54-60c8.54-42.08,20.13-68.87,34.47-79.62c6.17-4.63,12.88-6.22,19.93-4.73l29.96,9.6
					c0.17,0.05,0.32,0.16,0.43,0.3c8.78,11.53,11.24,28.33,7.31,49.94c5,4.83,7.17,11.98,5.66,18.76
					c-1.73,7.76-7.82,13.71-15.59,15.28c-14.31,37.35-36.97,71.25-37.2,71.59C687.5,794.55,687.23,794.69,686.95,794.69z
					 M635.95,772.66l50.66,20.08c3.07-4.67,23.6-36.47,36.8-71.11c0.11-0.29,0.36-0.5,0.66-0.55c7.3-1.29,13.06-6.8,14.67-14.03
					c1.41-6.34-0.69-13.01-5.49-17.43c-0.22-0.2-0.32-0.51-0.27-0.8c3.93-21.2,1.67-37.62-6.73-48.82l-29.61-9.49
					c-6.45-1.36-12.68,0.12-18.43,4.44C646.1,659.04,636.72,763.45,635.95,772.66z"/>
			</g>
			<g>
				<path class="st0" d="M696.92,629.68l8.1-32.6c0,0-10.95-0.01-9.37-11.25c0.58-4.13,4.01-6.14,5.4-6.49l12.72-26.16l49.44,21.73
					l-5.42,20.51l-9.18,21.86c-3,7.56-10.16,12.22-17.81,12.39l-0.96,0l-3.04,9.58C726.79,639.26,713.76,660.03,696.92,629.68z"/>
				<path class="st2" d="M715.52,647.07c-0.1,0-0.2,0-0.3,0c-6.5-0.17-12.91-5.88-19.06-16.96c-0.11-0.19-0.14-0.42-0.08-0.64
					l7.85-31.59c-1.68-0.2-4.91-0.91-7.1-3.44c-1.86-2.14-2.55-5.08-2.04-8.73c0.58-4.13,3.81-6.43,5.64-7.09l12.55-25.82
					c0.21-0.42,0.71-0.61,1.14-0.42l49.44,21.73c0.39,0.17,0.6,0.61,0.49,1.02l-5.42,20.51c-0.01,0.04-0.02,0.08-0.04,0.12
					l-9.18,21.86c-3.04,7.66-10.34,12.74-18.59,12.93l-0.34,0l-2.85,8.97c-0.02,0.07-0.05,0.14-0.09,0.2
					C727.34,640.02,722.84,647.07,715.52,647.07z M697.85,629.55c5.77,10.3,11.62,15.6,17.4,15.76c6.09,0.18,10.21-5.66,10.74-6.44
					l3.01-9.47c0.12-0.36,0.45-0.61,0.83-0.61c0,0,0,0,0,0l0.96,0c7.53-0.17,14.21-4.82,16.99-11.84l9.16-21.82l5.21-19.73
					l-47.98-21.09l-12.35,25.41c-0.11,0.23-0.32,0.4-0.58,0.47c-1.28,0.32-4.24,2.21-4.74,5.76c-0.44,3.12,0.11,5.59,1.62,7.34
					c2.5,2.88,6.84,2.92,6.88,2.92c0.27,0,0.52,0.12,0.69,0.34c0.17,0.21,0.22,0.49,0.16,0.75L697.85,629.55z"/>
			</g>
			<g>
				<path class="st0" d="M626.76,1206.43c-1.58,0-2.7-0.47-3.41-1.44c-1.98-2.66-0.37-8.13-0.35-8.19c0.04-0.13,0.05-0.27,0.02-0.4
					c-0.26-1.46-25.49-145.98-33.45-219.75h56.89c-3.84,74.61-9.84,218.41-9.9,219.86c0,0.05,0,0.09,0,0.14
					c0.04,0.33,0.82,8.17-8.22,9.63C627.78,1206.38,627.25,1206.43,626.76,1206.43z"/>
				<path class="st2" d="M645.54,977.53c-3.84,74.87-9.8,217.51-9.86,218.95c0,0.09,0,0.18,0.01,0.27c0.08,0.75,0.55,7.37-7.49,8.68
					c-0.52,0.08-1,0.13-1.44,0.13c-1.9,0-2.51-0.81-2.71-1.08c-1.42-1.9-0.61-6.1-0.22-7.41c0.08-0.26,0.1-0.54,0.05-0.81
					c-0.25-1.45-25.26-144.7-33.33-218.72H645.54 M647.39,975.78H588.6c7.94,74.34,33.56,220.77,33.56,220.77
					s-3.25,10.75,4.61,10.75c0.52,0,1.09-0.05,1.72-0.15c10.02-1.63,8.95-10.6,8.95-10.6S643.5,1050.98,647.39,975.78L647.39,975.78
					z"/>
			</g>
			<path class="st2" d="M747.51,599.37c-0.44,1.12-0.24,2.25,0.45,2.52c0.69,0.27,1.61-0.41,2.05-1.53s0.24-2.25-0.45-2.52
				S747.96,598.25,747.51,599.37z"/>
			<path class="st2" d="M731.09,592.86c-0.44,1.12-0.24,2.25,0.45,2.52s1.61-0.41,2.05-1.53c0.44-1.12,0.24-2.25-0.45-2.52
				C732.45,591.05,731.53,591.74,731.09,592.86z"/>
			<g>
				<path class="st2" d="M736.16,613.39c-0.33,0-0.65-0.19-0.8-0.51c-0.2-0.44-0.01-0.96,0.43-1.16l2.1-0.96
					c0.84-0.38,1.09-1.16,1.04-1.77c-0.05-0.6-0.42-1.34-1.31-1.58c-0.25-0.07-0.45-0.24-0.56-0.47c-0.11-0.23-0.11-0.5-0.01-0.73
					l3.75-8.32c0.2-0.44,0.71-0.64,1.16-0.44c0.44,0.2,0.64,0.72,0.44,1.16l-3.39,7.52c0.95,0.58,1.57,1.57,1.66,2.73
					c0.12,1.5-0.69,2.88-2.06,3.5l-2.1,0.96C736.4,613.36,736.28,613.39,736.16,613.39z"/>
			</g>
			<path class="st2" d="M738.92,619.62c-2.7,0.24-7.99,0.05-11.73-4.27c-0.47-0.54-1.37-0.19-1.31,0.52
				c0.23,2.64,1.22,6.73,5.06,8.13c4.01,1.47,7.09-1.27,8.63-3.12C740,620.36,739.6,619.56,738.92,619.62z"/>
			<g>
				<path class="st2" d="M698.08,587.94c-0.14,0-0.29-0.04-0.42-0.11c-0.42-0.23-0.58-0.77-0.34-1.19c1.48-2.66,3.31-4.24,5.45-4.69
					c2.89-0.61,5.22,1.1,5.31,1.17c0.39,0.29,0.46,0.84,0.17,1.23c-0.29,0.39-0.84,0.46-1.22,0.17l0,0
					c-0.02-0.01-1.81-1.32-3.92-0.86c-1.62,0.35-3.05,1.64-4.26,3.83C698.69,587.78,698.39,587.94,698.08,587.94z"/>
			</g>
			<g>
				<path class="st2" d="M703.84,593.03c-0.04,0-0.08,0-0.12-0.01c-0.48-0.07-0.81-0.51-0.75-0.99c0.63-4.58-2.48-7.79-2.51-7.83
					c-0.34-0.34-0.34-0.9,0.01-1.24c0.34-0.34,0.9-0.34,1.23,0c0.15,0.15,3.75,3.83,3.01,9.3
					C704.64,592.71,704.27,593.03,703.84,593.03z"/>
			</g>
			<path class="st0" d="M732.36,622c0.14,0.17,0.27,0.38,0.23,0.59c-0.07,0.31-0.46,0.41-0.77,0.39c-1.31-0.06-2.4-0.99-3.31-1.93
				c-0.31-0.31-0.62-0.65-0.75-1.07c-0.53-1.69,1.29-0.69,1.95-0.3C730.72,620.28,731.62,621.07,732.36,622z"/>
			<path class="st2" d="M736.16,549.48c0.07,0.03-0.01,0.15-0.01,0.22c10.21,2.05,17.39,6.79,22.2,11.46
				c5.72,5.55,7.47,13.99,4.56,21.32l-5.12,12.93c-15.33-6.08-23.17-25.27-23.17-25.27s-6.07,11.71-23.06,13.5
				c0,0-3.91-6.4-12.32-2.73C699.23,580.92,707.55,536.52,736.16,549.48z"/>
			<path class="st2" d="M637.44,1196.55l9.95,16.86h-37.81l13.56-16.86c0,0-0.65,8.32,6.19,8.38
				C635.53,1204.98,637.44,1196.55,637.44,1196.55z"/>
			<g>
				<path class="st2" d="M737.02,590.67c-0.35,0-0.68-0.21-0.82-0.56c-0.97-2.51-4.55-1.69-4.59-1.68
					c-0.47,0.11-0.94-0.18-1.05-0.65c-0.11-0.47,0.18-0.94,0.65-1.05c1.76-0.42,5.41-0.38,6.62,2.76c0.17,0.45-0.05,0.96-0.5,1.13
					C737.23,590.65,737.13,590.67,737.02,590.67z"/>
			</g>
			<g>
				<path class="st2" d="M753.64,596.69c-0.35,0-0.68-0.21-0.82-0.56c-0.97-2.51-4.55-1.69-4.58-1.68
					c-0.47,0.11-0.94-0.18-1.05-0.65c-0.11-0.47,0.18-0.94,0.65-1.05c1.76-0.42,5.41-0.38,6.62,2.76c0.17,0.45-0.05,0.96-0.5,1.13
					C753.85,596.67,753.74,596.69,753.64,596.69z"/>
			</g>
			<g>
				<path class="st1" d="M635.03,773.24c0,0-72.18,20.58-53.23,217.5l73.09-7.12l3.45-92.06l5.07,90.99l76.34-6.78
					c0,0-8.64-108.26-52.8-181.96L635.03,773.24z"/>
				<path class="st2" d="M581.79,991.61c-0.2,0-0.4-0.07-0.56-0.2c-0.18-0.15-0.29-0.36-0.31-0.59
					c-5.41-56.27-6.41-133.7,19.61-183.09c15.67-29.75,33.5-35.12,34.26-35.34c0.19-0.05,0.38-0.04,0.56,0.03L687.27,793
					c0.18,0.07,0.33,0.2,0.43,0.36c43.76,73.03,52.84,181.26,52.92,182.34c0.04,0.48-0.32,0.9-0.79,0.94l-76.34,6.78
					c-0.23,0.03-0.47-0.05-0.65-0.21c-0.18-0.16-0.29-0.38-0.3-0.61l-4.03-72.25l-2.75,73.3c-0.02,0.44-0.35,0.8-0.79,0.84
					l-73.09,7.12C581.85,991.61,581.82,991.61,581.79,991.61z M635,774.17c-2.29,0.8-18.75,7.36-33.04,34.61
					c-14.14,26.98-28.96,80.27-19.38,181.01l71.46-6.96l3.43-91.29c0.02-0.47,0.4-0.84,0.87-0.84c0.46-0.01,0.85,0.36,0.88,0.83
					l5.02,90.09l74.56-6.62c-0.95-10.39-11.1-111.25-52.45-180.46L635,774.17z"/>
			</g>
			<g>
				<path class="st2" d="M658.34,892.44c-0.12,0-0.24-0.02-0.36-0.08c-0.44-0.2-0.64-0.72-0.44-1.16l11.23-24.9
					c0.2-0.44,0.72-0.64,1.16-0.44c0.44,0.2,0.64,0.72,0.44,1.16l-11.23,24.9C658.99,892.25,658.68,892.44,658.34,892.44z"/>
			</g>
			<g>
				<path class="st2" d="M729.84,630.55c-0.01,0-0.03,0-0.04,0c-0.19-0.01-4.74-0.23-9.33-2.87c-0.42-0.24-0.56-0.78-0.32-1.19
					c0.24-0.42,0.77-0.56,1.2-0.32c4.2,2.42,8.49,2.64,8.53,2.64c0.48,0.02,0.86,0.43,0.84,0.91
					C730.69,630.18,730.3,630.55,729.84,630.55z"/>
			</g>
			<path class="st2" d="M734.67,1200.48c-11.16,6.05-28.7-8.1-28.7-8.1l-6.3,19.97l55.27,1.06L734.67,1200.48z"/>
			<g>
				<path class="st3" d="M825.59,813.99c-36.01,0-47.95-40.9-49.84-48.45l101.73-1.3c-2.06,7.74-14.82,49.28-51.27,49.74
					L825.59,813.99z"/>
				<path class="st2" d="M876.16,765.26c-1.22,4.28-4.26,13.53-9.95,22.69c-10.2,16.41-23.66,24.83-40.02,25.04
					c-0.21,0-0.4,0-0.61,0c-16.12,0-29.26-8.13-39.06-24.16c-5.5-9-8.36-18.11-9.49-22.3L876.16,765.26 M878.76,763.22
					L878.76,763.22L878.76,763.22z M878.76,763.22l-104.27,1.33c0,0,10.36,50.43,51.1,50.43c0.21,0,0.42,0,0.63,0
					C867.5,814.46,878.76,763.22,878.76,763.22L878.76,763.22z"/>
			</g>
			<path class="st2" d="M812.14,839.71c0,0,4.78,3.12,2.99,8.07C815.13,847.79,810.56,847.37,812.14,839.71z"/>
			<path class="st2" d="M821.74,862.62c0,0,4.78,3.12,2.99,8.07C824.73,870.7,820.16,870.27,821.74,862.62z"/>
			<path class="st2" d="M804.81,873.4c0,0,3.05,4.83-0.64,8.59C804.18,881.99,800.2,879.71,804.81,873.4z"/>
			<path class="st2" d="M803.1,902.84c0,0,3.05,4.83-0.64,8.59C802.47,911.42,798.49,909.14,803.1,902.84z"/>
			<path class="st2" d="M835.82,847.58c0,0,5.07,2.63,3.79,7.73C839.6,855.31,835.02,855.35,835.82,847.58z"/>
			<path class="st2" d="M816.87,891.56c0,0,3.05,4.83-0.64,8.59C816.23,900.15,812.25,897.87,816.87,891.56z"/>
			<path class="st2" d="M833.81,904.89c0,0,3.05,4.83-0.64,8.59C833.17,913.47,829.19,911.19,833.81,904.89z"/>
			<path class="st2" d="M834.99,879.11c0,0,5.47,1.66,5.13,6.91C840.13,886.02,835.62,886.9,834.99,879.11z"/>
			<path class="st2" d="M795.44,853.6c0,0,3.05,4.83-0.64,8.59C794.81,862.19,790.83,859.9,795.44,853.6z"/>
			<g>
				<path class="st0" d="M669.76,660.3c-1.44-10.53,5.73-20.32,16.2-22.15c9.94-1.74,19.6,4.28,22.41,13.97
					c0,0,7.65,56.89,18.59,64.05c10.9,7.13,81.77,31.48,84.95,32.81c4.32,1.81,21.94,6.08,25.65,14.77l-8.7,0.79l4.61,9.36
					c0.83,1.39,0.36,3.19-1.03,4.02c-1.09,0.64-2.42,0.49-3.34-0.26c-0.24,0.13-0.28,0.15-0.52,0.29c-0.02,0.99-0.52,1.94-1.43,2.48
					c-1.24,0.73-2.8,0.44-3.71-0.61l-0.69,0.19c-0.04,1.04-0.62,2.04-1.65,2.54c-1.4,0.68-3.09,0.06-3.88-1.28c0,0-2.43-3-2.92-3.64
					l-7.25-9.48c-20.61-4.66-66.11-9.55-86.43-18.2C696.91,739.83,678.02,720.65,669.76,660.3z"/>
				<path class="st2" d="M819.89,783.68c-1.32,0-2.64-0.7-3.39-1.93c-0.32-0.4-2.43-3.01-2.89-3.61l-7.05-9.23
					c-6.72-1.5-16.18-3.06-26.19-4.7c-21.72-3.57-46.33-7.62-60.08-13.48c-21.52-9.17-42.64-26.45-51.39-90.32l0,0
					c-1.51-11.05,5.92-21.21,16.92-23.14c10.39-1.82,20.46,4.45,23.4,14.59c0.01,0.04,0.02,0.08,0.03,0.13
					c0.08,0.57,7.72,56.58,18.2,63.43c8.64,5.65,55.7,22.36,75.8,29.5c5.21,1.85,8.35,2.97,9.01,3.24c0.75,0.31,1.92,0.71,3.41,1.21
					c6.82,2.29,19.51,6.54,22.71,14.03c0.11,0.26,0.09,0.55-0.05,0.79c-0.14,0.24-0.39,0.4-0.67,0.42l-7.43,0.67l4.04,8.22
					c0.49,0.82,0.63,1.84,0.38,2.83c-0.25,0.99-0.87,1.81-1.75,2.33c-1.09,0.64-2.43,0.69-3.55,0.16c-0.24,0.98-0.86,1.82-1.75,2.34
					c-1.32,0.78-2.94,0.68-4.14-0.17c-0.3,1-1.01,1.85-1.98,2.32C820.97,783.56,820.43,783.68,819.89,783.68z M670.63,660.18
					c8.62,63,29.29,79.98,50.34,88.94c13.56,5.77,38.06,9.8,59.68,13.36c10.19,1.68,19.81,3.26,26.6,4.79
					c0.2,0.05,0.38,0.16,0.5,0.32l7.25,9.48c0.47,0.62,2.88,3.59,2.9,3.62c0.03,0.03,0.05,0.07,0.07,0.11
					c0.59,0.99,1.79,1.41,2.75,0.94c0.69-0.33,1.13-1.02,1.16-1.78c0.01-0.38,0.27-0.71,0.64-0.81l0.69-0.19
					c0.32-0.09,0.67,0.02,0.89,0.27c0.65,0.76,1.75,0.94,2.6,0.43c0.61-0.36,0.99-1.01,1-1.74c0.01-0.31,0.18-0.6,0.45-0.75
					l0.52-0.29c0.31-0.17,0.7-0.14,0.98,0.09c0.67,0.55,1.61,0.62,2.34,0.19c0.47-0.28,0.81-0.73,0.95-1.26
					c0.14-0.53,0.06-1.09-0.22-1.56l-4.64-9.42c-0.13-0.26-0.12-0.56,0.02-0.81c0.14-0.25,0.4-0.42,0.68-0.44l7.41-0.67
					c-3.66-6.11-14.9-9.88-21.1-11.96c-1.52-0.51-2.72-0.91-3.53-1.25c-0.61-0.26-4.1-1.49-8.92-3.21
					c-20.16-7.16-67.36-23.91-76.17-29.68c-11.06-7.24-18.54-61.46-18.97-64.6c-2.72-9.24-11.9-14.95-21.4-13.29
					C676.04,640.76,669.24,650.06,670.63,660.18L670.63,660.18z"/>
			</g>
			<g>
				<path class="st2" d="M823.27,780.75c-0.33,0-0.64-0.18-0.79-0.49l-2.95-6.11c-0.21-0.44-0.03-0.96,0.41-1.17
					c0.44-0.21,0.96-0.03,1.17,0.41l2.95,6.11c0.21,0.43,0.03,0.96-0.41,1.17C823.53,780.72,823.4,780.75,823.27,780.75z"/>
			</g>
			<g>
				<path class="st2" d="M828.87,778.57c-0.32,0-0.63-0.18-0.79-0.49l-3.12-6.36c-0.21-0.43-0.03-0.96,0.4-1.17
					c0.44-0.21,0.96-0.03,1.17,0.4l3.12,6.36c0.21,0.43,0.03,0.96-0.4,1.17C829.13,778.54,829,778.57,828.87,778.57z"/>
			</g>
			<g>
				<path class="st2" d="M828.87,765.41c-0.26,0-0.52-0.12-0.69-0.34l-4.93-6.41c-0.3-0.38-0.22-0.93,0.16-1.23
					c0.38-0.3,0.93-0.22,1.23,0.16l4.93,6.41c0.29,0.38,0.22,0.93-0.16,1.23C829.25,765.35,829.06,765.41,828.87,765.41z"/>
			</g>
			<g>
				<path class="st0" d="M763.03,590.05c-9.39,0-19.48-1.07-29.19-3.09c-28.3-5.89-54.16-20.36-52.8-26.86
					c0.55-2.66,5.19-3.95,14.17-3.95c10.87,0,26.56,1.97,43.04,5.4c14.54,3.03,28.02,6.83,37.95,10.72
					c10.63,4.16,15.7,7.79,15.08,10.79C790.43,587.11,778.55,590.05,763.03,590.05z"/>
				<path class="st2" d="M695.21,557.03c10.38,0,25.84,1.84,42.86,5.38c29.97,6.24,53.41,15.4,52.35,20.47
					c-0.68,3.29-11.61,6.29-27.39,6.29c-8.53,0-18.49-0.88-29.01-3.07c-29.97-6.24-53.18-20.76-52.13-25.82
					C682.35,558.09,687.31,557.03,695.21,557.03 M695.21,555.28c-9.59,0-14.37,1.48-15.03,4.65c-1.01,4.83,9.16,11.08,15.32,14.37
					c6.36,3.41,19.78,9.69,38.17,13.52c9.76,2.03,19.91,3.11,29.36,3.11c13.69,0,28-2.38,29.1-7.69c0.47-2.25-0.64-5.92-15.62-11.78
					c-9.98-3.9-23.5-7.72-38.09-10.76C721.89,557.25,706.14,555.28,695.21,555.28L695.21,555.28z"/>
			</g>
			<g>
				<path class="st0" d="M763.44,575.34c0,0,6.29-31.32-21.72-37.15c-30.81-6.41-34.79,25.39-34.79,25.39
					S730.27,581.92,763.44,575.34z"/>
				<path class="st2" d="M749.18,577.62c-25.44,0-42.58-13.2-42.78-13.36c-0.24-0.19-0.37-0.49-0.33-0.8
					c0.08-0.6,1.96-14.77,12.62-22.4c6.16-4.41,13.97-5.66,23.21-3.74c28.53,5.94,22.46,37.86,22.39,38.18
					c-0.07,0.35-0.34,0.62-0.69,0.69C758.56,577.2,753.74,577.62,749.18,577.62z M707.88,563.19c3.21,2.32,25.08,17.05,54.8,11.41
					c0.3-1.94,1.12-8.52-0.46-15.5c-2.49-10.96-9.44-17.71-20.67-20.05c-8.74-1.82-16.09-0.66-21.83,3.45
					C710.74,548.9,708.31,560.64,707.88,563.19z M763.44,575.34L763.44,575.34L763.44,575.34z"/>
			</g>
			<g>
				<path class="st2" d="M752.29,570.71c-11.15,0-28.44-2.01-44.28-12.21c-0.41-0.26-0.52-0.8-0.26-1.21
					c0.26-0.41,0.8-0.52,1.21-0.26c25.43,16.38,54.63,11.17,54.92,11.12c0.47-0.08,0.93,0.22,1.02,0.7c0.09,0.48-0.22,0.93-0.7,1.02
					C764.07,569.89,759.44,570.71,752.29,570.71z"/>
			</g>
		</g>
		<g>
			<g>
				<path class="st2" d="M891.29,1215.42h-8.26c-1.1,0-2-0.9-2-2s0.9-2,2-2h8.26c1.76,0,3.2-1.44,3.2-3.2v-16.75c0-1.1,0.9-2,2-2
					s2,0.9,2,2v16.75C898.5,1212.18,895.27,1215.42,891.29,1215.42z"/>
			</g>
			<g>
				<path class="st2" d="M875.84,1215.42h-8.26c-1.1,0-2-0.9-2-2s0.9-2,2-2h8.26c1.77,0,3.2-1.44,3.2-3.2v-16.75c0-1.1,0.9-2,2-2
					s2,0.9,2,2v16.75C883.04,1212.18,879.81,1215.42,875.84,1215.42z"/>
			</g>
			<g>
				<path class="st3" d="M872.93,1123.64c15.79-0.78,41.12-1.63,65.78-0.78c0,0-18.85,41.42-53.64,39.95
					c-6.11-0.26-10.94-1.6-14.75-3.65C854.9,1150.89,856.88,1124.43,872.93,1123.64z"/>
				<path class="st2" d="M886.86,1163.85c-0.61,0-1.21-0.01-1.83-0.04c-5.87-0.25-10.98-1.52-15.18-3.77
					c-9.45-5.07-12.45-16.33-10.53-24.83c1.7-7.53,6.77-12.23,13.56-12.57h0c16.63-0.82,41.54-1.63,65.86-0.78
					c0.33,0.01,0.64,0.19,0.82,0.47c0.18,0.28,0.2,0.64,0.06,0.94C939.43,1123.69,920.76,1163.84,886.86,1163.85z M872.98,1124.64
					c-5.85,0.29-10.22,4.4-11.71,11.01c-1.75,7.77,0.96,18.04,9.53,22.63c3.93,2.11,8.75,3.29,14.32,3.53
					c30.21,1.26,48.38-30.92,52.01-38C913.37,1123.05,889.21,1123.84,872.98,1124.64L872.98,1124.64z M872.93,1123.64
					L872.93,1123.64L872.93,1123.64z"/>
			</g>
			<g>
				<path class="st0" d="M957.48,1156.69c-0.73-4.62-2.57-18.81,1.22-24.05c0.76-1.04,1.67-1.63,2.81-1.78
					c0.37-0.05,0.74-0.07,1.11-0.07c1.59,0,3.15,0.47,4.63,1.41c2.58,1.62,4.17,4.34,4.36,7.46c0.2,3.27-1.18,6.44-3.7,8.5
					L957.48,1156.69z"/>
				<path class="st2" d="M962.61,1131.67L962.61,1131.67c1.42,0,2.82,0.43,4.16,1.27c2.34,1.47,3.78,3.94,3.95,6.77
					c0.19,2.98-1.08,5.89-3.38,7.77l-9.24,7.56c-0.92-6.49-1.74-17.69,1.3-21.89c0.62-0.85,1.32-1.3,2.21-1.42
					C961.95,1131.69,962.28,1131.67,962.61,1131.67 M962.61,1129.92c-0.4,0-0.81,0.03-1.22,0.08c-9.62,1.27-4.52,28.32-4.52,28.32
					l11.59-9.49c5.61-4.59,5.38-13.51-0.75-17.38C966.21,1130.52,964.51,1129.92,962.61,1129.92L962.61,1129.92z"/>
			</g>
			<g>
				<path class="st0" d="M887.21,1193.92c-37.83,0-50.25-15.93-54.28-25.42c-4.19-9.86-3.31-21.4,2.36-30.89
					c2.63-4.41,5.14-8.11,7.36-11.38c5.46-8.07,9.08-13.4,7.89-19.52c-1.22-6.31-6.97-10.88-13.68-10.88l-6.77,0.1
					c-0.11-1.77-0.24-6.27,0.84-10.99c1.2-5.24,3.49-9.14,6.82-11.6c3.43-2.54,8.36-4,13.53-4c5.51,0,10.46,1.68,13.57,4.62
					c2.06,1.93,3.29,4.35,3.65,7.19c1.75,13.54-1.74,45.41-1.78,45.73c-0.03,0.26,0.06,0.52,0.25,0.71
					c0.17,0.17,0.39,0.26,0.63,0.26c0.03,0,0.05,0,0.08,0c0.03,0,2.62-0.23,6.95-0.23c15.68,0,54.88,3.03,81.22,30.95
					C954.06,1162.82,939.43,1193.92,887.21,1193.92z"/>
				<path class="st2" d="M851.27,1070.2c5.29,0,10.02,1.6,12.97,4.38c1.9,1.79,3.04,4.03,3.38,6.66c1.74,13.43-1.75,45.2-1.78,45.52
					c-0.06,0.52,0.12,1.04,0.49,1.42c0.33,0.34,0.78,0.53,1.25,0.53c0.05,0,0.11,0,0.16-0.01c0.03,0,2.59-0.23,6.87-0.23
					c15.49,0,54.09,2.97,80.2,30.27c-1.08,2.5-4.6,9.51-12.51,16.53c-9.14,8.11-26.11,17.78-55.08,17.78
					c-37.32,0-49.53-15.6-53.48-24.89c-4.08-9.6-3.22-20.85,2.3-30.1c2.62-4.39,5.12-8.08,7.33-11.34
					c5.59-8.25,9.28-13.7,8.02-20.18c-1.3-6.72-7.41-11.59-14.54-11.59l-0.2,0l-5.74,0.08c-0.08-2.07-0.06-5.91,0.86-9.91
					c1.15-5.03,3.33-8.76,6.48-11.09C841.55,1071.59,846.29,1070.2,851.27,1070.2 M851.27,1068.45c-5.15,0-10.36,1.44-14.05,4.17
					c-4.07,3.02-6.13,7.68-7.15,12.11c-1.44,6.27-0.79,12.07-0.79,12.07l7.4-0.11c0.06,0,0.11,0,0.17,0
					c6.11,0,11.66,4.17,12.82,10.18c1.58,8.14-6.07,15.13-15.14,30.29c-5.39,9.02-6.95,21-2.41,31.68
					c5.99,14.08,22.6,25.96,55.09,25.96c57.13,0,69.63-36.45,69.63-36.45c-26.56-28.54-66.26-31.63-82.24-31.63
					c-4.43,0-7.03,0.24-7.03,0.24s3.56-32.14,1.78-45.94c-0.41-3.2-1.85-5.77-3.92-7.71
					C861.95,1070.01,856.63,1068.45,851.27,1068.45L851.27,1068.45z"/>
			</g>
			<g>
				<path class="st3" d="M832.77,1167.8c-3.87-9.68-2.9-20.88,2.62-30.13c2.63-4.4,5.14-8.11,7.35-11.38
					c5.48-8.1,9.1-13.44,7.91-19.62c-1.23-6.37-7.03-10.99-13.8-10.99l-6.65,0.09c-0.11-1.84-0.21-6.23,0.84-10.83
					c1.19-5.21,3.47-9.08,6.77-11.53c3.41-2.53,8.31-3.98,13.45-3.98c5.48,0,10.4,1.67,13.48,4.58c2.04,1.91,3.25,4.3,3.61,7.11
					c1.75,13.52-1.74,45.38-1.78,45.7C866.53,1127.21,860.71,1165.83,832.77,1167.8z"/>
				<path class="st2" d="M851.27,1070.45c5.23,0,9.89,1.57,12.8,4.31c1.86,1.75,2.97,3.94,3.3,6.51
					c1.71,13.21-1.65,44.22-1.78,45.43c-0.18,1.18-5.92,37.53-32.15,40.04c-3.44-9.23-2.42-19.8,2.81-28.55
					c2.62-4.38,5.12-8.07,7.32-11.33c5.62-8.3,9.34-13.79,8.06-20.37c-1.32-6.84-7.54-11.8-14.78-11.8l-0.2,0l-5.49,0.08
					c-0.07-2.1-0.01-5.78,0.86-9.6c1.14-4.97,3.29-8.65,6.39-10.95C841.65,1071.83,846.34,1070.45,851.27,1070.45 M851.27,1068.45
					c-5.15,0-10.36,1.44-14.05,4.17c-4.07,3.02-6.13,7.68-7.15,12.11c-1.44,6.27-0.79,12.07-0.79,12.07l7.4-0.11
					c0.06,0,0.11,0,0.17,0c6.11,0,11.66,4.17,12.82,10.18c1.58,8.14-6.07,15.13-15.14,30.29c-5.39,9.02-6.95,21-2.41,31.68
					c29.72-1.43,35.45-41.88,35.45-41.88s3.56-32.14,1.78-45.94c-0.41-3.2-1.85-5.77-3.92-7.71
					C861.95,1070.01,856.63,1068.45,851.27,1068.45L851.27,1068.45z"/>
			</g>
			<path class="st2" d="M831.67,1079.84c0,0-5.49,8.62-16.99,12.22c-2.61,0.81-1.07,5.09,1.66,5.03l12.94-0.29L831.67,1079.84z"/>
			<path class="st2" d="M838.98,1081c0,1.1,0.89,1.99,1.99,1.99c1.1,0,1.99-0.89,1.99-1.99s-0.89-1.99-1.99-1.99
				C839.88,1079.01,838.98,1079.9,838.98,1081z"/>
			<path class="st2" d="M956.84,1158.32c0,0,12.05-24.74,20.53-20.03c2.12,1.18,3.43,2.95,4.2,4.94c2.62,6.76-2.53,14.06-9.77,14.39
				L956.84,1158.32z"/>
			<g>
				<path class="st3" d="M881.46,1140.41c15.36,3.78,39.87,10.21,63.25,18.09c0,0-29.92,34.29-62.83,22.91
					c-5.78-2-10.02-4.67-13.09-7.72C856.37,1161.35,865.85,1136.57,881.46,1140.41z"/>
				<path class="st2" d="M895.53,1184.7c-4.55,0-9.24-0.7-13.98-2.34c-5.56-1.92-10.09-4.6-13.46-7.96
					c-7.6-7.56-7.25-19.21-2.98-26.81c3.78-6.73,9.98-9.78,16.59-8.16l0,0c16.17,3.98,40.28,10.35,63.33,18.12
					c0.32,0.11,0.56,0.36,0.65,0.69c0.09,0.32,0.01,0.67-0.21,0.92C945.2,1159.46,922.8,1184.7,895.53,1184.7z M878.28,1141.02
					c-4.56,0-8.7,2.68-11.44,7.56c-3.9,6.94-4.24,17.56,2.65,24.41c3.16,3.14,7.44,5.66,12.71,7.48
					c28.53,9.86,55.21-15.76,60.72-21.51c-22.54-7.52-45.91-13.69-61.7-17.58C880.23,1141.14,879.24,1141.02,878.28,1141.02z"/>
			</g>
		</g>
		<g>
			<path class="st0" d="M613.96,251.29c7.39-22.17,27.05-28.18,41.48-29.46c10.17-0.9,19.06-7.31,23.13-16.67
				c38.1-87.57,117.09-68.77,150.79-55.84c8.93,3.43,18.94,1.94,26.57-3.82c10.58-7.99,29.18-16.29,56.79-9.04
				c24.98,6.56,35.44,22.79,39.77,36.44c3.66,11.54,14.27,19.43,26.36,20.07c55.04,2.92,62.27,58.32,62.27,58.32H613.96z"/>
			<path class="st2" d="M1041.13,252.17H613.96c-0.28,0-0.55-0.14-0.71-0.36c-0.16-0.23-0.21-0.52-0.12-0.79
				c4.12-12.37,14.8-27.62,42.23-30.05c9.87-0.87,18.45-7.06,22.41-16.15c38.57-88.65,119.08-68.9,151.91-56.3
				c8.64,3.32,18.26,1.93,25.73-3.7c10.9-8.23,29.73-16.49,57.54-9.19c25.83,6.78,36.22,23.88,40.38,37.03
				c3.49,11.01,13.77,18.83,25.58,19.46c28.81,1.53,44.44,17.52,52.48,30.67c8.68,14.21,10.6,28.27,10.61,28.41
				c0.03,0.25-0.04,0.5-0.21,0.69C1041.62,252.06,1041.38,252.17,1041.13,252.17z M615.19,250.42h424.91
				c-0.6-3.4-3.05-15.04-10.25-26.79c-11.37-18.57-28.54-28.59-51.04-29.78c-12.53-0.66-23.44-8.97-27.15-20.68
				c-4.03-12.73-14.1-29.28-39.16-35.86c-27.13-7.13-45.45,0.9-56.04,8.9c-7.95,6-18.2,7.48-27.41,3.94
				c-18.03-6.92-45.38-14.22-73.29-9.73c-34.3,5.53-60,27.43-76.38,65.09c-4.21,9.68-13.35,16.27-23.86,17.19
				C641.16,223.98,622.65,229.84,615.19,250.42z"/>
		</g>
		<g>
			<path class="st0" d="M1049.58,331.46c2.97-8.92,10.88-11.34,16.69-11.85c4.09-0.36,7.67-2.94,9.31-6.71
				c15.33-35.23,47.11-27.67,60.66-22.46c3.59,1.38,7.62,0.78,10.69-1.54c4.26-3.21,11.74-6.55,22.85-3.64
				c10.05,2.64,14.26,9.17,16,14.66c1.47,4.64,5.74,7.82,10.61,8.07c22.14,1.17,25.05,23.46,25.05,23.46H1049.58z"/>
			<path class="st2" d="M1221.42,332.34h-171.84c-0.28,0-0.54-0.14-0.71-0.36c-0.16-0.23-0.21-0.52-0.12-0.79
				c3.09-9.28,11.19-11.89,17.44-12.44c3.78-0.33,7.07-2.7,8.58-6.18c15.7-36.07,48.43-28.05,61.78-22.93
				c3.31,1.27,6.99,0.74,9.85-1.42c4.48-3.38,12.2-6.78,23.6-3.79c10.62,2.79,14.9,9.83,16.61,15.24c1.34,4.22,5.28,7.22,9.82,7.46
				c22.61,1.2,25.84,23.99,25.87,24.22c0.03,0.25-0.04,0.5-0.21,0.69C1221.91,332.23,1221.67,332.34,1221.42,332.34z
				 M1050.84,330.59h169.55c-0.84-4.29-5.29-20.72-24.06-21.71c-5.26-0.28-9.84-3.77-11.39-8.68c-1.58-4.99-5.54-11.49-15.39-14.08
				c-10.71-2.81-17.93,0.35-22.1,3.49c-3.34,2.52-7.65,3.14-11.53,1.66c-12.88-4.94-44.46-12.69-59.55,21.99
				c-1.77,4.07-5.61,6.84-10.03,7.23C1060.89,320.97,1053.9,323.13,1050.84,330.59z"/>
		</g>
	</g>
</g>
</svg>
