<?xml version="1.0" encoding="iso-8859-1"?>
<!-- Generator: Adobe Illustrator 18.0.0, SVG Export Plug-In . SVG Version: 6.00 Build 0)  -->
<!DOCTYPE svg PUBLIC "-//W3C//DTD SVG 1.1//EN" "http://www.w3.org/Graphics/SVG/1.1/DTD/svg11.dtd">
<svg version="1.1" id="Capa_1" xmlns="http://www.w3.org/2000/svg" xmlns:xlink="http://www.w3.org/1999/xlink" x="0px" y="0px"
	  width="874.1px" height="874.1px" viewBox="0 0 219.57 219.57" style="enable-background:new 0 0 219.57 219.57;" xml:space="preserve">
<path d="M188.021,186.721c19.498-19.825,31.549-46.998,31.549-76.936C219.57,49.249,170.321,0,109.785,0
	C79.847,0,52.674,12.051,32.849,31.55c-0.239,0.187-0.473,0.385-0.693,0.605s-0.419,0.454-0.606,0.694
	C12.05,52.675,0,79.848,0,109.785C0,170.321,49.249,219.57,109.785,219.57c29.938,0,57.111-12.051,76.936-31.55
	c0.239-0.187,0.473-0.385,0.693-0.605S187.834,186.961,188.021,186.721z M204.57,109.785c0,23.438-8.556,44.913-22.702,61.476
	l-30.9-30.9c1.981-5.02,3.083-10.481,3.083-16.198c0-22.324-34.512-65.412-38.446-70.251c-1.425-1.752-3.562-2.769-5.819-2.769
	c-2.258,0-4.395,1.017-5.819,2.769c-1.687,2.074-8.991,11.182-16.786,22.661l-38.87-38.87C64.872,23.556,86.347,15,109.785,15
	C162.05,15,204.57,57.521,204.57,109.785z M89.854,100.462l42.412,42.412c-5.373,6.444-13.455,10.554-22.481,10.554
	c-16.137,0-29.266-13.129-29.266-29.266C80.52,118.73,84.379,109.994,89.854,100.462z M97.993,87.386
	c3.869-5.821,7.958-11.527,11.792-16.585c13.134,17.323,29.266,42.25,29.266,53.361c0,1.357-0.101,2.691-0.28,4.001L97.993,87.386z
	 M15,109.785c0-23.438,8.556-44.913,22.702-61.476l41.207,41.207c-7.328,12.301-13.39,25.294-13.39,34.646
	c0,24.408,19.857,44.266,44.266,44.266c13.161,0,24.992-5.78,33.107-14.928l28.368,28.368
	c-16.563,14.146-38.037,22.702-61.476,22.702C57.521,204.57,15,162.05,15,109.785z"/>
</svg>
