<?xml version="1.0" encoding="utf-8"?>
<!-- Generator: Adobe Illustrator 24.2.0, SVG Export Plug-In . SVG Version: 6.00 Build 0)  -->
<svg version="1.1" id="_1" xmlns="http://www.w3.org/2000/svg" xmlns:xlink="http://www.w3.org/1999/xlink" x="0px" y="0px"
	 viewBox="0 0 1984.67 1382.81" style="enable-background:new 0 0 1984.67 1382.81;" xml:space="preserve">
<style type="text/css">
	.st0{fill:#FFFFFF;}
	.st1{fill:#404040;}
	.st2{fill:#32C787;}
	.st3{fill:#CCCCCC;}
	.st4{fill:none;stroke:#404040;stroke-width:1.75;stroke-linecap:round;stroke-linejoin:round;stroke-miterlimit:10;}
</style>
<g>
	<rect x="0" y="0" class="st0" width="1984.67" height="1382.81"/>
	<g>
		<g>
			<rect x="255.49" y="504.37" class="st0" width="546.02" height="308.38"/>
			<path class="st1" d="M803.6,814.84H253.39V502.27H803.6V814.84z M257.58,810.65h541.83V506.46H257.58V810.65z"/>
		</g>
		<path class="st2" d="M659.87,568.31l-20.13,8.7l5.53,4.11l-22.94,30.85h-51.75c-1.29,0-2.51,0.62-3.28,1.66l-31.55,42.83h-51.74
			c-1.29,0-2.51,0.62-3.28,1.66l-31.55,42.83h-51.92c-1.3,0-2.52,0.62-3.29,1.67l-57.07,78.12h10.13l52.3-71.65h51.91
			c1.29,0,2.51-0.62,3.28-1.66l31.55-42.83h51.74c1.29,0,2.51-0.62,3.28-1.66l31.55-42.83h51.74c1.29,0,2.5-0.61,3.27-1.64
			l24.16-32.49l5.53,4.11L659.87,568.31z"/>
		<g>
			<g>
				<g>
					<rect x="326.96" y="812.75" class="st1" width="4.19" height="413.03"/>
				</g>
				<g>
					<rect x="292.93" y="1223.69" class="st1" width="72.27" height="4.19"/>
				</g>
			</g>
			<g>
				<g>
					<rect x="725.84" y="812.75" class="st1" width="4.19" height="413.03"/>
				</g>
				<g>
					<rect x="691.8" y="1223.69" class="st1" width="72.27" height="4.19"/>
				</g>
			</g>
		</g>
		<g>
			<path class="st1" d="M337.3,797.29c-0.51,0-0.92-0.41-0.92-0.92V534c0-0.51,0.41-0.92,0.92-0.92c0.51,0,0.92,0.41,0.92,0.92
				v262.38C338.21,796.88,337.8,797.29,337.3,797.29z"/>
		</g>
		<g>
			<path class="st1" d="M733.81,781.64H323.19c-0.51,0-0.92-0.41-0.92-0.92c0-0.51,0.41-0.92,0.92-0.92h410.62
				c0.51,0,0.92,0.41,0.92,0.92C734.73,781.23,734.31,781.64,733.81,781.64z"/>
		</g>
	</g>
	<g>
		<g>
			<g>
				<path class="st3" d="M233.55,931.22c-19.7,14.87-31.78,9.29-40.51-2.26c-8.72-11.56-10.78-24.71,8.91-39.58
					c19.7-14.87,51.46-6,51.46-6S253.24,916.35,233.55,931.22z"/>
				<path class="st1" d="M212.14,941.08c-7.44,0-14.01-3.85-19.84-11.57c-11-14.57-8.03-27.94,9.09-40.87
					c10.39-7.84,24.06-9.1,33.7-8.76c10.39,0.36,18.23,2.52,18.56,2.61c0.4,0.11,0.67,0.48,0.67,0.89c0,0.34-0.07,8.47-2.57,18.56
					c-2.32,9.36-7.27,22.17-17.66,30.01C226.05,938.04,218.75,941.08,212.14,941.08z M232.28,881.7c-9.71,0-21.02,1.8-29.78,8.41
					c-21.49,16.23-15.28,29.63-8.73,38.3c6.54,8.67,17.73,18.31,39.22,2.09c17.53-13.24,19.31-41.56,19.48-46.41
					C250.12,883.5,242,881.7,232.28,881.7z"/>
			</g>
			<g>
				<path class="st3" d="M245.04,1025.79c-18.58,1.98-24.26-6.36-25.42-17.26c-1.16-10.9,2.63-20.25,21.21-22.22
					c18.58-1.98,35.75,16.16,35.75,16.16S263.62,1023.81,245.04,1025.79z"/>
				<path class="st1" d="M239.9,1026.99c-12.93,0-19.87-6.04-21.18-18.37c-1.48-13.9,5.73-21.5,22.03-23.23
					c9.87-1.05,19.28,3.49,25.44,7.48c6.63,4.3,10.89,8.77,11.07,8.96c0.28,0.3,0.33,0.75,0.12,1.11
					c-0.13,0.22-3.36,5.49-8.94,11.09c-5.18,5.2-13.43,11.62-23.29,12.67C243.29,1026.9,241.54,1026.99,239.9,1026.99z
					 M243.68,987.07c-0.91,0-1.83,0.05-2.75,0.14c-20.08,2.14-21.26,13.13-20.4,21.21c0.86,8.08,4.33,18.58,24.41,16.44
					c16.18-1.72,28.21-18.84,30.47-22.29C272.64,999.86,258.82,987.07,243.68,987.07z"/>
			</g>
			<g>
				<path class="st1" d="M168.87,1160.15c-0.44,0-0.83-0.32-0.9-0.76c-0.07-0.42-7.11-43.03-4.3-95.69
					c2.6-48.66,14.36-116.11,55.7-161.12c0.34-0.37,0.92-0.4,1.3-0.06c0.37,0.34,0.4,0.92,0.06,1.3
					c-40.96,44.62-52.64,111.62-55.22,159.98c-2.8,52.46,4.2,94.86,4.27,95.28c0.08,0.5-0.25,0.97-0.75,1.06
					C168.98,1160.15,168.92,1160.15,168.87,1160.15z"/>
			</g>
			<g>
				<path class="st1" d="M167.72,1034.33c-0.24,0-0.49-0.1-0.67-0.29c-0.35-0.37-0.33-0.95,0.04-1.3
					c0.33-0.31,33.04-30.71,76.95-28.76c0.51,0.02,0.9,0.45,0.88,0.96c-0.02,0.51-0.43,0.93-0.96,0.88
					c-43.15-1.91-75.29,27.96-75.61,28.26C168.18,1034.24,167.95,1034.33,167.72,1034.33z"/>
			</g>
			<g>
				<path class="st3" d="M204.45,1012.98c-3.64,7.56-8.16,7.75-12.6,5.62c-4.44-2.14-7.1-5.79-3.46-13.35
					c3.64-7.56,14.62-9.82,14.62-9.82S208.09,1005.42,204.45,1012.98z"/>
				<path class="st1" d="M196.31,1020.69c-1.5,0-3.11-0.42-4.86-1.27c-5.96-2.87-7.23-7.64-3.89-14.58
					c3.79-7.88,14.8-10.23,15.26-10.32c0.4-0.08,0.82,0.11,1,0.48c0.22,0.42,5.24,10.49,1.45,18.37l0,0
					c-1.82,3.78-3.96,6.04-6.53,6.92C197.96,1020.56,197.16,1020.69,196.31,1020.69z M202.49,996.49
					c-2.41,0.64-10.4,3.16-13.28,9.15c-3.69,7.68-0.32,10.51,3.04,12.13c2.29,1.1,4.22,1.36,5.9,0.78c2.06-0.7,3.9-2.71,5.47-5.98
					l0.83,0.4l-0.83-0.4C206.51,1006.58,203.5,998.78,202.49,996.49z"/>
			</g>
			<g>
				<path class="st3" d="M191.51,988.45c-6.08,5.78-10.38,4.36-13.77,0.79c-3.39-3.57-4.59-7.93,1.49-13.71
					c6.08-5.78,17.15-4.01,17.15-4.01S197.59,982.67,191.51,988.45z"/>
				<path class="st1" d="M183.85,993.29c-2.36,0-4.61-1.14-6.78-3.42c-2.1-2.2-3.1-4.39-3.06-6.67c0.04-2.72,1.54-5.45,4.58-8.34
					c6.34-6.03,17.46-4.33,17.93-4.25c0.41,0.07,0.72,0.4,0.77,0.81c0.05,0.47,1.19,11.67-5.15,17.69l0,0
					C189.21,991.9,186.46,993.29,183.85,993.29z M192.48,972.19c-3.63,0-9.09,0.64-12.63,4.01c-2.63,2.5-3.98,4.87-4.01,7.04
					c-0.03,1.78,0.81,3.54,2.56,5.38c2.56,2.7,6.3,5.04,12.47-0.83c4.81-4.58,4.77-12.95,4.64-15.45
					C194.86,972.27,193.79,972.19,192.48,972.19z M191.51,988.45h0.01H191.51z"/>
			</g>
			<g>
				<path class="st3" d="M185.37,948.17c5.15,6.62,3.31,10.76-0.57,13.78c-3.89,3.02-8.35,3.78-13.5-2.84
					c-5.15-6.62-2.29-17.47-2.29-17.47S180.22,941.55,185.37,948.17z"/>
				<path class="st1" d="M179.27,965.11c-0.29,0-0.57-0.02-0.86-0.05c-2.7-0.31-5.27-2.07-7.84-5.39c-5.37-6.9-2.57-17.8-2.45-18.26
					c0.11-0.4,0.47-0.68,0.88-0.68c0.46-0.01,11.73-0.03,17.1,6.88c2.57,3.31,3.65,6.23,3.29,8.93c-0.31,2.27-1.62,4.28-4.02,6.14
					C183.26,964.31,181.25,965.11,179.27,965.11z M169.73,942.59c-0.5,2.45-1.79,10.72,2.28,15.96c2.23,2.86,4.45,4.44,6.6,4.69
					c1.77,0.2,3.6-0.45,5.61-2.01c2-1.56,3.09-3.17,3.33-4.94c0.29-2.15-0.69-4.7-2.92-7.56
					C180.56,943.49,172.23,942.7,169.73,942.59z"/>
			</g>
			<g>
				<path class="st3" d="M173.15,1001.37c5.15,6.62,3.31,10.76-0.57,13.78c-3.89,3.02-8.35,3.78-13.5-2.84
					c-5.15-6.62-2.29-17.47-2.29-17.47S168,994.74,173.15,1001.37z"/>
				<path class="st1" d="M167.01,1018.32c-2.97,0-5.83-1.81-8.66-5.45c-5.37-6.9-2.57-17.8-2.45-18.26c0.11-0.4,0.47-0.68,0.88-0.68
					c0.46,0.02,11.73-0.03,17.1,6.88c4.73,6.08,4.49,11.01-0.74,15.07C171.04,1017.5,169,1018.32,167.01,1018.32z M157.51,995.78
					c-0.5,2.45-1.79,10.72,2.28,15.96c5.23,6.72,9.27,4.96,12.21,2.68c2.94-2.29,5.64-5.77,0.41-12.5
					C168.34,996.68,160.01,995.9,157.51,995.78z"/>
			</g>
		</g>
		<g>
			<path class="st3" d="M168.72,1225.78h-5.14c-29.35,0-53.14-23.79-53.14-53.14v-61.48c0-1.38,1.11-2.49,2.49-2.49h106.43
				c1.38,0,2.49,1.11,2.49,2.49v61.48C221.85,1201.99,198.06,1225.78,168.72,1225.78z"/>
			<path class="st1" d="M166.15,1226.7c-31.22,0-56.62-25.4-56.62-56.62v-58.8c0-1.95,1.58-3.53,3.53-3.53h106.19
				c1.95,0,3.53,1.58,3.53,3.53v58.8C222.77,1201.3,197.37,1226.7,166.15,1226.7z M113.05,1109.59c-0.93,0-1.69,0.76-1.69,1.69v58.8
				c0,30.21,24.58,54.79,54.79,54.79s54.79-24.58,54.79-54.79v-58.8c0-0.93-0.76-1.69-1.69-1.69H113.05z"/>
		</g>
		<ellipse class="st1" cx="166.15" cy="1111.55" rx="56.74" ry="12.9"/>
	</g>
	<g>
		<path class="st1" d="M1461.62,337.54c-0.51,0-0.92-0.41-0.92-0.92V146.51c-5.39,6.54-23.76,27.75-51.62,48.59
			c-30.36,22.71-78.45,49.57-136.02,49.57c-0.79,0-1.57-0.01-2.36-0.02c-78.42-1-154.13-50.59-225.04-147.38
			c-52.57,69.06-115.05,108.51-185.74,117.27c-10.21,1.27-20.3,1.84-30.19,1.84c-52.42,0-99.53-16.12-131.86-31.01
			c-36.08-16.62-61.03-34.88-67.21-39.59v190.84c0,0.51-0.41,0.92-0.92,0.92c-0.51,0-0.92-0.41-0.92-0.92V143.91
			c0-0.35,0.2-0.67,0.52-0.83c0.32-0.15,0.7-0.11,0.97,0.11c0.26,0.21,26.93,21.45,68.37,40.53c38.21,17.6,97.17,36.91,161.02,28.99
			c70.51-8.74,132.83-48.29,185.24-117.54c0.17-0.23,0.44-0.36,0.73-0.36c0,0,0.01,0,0.01,0c0.29,0,0.56,0.14,0.73,0.38
			c70.76,96.96,146.23,146.63,224.31,147.63c58.12,0.71,106.7-26.34,137.25-49.19c33.12-24.77,52.72-50.02,52.91-50.28
			c0.24-0.31,0.65-0.43,1.02-0.31c0.37,0.13,0.62,0.48,0.62,0.87v192.71C1462.54,337.13,1462.13,337.54,1461.62,337.54z"/>
	</g>
	<g>
		<path class="st1" d="M1651.25,337.54c-0.51,0-0.92-0.41-0.92-0.92V145.78c-6.18,4.71-31.13,22.96-67.21,39.59
			c-38.44,17.71-97.75,37.14-162.06,29.17c-70.65-8.75-133.1-48.16-185.65-117.15c-57.64,101.09-124.46,155.22-198.62,160.92
			c-4.32,0.33-8.61,0.49-12.86,0.49c-57.21,0-108.04-28.79-141.54-53.95c-33.25-24.98-56.01-51.08-62.11-58.38v190.15
			c0,0.51-0.41,0.92-0.92,0.92c-0.51,0-0.92-0.41-0.92-0.92V143.91c0-0.39,0.25-0.74,0.62-0.87c0.37-0.13,0.78-0.01,1.02,0.3
			c0.24,0.31,24.67,30.95,63.45,60.07c35.73,26.83,91.3,57.82,153.13,53.07c73.81-5.67,140.37-59.91,197.84-161.2
			c0.15-0.27,0.43-0.44,0.74-0.46c0.31-0.02,0.61,0.12,0.79,0.36c52.41,69.26,114.74,108.8,185.25,117.54
			c63.87,7.91,122.84-11.41,161.06-29.02c41.43-19.08,68.06-40.3,68.32-40.51c0.28-0.22,0.65-0.26,0.97-0.11
			c0.32,0.15,0.52,0.47,0.52,0.83v192.71C1652.17,337.13,1651.76,337.54,1651.25,337.54z"/>
	</g>
	<g>
		<g>
			<path class="st0" d="M830.02,360.66v-15.19h-21.29v15.19c-4.05,2.85-6.5,7.98-6.5,13.43c0,9.47,7.68,17.15,17.15,17.15
				c9.47,0,17.15-7.68,17.15-17.15C836.52,368.64,833.98,363.8,830.02,360.66z"/>
			<path class="st1" d="M819.37,392.15c-9.96,0-18.07-8.1-18.07-18.06c0-5.58,2.48-10.86,6.5-13.9v-14.72
				c0-0.51,0.41-0.92,0.92-0.92h21.29c0.51,0,0.92,0.41,0.92,0.92v14.75c4.14,3.45,6.5,8.48,6.5,13.87
				C837.44,384.05,829.34,392.15,819.37,392.15z M809.65,346.39v14.27c0,0.3-0.15,0.58-0.39,0.75c-3.77,2.65-6.11,7.51-6.11,12.68
				c0,8.95,7.28,16.23,16.23,16.23c8.95,0,16.23-7.28,16.23-16.23c0-4.97-2.24-9.61-6.16-12.71c-0.22-0.17-0.35-0.44-0.35-0.72
				v-14.27H809.65z"/>
		</g>
		<path class="st1" d="M831.79,353.38h-24.83v-7.82c0-4.94,4-8.94,8.94-8.94h6.96c4.94,0,8.94,4,8.94,8.94V353.38z"/>
	</g>
	<g>
		<g>
			<path class="st0" d="M1472.26,322.8v-15.19h-21.29v15.19c-4.05,2.85-6.5,7.98-6.5,13.43c0,9.47,7.68,17.15,17.15,17.15
				c9.47,0,17.15-7.68,17.15-17.15C1478.77,330.78,1476.22,325.94,1472.26,322.8z"/>
			<path class="st1" d="M1461.62,354.29c-9.96,0-18.07-8.1-18.07-18.07c0-5.58,2.48-10.86,6.5-13.9v-14.72
				c0-0.51,0.41-0.92,0.92-0.92h21.29c0.51,0,0.92,0.41,0.92,0.92v14.75c4.14,3.45,6.5,8.48,6.5,13.87
				C1479.69,346.19,1471.58,354.29,1461.62,354.29z M1451.89,308.53v14.27c0,0.3-0.15,0.58-0.39,0.75
				c-3.77,2.65-6.11,7.51-6.11,12.68c0,8.95,7.28,16.23,16.23,16.23c8.95,0,16.23-7.28,16.23-16.23c0-4.97-2.24-9.6-6.16-12.71
				c-0.22-0.17-0.35-0.44-0.35-0.72v-14.27H1451.89z"/>
		</g>
		<path class="st1" d="M1474.04,315.51h-24.83v-7.82c0-4.94,4-8.94,8.94-8.94h6.96c4.94,0,8.94,4,8.94,8.94V315.51z"/>
	</g>
	<g>
		<g>
			<path class="st0" d="M1661.68,354.53v-15.19h-21.29v15.19c-4.05,2.85-6.5,7.98-6.5,13.43c0,9.47,7.68,17.15,17.15,17.15
				c9.47,0,17.15-7.68,17.15-17.15C1668.19,362.52,1665.64,357.67,1661.68,354.53z"/>
			<path class="st1" d="M1651.04,386.03c-9.96,0-18.07-8.1-18.07-18.07c0-5.58,2.48-10.86,6.5-13.9v-14.72
				c0-0.51,0.41-0.92,0.92-0.92h21.29c0.51,0,0.92,0.41,0.92,0.92v14.75c4.14,3.45,6.5,8.48,6.5,13.87
				C1669.1,377.92,1661,386.03,1651.04,386.03z M1641.31,340.26v14.27c0,0.3-0.15,0.58-0.39,0.75c-3.77,2.65-6.11,7.51-6.11,12.68
				c0,8.95,7.28,16.23,16.23,16.23c8.95,0,16.23-7.28,16.23-16.23c0-4.97-2.24-9.6-6.16-12.71c-0.22-0.17-0.35-0.44-0.35-0.72
				v-14.27H1641.31z"/>
		</g>
		<path class="st1" d="M1663.45,347.25h-24.83v-7.82c0-4.94,4-8.94,8.94-8.94h6.96c4.94,0,8.94,4,8.94,8.94V347.25z"/>
	</g>
	<g>
		<g>
			<path class="st0" d="M640.39,314.89V299.7H619.1v15.19c-4.05,2.85-6.5,7.98-6.5,13.43c0,9.47,7.68,17.15,17.15,17.15
				c9.47,0,17.15-7.68,17.15-17.15C646.89,322.88,644.35,318.04,640.39,314.89z"/>
			<path class="st1" d="M629.74,346.39c-9.96,0-18.07-8.1-18.07-18.07c0-5.58,2.48-10.86,6.5-13.9V299.7c0-0.51,0.41-0.92,0.92-0.92
				h21.29c0.51,0,0.92,0.41,0.92,0.92v14.75c4.14,3.45,6.5,8.48,6.5,13.87C647.81,338.28,639.71,346.39,629.74,346.39z
				 M620.02,300.62v14.27c0,0.3-0.15,0.58-0.39,0.75c-3.77,2.65-6.11,7.51-6.11,12.68c0,8.95,7.28,16.23,16.23,16.23
				c8.95,0,16.23-7.28,16.23-16.23c0-4.97-2.24-9.61-6.16-12.71c-0.22-0.17-0.35-0.44-0.35-0.72v-14.27H620.02z"/>
		</g>
		<path class="st1" d="M642.16,307.61h-24.83v-7.82c0-4.94,4-8.94,8.94-8.94h6.96c4.94,0,8.94,4,8.94,8.94V307.61z"/>
	</g>
	<g>
		<g>
			<path class="st0" d="M1098.29,695.5c-4.73-2.58-8.24-4.57-10.08-5.63l-23.39-7.35c-2.12-0.87-6.29-2.81-5.28-6.49
				c0.65-2.35,2.07-3.48,4.3-3.1c-1.7-1.18-4.53-2.32-3.42-6.09h0c0.88-2.17,3.26-3.25,5.45-2.6c-2.03-1.07-2.96-3.51-2.08-5.67
				c0.94-2.31,3.57-3.41,5.88-2.47l22.38,8.64c0,0-0.04-1.62-1.6-8.31c-0.78-3.34,3.44-7.28,9.23,1.64
				c2.9,4.46,10.04,13.92,10.04,13.92L1098.29,695.5z"/>
			<path class="st1" d="M1098.29,696.42c-0.15,0-0.3-0.04-0.44-0.11c-4.75-2.59-8.28-4.6-10.01-5.59l-23.3-7.32
				c-4.79-1.95-6.74-4.5-5.88-7.61c0.49-1.76,1.38-2.94,2.62-3.49c-1.38-1.1-2.6-2.76-1.73-5.72c0.72-1.77,2.2-2.96,3.91-3.33
				c-0.96-1.45-1.2-3.32-0.5-5.03c1.13-2.77,4.3-4.1,7.08-2.97l20.93,8.08c-0.19-1.19-0.59-3.26-1.39-6.7
				c-0.46-1.95,0.46-3.96,2.12-4.67c1.21-0.52,4.49-1,8.78,5.6c2.63,4.06,8.77,12.22,9.97,13.82c0.12,0.16,0.22,0.4,0.22,0.59
				c0,0.14-0.03,0.28-0.09,0.4l-11.44,23.53c-0.11,0.23-0.31,0.4-0.55,0.47C1098.48,696.41,1098.38,696.42,1098.29,696.42z
				 M1063,673.77c-0.98,0-2.01,0.46-2.57,2.5c-0.59,2.13,0.92,3.84,4.74,5.4l23.32,7.33c0.06,0.02,0.12,0.05,0.18,0.08
				c1.59,0.91,4.83,2.76,9.22,5.16l10.77-22.16c-1.76-2.34-7.26-9.71-9.74-13.52c-2.88-4.44-5.25-5.45-6.52-4.91
				c-0.84,0.36-1.3,1.48-1.05,2.56c1.56,6.71,1.62,8.43,1.62,8.5c0.01,0.31-0.14,0.6-0.39,0.77c-0.25,0.18-0.57,0.21-0.86,0.11
				l-22.38-8.64c-1.85-0.75-3.95,0.13-4.7,1.96c-0.7,1.71,0.02,3.65,1.66,4.52c0.42,0.22,0.6,0.72,0.42,1.16
				c-0.18,0.44-0.65,0.67-1.11,0.53c-1.78-0.53-3.65,0.36-4.34,2.06c-0.75,2.53,0.69,3.45,2.36,4.51c0.26,0.16,0.5,0.32,0.73,0.48
				c0.35,0.24,0.49,0.7,0.33,1.1c-0.16,0.4-0.58,0.63-1,0.56C1063.46,673.79,1063.23,673.77,1063,673.77z"/>
		</g>
		<g>
			<path class="st1" d="M1075.18,677.08c-0.08,0-0.17-0.01-0.25-0.03l-11.34-3.24c-0.49-0.14-0.77-0.65-0.63-1.13
				c0.14-0.49,0.65-0.77,1.13-0.63l11.34,3.24c0.49,0.14,0.77,0.65,0.63,1.13C1075.95,676.82,1075.58,677.08,1075.18,677.08z"/>
		</g>
		<g>
			<path class="st1" d="M1076.57,668c-0.08,0-0.17-0.01-0.25-0.03l-11.34-3.24c-0.49-0.14-0.77-0.65-0.63-1.13
				c0.14-0.49,0.65-0.76,1.13-0.63l11.34,3.24c0.49,0.14,0.77,0.65,0.63,1.13C1077.34,667.74,1076.97,668,1076.57,668z"/>
		</g>
		<path class="st1" d="M1261.02,690.52c-13.89,15.16-34.9,28.96-49.39,37.52c-10.45,6.17-23,7.68-34.62,4.19
			c-16.17-4.86-51.42-17.18-86.38-33.93l14.08-31.73l81.73,21.52c0,0,42.61-28.33,74.01-41.89L1261.02,690.52z"/>
		<polygon class="st1" points="1275.74,1220.7 1225.75,1253.1 1304.77,1254.13 1302.75,1221.05 		"/>
		<polygon class="st1" points="1379.63,1220.7 1329.64,1253.1 1408.66,1254.13 1406.64,1221.05 		"/>
		<polygon class="st1" points="1215.07,885.49 1252.5,1223.61 1316.21,1223.61 1288.08,949.88 1355.66,1222.61 1415.3,1223.61 
			1355.35,885.49 		"/>
		<g>
			<path class="st0" d="M1288.08,950.8c-0.41,0-0.78-0.28-0.89-0.69l-4.56-17.76l-11.78-14.08c-0.33-0.39-0.27-0.97,0.11-1.29
				c0.39-0.32,0.97-0.27,1.29,0.11l11.91,14.24c0.09,0.1,0.15,0.23,0.19,0.36l4.62,17.96c0.13,0.49-0.17,0.99-0.66,1.12
				C1288.24,950.79,1288.16,950.8,1288.08,950.8z"/>
		</g>
		<path class="st1" d="M1326.13,646.22c-4.36-0.14-17.32-2.15-17.32-2.15l-39.38-0.11c-36.92,4.64-42.18,63.8-42.18,63.8
			c-2.86,11.9-5.1,24.77-6.85,37.96l-31.88,6.99l5.26,33.32c0,0,22.92-4.28,22.92-3.74c-3.9,53.28-1.73,101.96-1.64,103.2
			c0.2,2.72,139.8-0.2,139.8-0.2s3.47-127.07,3.85-181.59C1358.86,683.33,1360.62,647.36,1326.13,646.22z"/>
		<g>
			<path class="st4" d="M1354.8,885.49"/>
		</g>
		<g>
			<path class="st0" d="M1276.76,702.47c-0.07,0-0.14-0.01-0.22-0.03c-0.38-0.09-0.66-0.42-0.7-0.81l-4.93-57.59
				c0-0.04,0-0.08,0-0.12l0.6-12.33c-8.61-3.1-14.34-11.23-14.34-20.43l0-38.13c0-12.47,14.64-12.5,28.8-12.53
				c4.18-0.01,8.13-0.02,11.72-0.33c0.4-0.03,0.78-0.05,1.16-0.05c3.08,0,5.71,1.14,7.82,3.39c5.91,6.31,6.04,19.61,5.92,23.82
				c0.92-0.22,2.25-0.45,3.71-0.45c3.34,0,8.94,1.3,8.94,10.04c0,6.24-4.04,9.83-11.08,9.83c-0.64,0-1.2-0.03-1.64-0.07l0.5,38.65
				c0,0.18-0.05,0.35-0.14,0.5l-35.34,56.23C1277.36,702.31,1277.07,702.47,1276.76,702.47z"/>
			<path class="st1" d="M1298.85,561.03c14.56,0,12.76,27.52,12.76,27.52s2.15-0.76,4.68-0.76c3.62,0,8.02,1.56,8.02,9.12
				c0,7.78-6.44,8.91-10.16,8.91c-1.51,0-2.57-0.19-2.57-0.19l0.52,39.69l-35.34,56.23l-4.93-57.59l0.54-11.02l0.1-2
				c-8.34-2.71-14.37-10.54-14.37-19.79l0-38.13c0-15.01,23.95-10.56,39.68-11.95C1298.14,561.04,1298.5,561.03,1298.85,561.03
				 M1298.85,559.19c-0.4,0-0.82,0.02-1.24,0.06c-3.55,0.31-7.48,0.32-11.64,0.33c-13.93,0.03-29.71,0.06-29.71,13.45l0,38.13
				c0,9.37,5.69,17.66,14.31,21.06l-0.03,0.64l-0.54,11.02c0,0.08,0,0.16,0,0.25l4.93,57.59c0.07,0.79,0.63,1.44,1.4,1.63
				c0.14,0.03,0.29,0.05,0.43,0.05c0.62,0,1.21-0.32,1.55-0.86l35.34-56.23c0.19-0.3,0.29-0.65,0.28-1l-0.49-37.66
				c0.23,0.01,0.46,0.01,0.71,0.01c7.51,0,12-4.02,12-10.74c0-6.96-3.59-10.96-9.86-10.96c-1.01,0-1.96,0.11-2.78,0.25
				c0.04-5.21-0.51-17.27-6.18-23.32C1305.05,560.43,1302.19,559.19,1298.85,559.19L1298.85,559.19z"/>
		</g>
		<g>
			<path class="st1" d="M1274.61,610.36c-0.19,0-0.39-0.06-0.55-0.18l-4-3c-0.95-0.71-1.56-1.8-1.67-2.98
				c-0.11-1.18,0.28-2.36,1.07-3.25l2.97-3.3l-0.38-8.37c-0.02-0.51,0.37-0.93,0.87-0.96c0.52-0.04,0.94,0.37,0.96,0.87l0.4,8.74
				c0.01,0.24-0.07,0.48-0.23,0.66l-3.22,3.58c-0.46,0.51-0.67,1.16-0.61,1.84c0.07,0.68,0.4,1.28,0.95,1.69l4,3
				c0.41,0.3,0.49,0.88,0.18,1.28C1275.16,610.23,1274.88,610.36,1274.61,610.36z"/>
		</g>
		<g>
			<path class="st1" d="M1280.16,584.14c-0.19,0-0.37-0.06-0.54-0.17c-0.41-0.3-0.5-0.87-0.2-1.28c1.12-1.55,4.43-3.92,8.89-1.74
				c0.46,0.22,0.64,0.77,0.42,1.23c-0.22,0.45-0.77,0.64-1.23,0.42c-4.2-2.05-6.5,1.04-6.6,1.17
				C1280.72,584.01,1280.44,584.14,1280.16,584.14z"/>
		</g>
		<g>
			<path class="st1" d="M1261.02,583.01c-0.24,0-0.47-0.09-0.65-0.27c-0.35-0.36-0.35-0.93,0-1.29c1.36-1.36,5-3.16,9.05-0.3
				c0.41,0.29,0.51,0.86,0.22,1.28c-0.29,0.41-0.86,0.51-1.28,0.22c-3.78-2.66-6.58-0.01-6.7,0.11
				C1261.48,582.93,1261.25,583.01,1261.02,583.01z"/>
		</g>
		<g>
			<path class="st1" d="M1319.49,602.96c-0.18,0-0.36-0.05-0.52-0.16c-0.42-0.28-0.53-0.86-0.24-1.27
				c4.71-6.91-0.97-11.13-1.21-11.31c-0.41-0.3-0.5-0.87-0.21-1.28c0.29-0.41,0.87-0.51,1.28-0.21c0.07,0.05,7.4,5.42,1.66,13.83
				C1320.07,602.82,1319.79,602.96,1319.49,602.96z"/>
		</g>
		<g>
			<path class="st1" d="M1314.92,599c-0.17,0-0.34-0.05-0.49-0.15c-0.43-0.27-0.55-0.84-0.28-1.27c2.4-3.73,6.86-3.78,7.05-3.78
				c0.51,0,0.92,0.41,0.92,0.92c0,0.51-0.41,0.92-0.92,0.92c-0.07,0-3.67,0.07-5.51,2.93C1315.51,598.85,1315.22,599,1314.92,599z"
				/>
		</g>
		<path class="st1" d="M1282.54,589.39c-0.08,1.47,0.52,2.69,1.34,2.74c0.82,0.05,1.55-1.11,1.64-2.57
			c0.08-1.47-0.52-2.69-1.34-2.74C1283.36,586.77,1282.62,587.92,1282.54,589.39z"/>
		<path class="st1" d="M1263.03,589.39c-0.08,1.47,0.52,2.69,1.34,2.74c0.82,0.05,1.55-1.11,1.64-2.57
			c0.08-1.47-0.52-2.69-1.34-2.74C1263.84,586.77,1263.11,587.92,1263.03,589.39z"/>
		<path class="st1" d="M1314.51,586.98c0,0-0.49-8.68-0.71-15.15c-0.45-13.08-6.75-21.57-6.6-21.21c-0.05-4.53-3.79-7.6-7.59-9.38
			c-2.88-1.35-8.28-2.28-11.11-2.26c-6.65,0.05-10.71,1.23-16.89,3.71c-7.81,3.14-13.21,14.45-27.04,9.94
			c0,6.27,2.29,12.27,10.24,18.2c12.42,9.26,41.91-0.82,50.22-5.22l0,0l1.35,27.46v15.06l-49.07,4.46c0,0-0.73,10.05,5.35,16.42
			c3.93,4.1,9.24,5.82,13.2,5.35l36.03-1.43l-0.29-44.4C1312.57,587.88,1313.56,587.32,1314.51,586.98z"/>
		<path class="st0" d="M1287.77,613.03c0,0-7.28,5.09-16.45,3.39c0,0,3.66,7.52,9.17,6.24
			C1286.25,621.33,1287.77,613.03,1287.77,613.03z"/>
		<g>
			<path class="st1" d="M1286.58,657.76c-0.2,0-0.4-0.07-0.56-0.19l-14.64-11.42c-0.4-0.31-0.47-0.89-0.16-1.29
				c0.31-0.4,0.89-0.47,1.29-0.16l14.2,11.08l25.01-11.29c0.46-0.21,1,0,1.21,0.46c0.21,0.46,0,1.01-0.46,1.21l-25.52,11.52
				C1286.84,657.73,1286.71,657.76,1286.58,657.76z"/>
		</g>
		<g>
			<path class="st1" d="M1297.97,668.71c-0.23,0-0.46-0.08-0.64-0.26l-10.86-10.44l-15.14,10.3c-0.42,0.28-0.99,0.18-1.27-0.24
				c-0.28-0.42-0.18-0.99,0.24-1.27l15.76-10.72c0.36-0.24,0.84-0.2,1.15,0.1l11.39,10.96c0.37,0.35,0.38,0.93,0.03,1.3
				C1298.45,668.62,1298.21,668.71,1297.97,668.71z"/>
		</g>
		<g>
			<path class="st0" d="M1216.7,783.2c-0.51,0-0.92-0.41-0.92-0.92c0-0.51,0.41-0.92,0.92-0.92c28.89,0,70.33-9.36,82.35-12.23
				c11.53-2.75,21.45-10.25,27.24-20.58c8.45-15.09,19.43-37.22,23.75-57.01c0.11-0.49,0.6-0.8,1.09-0.7
				c0.49,0.11,0.81,0.6,0.7,1.09c-4.37,20-15.43,42.31-23.94,57.51c-6.03,10.77-16.39,18.59-28.41,21.46
				C1287.41,773.8,1245.79,783.2,1216.7,783.2z"/>
		</g>
		<g>
			<polygon class="st2" points="1280.87,663.97 1276.76,701.55 1291.2,678.56 1291.2,663.97 			"/>
			<path class="st1" d="M1276.76,702.47c-0.1,0-0.2-0.02-0.3-0.05c-0.4-0.14-0.66-0.54-0.61-0.97l4.11-37.58
				c0.05-0.47,0.44-0.82,0.91-0.82h10.34c0.51,0,0.92,0.41,0.92,0.92v14.59c0,0.17-0.05,0.34-0.14,0.49l-14.45,22.99
				C1277.36,702.31,1277.06,702.47,1276.76,702.47z M1281.69,664.89l-3.59,32.8l12.19-19.39v-13.41H1281.69z"/>
		</g>
		<g>
			<polygon class="st2" points="1286.58,656.84 1278.52,662.32 1284.94,671.1 1293.49,663.49 			"/>
			<path class="st1" d="M1284.94,672.02c-0.03,0-0.06,0-0.1-0.01c-0.26-0.03-0.49-0.16-0.64-0.37l-6.41-8.79
				c-0.15-0.2-0.21-0.45-0.16-0.7s0.18-0.46,0.39-0.6l8.05-5.48c0.36-0.24,0.84-0.2,1.15,0.1l6.92,6.65
				c0.18,0.18,0.29,0.42,0.28,0.68c-0.01,0.26-0.12,0.5-0.31,0.67l-8.56,7.61C1285.38,671.94,1285.16,672.02,1284.94,672.02z
				 M1279.82,662.54l5.26,7.2l7.06-6.28l-5.66-5.45L1279.82,662.54z"/>
		</g>
		<g>
			<path class="st0" d="M1274.61,729.4c-0.37,0-0.72-0.23-0.86-0.59l-10.69-28.1c-0.15-0.39-0.01-0.84,0.33-1.08l6.76-4.75
				l-9.53-4.65c-0.3-0.15-0.5-0.45-0.51-0.79l-1.65-44.08c-0.02-0.51,0.38-0.93,0.88-0.95c0.01,0,0.02,0,0.03,0
				c0.49,0,0.9,0.39,0.92,0.88l1.63,43.53l10.43,5.09c0.29,0.14,0.49,0.43,0.51,0.75c0.03,0.32-0.12,0.64-0.39,0.82l-7.45,5.24
				l10.44,27.44c0.18,0.47-0.06,1-0.53,1.18C1274.83,729.38,1274.72,729.4,1274.61,729.4z"/>
		</g>
		<g>
			<path class="st0" d="M1354.8,886.4h-139.73c-0.51,0-0.92-0.41-0.92-0.92c0-0.51,0.41-0.92,0.92-0.92h139.73
				c0.51,0,0.92,0.41,0.92,0.92C1355.71,885.99,1355.3,886.4,1354.8,886.4z"/>
		</g>
		<g>
			<path class="st0" d="M1271.32,886.4c-0.5,0-0.9-0.4-0.92-0.89l-2.43-98.39c-0.01-0.51,0.39-0.93,0.89-0.94
				c0.51-0.03,0.93,0.39,0.94,0.89l2.43,98.39c0.01,0.51-0.39,0.93-0.89,0.94C1271.33,886.4,1271.32,886.4,1271.32,886.4z"/>
		</g>
		<g>
			<path class="st0" d="M1283.82,729.4c-0.18,0-0.36-0.05-0.52-0.16c-0.42-0.29-0.52-0.86-0.24-1.28l21.2-30.91l-9.09-3.64
				c-0.33-0.13-0.55-0.44-0.57-0.79c-0.02-0.35,0.16-0.69,0.47-0.86l9.9-5.52l20.33-40.43c0.23-0.45,0.78-0.63,1.23-0.41
				c0.45,0.23,0.64,0.78,0.41,1.23l-20.46,40.68c-0.08,0.16-0.21,0.3-0.37,0.39l-8.47,4.72l8.36,3.35c0.26,0.1,0.46,0.32,0.54,0.59
				c0.08,0.27,0.04,0.56-0.12,0.79L1284.57,729C1284.39,729.26,1284.11,729.4,1283.82,729.4z"/>
		</g>
		<g>
			<path class="st0" d="M1188.52,699.51c-0.43,0-0.81-0.3-0.9-0.74l-2.08-10.5c-0.1-0.5,0.22-0.98,0.72-1.08
				c0.5-0.1,0.98,0.22,1.08,0.72l2.08,10.5c0.1,0.5-0.22,0.98-0.72,1.08C1188.64,699.5,1188.58,699.51,1188.52,699.51z"/>
		</g>
	</g>
	<g>
		<g>
			<polygon class="st2" points="1140.39,753.67 1141.19,787.1 1102.26,787.1 1102.26,754.34 			"/>
			<path class="st1" d="M1141.19,788.02h-38.94c-0.51,0-0.92-0.41-0.92-0.92v-32.76c0-0.5,0.4-0.91,0.9-0.92l38.13-0.67
				c0.01,0,0.01,0,0.02,0c0.5,0,0.9,0.4,0.92,0.89l0.8,33.43c0.01,0.25-0.09,0.49-0.26,0.66
				C1141.68,787.92,1141.44,788.02,1141.19,788.02z M1103.17,786.18h37.08l-0.76-31.58l-36.32,0.64V786.18z"/>
		</g>
		<polygon class="st1" points="1055,1220.7 1104.99,1253.1 1025.97,1254.13 1027.99,1221.05 		"/>
		<polygon class="st1" points="951.11,1220.7 1001.1,1253.1 922.08,1254.13 924.1,1221.05 		"/>
		<polygon class="st1" points="1111.21,885.48 1078.24,1223.61 1014.53,1223.61 1042.66,949.88 975.08,1222.61 915.44,1223.61 
			975.39,885.49 		"/>
		<g>
			<path class="st0" d="M1042.66,950.8c-0.08,0-0.15-0.01-0.23-0.03c-0.49-0.13-0.79-0.63-0.66-1.12l4.62-17.96
				c0.03-0.13,0.1-0.26,0.19-0.36l11.91-14.24c0.32-0.39,0.9-0.44,1.29-0.11c0.39,0.32,0.44,0.9,0.11,1.29l-11.78,14.08l-4.56,17.76
				C1043.44,950.53,1043.06,950.8,1042.66,950.8z"/>
		</g>
		<g>
			<path class="st2" d="M1109.73,779.07c-0.86-36.55-11.51-130.47-48.43-135.11l-39.38,0.11c0,0-13,1.53-17.32,2.15
				c0,0-46.67,0.02-49.07,114.11c-0.95,45.18-5.13,129.52-5.13,129.52l42.23,6.25l1.29-10.63c0,0,117.06,2.71,117.27-0.01
				C1111.21,885.48,1111.21,842.07,1109.73,779.07z"/>
			<path class="st1" d="M992.65,897.03c-0.04,0-0.09,0-0.13-0.01l-42.23-6.26c-0.47-0.07-0.8-0.48-0.78-0.95
				c0.04-0.84,4.19-84.85,5.13-129.5c0.69-32.68,5.69-76.62,25.65-100.41c11.76-14.02,23.17-14.58,24.27-14.6
				c4.34-0.62,17.15-2.13,17.28-2.14l39.48-0.12c0.05,0.01,0.08,0,0.12,0.01c37.88,4.76,48.38,99.78,49.23,136
				c1.46,62.3,1.48,106,1.48,106.43c-0.1,1.44-0.19,2.62-59.64,1.94c-26.23-0.3-52.75-0.89-57.74-1l-1.19,9.8
				c-0.03,0.25-0.16,0.47-0.35,0.62C993.04,896.96,992.85,897.03,992.65,897.03z M951.37,889.07l40.48,6l1.18-9.69
				c0.06-0.47,0.44-0.82,0.93-0.81c43.93,1.02,110.03,1.93,116.33,0.37c-0.01-4.91-0.1-47.11-1.48-105.85
				c-0.45-19.27-3.52-51.61-10.66-79.31c-6.11-23.67-17.46-52.4-36.9-54.9l-39.32,0.11c-0.03,0.01-12.93,1.53-17.19,2.14
				c-0.04,0.01-0.09,0.01-0.13,0.01c-0.11,0-11.51,0.22-23.08,14.12c-19.5,23.43-24.4,66.82-25.07,99.1
				C955.57,802.63,951.81,880.18,951.37,889.07z"/>
		</g>
		<g>
			<path class="st4" d="M975.94,885.49"/>
		</g>
		<g>
			<path class="st0" d="M1046.71,664.89c-0.18,0-0.36-0.05-0.51-0.15l-28.07-18.65c-0.26-0.17-0.41-0.46-0.41-0.78l0.5-38.65
				c-0.45,0.04-1.01,0.07-1.64,0.07c-1.91,0-4.67-0.29-6.95-1.67c-2.74-1.66-4.13-4.4-4.13-8.16c0-8.74,5.6-10.04,8.94-10.04
				c1.46,0,2.79,0.24,3.71,0.45c-0.12-4.21,0-17.5,5.92-23.82c2.11-2.25,4.74-3.39,7.82-3.39c0.38,0,0.76,0.02,1.16,0.05
				c3.59,0.32,7.54,0.32,11.72,0.33c14.16,0.03,28.8,0.06,28.8,12.53l0,38.13c0,9.21-5.73,17.33-14.34,20.43l0.6,12.33
				c0.01,0.18-0.04,0.37-0.13,0.52l-12.2,20.01c-0.13,0.21-0.34,0.36-0.58,0.42C1046.84,664.88,1046.78,664.89,1046.71,664.89z"/>
			<path class="st1" d="M1031.89,561.03c0.35,0,0.71,0.02,1.08,0.05c15.73,1.38,39.68-3.07,39.68,11.95l0,38.13
				c0,9.24-6.03,17.08-14.37,19.79l0.1,2l0.54,11.02l-12.2,20.01l-28.07-18.65l0.52-39.69c0,0-1.06,0.19-2.57,0.19
				c-3.72,0-10.16-1.12-10.16-8.91c0-7.57,4.4-9.12,8.02-9.12c2.53,0,4.68,0.76,4.68,0.76S1017.33,561.03,1031.89,561.03
				 M1031.9,559.19v1.83V559.19C1031.9,559.19,1031.89,559.19,1031.9,559.19c-3.35,0-6.2,1.24-8.49,3.68
				c-5.67,6.05-6.23,18.11-6.18,23.32c-0.81-0.14-1.77-0.25-2.77-0.25c-2.68,0-4.89,0.73-6.57,2.17c-2.18,1.88-3.29,4.84-3.29,8.79
				c0,6.73,4.49,10.74,12,10.74c0.25,0,0.49,0,0.71-0.01l-0.49,37.66c-0.01,0.62,0.3,1.21,0.82,1.55l28.07,18.65
				c0.3,0.2,0.66,0.31,1.02,0.31c0.13,0,0.27-0.01,0.4-0.04c0.49-0.11,0.91-0.41,1.17-0.84l12.2-20.01
				c0.19-0.31,0.28-0.68,0.27-1.04l-0.54-11.02l-0.03-0.64c8.61-3.4,14.31-11.69,14.31-21.06l0-38.13
				c0-13.38-15.78-13.42-29.71-13.45c-4.16-0.01-8.09-0.02-11.64-0.33C1032.71,559.21,1032.3,559.19,1031.9,559.19L1031.9,559.19z"
				/>
		</g>
		<g>
			<path class="st1" d="M1042.89,583.11c-0.26,0-0.52-0.11-0.7-0.32c-0.33-0.38-0.28-0.96,0.1-1.29c3.77-3.22,7.56-1.76,9.04-0.54
				c0.39,0.32,0.45,0.9,0.12,1.29c-0.32,0.39-0.9,0.45-1.29,0.13l0,0c-0.13-0.1-3.16-2.49-6.68,0.52
				C1043.31,583.04,1043.1,583.11,1042.89,583.11z"/>
		</g>
		<g>
			<path class="st1" d="M1069.73,583.02c-0.23,0-0.47-0.09-0.65-0.27c-0.13-0.13-2.93-2.77-6.7-0.1c-0.41,0.29-0.99,0.19-1.28-0.22
				c-0.29-0.41-0.19-0.99,0.22-1.28c4.05-2.86,7.69-1.05,9.05,0.3c0.36,0.36,0.36,0.94,0,1.3
				C1070.2,582.93,1069.96,583.02,1069.73,583.02z"/>
		</g>
		<g>
			<path class="st1" d="M1011.25,602.96c-0.29,0-0.58-0.14-0.76-0.4c-5.73-8.41,1.59-13.78,1.66-13.83c0.41-0.3,0.98-0.2,1.28,0.21
				c0.29,0.41,0.2,0.98-0.21,1.28c-0.25,0.18-5.92,4.4-1.21,11.31c0.29,0.42,0.18,0.99-0.24,1.27
				C1011.61,602.91,1011.43,602.96,1011.25,602.96z"/>
		</g>
		<g>
			<path class="st1" d="M1015.82,599c-0.3,0-0.6-0.15-0.77-0.42c-1.85-2.88-5.47-2.93-5.51-2.93c-0.51,0-0.91-0.41-0.91-0.92
				c0-0.51,0.41-0.91,0.92-0.91c0.19,0,4.65,0.04,7.05,3.78c0.27,0.43,0.15,0.99-0.28,1.27C1016.16,598.95,1015.99,599,1015.82,599z
				"/>
		</g>
		<path class="st1" d="M1048.2,589.39c0.08,1.47-0.52,2.69-1.34,2.74c-0.82,0.05-1.55-1.11-1.64-2.57
			c-0.08-1.47,0.52-2.69,1.34-2.74C1047.38,586.77,1048.12,587.92,1048.2,589.39z"/>
		<path class="st1" d="M1067.71,589.39c0.08,1.47-0.52,2.69-1.34,2.74c-0.82,0.05-1.55-1.11-1.64-2.57
			c-0.08-1.47,0.52-2.69,1.34-2.74C1066.9,586.77,1067.63,587.92,1067.71,589.39z"/>
		<path class="st1" d="M1049.8,673.68c0.08,1.47-0.52,2.69-1.34,2.74c-0.82,0.05-1.55-1.11-1.64-2.57
			c-0.08-1.47,0.52-2.69,1.34-2.74C1048.99,671.06,1049.72,672.21,1049.8,673.68z"/>
		<path class="st1" d="M1049.8,684.16c0.08,1.47-0.52,2.69-1.34,2.74c-0.82,0.05-1.55-1.11-1.64-2.57
			c-0.08-1.47,0.52-2.69,1.34-2.74C1048.99,681.55,1049.72,682.7,1049.8,684.16z"/>
		<g>
			<path class="st1" d="M1055.1,609.22c-0.45,0-0.84-0.33-0.91-0.78c-0.08-0.5,0.27-0.97,0.77-1.04c0.95-0.14,1.66-0.61,2.18-1.42
				c2.09-3.29,0.41-11.22-0.41-14c-0.14-0.49,0.13-1,0.62-1.14c0.48-0.14,1,0.13,1.14,0.62c0.13,0.44,3.17,10.84,0.2,15.51
				c-0.81,1.27-1.97,2.03-3.46,2.25C1055.19,609.22,1055.14,609.22,1055.1,609.22z"/>
		</g>
		<path class="st1" d="M1024.41,580.15l-0.76,10.4c0,0-4.3-2.39-8.04-2.89c0,0-1.07-15.97-0.92-22.11
			c0.23-9.8,1.25-20.23,32.99-22.57c37.03-2.73,32.96,22.95,28.35,27.83c-4.51,4.77-19.33,4.36-27.3,2.32
			c-3.63-0.93-6.92-2.66-10.33-3.49C1031.55,567.98,1024.89,573.11,1024.41,580.15z"/>
		<g>
			<path class="st1" d="M1033.64,677.74c-0.03,0-0.05,0-0.08,0c-0.27-0.02-0.51-0.16-0.67-0.37l-22.69-31.21
				c-0.3-0.41-0.21-0.98,0.2-1.28c0.41-0.3,0.98-0.21,1.28,0.2l22.07,30.35l12.31-12.11c0.33-0.32,0.84-0.35,1.2-0.08l12.71,9.68
				l9.12-27c0.16-0.48,0.68-0.74,1.16-0.58c0.48,0.16,0.74,0.68,0.58,1.16l-9.53,28.21c-0.09,0.28-0.32,0.5-0.6,0.58
				c-0.28,0.08-0.59,0.03-0.82-0.15l-13.09-9.97l-12.5,12.3C1034.11,677.65,1033.88,677.74,1033.64,677.74z"/>
		</g>
		<g>
			<path class="st0" d="M1190.49,755.46l-21.84,2.83l-7.01,4.27l-14.41,10.22c-2.07,1.47-2.7,4.26-1.46,6.48l0,0
				c1,1.78,2.98,2.77,5,2.5l3.91-0.52l5.54,7.79c2.17,3.05,3.17,4.73,6.79,3.75l27.76-9.85L1190.49,755.46z"/>
			<path class="st1" d="M1165.2,793.95c-2.61,0-3.85-1.76-5.46-4.02l-5.49-7.72l-3.36,0.45c-2.41,0.32-4.74-0.84-5.92-2.96
				c-1.47-2.63-0.73-5.93,1.73-7.67l14.41-10.22l7.06-4.3c0.11-0.07,0.23-0.11,0.36-0.13l21.84-2.83c0.49-0.07,0.95,0.28,1.02,0.77
				l4.28,27.46c0.07,0.44-0.18,0.86-0.6,1.01l-27.76,9.85C1166.52,793.85,1165.82,793.95,1165.2,793.95z M1154.68,780.31
				c0.29,0,0.57,0.14,0.75,0.39l5.81,8.17c1.95,2.75,2.68,3.78,5.53,3.02l26.98-9.57l-4.02-25.83l-20.76,2.69l-6.84,4.17
				l-14.35,10.19c-1.69,1.2-2.21,3.47-1.19,5.28c0.82,1.46,2.42,2.26,4.08,2.04l3.91-0.52
				C1154.6,780.32,1154.64,780.31,1154.68,780.31z"/>
		</g>
		<g>
			<path class="st0" d="M1186.12,787.55l1.78-0.76c1.23-0.53,1.8-1.95,1.28-3.19l-0.44-1.04c-0.7-1.64-2.61-2.41-4.25-1.7
				l-0.29,0.12c-1.64,0.7-2.41,2.61-1.7,4.25l0.44,1.04C1183.46,787.51,1184.88,788.08,1186.12,787.55z"/>
			<path class="st1" d="M1185.23,788.63c-1.34,0-2.63-0.79-3.19-2.1l-0.34-0.79c-0.94-2.19,0.08-4.73,2.27-5.66
				c2.19-0.94,4.73,0.08,5.66,2.27l0.34,0.79c0.75,1.76-0.07,3.79-1.82,4.55l-1.56,0.67c0,0,0,0,0,0
				C1186.14,788.54,1185.68,788.63,1185.23,788.63z M1186.22,787.51h0.01H1186.22z M1185.67,781.56c-0.33,0-0.66,0.07-0.98,0.2
				c-1.26,0.54-1.84,2-1.3,3.25l0.34,0.79c0.35,0.83,1.31,1.21,2.14,0.86l1.57-0.67c0.83-0.35,1.21-1.31,0.86-2.14l-0.34-0.79
				c-0.26-0.61-0.74-1.08-1.36-1.33C1186.29,781.62,1185.98,781.56,1185.67,781.56z"/>
		</g>
		<g>
			<path class="st0" d="M1179.64,790.33l2.25-0.96c1.1-0.47,1.61-1.75,1.14-2.85l-0.54-1.27c-0.7-1.64-2.61-2.41-4.25-1.7
				l-0.29,0.12c-1.64,0.7-2.41,2.61-1.7,4.25l0.54,1.27C1177.26,790.29,1178.54,790.8,1179.64,790.33z"/>
			<path class="st1" d="M1178.84,791.39c-0.4,0-0.8-0.08-1.19-0.23c-0.79-0.32-1.41-0.92-1.75-1.71l-0.44-1.03
				c-0.45-1.06-0.47-2.23-0.04-3.3c0.43-1.07,1.25-1.91,2.31-2.36c2.19-0.93,4.73,0.08,5.66,2.27l0.44,1.03
				c0.69,1.62-0.06,3.5-1.68,4.2l-2.06,0.88C1179.69,791.3,1179.27,791.39,1178.84,791.39z M1179.42,784.24
				c-0.33,0-0.66,0.06-0.97,0.2c-0.61,0.26-1.08,0.74-1.33,1.36c-0.25,0.62-0.24,1.29,0.02,1.9l0.44,1.03
				c0.14,0.33,0.41,0.59,0.74,0.73c0.34,0.13,0.71,0.13,1.04-0.01c0,0,0,0,0,0l2.06-0.88c0.69-0.29,1.01-1.1,0.71-1.79l-0.44-1.03
				C1181.3,784.8,1180.39,784.24,1179.42,784.24z"/>
		</g>
		<g>
			<path class="st0" d="M1173.68,793.39l1.95-0.84c1.19-0.51,1.73-1.88,1.23-3.06l-0.48-1.12c-0.7-1.64-2.61-2.41-4.25-1.7
				l-0.29,0.12c-1.64,0.7-2.41,2.61-1.7,4.25l0.48,1.12C1171.12,793.35,1172.49,793.9,1173.68,793.39z"/>
			<path class="st1" d="M1172.82,794.47c-0.42,0-0.85-0.08-1.25-0.24c-0.83-0.33-1.49-0.97-1.84-1.8l-0.38-0.88
				c-0.94-2.19,0.08-4.73,2.27-5.66c2.19-0.93,4.73,0.08,5.66,2.27l0.38,0.88c0.35,0.83,0.36,1.74,0.03,2.57
				c-0.33,0.83-0.97,1.49-1.8,1.84l-1.74,0.75C1173.72,794.37,1173.27,794.47,1172.82,794.47z M1173.31,787.37
				c-0.32,0-0.65,0.06-0.97,0.2c-1.26,0.54-1.84,2-1.3,3.25l0.38,0.88c0.16,0.38,0.46,0.67,0.84,0.82c0.38,0.15,0.8,0.15,1.17-0.01
				c0,0,0,0,0,0l1.74-0.75c0.38-0.16,0.67-0.46,0.82-0.84c0.15-0.38,0.15-0.79-0.01-1.17l-0.38-0.88
				C1175.19,787.94,1174.28,787.37,1173.31,787.37z"/>
		</g>
		<g>
			<path class="st0" d="M1140.39,756.85l14.73-5.27c3.15-0.96,6.56-0.18,8.99,2.04l8.62,7.88c1.21,1.11,0.84,3.11-0.7,3.7
				l-0.36,0.14c-2.79,1.08-5.95,0.53-8.23-1.41l-5.7-4.87l2.54,4.46l-12.67,9.57c0,0-3.35,2.45-1.27,6.52
				c1.81,3.55,8.34,1.63,8.34,1.63c1.11,1.66,4.24,5.87,4.24,5.87l-17.95-2.2L1140.39,756.85z"/>
			<path class="st1" d="M1158.92,788.02c-0.04,0-0.07,0-0.11-0.01l-17.95-2.2c-0.45-0.06-0.8-0.44-0.81-0.89l-0.58-28.05
				c-0.01-0.39,0.24-0.75,0.61-0.88l14.73-5.27c3.48-1.06,7.26-0.2,9.92,2.22l8.62,7.88c0.81,0.74,1.17,1.82,0.96,2.89
				c-0.2,1.07-0.93,1.95-1.95,2.34l-0.36,0.14c-3.11,1.2-6.62,0.6-9.15-1.57l-1.73-1.48c0.17,0.39,0.06,0.85-0.29,1.11l-12.67,9.57
				c-0.28,0.21-2.66,2.13-1,5.37c1.42,2.78,7.21,1.18,7.27,1.17c0.38-0.11,0.8,0.04,1.02,0.37c1.09,1.62,4.18,5.79,4.21,5.83
				c0.22,0.29,0.24,0.69,0.06,1.01C1159.55,787.84,1159.24,788.02,1158.92,788.02z M1141.87,784.08l15.05,1.84
				c-0.84-1.15-1.92-2.62-2.63-3.65c-1.84,0.42-6.99,1.22-8.76-2.26c-1.92-3.77,0.17-6.67,1.54-7.68l12.02-9.07l-2.14-3.76
				c-0.22-0.39-0.13-0.88,0.21-1.16c0.34-0.28,0.84-0.28,1.18,0.01l5.7,4.87c2.02,1.73,4.82,2.21,7.3,1.25l0.36-0.14
				c0.43-0.16,0.72-0.52,0.81-0.97c0.08-0.45-0.06-0.89-0.4-1.2l-8.62-7.88c-2.18-1.99-5.28-2.69-8.1-1.83l-14.07,5.03
				L1141.87,784.08z"/>
		</g>
		<g>
			<path class="st0" d="M961.33,891.47c-0.76,5.34-2.02,8.14-2.28,10.25l-8.09,23.15c-0.57,2.22-1.51,6.73,2.05,8.11
				c2.27,0.88,4.02,0.42,5.05-1.59c-0.07,2.06-0.85,5.02,2.84,6.38l0,0c2.26,0.59,4.55-0.67,5.34-2.82
				c-0.35,2.26,1.04,4.47,3.3,5.06c2.41,0.62,4.87-0.82,5.5-3.24l6.45-23.1c0,0,0.31,1.44,4.75,6.69c2.22,2.62,10.37,2.68,5.37-8.2
				c-2.22-4.83-5.36-16.98-5.36-16.98L961.33,891.47z"/>
			<path class="st1" d="M970.71,941.07c-0.46,0-0.92-0.06-1.37-0.18c-1.79-0.46-3.15-1.77-3.73-3.41c-1.31,1.15-3.13,1.63-4.92,1.17
				c-2.96-1.09-3.57-3.06-3.64-4.83c-1.18,0.66-2.66,0.67-4.36,0.01c-3.01-1.17-3.88-4.26-2.61-9.2l8.08-23.13
				c0.12-0.89,0.38-1.85,0.72-3.05c0.49-1.78,1.11-3.99,1.55-7.11c0.03-0.24,0.16-0.46,0.36-0.61c0.2-0.15,0.44-0.21,0.68-0.17
				l24.94,3.69h0c0.36,0.06,0.66,0.33,0.76,0.69c0.32,1.24,3.23,12.29,5.3,16.81c3.13,6.82,1.18,9.37-0.26,10.29
				c-2.13,1.35-5.26,0.53-6.64-1.11c-1.88-2.22-3.04-3.79-3.76-4.88l-5.85,20.95c-0.36,1.39-1.25,2.56-2.5,3.3
				C972.61,940.81,971.66,941.07,970.71,941.07z M966.26,934.03c0.08,0,0.15,0.01,0.23,0.03c0.46,0.12,0.75,0.56,0.68,1.03
				c-0.29,1.83,0.84,3.57,2.63,4.03c0.93,0.24,1.9,0.1,2.72-0.38c0.83-0.49,1.41-1.27,1.66-2.2l6.46-23.12
				c0.11-0.41,0.52-0.68,0.91-0.67c0.42,0.01,0.78,0.31,0.87,0.72c0.01,0.02,0.49,1.49,4.55,6.29c0.85,1.01,2.98,1.55,4.26,0.74
				c1.59-1.01,1.44-3.92-0.42-7.97c-1.95-4.24-4.56-13.9-5.26-16.55l-23.44-3.47c-0.44,2.76-1,4.78-1.46,6.43
				c-0.32,1.17-0.58,2.1-0.68,2.88c-0.01,0.07-0.02,0.13-0.04,0.19l-8.09,23.15c-1.01,3.92-0.54,6.15,1.52,6.95
				c2.45,0.95,3.37-0.12,3.91-1.16c0.2-0.38,0.63-0.58,1.05-0.47c0.42,0.11,0.7,0.49,0.69,0.92c-0.01,0.28-0.03,0.57-0.05,0.87
				c-0.14,1.97-0.27,3.67,2.29,4.62c1.7,0.44,3.52-0.53,4.17-2.27C965.54,934.26,965.89,934.03,966.26,934.03z M959.06,901.72h0.01
				H959.06z"/>
		</g>
		<g>
			<path class="st1" d="M958.08,932.3c-0.11,0-0.22-0.02-0.33-0.06c-0.47-0.18-0.71-0.71-0.53-1.18l4.18-11.03
				c0.18-0.47,0.71-0.71,1.18-0.53c0.47,0.18,0.71,0.71,0.53,1.18l-4.18,11.03C958.8,932.08,958.45,932.3,958.08,932.3z"/>
		</g>
		<g>
			<path class="st1" d="M966.19,936.62c-0.11,0-0.22-0.02-0.33-0.06c-0.47-0.18-0.71-0.71-0.53-1.18l4.18-11.03
				c0.18-0.47,0.71-0.71,1.18-0.53c0.47,0.18,0.71,0.71,0.53,1.18l-4.18,11.03C966.91,936.4,966.56,936.62,966.19,936.62z"/>
		</g>
		<g>
			<line class="st2" x1="993.94" y1="885.48" x2="1006.42" y2="725.54"/>
			<path class="st1" d="M993.94,886.4c-0.02,0-0.05,0-0.07,0c-0.51-0.04-0.88-0.48-0.84-0.99l12.49-159.95
				c0.04-0.5,0.49-0.89,0.99-0.84c0.51,0.04,0.88,0.48,0.84,0.99l-12.49,159.95C994.81,886.04,994.41,886.4,993.94,886.4z"/>
		</g>
		<g>
			<path class="st1" d="M1055.94,619.85c-8.43,0-12.6-6.8-12.65-6.88c-0.26-0.43-0.12-1,0.32-1.26c0.43-0.26,1-0.12,1.26,0.31
				c0.22,0.37,5.53,8.92,16.68,4.95c0.48-0.17,1,0.08,1.17,0.56c0.17,0.48-0.08,1-0.56,1.17
				C1059.88,619.52,1057.8,619.85,1055.94,619.85z"/>
		</g>
	</g>
	<g>
		<g>
			<path class="st0" d="M1629.96,676.42c1.15-1.63,2.56-2.1,4.17-1.2c-0.98-1.38-2.85-3.05-0.94-5.64h0
				c1.28-1.42,3.41-1.6,4.92-0.49c-1.26-1.39-1.31-3.52-0.03-4.95c1.37-1.52,3.7-1.64,5.22-0.27l14.84,12.86
				c0,0-0.44-1.12,0.22-6.71c0.33-2.79,5.87-6.51,7.37,3.18c0.67,4.3,4.01,14.02,4.01,14.02l28.84,19.21l30.79-62.57l18.81,7.97
				l-32.98,82.33c-3.85,9.61-16.3,12.11-23.56,4.73l-37.26-37.88c-2.93-3.3-5.06-4.64-6.18-5.97l-15.98-12.16
				C1630.83,681.63,1628.15,678.97,1629.96,676.42z"/>
			<path class="st1" d="M1690.99,739.54l-37.3-37.92c-1.7-1.92-3.12-3.15-4.26-4.14c-0.77-0.67-1.38-1.2-1.87-1.76l-15.96-12.15
				c-3.17-2.86-3.98-5.44-2.4-7.68c0,0,0,0,0,0c0.83-1.17,1.8-1.85,2.85-2.01c-0.68-1.24-1.04-2.89,0.45-4.91
				c1-1.11,2.41-1.62,3.8-1.5c-0.26-1.37,0.1-2.83,1.1-3.93c1.7-1.89,4.62-2.04,6.5-0.35l13.19,11.43c0.02-1.07,0.12-2.58,0.37-4.69
				c0.21-1.81,2.05-3.86,4.2-3.9c0.02,0,0.04,0,0.06,0c1.46,0,3.98,0.94,4.93,7.05c0.58,3.75,3.26,11.76,3.87,13.57l27.71,18.46
				l30.33-61.63c0.22-0.44,0.73-0.63,1.18-0.44l18.81,7.97c0.46,0.19,0.68,0.72,0.49,1.19l-32.98,82.33
				c-1.92,4.8-6.1,8.28-11.17,9.3c-1.01,0.2-2.02,0.3-3.03,0.3C1697.81,744.11,1693.9,742.49,1690.99,739.54z M1729.82,645.05
				l-30.41,61.79c-0.12,0.24-0.33,0.41-0.58,0.48c-0.25,0.07-0.53,0.02-0.75-0.12l-28.84-19.21c-0.17-0.11-0.3-0.29-0.36-0.48
				c-0.35-1.01-3.4-10-4.04-14.16c-0.54-3.47-1.67-5.52-3.15-5.49c-1.14,0.02-2.29,1.3-2.41,2.28c-0.59,5.04-0.27,6.27-0.28,6.28
				c0.15,0.39,0.02,0.84-0.33,1.08c-0.34,0.24-0.81,0.22-1.13-0.06l-14.86-12.87c-1.14-1.02-2.9-0.93-3.92,0.21
				c-0.95,1.06-0.94,2.65,0.02,3.71c0.32,0.35,0.32,0.88,0,1.23c-0.32,0.35-0.85,0.4-1.23,0.12c-1.16-0.85-2.74-0.69-3.64,0.29
				c-1.19,1.62-0.58,2.57,0.52,3.99c0.15,0.2,0.3,0.39,0.43,0.58c0.25,0.35,0.22,0.83-0.07,1.15c-0.29,0.32-0.76,0.4-1.13,0.18
				c-0.77-0.43-1.81-0.72-2.97,0.93l0,0c-0.98,1.39-0.31,3.06,2.07,5.21l15.98,12.16c0.05,0.04,0.1,0.09,0.14,0.14
				c0.41,0.48,1,1,1.75,1.65c1.11,0.97,2.64,2.3,4.39,4.28l37.26,37.88c3.19,3.25,7.76,4.65,12.23,3.75
				c4.46-0.9,8.14-3.95,9.83-8.18l32.64-81.5L1729.82,645.05z"/>
		</g>
		<g>
			<path class="st0" d="M1786.72,1247.1c3.89,0,8.03-1.25,12.31-3.72l1.66-11.24l10.46-253.44l-63.02-3.09l35.4,256.53
				c0.04,0.32-0.08,0.64-0.34,0.84l-9.92,7.87C1774.79,1242.6,1779.39,1247.1,1786.72,1247.1z"/>
			<path class="st1" d="M1749.2,976.59l61,2.99l-10.42,252.53l-1.58,10.7c-4,2.24-7.86,3.38-11.47,3.38c-6.2,0-10.27-3.3-12.11-5.2
				l9.16-7.26c0.51-0.4,0.77-1.05,0.68-1.69L1749.2,976.59 M1747.08,974.65l35.55,257.63l-10.64,8.44c0,0,5.07,7.3,14.73,7.3
				c3.72,0,8.11-1.08,13.16-4.07l1.73-11.67l10.5-254.44L1747.08,974.65L1747.08,974.65z"/>
		</g>
		<path class="st1" d="M1771.99,1240.72c11.54,6.22,29.61-8.44,29.61-8.44l6.56,20.6l-57.07,1.25L1771.99,1240.72z"/>
		<g>
			<path class="st0" d="M1717.43,1247.1c3.89,0,8.03-1.25,12.31-3.72l1.66-11.24l10.46-253.44l-63.01-3.09l35.4,256.53
				c0.04,0.32-0.08,0.64-0.34,0.84l-9.92,7.87C1705.49,1242.6,1710.09,1247.1,1717.43,1247.1z"/>
			<path class="st1" d="M1679.9,976.59l61,2.99l-10.42,252.53l-1.58,10.7c-4,2.24-7.86,3.38-11.47,3.38c-6.2,0-10.27-3.3-12.11-5.2
				l9.16-7.26c0.51-0.4,0.77-1.05,0.68-1.69L1679.9,976.59 M1677.78,974.65l35.55,257.63l-10.64,8.44c0,0,5.07,7.3,14.73,7.3
				c3.72,0,8.11-1.08,13.16-4.07l1.73-11.67l10.5-254.44L1677.78,974.65L1677.78,974.65z"/>
		</g>
		<path class="st1" d="M1702.7,1240.72c11.54,6.22,29.61-8.44,29.61-8.44l6.56,20.6l-57.07,1.25L1702.7,1240.72z"/>
		<g>
			<path class="st2" d="M1774.78,805.17l1.73-7.03c0,0,12-61.36,20.77-113.12c3.43-20.23-10.38-39.34-30.65-42.49
				c-0.16-0.02-0.26-0.04-0.29-0.05c0,0-1.48,0-15.31,0c-5.36,0-18.04,1-20.92,1.59c-11.77,2.96-24.32,11.85-24.88,33
				c-0.05,1.84-0.06,5.41-0.02,10.23c-6.97,3.24-11.81,10.28-11.81,18.47c0,8.48,5.18,15.74,12.54,18.81
				c0.85,29.45,2.46,64.29,5.11,80.59h-0.19c-17.87,29.93-31.63,105.07-35.65,175.78h142.73
				C1817.96,980.95,1838.62,853.84,1774.78,805.17z"/>
			<path class="st1" d="M1674.56,981.58c-0.17-0.18-0.26-0.43-0.25-0.68c4.3-75.64,19-148.06,35.75-176.16
				c-2.87-18.3-4.37-57.34-5.01-79.54c-7.65-3.44-12.55-11-12.55-19.42c0-8.04,4.61-15.45,11.8-19.05c-0.03-4.47-0.02-7.9,0.02-9.68
				c0.63-24.03,16.29-31.53,25.61-33.87c3.09-0.63,15.91-1.61,21.11-1.61h15.31c0.04,0,0.09,0,0.13,0.01l0.3,0.05
				c10.06,1.56,18.88,6.97,24.83,15.23c5.94,8.25,8.28,18.3,6.58,28.32c-8.67,51.17-20.65,112.52-20.78,113.18l-1.59,6.45
				c32.86,25.43,42.84,71.87,45.41,106.43c2.79,37.54-2.31,69.54-2.36,69.85c-0.07,0.44-0.46,0.77-0.91,0.77h-142.73
				C1674.98,981.87,1674.74,981.77,1674.56,981.58z M1819.39,911.34c-2.56-34.34-12.47-80.51-45.17-105.44
				c-0.29-0.22-0.42-0.59-0.33-0.95l1.73-6.99c0.12-0.61,12.1-61.94,20.76-113.09c1.61-9.53-0.61-19.1-6.26-26.94
				c-5.66-7.86-14.05-13-23.62-14.49l-15.46-0.03c-5.38,0-18.02,1.01-20.7,1.56c-8.77,2.2-23.58,9.31-24.18,32.13
				c-0.05,1.84-0.05,5.46-0.02,10.19c0,0.36-0.2,0.69-0.53,0.84c-6.85,3.19-11.28,10.11-11.28,17.64c0,7.88,4.7,14.93,11.97,17.96
				c0.33,0.14,0.55,0.46,0.56,0.82c0.64,22.28,2.16,62.36,5.1,80.46c0.04,0.27-0.03,0.54-0.21,0.74c-0.09,0.1-0.19,0.18-0.31,0.24
				c-16.46,27.98-30.91,99.3-35.25,174.03h140.97C1817.92,974.95,1821.93,945.45,1819.39,911.34z"/>
		</g>
		<g>
			<path class="st1" d="M1730.73,816.16c-1.43-1.07-2.25-2.79-2.13-4.5c0.13-1.83,1.26-3.54,3.46-5.25c0.24-0.18,0.47-0.38,0.7-0.57
				c1.02-0.85,2.06-1.72,3.27-1.57c0.67,0.09,1.27,0.49,1.76,1.19c1.33,1.88,1.83,4.99,1.64,7.09c-0.13,1.4-0.6,2.55-1.37,3.33
				c-0.63,0.64-1.52,1.09-2.56,1.3c-0.4,0.08-0.81,0.12-1.22,0.12C1733,817.3,1731.73,816.9,1730.73,816.16z M1733.94,807.25
				c-0.24,0.2-0.49,0.41-0.75,0.61l0,0c-1.76,1.37-2.67,2.66-2.76,3.94c-0.08,1.07,0.47,2.21,1.39,2.89
				c0.9,0.67,2.14,0.93,3.33,0.69c0.47-0.09,1.13-0.31,1.61-0.79c0.59-0.6,0.79-1.53,0.85-2.21c0.16-1.75-0.29-4.42-1.31-5.86
				c-0.11-0.15-0.31-0.41-0.5-0.43c-0.02,0-0.03,0-0.05,0C1735.33,806.09,1734.57,806.73,1733.94,807.25z"/>
		</g>
		<g>
			<path class="st1" d="M1736.65,815.66c-1.35-1.24-1.99-3.19-1.97-5.97c0-0.3-0.01-0.6-0.01-0.9c-0.03-1.32-0.07-2.69,0.8-3.54
				c0.49-0.47,1.17-0.69,2.03-0.64c2.3,0.12,5.05,1.66,6.58,3.11c1.02,0.96,1.62,2.05,1.76,3.14c0.11,0.9-0.09,1.87-0.57,2.81
				c-0.79,1.53-2.19,2.7-3.77,3.12c-0.46,0.12-0.93,0.18-1.39,0.18C1738.82,816.97,1737.58,816.51,1736.65,815.66z M1736.75,806.56
				c-0.29,0.29-0.27,1.33-0.25,2.18c0.01,0.32,0.02,0.64,0.01,0.96l0,0c-0.02,2.23,0.43,3.74,1.37,4.61
				c0.79,0.73,2.02,1.01,3.13,0.71c1.08-0.29,2.06-1.1,2.61-2.18c0.22-0.43,0.46-1.08,0.38-1.75c-0.1-0.84-0.71-1.57-1.2-2.04
				c-1.27-1.21-3.65-2.52-5.41-2.61c-0.04,0-0.08,0-0.12,0C1737.09,806.43,1736.86,806.45,1736.75,806.56z"/>
		</g>
		<g>
			<path class="st0" d="M1772.81,585.57l-1.53-17.6l-21.34-10.06l-30.95,21.21l-0.62,26.44c-0.37,8.48,4.13,16.04,11.02,19.98
				l0.03-0.05l-0.03,18.38l0,0l1.19,25.24l36.09-25.34l5.31-38.89c0,0,14.93,3.97,14.85-9.76
				C1786.73,581.37,1772.81,585.57,1772.81,585.57"/>
			<path class="st1" d="M1730.16,669.93c-0.3-0.15-0.5-0.45-0.51-0.78l-1.19-25.28l0.03-17.78c-7.19-4.32-11.42-12.15-11.05-20.55
				l0.62-26.44c0.01-0.29,0.16-0.57,0.4-0.74l30.95-21.21c0.27-0.18,0.61-0.21,0.91-0.07l21.34,10.06c0.3,0.14,0.49,0.42,0.52,0.75
				l1.44,16.54c2.11-0.43,6.84-1.01,10.29,1.53c2.5,1.85,3.78,4.93,3.81,9.15c0.03,4.08-1.21,7.11-3.67,9.01
				c-3.71,2.87-9.1,2.27-11.32,1.86l-5.18,37.91c-0.03,0.25-0.17,0.48-0.38,0.63l-36.09,25.34c-0.16,0.11-0.34,0.17-0.53,0.17
				C1730.43,670.02,1730.29,669.99,1730.16,669.93z M1771.05,604.75c0.04-0.26,0.18-0.49,0.4-0.64c0.22-0.15,0.49-0.19,0.74-0.12
				c0.07,0.02,6.77,1.75,10.74-1.32c1.99-1.54,2.98-4.08,2.96-7.55c-0.02-3.61-1.05-6.19-3.06-7.68c-3.72-2.75-9.7-1.01-9.76-0.99
				c-0.26,0.08-0.55,0.04-0.78-0.12c-0.23-0.15-0.38-0.4-0.4-0.68l-1.48-17.08l-20.39-9.61l-30.13,20.64l-0.61,25.99
				c-0.34,7.79,3.6,15.03,10.29,18.99c0.03,0,0.05,0.01,0.08,0.02c0.4,0.11,0.68,0.47,0.68,0.89l-0.04,18.33l1.11,23.57l34.39-24.15
				L1771.05,604.75z"/>
		</g>
		<g>
			<path class="st1" d="M1751.04,584.12c0.25,0,0.49-0.1,0.68-0.3c0.34-0.37,0.32-0.95-0.06-1.3c-3.9-3.58-7.9-1.75-9.47-0.28
				c-0.37,0.35-0.39,0.93-0.04,1.3c0.34,0.37,0.92,0.39,1.29,0.04c0.34-0.31,3.43-2.97,6.97,0.29
				C1750.59,584.04,1750.82,584.12,1751.04,584.12z"/>
		</g>
		<g>
			<path class="st1" d="M1722.88,582.62c0.23,0,0.45-0.08,0.63-0.25c2.51-2.36,4.95-0.5,5.21-0.28c0.39,0.32,0.97,0.26,1.29-0.13
				c0.32-0.39,0.27-0.96-0.12-1.29c-1.33-1.11-4.65-2.46-7.64,0.36c-0.37,0.35-0.39,0.93-0.04,1.3
				C1722.4,582.53,1722.64,582.62,1722.88,582.62z"/>
		</g>
		<g>
			<path class="st1" d="M1744.48,629.54c0.49,0,0.89-0.38,0.92-0.88c0.02-0.51-0.37-0.93-0.88-0.96l-5.2-0.23
				c-3.38-0.15-6.57-1.07-9.48-2.73c-0.44-0.25-1-0.1-1.25,0.34c-0.25,0.44-0.1,1,0.34,1.25c3.17,1.81,6.64,2.81,10.31,2.97
				l5.2,0.23C1744.45,629.54,1744.46,629.54,1744.48,629.54z"/>
		</g>
		<g>
			<path class="st1" d="M1751.04,592.46c0.12,0,0.24-0.02,0.35-0.07c0.47-0.2,0.69-0.73,0.49-1.2c-0.06-0.15-1.6-3.74-4.58-4.38
				c-1.68-0.36-3.4,0.28-5.12,1.89c-0.37,0.35-0.39,0.93-0.04,1.3c0.35,0.37,0.93,0.39,1.3,0.04c1.25-1.18,2.43-1.66,3.48-1.43
				c2.01,0.43,3.26,3.26,3.27,3.29C1750.34,592.25,1750.68,592.46,1751.04,592.46z"/>
		</g>
		<g>
			<path class="st1" d="M1729.31,591.57c0.12,0,0.24-0.02,0.35-0.07c0.47-0.2,0.69-0.73,0.49-1.2c-0.06-0.15-1.6-3.74-4.58-4.38
				c-1.68-0.36-3.4,0.28-5.12,1.89c-0.37,0.35-0.39,0.93-0.04,1.3c0.35,0.37,0.93,0.39,1.3,0.04c1.25-1.18,2.43-1.66,3.48-1.43
				c2.01,0.43,3.26,3.26,3.27,3.29C1728.61,591.36,1728.95,591.57,1729.31,591.57z"/>
		</g>
		<g>
			<path class="st1" d="M1781.36,601.18c0.31,0,0.62-0.16,0.79-0.45c1.82-3.1,2.33-5.9,1.52-8.33c-1.07-3.21-4.06-4.49-4.19-4.55
				c-0.47-0.2-1,0.02-1.2,0.49c-0.2,0.47,0.02,1,0.49,1.2l0,0c0.02,0.01,2.37,1.04,3.16,3.45c0.62,1.9,0.16,4.19-1.37,6.8
				c-0.26,0.44-0.11,1,0.33,1.26C1781.04,601.14,1781.2,601.18,1781.36,601.18z"/>
		</g>
		<g>
			<path class="st1" d="M1776,597.68c0.23,0,0.46-0.08,0.63-0.25c0.03-0.03,3.08-2.9,6.42-3.29c0.5-0.06,0.86-0.51,0.81-1.02
				c-0.06-0.5-0.51-0.86-1.02-0.81c-3.96,0.45-7.34,3.65-7.48,3.78c-0.37,0.35-0.38,0.93-0.03,1.3
				C1775.52,597.59,1775.76,597.68,1776,597.68z"/>
		</g>
		<g>
			<path class="st1" d="M1741.06,806.26c9.44,0,20.83-0.04,33.73-0.17c0.51-0.01,0.91-0.42,0.91-0.93
				c-0.01-0.51-0.42-0.91-0.93-0.91c-38.5,0.39-63.45,0.01-63.7,0c0,0-0.01,0-0.01,0c-0.5,0-0.91,0.4-0.92,0.9
				c-0.01,0.51,0.4,0.92,0.9,0.93C1711.21,806.09,1722.31,806.26,1741.06,806.26z"/>
		</g>
		<g>
			<path class="st1" d="M1741.29,724.73c3.44,0,7.31-0.65,11.61-2.28c0.47-0.18,0.71-0.71,0.53-1.18c-0.18-0.47-0.71-0.71-1.18-0.53
				c-19.59,7.43-29.16-6.3-29.56-6.89c-0.28-0.42-0.85-0.53-1.27-0.25c-0.42,0.28-0.53,0.85-0.25,1.27
				C1721.26,715,1728,724.73,1741.29,724.73z"/>
		</g>
		<path class="st1" d="M1729.31,614.76c0,0,9.71,1.11,15.36-3.62c0,0-1.03,7.23-5.76,8.9
			C1734.18,621.71,1729.31,614.76,1729.31,614.76z"/>
		<g>
			<path class="st1" d="M1731.39,608.02c0.25,0,0.49-0.1,0.67-0.29c0.34-0.37,0.32-0.95-0.05-1.3c-0.51-0.47-1.83-2-1.79-3.33
				c0.05-1.41,2.82-1.93,2.85-1.94c0.37-0.06,0.67-0.34,0.75-0.71l2.09-9.61c0.11-0.49-0.21-0.98-0.7-1.09
				c-0.5-0.11-0.98,0.21-1.09,0.7l-1.96,9.03c-1.59,0.41-3.69,1.49-3.76,3.56c-0.08,2.45,2.28,4.65,2.38,4.74
				C1730.95,607.94,1731.17,608.02,1731.39,608.02z"/>
		</g>
		<path class="st1" d="M1719.19,564.72c0.39-8.88,6.07-16.69,14.47-19.83c3.83-1.43,8.39-2.56,13.63-2.86
			c-0.26-1.43-0.4-2.91-0.4-4.42c0-13.57,11-24.57,24.57-24.57c13.57,0,24.57,11,24.57,24.57c0,3.72-0.83,7.25-2.31,10.41
			c1.08,1.83,1.71,3.96,1.71,6.24c0,6.03-4.34,11.03-10.06,12.09c0.02,0.55,0.02,1.11-0.01,1.67l-0.88,20.03
			c-4-4.53-11.81-1.16-11.81-1.16c-16.59-9.66-18.81-21.83-18.81-21.83s-17.82,16.55-36.32,15.73L1719.19,564.72z"/>
		<g>
			<path class="st1" d="M1653.33,692c0.03,0,0.07,0,0.1-0.01c0.5-0.05,0.87-0.5,0.82-1.01c-0.99-9.3,4.4-13.48,4.45-13.52
				c0.4-0.31,0.49-0.88,0.18-1.28c-0.31-0.4-0.88-0.48-1.28-0.18c-0.26,0.19-6.26,4.85-5.17,15.18
				C1652.47,691.65,1652.87,692,1653.33,692z"/>
		</g>
		<g>
			<path class="st1" d="M1641.97,681.79c0.29,0,0.57-0.13,0.75-0.38c0.3-0.41,0.2-0.98-0.21-1.28l-7.84-5.64
				c-0.41-0.3-0.98-0.2-1.28,0.21c-0.3,0.41-0.2,0.98,0.21,1.28l7.84,5.64C1641.6,681.73,1641.79,681.79,1641.97,681.79z"/>
		</g>
		<g>
			<path class="st1" d="M1645.56,675.17c0.29,0,0.57-0.13,0.75-0.38c0.3-0.41,0.2-0.98-0.21-1.28l-7.84-5.65
				c-0.41-0.3-0.98-0.2-1.28,0.21c-0.3,0.41-0.2,0.98,0.21,1.28l7.84,5.65C1645.19,675.12,1645.37,675.17,1645.56,675.17z"/>
		</g>
		<g>
			<path class="st0" d="M1634.44,695.92c-1.33-1.05-3.59-2.12-2.49-5.15l0,0c0.83-1.73,2.82-2.5,4.58-1.86
				c-1.6-0.97-2.25-3.01-1.42-4.74c0.88-1.84,3.09-2.61,4.93-1.73l17.87,8.16c0,0-0.74-0.96-1.68-6.5c-0.47-2.77,3.8-7.9,7.97,0.97
				c1.85,3.94,7.8,12.32,7.8,12.32l49.93,15.22l34.81-55.95c5.34-8.59,16.52-11.42,25.3-6.41c9.05,5.16,12.18,16.69,6.99,25.72
				l-34.6,60.26c-5.09,8.86-15.64,14.52-25.31,11.22c-37.04-12.65-67.98-32.49-67.98-32.49c-3.74-2.34-6.16-3.03-7.61-3.99
				l-18.76-7.16c-1.69-0.81-5.01-2.61-3.99-5.57C1631.43,696.36,1632.64,695.51,1634.44,695.92z"/>
			<path class="st1" d="M1728.83,748.31c-36.72-12.54-67.87-32.38-68.17-32.58c-2.18-1.36-3.88-2.15-5.25-2.78
				c-0.93-0.42-1.67-0.76-2.29-1.17l-18.74-7.15c-3.85-1.85-5.35-4.1-4.46-6.69c0.47-1.36,1.21-2.28,2.17-2.73
				c-1.01-1-1.82-2.47-0.95-4.84c0.64-1.34,1.85-2.23,3.22-2.51c-0.64-1.24-0.7-2.74-0.05-4.08c1.1-2.29,3.86-3.26,6.14-2.17
				l15.87,7.25c-0.28-1.03-0.61-2.51-0.97-4.6c-0.31-1.8,0.88-4.29,2.93-4.93c1.39-0.43,4.11-0.32,6.78,5.36
				c1.61,3.43,6.44,10.37,7.54,11.93l48.96,14.92l34.43-55.36c5.63-9.04,17.28-12,26.53-6.72c4.59,2.62,7.88,6.87,9.26,11.96
				c1.39,5.1,0.7,10.43-1.93,15.01l-34.6,60.26c-4.5,7.83-12.6,12.6-20.47,12.6C1732.75,749.28,1730.75,748.97,1728.83,748.31z
				 M1757.52,657.15l-34.81,55.96c-0.22,0.35-0.65,0.51-1.05,0.39l-49.93-15.22c-0.19-0.06-0.38-0.2-0.49-0.37
				c-0.62-0.87-6.08-8.65-7.87-12.44c-1.49-3.17-3.2-4.81-4.57-4.38c-1.08,0.34-1.84,1.89-1.67,2.87c0.85,5.01,1.51,6.1,1.5,6.1
				c0.26,0.33,0.25,0.8-0.01,1.13c-0.26,0.33-0.72,0.44-1.1,0.26l-17.88-8.17c-1.38-0.66-3.04-0.08-3.7,1.3
				c-0.62,1.28-0.16,2.81,1.07,3.56c0.4,0.25,0.55,0.76,0.35,1.18c-0.2,0.42-0.7,0.63-1.14,0.46c-1.35-0.49-2.83,0.11-3.41,1.31
				c-0.69,1.89,0.17,2.63,1.62,3.68c0.2,0.15,0.4,0.29,0.58,0.43c0.34,0.27,0.45,0.73,0.26,1.12c-0.19,0.39-0.61,0.6-1.03,0.5
				c-0.86-0.2-1.94-0.18-2.59,1.72c-0.55,1.61,0.57,3.03,3.45,4.41l18.76,7.16c0.06,0.02,0.12,0.05,0.18,0.09
				c0.53,0.35,1.24,0.67,2.14,1.09c1.34,0.62,3.18,1.46,5.47,2.89c0.31,0.2,31.27,19.92,67.78,32.39c8.58,2.93,19-1.71,24.22-10.8
				l34.6-60.26c2.39-4.15,3.01-8.99,1.75-13.61c-1.26-4.62-4.24-8.48-8.4-10.85c-2.81-1.61-5.87-2.37-8.89-2.37
				C1766.72,648.68,1760.91,651.69,1757.52,657.15z"/>
		</g>
		<g>
			<path class="st1" d="M1643.56,700.05c0.38,0,0.73-0.24,0.87-0.61c0.17-0.48-0.08-1-0.56-1.17l-9.11-3.21
				c-0.48-0.17-1,0.08-1.17,0.56c-0.17,0.48,0.08,1,0.56,1.17l9.11,3.21C1643.35,700.03,1643.45,700.05,1643.56,700.05z"/>
		</g>
		<g>
			<path class="st1" d="M1645.14,692.69c0.38,0,0.73-0.24,0.87-0.61c0.17-0.48-0.08-1-0.56-1.17l-9.11-3.21
				c-0.48-0.17-1,0.08-1.17,0.56c-0.17,0.48,0.08,1,0.56,1.17l9.11,3.21C1644.93,692.68,1645.03,692.69,1645.14,692.69z"/>
		</g>
		<g>
			<path class="st1" d="M1725.2,721.39c0.12,0,0.24-0.02,0.35-0.07c0.47-0.19,0.69-0.73,0.49-1.2l-3.27-7.86
				c-0.19-0.47-0.73-0.69-1.2-0.49c-0.47,0.19-0.69,0.73-0.49,1.2l3.27,7.86C1724.5,721.18,1724.84,721.39,1725.2,721.39z"/>
		</g>
	</g>
</g>
</svg>
