<?xml version="1.0" encoding="utf-8"?>
<!-- Generator: Adobe Illustrator 24.2.0, SVG Export Plug-In . SVG Version: 6.00 Build 0)  -->
<svg version="1.1" id="_1" xmlns="http://www.w3.org/2000/svg" xmlns:xlink="http://www.w3.org/1999/xlink" x="0px" y="0px"
	 viewBox="0 0 1160 1345.05" style="enable-background:new 0 0 1160 1345.05;" xml:space="preserve">
<style type="text/css">
	.st0{clip-path:url(#SVGID_2_);}
	.st1{fill:#32C787;}
	.st2{fill:#404040;}
	.st3{fill:#FFFFFF;}
	.st4{fill:#CCCCCC;}
</style>
<g>
	<g>
		<defs>
			<rect id="SVGID_1_" x="0" y="0" width="1160" height="1345.05"/>
		</defs>
		<use xlink:href="#SVGID_1_"  style="overflow:visible;fill:#FFFFFF;"/>
		<clipPath id="SVGID_2_">
			<use xlink:href="#SVGID_1_"  style="overflow:visible;"/>
		</clipPath>
		<g class="st0">
			<rect x="-1.18" y="1106.63" class="st1" width="1171.8" height="243.16"/>
			<g>
				<g>
					<path class="st2" d="M1193.81,1108.19h-2463.99c-0.83,0-1.5-0.67-1.5-1.5c0-0.83,0.67-1.5,1.5-1.5h2463.99
						c0.83,0,1.5,0.67,1.5,1.5C1195.31,1107.52,1194.64,1108.19,1193.81,1108.19z"/>
				</g>
				<g>
					<g>
						<g>
							<path class="st2" d="M-1124.01,1108.19c-0.83,0-1.5-0.67-1.5-1.5V-4.07c0-0.83,0.67-1.5,1.5-1.5c0.83,0,1.5,0.67,1.5,1.5
								v1110.77C-1122.51,1107.52-1123.18,1108.19-1124.01,1108.19z"/>
						</g>
						<g>
							<path class="st2" d="M-851.13,1108.19c-0.83,0-1.5-0.67-1.5-1.5V-4.07c0-0.83,0.67-1.5,1.5-1.5s1.5,0.67,1.5,1.5v1110.77
								C-849.64,1107.52-850.31,1108.19-851.13,1108.19z"/>
						</g>
					</g>
					<g>
						<g>
							<path class="st2" d="M-572.16,1108.19c-0.83,0-1.5-0.67-1.5-1.5V-4.07c0-0.83,0.67-1.5,1.5-1.5s1.5,0.67,1.5,1.5v1110.77
								C-570.67,1107.52-571.34,1108.19-572.16,1108.19z"/>
						</g>
						<g>
							<path class="st2" d="M-293.19,1108.19c-0.83,0-1.5-0.67-1.5-1.5V-4.07c0-0.83,0.67-1.5,1.5-1.5s1.5,0.67,1.5,1.5v1110.77
								C-291.69,1107.52-292.36,1108.19-293.19,1108.19z"/>
						</g>
					</g>
					<g>
						<g>
							<path class="st2" d="M-11.86,1108.19c-0.83,0-1.5-0.67-1.5-1.5V-4.07c0-0.83,0.67-1.5,1.5-1.5s1.5,0.67,1.5,1.5v1110.77
								C-10.36,1107.52-11.03,1108.19-11.86,1108.19z"/>
						</g>
						<g>
							<path class="st2" d="M261.01,1108.19c-0.83,0-1.5-0.67-1.5-1.5V-4.07c0-0.83,0.67-1.5,1.5-1.5c0.83,0,1.5,0.67,1.5,1.5
								v1110.77C262.51,1107.52,261.84,1108.19,261.01,1108.19z"/>
						</g>
					</g>
					<g>
						<g>
							<path class="st2" d="M539.99,1108.19c-0.83,0-1.5-0.67-1.5-1.5V-4.07c0-0.83,0.67-1.5,1.5-1.5s1.5,0.67,1.5,1.5v1110.77
								C541.48,1107.52,540.81,1108.19,539.99,1108.19z"/>
						</g>
					</g>
					<g>
						<g>
							<path class="st2" d="M805.28,1109.25c-0.83,0-1.5-0.67-1.5-1.5V-3.02c0-0.83,0.67-1.5,1.5-1.5c0.83,0,1.5,0.67,1.5,1.5
								v1110.77C806.78,1108.58,806.11,1109.25,805.28,1109.25z"/>
						</g>
						<g>
							<path class="st2" d="M1078.15,1109.25c-0.83,0-1.5-0.67-1.5-1.5V-3.02c0-0.83,0.67-1.5,1.5-1.5c0.83,0,1.5,0.67,1.5,1.5
								v1110.77C1079.65,1108.58,1078.98,1109.25,1078.15,1109.25z"/>
						</g>
					</g>
				</g>
				<g>
					<path class="st2" d="M1193.81,443.38h-2463.99c-0.83,0-1.5-0.67-1.5-1.5c0-0.83,0.67-1.5,1.5-1.5h2463.99
						c0.83,0,1.5,0.67,1.5,1.5C1195.31,442.71,1194.64,443.38,1193.81,443.38z"/>
				</g>
			</g>
			<g>
				<g>
					<path class="st1" d="M653.01,291.5c-5.36-12.32-32.39-72.82-56.24-97.43c-36.14-37.29-98.62-45.5-106.61-46.4
						c0.26-3.56,1.7-18.18,8.44-32.61c10.26-22.01,27.3-33.17,50.63-33.17c2.62,0,5.36,0.15,8.14,0.43
						c35.54,3.7,66.92,22.37,86.1,51.24C668.97,171.96,672.26,226.53,653.01,291.5z"/>
					<path class="st2" d="M549.23,81.01v1.74h0c2.59,0,5.3,0.14,8.04,0.43c35.28,3.67,66.43,22.21,85.47,50.86
						c11.99,18.05,19.12,39.78,21.18,64.6c2.23,26.82-1.49,57.18-11.07,90.28c-7.11-16.21-32.38-71.66-55.46-95.47
						c-20.25-20.89-48.54-32.49-68.71-38.54c-17.86-5.36-32.71-7.44-37.59-8.03c0.4-4.58,2.06-18.14,8.31-31.52
						c4.44-9.51,10.3-17.07,17.42-22.47c8.87-6.73,19.77-10.15,32.4-10.15L549.23,81.01 M549.22,81.01
						c-57.19,0-59.99,67.43-59.99,67.43s68.22,6.32,106.91,46.23c26.68,27.53,57.02,99.37,57.02,99.37
						c43.78-144.37-30.55-205.81-95.71-212.59C554.59,81.16,551.85,81.01,549.22,81.01L549.22,81.01z"/>
				</g>
				<g>
					<path class="st1" d="M476.64,100.16c-50.59-21.88-108.19-30.83-161.4-16.47c-53.21,14.36-100.82,54.38-116.33,107.27
						c35.32,4.5,71.85-0.83,104.42-15.22c-0.55,6.83-13.15,17.46-13.15,17.46c4.98,3.07,62.94,0.5,67.49-0.07
						c19.13-2.4,38.08-6.16,56.68-11.22c18.6-5.06,36.85-11.43,54.56-19.05c9.11-3.92,18.08-8.17,26.89-12.75
						c6.02-3.13,19.27-7.55,21.93-14.33C524.29,119.1,487.09,104.68,476.64,100.16z"/>
					<path class="st2" d="M311.8,195.56c-10.98,0-20.11-0.41-22.08-1.62c-0.24-0.15-0.39-0.4-0.41-0.68
						c-0.02-0.28,0.09-0.55,0.31-0.73c0.11-0.1,10.52-8.94,12.52-15.33c-32.5,14.04-68.2,19.09-103.34,14.62
						c-0.25-0.03-0.48-0.17-0.62-0.39c-0.14-0.21-0.18-0.48-0.11-0.72c7.48-25.49,22.79-49.18,44.28-68.48
						c20.58-18.49,45.7-32.1,72.66-39.38c49.16-13.27,106.69-7.41,161.98,16.51c0.67,0.29,1.46,0.62,2.33,0.99
						c13.67,5.79,45.67,19.35,39.22,35.75c-2.22,5.64-10.78,9.49-17.65,12.58c-1.75,0.79-3.41,1.53-4.69,2.2
						c-8.76,4.56-17.83,8.86-26.94,12.78c-17.67,7.6-36.06,14.02-54.67,19.09c-18.63,5.07-37.74,8.85-56.8,11.24
						C354.77,194.37,330.58,195.56,311.8,195.56z M291.87,192.88c9.53,2.1,60.85-0.01,65.69-0.61c18.98-2.38,38.01-6.15,56.56-11.2
						c18.53-5.04,36.85-11.44,54.44-19.01c9.08-3.91,18.1-8.19,26.83-12.72c1.32-0.69,3-1.44,4.78-2.24
						c6.24-2.81,14.78-6.65,16.74-11.63c5.83-14.82-26.21-28.39-38.27-33.5c-0.88-0.37-1.67-0.71-2.35-1
						c-54.93-23.76-112.05-29.6-160.83-16.43c-55.33,14.94-100.52,56.35-115.42,105.69c35.05,4.28,70.62-1,102.93-15.28
						c0.28-0.13,0.61-0.09,0.86,0.09c0.25,0.18,0.39,0.47,0.36,0.78C303.72,181.74,295.04,190.03,291.87,192.88z"/>
				</g>
				<path class="st2" d="M515.21,139.16c123.12,63.84,430.69,296.27,391.48,1013.96l114.04,2.98c0,0,15.25-901.32-501.32-1028.1
					C512.49,126.31,508.89,135.89,515.21,139.16z"/>
				<g>
					<path class="st1" d="M568.86,547.97c-40-43.78-70.83-97.7-89.2-156.01c-18.49-58.71-24.08-121.01-16.16-180.17
						c3.82-28.53,14.96-77.23,46.64-82.72c1.51-0.26,3.03-0.39,4.51-0.39c23.96,0,39.59,33.68,49.93,55.97
						c1.23,2.65,2.37,5.12,3.45,7.33c15.86,32.84,26.73,67.58,32.32,103.27c2.92,18.63,4.34,35.67,4.34,52.1
						c0,17.94-1.02,30.32-1.91,39.11c-0.19,1.88-1.72,2.74-3.06,2.74c-1.19,0-2.18-0.63-2.71-1.72c-2.03-4.19-3.91-8.87-5.72-13.39
						c-1.74-4.33-3.54-8.8-5.48-12.88c-0.15-0.31-0.46-0.5-0.79-0.5c-0.11,0-0.22,0.02-0.33,0.07c-0.43,0.18-0.64,0.66-0.49,1.09
						C605.16,422.32,599.41,491.78,568.86,547.97z"/>
					<path class="st2" d="M514.65,129.55c23.4,0,38.89,33.38,49.14,55.47c1.22,2.63,2.38,5.12,3.45,7.35
						c15.82,32.76,26.67,67.43,32.25,103.03c2.91,18.59,4.33,35.58,4.33,51.96c0,17.89-1.02,30.26-1.9,39.03
						c-0.14,1.34-1.23,1.96-2.19,1.96c-0.5,0-1.4-0.16-1.92-1.23c-2.02-4.16-3.89-8.82-5.7-13.33c-1.74-4.34-3.55-8.83-5.5-12.93
						c-0.3-0.63-0.92-1-1.58-1c-0.22,0-0.44,0.04-0.66,0.13c-0.86,0.35-1.29,1.31-0.99,2.19c20.73,59.82,15.21,128.52-14.71,184.3
						c-39.51-43.53-69.98-96.99-88.18-154.77c-18.45-58.59-24.03-120.76-16.13-179.79c3.79-28.3,14.79-76.58,45.93-81.97
						C511.75,129.68,513.22,129.55,514.65,129.55 M514.65,127.8c-1.52,0-3.07,0.13-4.66,0.41c-33.17,5.75-43.8,56.83-47.36,83.46
						c-16.17,120.84,23.9,248.03,106.41,337.78c31.23-56.68,37.2-126.71,16-187.86c3.95,8.31,7.21,18.03,11.2,26.27
						c0.73,1.52,2.12,2.22,3.49,2.22c1.85,0,3.7-1.27,3.92-3.53c1.02-10.07,1.91-22.38,1.91-39.2c0-17.49-1.64-34.96-4.35-52.23
						c-5.63-35.91-16.6-70.79-32.4-103.52C558.78,170.82,542.09,127.8,514.65,127.8L514.65,127.8z"/>
				</g>
				<g>
					<path class="st1" d="M519.78,129.6c0,0-126.55-42.28-213.12,283.54C306.66,413.14,507.9,359.22,519.78,129.6z"/>
					<path class="st2" d="M306.66,414.01c-0.23,0-0.45-0.09-0.62-0.26c-0.22-0.22-0.31-0.54-0.23-0.84
						c21.83-82.17,48.18-148.1,78.31-195.94c23.29-36.98,48.68-63.06,75.49-77.51c34.98-18.85,60.19-10.78,60.44-10.7
						c0.37,0.12,0.62,0.48,0.59,0.87c-2.72,52.51-15.64,100.13-38.42,141.55c-18.22,33.14-42.76,62.4-72.92,86.96
						c-51.34,41.82-101.92,55.69-102.43,55.83C306.81,414,306.74,414.01,306.66,414.01z M505.17,128.72
						c-10.56,0-26.27,2.32-44.83,12.34C383.05,182.8,334.83,311.03,307.9,411.87c8.66-2.6,54.19-17.49,100.37-55.12
						c29.97-24.42,54.35-53.5,72.45-86.44c22.53-40.99,35.37-88.11,38.15-140.07C517.22,129.8,512.41,128.72,505.17,128.72z"/>
				</g>
				<g>
					<path class="st1" d="M519.78,129.6c0,0,148.66-18.62,192.44,149.38C712.21,278.98,579.85,295.85,519.78,129.6z"/>
					<path class="st2" d="M702.11,280.31c-12.96,0-36.89-1.84-63.92-12.87c-23.69-9.66-45.1-24.39-63.64-43.76
						c-23.15-24.19-41.86-55.75-55.6-93.79c-0.09-0.25-0.06-0.53,0.08-0.75c0.14-0.23,0.37-0.38,0.64-0.41
						c0.37-0.05,37.87-4.49,80.22,11.74c24.88,9.54,46.56,24.24,64.43,43.7c22.32,24.3,38.72,56.13,48.74,94.59
						c0.06,0.24,0.02,0.5-0.12,0.71c-0.14,0.21-0.36,0.34-0.61,0.38C712.21,279.86,708.49,280.31,702.11,280.31z M520.98,130.35
						c13.62,37.31,32.05,68.29,54.8,92.08c18.36,19.2,39.55,33.78,62.99,43.36c36.07,14.74,66.54,12.94,72.35,12.42
						c-9.97-37.74-26.14-68.98-48.08-92.86c-17.68-19.26-39.14-33.81-63.77-43.25C561.35,127.57,527.42,129.76,520.98,130.35z"/>
				</g>
				<g>
					<path class="st2" d="M322.25,392.87c-0.15,0-0.3-0.04-0.43-0.12c-0.42-0.24-0.56-0.77-0.32-1.19
						c69.49-120.85,179.2-255.08,180.3-256.42c0.3-0.37,0.85-0.43,1.23-0.12c0.37,0.31,0.43,0.86,0.12,1.23
						c-1.1,1.34-110.72,135.46-180.14,256.18C322.85,392.71,322.55,392.87,322.25,392.87z"/>
				</g>
				<g>
					<path class="st2" d="M562.54,516.07c-0.42,0-0.79-0.3-0.86-0.73c-18.12-105.72-38.5-325.53-38.7-327.73
						c-0.04-0.48,0.31-0.9,0.79-0.95c0.49-0.06,0.9,0.31,0.95,0.79c0.2,2.21,20.57,221.95,38.68,327.6
						c0.08,0.47-0.24,0.92-0.71,1.01C562.64,516.07,562.59,516.07,562.54,516.07z"/>
				</g>
				<g>
					<path class="st2" d="M694.91,264.72c-0.2,0-0.39-0.07-0.55-0.2L539.43,136.37c-0.37-0.31-0.42-0.86-0.12-1.23
						c0.31-0.37,0.86-0.42,1.23-0.12l154.92,128.15c0.37,0.31,0.42,0.86,0.12,1.23C695.41,264.61,695.16,264.72,694.91,264.72z"/>
				</g>
				<g>
					<path class="st2" d="M211.27,180.07c-0.27,0-0.53-0.12-0.7-0.35c-0.29-0.39-0.21-0.93,0.18-1.22
						c0.28-0.21,28.85-21.34,74.99-38.85c42.59-16.15,109.31-32.45,185.32-18.33c0.47,0.09,0.79,0.54,0.7,1.02
						c-0.09,0.47-0.54,0.78-1.02,0.7c-75.61-14.04-142.01,2.17-184.39,18.25c-45.92,17.42-74.29,38.4-74.57,38.61
						C211.64,180.01,211.45,180.07,211.27,180.07z"/>
				</g>
			</g>
			<ellipse class="st2" cx="280.3" cy="1156.1" rx="169.96" ry="24.05"/>
			<g>
				<g>
					<path class="st1" d="M214.78,1146.03c-2.13,0-9.59-5.68-16.02-78.78c-4.51-51.29-6.99-119.49-6.99-192.04
						c0-132.04,18.74-243.3,23.01-266.92c4.27,23.62,23.01,134.89,23.01,266.92c0,72.55-2.48,140.75-6.99,192.04
						C224.38,1140.35,216.92,1146.03,214.78,1146.03z"/>
					<path class="st2" d="M214.78,613.29c5.47,31.41,22.14,137.43,22.14,261.92c0,72.52-2.48,140.7-6.99,191.96
						c-6.78,77.1-14.81,77.99-15.15,77.99c-0.34,0-8.37-0.89-15.15-77.99c-4.51-51.27-6.99-119.44-6.99-191.96
						C192.64,750.72,209.32,644.7,214.78,613.29 M214.78,603.51c0,0-23.88,121.64-23.88,271.69c0,150.05,10.69,271.69,23.88,271.69
						c13.19,0,23.88-121.64,23.88-271.69C238.67,725.15,214.78,603.51,214.78,603.51L214.78,603.51z"/>
				</g>
				<g>
					<path class="st1" d="M216.74,1142.85c-0.07,0-0.13,0-0.2-0.01c-2.11-0.33-8.61-7.08-3.78-80.31
						c3.39-51.38,11.37-119.16,22.47-190.85c20.2-130.47,55.75-237.56,63.58-260.25c0.6,23.99,2.1,136.82-18.1,267.29
						C256.26,1036.72,227.89,1142.85,216.74,1142.85C216.74,1142.85,216.74,1142.85,216.74,1142.85z"/>
					<path class="st2" d="M298.06,616.37c0.6,31.88,0.85,139.18-18.2,262.22c-11,71.02-23.78,137.58-35.98,187.43
						c-18.08,73.83-26.26,75.96-27.14,75.96c-0.02,0-0.04,0-0.06-0.01c-0.33-0.05-8.14-2.16-3.04-79.39
						c3.39-51.35,11.37-119.1,22.47-190.77C255.15,748.8,287.85,646.58,298.06,616.37 M299.55,606.71c0,0-42.21,116.55-65.17,264.84
						c-22.96,148.29-31,270.13-17.97,272.15c0.11,0.02,0.22,0.03,0.33,0.03c13.19,0,42.07-117.82,64.84-264.87
						C304.54,730.57,299.55,606.71,299.55,606.71L299.55,606.71z"/>
				</g>
				<g>
					<path class="st1" d="M277.26,1142.07c-0.04,0-0.09,0-0.13-0.01c-1.16-0.18-6.73-4.07-2.82-63.18
						c2.68-40.54,8.98-94.03,17.74-150.61c15.67-101.21,43.05-184.6,49.84-204.4c0.49,20.93,1.36,108.69-14.31,209.9
						c-8.68,56.07-18.77,108.62-28.41,147.97C288.28,1126.21,280.71,1142.07,277.26,1142.07
						C277.26,1142.07,277.26,1142.07,277.26,1142.07z"/>
					<path class="st2" d="M341.11,728.87c0.43,27.52,0.24,110.26-14.39,204.76c-8.68,56.04-18.76,108.56-28.39,147.89
						c-14.45,58.99-20.8,59.67-21.05,59.67c-0.25-0.08-6.1-2.61-2.03-63.21c2.71-40.4,8.98-93.53,17.66-149.59
						C307.54,833.91,332.37,754.98,341.11,728.87 M342.62,719.11c0,0-33.32,91.99-51.44,209.02s-24.47,213.19-14.18,214.79
						c0.09,0.01,0.17,0.02,0.26,0.02c10.41,0,33.21-92.99,51.18-209.04C346.56,816.87,342.62,719.11,342.62,719.11L342.62,719.11z"
						/>
				</g>
				<g>
					<path class="st1" d="M255.95,1144.23c-1.17-0.07-7.09-3.4-8.91-62.62c-1.25-40.61-0.15-94.46,3.11-151.62
						c5.82-102.26,25.02-187.89,29.87-208.26c2.51,20.78,11.85,108.04,6.03,210.3c-3.24,56.97-8.24,110.47-14.07,150.64
						c-8.5,58.58-14.79,61.55-15.97,61.55L255.95,1144.23z"/>
					<path class="st2" d="M279.72,726.81c3.09,27.36,10.88,109.73,5.45,205.19c-3.23,56.64-8.19,109.9-13.98,149.98
						c-8.69,60.11-14.93,61.37-15.18,61.39c-0.26-0.05-6.32-2.01-8.13-62.72c-1.2-40.48-0.09-93.96,3.14-150.59
						C256.45,834.6,273.54,753.63,279.72,726.81 M280.28,716.94c0,0-24.28,94.78-31.01,213.01c-6.73,118.23-3.77,214.56,6.63,215.15
						c0.03,0,0.06,0,0.1,0c10.38,0,24.2-95.14,30.91-213.01C293.64,813.86,280.28,716.94,280.28,716.94L280.28,716.94z"/>
				</g>
				<g>
					<path class="st1" d="M211.96,1149.96c-0.9,0-6-2.25-17.49-46.67c-7.9-30.53-16.28-71.3-23.6-114.82
						c-12.95-76.99-13.43-144.09-13.29-162.15c6.04,17.02,27.56,80.58,40.51,157.57c7.4,43.95,12.84,85.52,15.34,117.06
						c3.71,46.79-0.86,48.92-1.39,49.01L211.96,1149.96z"/>
					<path class="st2" d="M158.43,831.41c7.65,22.16,26.86,81.69,38.8,152.62c7.19,42.74,12.57,83.48,15.15,114.69
						c3.56,43.2,0.19,49.5-0.5,50.31c-0.91-0.54-6.16-5.39-16.93-47.38c-7.78-30.34-16.03-70.58-23.22-113.33
						C159.79,917.39,158.45,854.85,158.43,831.41 M156.77,821.54c0,0-2.07,76.15,13.23,167.08c15.16,90.1,33.84,162.22,41.96,162.22
						c0.07,0,0.15-0.01,0.22-0.02c7.99-1.34,2.07-76.15-13.23-167.08C183.65,892.81,156.77,821.54,156.77,821.54L156.77,821.54z"/>
				</g>
				<g>
					<path class="st1" d="M274.22,1149.96c-0.07,0-0.13-0.01-0.18-0.03c-0.51-0.18-4.62-3.1,7.41-48.47
						c8.11-30.57,20.92-70.49,36.08-112.41c26.54-73.42,59.1-132.1,68.1-147.75c-3.1,17.79-15.59,83.72-42.14,157.14
						C310.72,1089.08,281.22,1149.96,274.22,1149.96z"/>
					<path class="st2" d="M383.87,846.15c-4.22,23.05-16.74,84.33-41.2,151.99c-14.74,40.76-30.07,78.88-43.16,107.33
						c-18.15,39.44-24.18,43.22-25.15,43.58c-0.53-0.92-2.73-7.7,8.53-49.59c8.13-30.25,20.72-69.35,35.46-110.12
						C342.81,921.7,372.38,866.57,383.87,846.15 M387.28,836.74c0,0-39.22,65.3-70.57,152.02c-31.35,86.71-50.59,159.24-42.97,162
						c0.15,0.05,0.31,0.08,0.48,0.08c8.39,0,39.36-67.09,70.09-152.1C375.66,912.02,387.28,836.74,387.28,836.74L387.28,836.74z"/>
				</g>
			</g>
			<g>
				<g>
					<path class="st1" d="M320.29,1164.59c-7.44,0-13.05-11.8-15.59-21.91c-5.76-22.9-10.51-45.97-14.11-68.54
						c-7.47-46.78-10.35-93.17-8.58-137.89c0.61-15.38,1.87-31.54,9.76-45.15c6.92-11.93,19.52-19.95,31.36-19.95
						c2.34,0,4.65,0.31,6.87,0.91c10.19,2.79,18.99,12.21,22.96,24.6c3.5,10.93,3.38,22.47,2.89,35.34
						c-2.56,67.1-9.98,134.96-17.15,200.59c-0.85,7.81-1.82,16.66-6.7,23.45C327.92,1161.71,323.98,1164.59,320.29,1164.59z"/>
					<path class="st2" d="M323.13,870.28v1.74c2.26,0,4.49,0.3,6.64,0.88c9.91,2.71,18.48,11.91,22.36,24.02
						c3.46,10.79,3.34,22.26,2.85,35.04c-2.56,67.06-9.97,134.91-17.14,200.52c-0.84,7.7-1.8,16.43-6.55,23.04
						c-3.91,5.43-7.61,8.18-11.01,8.18c-6.49,0-12.08-10.67-14.74-21.25c-5.75-22.88-10.5-45.91-14.1-68.47
						c-7.46-46.72-10.34-93.06-8.56-137.72c0.61-15.28,1.85-31.31,9.64-44.75c6.77-11.67,19.07-19.51,30.61-19.51L323.13,870.28
						 M323.13,870.28c-12.88,0-25.46,8.91-32.12,20.38c-7.88,13.58-9.25,29.87-9.88,45.55c-1.84,46.16,1.3,92.46,8.58,138.06
						c3.68,23.07,8.43,45.96,14.13,68.62c2.44,9.72,8.15,22.57,16.44,22.57c3.66,0,7.82-2.51,12.42-8.91
						c4.89-6.8,5.95-15.54,6.86-23.86c7.29-66.74,14.59-133.55,17.15-200.65c0.46-11.98,0.73-24.23-2.93-35.64
						c-3.66-11.41-12-22.02-23.56-25.18C327.88,870.58,325.5,870.28,323.13,870.28L323.13,870.28z"/>
				</g>
				<g>
					<path class="st1" d="M295.95,1054.41c-7.55,0-19.61-18.93-24.76-27.02c-0.97-1.52-1.74-2.73-2.29-3.54
						c-12.15-17.71-19.89-33.16-24.36-48.62c-1.85-6.39-3.98-15.86-1.2-24.36c2.48-7.57,9.48-13.28,16.28-13.28
						c0.54,0,1.07,0.03,1.61,0.1c9.05,1.13,14.48,10.65,18.19,18.82c14.65,32.2,21.8,58.72,22.51,83.46
						c0.1,3.33,0.08,7.16-1.35,10.42C299.39,1053.1,297.88,1054.41,295.95,1054.41z"/>
					<g>
						<path class="st2" d="M259.62,938.48L259.62,938.48c0.5,0,1,0.03,1.5,0.09c8.63,1.08,13.89,10.36,17.51,18.31
							c14.6,32.09,21.73,58.51,22.44,83.12c0.09,3.24,0.08,6.95-1.28,10.04c-1.53,3.49-3.26,3.49-3.83,3.49
							c-7.07,0-19.39-19.34-24.02-26.61c-0.97-1.53-1.74-2.74-2.31-3.56c-12.09-17.63-19.8-33-24.24-48.37
							c-1.82-6.28-3.92-15.58-1.2-23.84C246.54,943.93,253.18,938.48,259.62,938.48 M259.62,936.73c-7.7,0-14.66,6.42-17.11,13.88
							c-2.63,8.01-1.16,16.77,1.19,24.87c5.1,17.64,14.14,33.8,24.48,48.87c3.78,5.51,18.39,30.93,27.77,30.93
							c2.15,0,4.02-1.33,5.43-4.54c1.47-3.35,1.53-7.14,1.43-10.8c-0.84-29.11-10.54-57.28-22.59-83.79
							c-3.9-8.58-9.52-18.15-18.88-19.32C260.76,936.77,260.19,936.73,259.62,936.73L259.62,936.73z"/>
					</g>
				</g>
				<g>
					<path class="st2" d="M267.09,959.52c-0.08,0-0.15-0.01-0.23-0.03c-0.47-0.12-0.74-0.6-0.62-1.07l2.56-9.54
						c0.12-0.47,0.6-0.74,1.07-0.62c0.47,0.12,0.74,0.6,0.62,1.07l-2.56,9.54C267.83,959.26,267.48,959.52,267.09,959.52z"/>
				</g>
				<g>
					<path class="st2" d="M255.7,942.34c-0.38,0-0.72-0.25-0.84-0.62l-2.81-9.47c-0.14-0.46,0.13-0.95,0.59-1.08
						c0.46-0.14,0.95,0.13,1.08,0.59l2.81,9.47c0.14,0.46-0.13,0.95-0.59,1.08C255.87,942.33,255.78,942.34,255.7,942.34z"/>
				</g>
				<g>
					<path class="st2" d="M334.68,920.41c-0.07,0-0.15-0.01-0.23-0.03c-0.47-0.12-0.74-0.6-0.62-1.07l2.56-9.54
						c0.12-0.47,0.6-0.74,1.07-0.62c0.47,0.12,0.74,0.6,0.62,1.07l-2.56,9.54C335.42,920.15,335.07,920.41,334.68,920.41z"/>
				</g>
				<g>
					<path class="st2" d="M326.02,990.7c-0.07,0-0.15-0.01-0.23-0.03c-0.47-0.12-0.74-0.6-0.62-1.07l2.56-9.54
						c0.12-0.47,0.6-0.74,1.07-0.62c0.47,0.12,0.74,0.6,0.62,1.07l-2.56,9.54C326.76,990.45,326.41,990.7,326.02,990.7z"/>
				</g>
				<g>
					<path class="st2" d="M324.74,1115.01c-0.08,0-0.15-0.01-0.23-0.03c-0.47-0.12-0.74-0.6-0.62-1.07l2.56-9.54
						c0.12-0.47,0.6-0.74,1.07-0.62c0.47,0.12,0.74,0.6,0.62,1.07l-2.56,9.54C325.48,1114.75,325.13,1115.01,324.74,1115.01z"/>
				</g>
				<g>
					<path class="st2" d="M302.48,959.52c-0.08,0-0.15-0.01-0.23-0.03c-0.47-0.12-0.74-0.6-0.62-1.07l2.56-9.54
						c0.12-0.47,0.6-0.74,1.07-0.62c0.47,0.12,0.74,0.6,0.62,1.07l-2.56,9.54C303.22,959.26,302.87,959.52,302.48,959.52z"/>
				</g>
				<g>
					<path class="st2" d="M351.39,906.06c-0.19,0-0.37-0.06-0.53-0.18c-0.38-0.29-0.45-0.84-0.15-1.22l6.05-7.81
						c0.29-0.38,0.84-0.45,1.22-0.15c0.38,0.29,0.45,0.84,0.15,1.22l-6.05,7.81C351.91,905.94,351.66,906.06,351.39,906.06z"/>
				</g>
				<g>
					<path class="st2" d="M351.77,985.93c-0.16,0-0.33-0.05-0.48-0.14c-0.4-0.27-0.51-0.81-0.25-1.21l5.3-8.04
						c0.26-0.4,0.81-0.51,1.21-0.25c0.4,0.27,0.51,0.81,0.25,1.21l-5.3,8.04C352.33,985.79,352.05,985.93,351.77,985.93z"/>
				</g>
				<g>
					<path class="st2" d="M265.36,981.07c-0.2,0-0.4-0.07-0.56-0.2l-7.57-6.34c-0.37-0.31-0.42-0.86-0.11-1.23
						c0.31-0.37,0.86-0.42,1.23-0.11l7.57,6.34c0.37,0.31,0.42,0.86,0.11,1.23C265.86,980.96,265.61,981.07,265.36,981.07z"/>
				</g>
				<g>
					<path class="st2" d="M252.18,992.27c-0.2,0-0.4-0.07-0.56-0.2l-7.58-6.34c-0.37-0.31-0.42-0.86-0.11-1.23
						c0.31-0.37,0.86-0.42,1.23-0.11l7.58,6.34c0.37,0.31,0.42,0.86,0.11,1.23C252.67,992.17,252.43,992.27,252.18,992.27z"/>
				</g>
				<g>
					<path class="st2" d="M283.31,1021.91c-0.2,0-0.4-0.07-0.56-0.2l-7.58-6.34c-0.37-0.31-0.42-0.86-0.11-1.23
						c0.31-0.37,0.86-0.42,1.23-0.11l7.58,6.34c0.37,0.31,0.42,0.86,0.11,1.23C283.8,1021.81,283.56,1021.91,283.31,1021.91z"/>
				</g>
				<g>
					<path class="st2" d="M285.16,1006.95c-0.41,0-0.78-0.29-0.86-0.71l-1.85-9.7c-0.09-0.47,0.22-0.93,0.69-1.02
						c0.48-0.09,0.93,0.22,1.02,0.69l1.85,9.7c0.09,0.47-0.22,0.93-0.69,1.02C285.27,1006.94,285.21,1006.95,285.16,1006.95z"/>
				</g>
				<g>
					<path class="st2" d="M304.69,907c-0.41,0-0.78-0.29-0.86-0.71l-1.85-9.7c-0.09-0.47,0.22-0.93,0.69-1.02
						c0.48-0.09,0.93,0.22,1.02,0.69l1.85,9.7c0.09,0.47-0.22,0.93-0.69,1.02C304.8,907,304.74,907,304.69,907z"/>
				</g>
				<g>
					<path class="st2" d="M310.74,1080.85c-0.41,0-0.78-0.29-0.86-0.71l-1.85-9.7c-0.09-0.47,0.22-0.93,0.69-1.02
						c0.48-0.09,0.93,0.22,1.02,0.69l1.85,9.7c0.09,0.47-0.22,0.93-0.69,1.02C310.85,1080.85,310.79,1080.85,310.74,1080.85z"/>
				</g>
				<g>
					<path class="st2" d="M319.73,1036.45c-0.41,0-0.78-0.29-0.86-0.71l-1.85-9.7c-0.09-0.47,0.22-0.93,0.69-1.02
						c0.47-0.09,0.93,0.22,1.02,0.69l1.85,9.7c0.09,0.47-0.22,0.93-0.69,1.02C319.84,1036.44,319.79,1036.45,319.73,1036.45z"/>
				</g>
				<g>
					<path class="st2" d="M311.67,878.04c-0.41,0-0.78-0.29-0.86-0.71l-1.85-9.7c-0.09-0.47,0.22-0.93,0.69-1.02
						c0.48-0.09,0.93,0.22,1.02,0.69l1.85,9.7c0.09,0.47-0.22,0.93-0.69,1.02C311.77,878.04,311.72,878.04,311.67,878.04z"/>
				</g>
			</g>
			<g>
				<g>
					<path class="st1" d="M394.27,1036.5c0.64-10.19,0.8-21-4.26-29.87c-6.38-11.16-21.12-16.71-33.28-12.52
						c-10.39,3.58-17.85,13.12-21.53,23.48c-3.67,10.35-4.09,21.54-4.21,32.53c-0.36,31.82,1.46,64.1,11.43,94.32
						c2.07,6.27,4.66,12.68,9.65,17c21.43,18.52,27.09-32.14,30.08-44.56C388.51,1090.5,392.57,1063.58,394.27,1036.5z"/>
					<path class="st2" d="M360.8,1166.33c-2.91,0-6.03-1.42-9.29-4.24c-5.13-4.43-7.79-10.98-9.91-17.38
						c-10.75-32.58-11.78-67.67-11.47-94.6c0.13-11.32,0.55-22.36,4.26-32.81c4.15-11.71,12.4-20.68,22.06-24.01
						c12.62-4.35,27.69,1.33,34.32,12.91c5.22,9.13,5.02,20,4.37,30.35c-1.7,27.03-5.78,54.13-12.13,80.52
						c-0.41,1.68-0.87,4.13-1.41,6.95c-2.71,14.25-7.24,38.1-17.9,41.81C362.76,1166.17,361.79,1166.33,360.8,1166.33z
						 M365.12,993.62c-2.76,0-5.5,0.42-8.11,1.32c-9.16,3.16-17.01,11.73-20.99,22.94c-3.62,10.2-4.03,21.07-4.16,32.25
						c-0.3,26.8,0.72,61.7,11.39,94.04c2.03,6.17,4.58,12.45,9.39,16.61c3.87,3.34,7.39,4.49,10.48,3.42
						c9.71-3.38,14.29-27.52,16.76-40.49c0.54-2.85,1.01-5.31,1.42-7.04c6.33-26.29,10.4-53.28,12.09-80.22l0,0
						c0.63-10.09,0.83-20.66-4.15-29.38C384.5,998.76,374.71,993.62,365.12,993.62z"/>
				</g>
				<g>
					<path class="st1" d="M435.28,1064.43c6.24-7.04,12.63-14.36,15.51-23.31c2.88-8.95,1.3-20.06-6.24-25.68
						c-8-5.98-19.91-3.68-27.71,2.57c-7.79,6.24-12.43,15.51-16.83,24.47c-8.13,16.57-16.27,33.14-24.4,49.7
						c-2.76,5.63-5.58,11.5-5.65,17.77c-0.27,27.24,22.23,3.14,29.11-4.63C411.15,1091.68,423.22,1078.05,435.28,1064.43z"/>
					<path class="st2" d="M376.13,1123.44c-0.75,0-1.46-0.12-2.12-0.37c-3.37-1.3-4.98-5.6-4.9-13.14
						c0.07-6.59,3.08-12.73,5.74-18.14l24.4-49.7c4.21-8.57,8.98-18.29,17.07-24.77c7.73-6.19,20.09-9.07,28.77-2.58
						c8.37,6.26,9.26,18.2,6.55,26.65c-2.99,9.28-9.74,16.9-15.69,23.63l-36.19,40.88C392.41,1114.16,382.72,1123.44,376.13,1123.44
						z M433.18,1012.82c-5.02,0-10.63,1.73-15.79,5.85c-7.79,6.24-12.46,15.77-16.59,24.18l-24.4,49.7
						c-2.58,5.25-5.5,11.2-5.56,17.39c-0.07,6.63,1.21,10.5,3.78,11.49c4.28,1.64,12.95-4.45,23.8-16.71l36.19-40.88l0,0
						c5.84-6.6,12.46-14.07,15.34-23c2.53-7.88,1.76-18.98-5.93-24.72C441.27,1014.06,437.44,1012.82,433.18,1012.82z"/>
				</g>
				<g>
					<line class="st1" x1="360.47" y1="1014.04" x2="356.78" y2="1008.32"/>
					<path class="st2" d="M360.47,1014.92c-0.29,0-0.57-0.14-0.73-0.4l-3.7-5.72c-0.26-0.4-0.15-0.95,0.26-1.21
						c0.41-0.26,0.95-0.15,1.21,0.26l3.7,5.72c0.26,0.41,0.15,0.95-0.26,1.21C360.8,1014.87,360.64,1014.92,360.47,1014.92z"/>
				</g>
				<g>
					<line class="st1" x1="349.65" y1="1055.82" x2="345.95" y2="1050.1"/>
					<path class="st2" d="M349.65,1056.69c-0.29,0-0.57-0.14-0.73-0.4l-3.7-5.72c-0.26-0.41-0.15-0.95,0.26-1.21
						c0.41-0.26,0.95-0.15,1.21,0.26l3.7,5.72c0.26,0.41,0.15,0.95-0.26,1.21C349.98,1056.65,349.81,1056.69,349.65,1056.69z"/>
				</g>
				<g>
					<line class="st1" x1="346.71" y1="1105.76" x2="343.01" y2="1100.04"/>
					<path class="st2" d="M346.71,1106.63c-0.29,0-0.57-0.14-0.73-0.4l-3.7-5.72c-0.26-0.41-0.15-0.95,0.26-1.21
						c0.41-0.26,0.95-0.15,1.21,0.26l3.7,5.72c0.26,0.41,0.15,0.95-0.26,1.21C347.04,1106.59,346.87,1106.63,346.71,1106.63z"/>
				</g>
				<g>
					<line class="st1" x1="390.08" y1="1005.2" x2="396.32" y2="1002.47"/>
					<path class="st2" d="M390.08,1006.07c-0.34,0-0.66-0.19-0.8-0.52c-0.19-0.44,0.01-0.96,0.45-1.15l6.24-2.73
						c0.44-0.19,0.96,0.01,1.15,0.45c0.19,0.44-0.01,0.96-0.45,1.15l-6.24,2.73C390.32,1006.05,390.2,1006.07,390.08,1006.07z"/>
				</g>
				<g>
					<line class="st1" x1="426" y1="1045.15" x2="432.24" y2="1042.42"/>
					<path class="st2" d="M426,1046.02c-0.34,0-0.66-0.2-0.8-0.52c-0.19-0.44,0.01-0.96,0.45-1.15l6.24-2.73
						c0.44-0.19,0.96,0.01,1.15,0.45c0.19,0.44-0.01,0.96-0.45,1.15l-6.24,2.73C426.23,1046,426.11,1046.02,426,1046.02z"/>
				</g>
				<g>
					<line class="st1" x1="398.32" y1="1086.11" x2="404.56" y2="1083.38"/>
					<path class="st2" d="M398.32,1086.98c-0.34,0-0.66-0.2-0.8-0.52c-0.19-0.44,0.01-0.96,0.45-1.15l6.24-2.73
						c0.44-0.19,0.96,0.01,1.15,0.45c0.19,0.44-0.01,0.96-0.45,1.15l-6.24,2.73C398.56,1086.96,398.44,1086.98,398.32,1086.98z"/>
				</g>
				<g>
					<line class="st1" x1="359.13" y1="1084.63" x2="365.38" y2="1081.9"/>
					<path class="st2" d="M359.13,1085.5c-0.34,0-0.66-0.2-0.8-0.52c-0.19-0.44,0.01-0.96,0.45-1.15l6.24-2.73
						c0.44-0.19,0.96,0.01,1.15,0.45c0.19,0.44-0.01,0.96-0.45,1.15l-6.24,2.73C359.37,1085.48,359.25,1085.5,359.13,1085.5z"/>
				</g>
				<g>
					<line class="st1" x1="359.83" y1="1134.87" x2="366.07" y2="1132.14"/>
					<path class="st2" d="M359.83,1135.74c-0.34,0-0.66-0.19-0.8-0.52c-0.19-0.44,0.01-0.96,0.45-1.15l6.24-2.73
						c0.44-0.19,0.96,0.01,1.15,0.45c0.19,0.44-0.01,0.96-0.45,1.15l-6.24,2.73C360.06,1135.72,359.94,1135.74,359.83,1135.74z"/>
				</g>
				<g>
					<line class="st1" x1="372.89" y1="1050.21" x2="379.13" y2="1047.49"/>
					<path class="st2" d="M372.89,1051.09c-0.34,0-0.66-0.19-0.8-0.52c-0.19-0.44,0.01-0.96,0.45-1.15l6.24-2.73
						c0.44-0.19,0.96,0.01,1.15,0.45c0.19,0.44-0.01,0.96-0.45,1.15l-6.24,2.73C373.12,1051.06,373.01,1051.09,372.89,1051.09z"/>
				</g>
				<g>
					<line class="st1" x1="453.36" y1="1026.48" x2="459.6" y2="1023.75"/>
					<path class="st2" d="M453.36,1027.35c-0.34,0-0.66-0.2-0.8-0.52c-0.19-0.44,0.01-0.96,0.45-1.15l6.24-2.73
						c0.44-0.19,0.96,0.01,1.15,0.45c0.19,0.44-0.01,0.96-0.45,1.15l-6.24,2.73C453.6,1027.33,453.48,1027.35,453.36,1027.35z"/>
				</g>
				<g>
					<line class="st1" x1="363.75" y1="992.18" x2="360.06" y2="986.46"/>
					<path class="st2" d="M363.75,993.06c-0.29,0-0.57-0.14-0.73-0.4l-3.7-5.72c-0.26-0.41-0.15-0.95,0.26-1.21
						c0.41-0.26,0.95-0.15,1.21,0.26l3.7,5.72c0.26,0.41,0.15,0.95-0.26,1.21C364.08,993.01,363.92,993.06,363.75,993.06z"/>
				</g>
				<g>
					<line class="st1" x1="413.15" y1="1021.95" x2="409.45" y2="1016.23"/>
					<path class="st2" d="M413.15,1022.82c-0.29,0-0.57-0.14-0.73-0.4l-3.7-5.72c-0.26-0.41-0.15-0.95,0.26-1.21
						c0.41-0.26,0.95-0.15,1.21,0.26l3.7,5.72c0.26,0.41,0.15,0.95-0.26,1.21C413.47,1022.77,413.31,1022.82,413.15,1022.82z"/>
				</g>
				<g>
					<line class="st1" x1="407.28" y1="1061.02" x2="403.58" y2="1055.3"/>
					<path class="st2" d="M407.28,1061.9c-0.29,0-0.57-0.14-0.73-0.4l-3.7-5.72c-0.26-0.41-0.15-0.95,0.26-1.21
						c0.41-0.26,0.95-0.15,1.21,0.26l3.7,5.72c0.26,0.41,0.15,0.95-0.26,1.21C407.61,1061.85,407.45,1061.9,407.28,1061.9z"/>
				</g>
				<g>
					<line class="st1" x1="431.19" y1="1025.74" x2="427.49" y2="1020.02"/>
					<path class="st2" d="M431.19,1026.61c-0.29,0-0.57-0.14-0.73-0.4l-3.7-5.72c-0.26-0.4-0.15-0.95,0.26-1.21
						c0.41-0.26,0.95-0.15,1.21,0.26l3.7,5.72c0.26,0.41,0.15,0.95-0.26,1.21C431.52,1026.56,431.35,1026.61,431.19,1026.61z"/>
				</g>
				<g>
					<line class="st1" x1="329.76" y1="1049.39" x2="326.07" y2="1043.67"/>
					<path class="st2" d="M329.77,1050.26c-0.29,0-0.57-0.14-0.73-0.4l-3.7-5.72c-0.26-0.41-0.15-0.95,0.26-1.21
						c0.41-0.26,0.95-0.15,1.21,0.26l3.7,5.72c0.26,0.41,0.15,0.95-0.26,1.21C330.09,1050.22,329.93,1050.26,329.77,1050.26z"/>
				</g>
			</g>
			<g>
				<g>
					<path class="st1" d="M187.05,1141.01c-2.06-6.06-3.59-12.44-3.96-18.81c-0.22-3.81,5.25-4.8,6.41-1.16
						c3.73,11.64,6.69,23.53,8.88,35.56c0.39,2.15,3.11,10.85,2.01,12.7c-1.81,3.03-3.58-4.05-4.14-5.45
						C193.19,1156.24,189.69,1148.79,187.05,1141.01z"/>
					<path class="st2" d="M199.46,1170.92c-0.06,0-0.12,0-0.17-0.01c-1.57-0.18-2.51-2.69-3.5-5.72c-0.14-0.44-0.26-0.8-0.35-1.02
						c-1.02-2.52-2.1-5.07-3.15-7.54c-2.11-4.97-4.29-10.11-6.07-15.34c-2.32-6.82-3.66-13.22-4-19.04
						c-0.15-2.48,1.65-3.95,3.38-4.28c1.75-0.32,3.97,0.41,4.74,2.8c3.73,11.65,6.72,23.64,8.91,35.67c0.09,0.49,0.32,1.4,0.59,2.45
						c1.28,5,2.26,9.26,1.31,10.85C200.58,1170.69,199.94,1170.92,199.46,1170.92z M199.53,1169.18L199.53,1169.18L199.53,1169.18z
						 M186.42,1119.64c-0.17,0-0.34,0.02-0.5,0.05c-0.96,0.18-2.04,0.93-1.96,2.46c0.33,5.66,1.65,11.92,3.91,18.58l0,0
						c1.75,5.16,3.92,10.27,6.02,15.22c1.05,2.47,2.14,5.03,3.16,7.57c0.1,0.24,0.23,0.64,0.39,1.13c0.86,2.64,1.53,4.15,1.99,4.48
						c0.05-0.05,0.12-0.13,0.2-0.28c0.65-1.09-0.85-7-1.5-9.52c-0.29-1.13-0.52-2.02-0.62-2.57c-2.17-11.95-5.15-23.87-8.85-35.45
						C188.28,1120.07,187.3,1119.64,186.42,1119.64z"/>
				</g>
				<g>
					<path class="st1" d="M236.49,1149.73c-2.06-6.06-3.59-12.44-3.96-18.81c-0.22-3.81,5.25-4.8,6.41-1.16
						c3.73,11.64,6.69,23.53,8.88,35.56c0.39,2.15,3.11,10.85,2.01,12.7c-1.81,3.03-3.58-4.05-4.14-5.45
						C242.63,1164.95,239.14,1157.51,236.49,1149.73z"/>
					<path class="st2" d="M248.91,1179.63c-0.06,0-0.12,0-0.17-0.01c-1.57-0.18-2.51-2.69-3.5-5.72c-0.14-0.44-0.26-0.8-0.35-1.02
						c-1.02-2.52-2.1-5.08-3.15-7.54c-2.11-4.97-4.29-10.11-6.07-15.33l0,0c-2.32-6.82-3.66-13.22-4-19.04
						c-0.15-2.48,1.65-3.96,3.38-4.28c1.75-0.33,3.97,0.41,4.74,2.8c3.73,11.64,6.72,23.64,8.91,35.67c0.09,0.49,0.32,1.4,0.59,2.45
						c1.28,5,2.26,9.26,1.31,10.85C250.02,1179.4,249.39,1179.63,248.91,1179.63z M237.32,1149.45c1.75,5.16,3.92,10.27,6.02,15.21
						c1.05,2.47,2.14,5.03,3.16,7.57c0.1,0.24,0.23,0.64,0.39,1.13c0.86,2.64,1.53,4.15,1.99,4.48c0.05-0.05,0.12-0.14,0.2-0.28
						c0.65-1.09-0.86-7-1.5-9.53c-0.29-1.13-0.52-2.02-0.62-2.57c-2.17-11.95-5.15-23.88-8.85-35.45c-0.48-1.48-1.78-1.8-2.76-1.62
						c-0.96,0.18-2.05,0.93-1.96,2.46C233.74,1136.53,235.06,1142.78,237.32,1149.45L237.32,1149.45z"/>
				</g>
				<g>
					<path class="st1" d="M210.68,1146.16c-2.06-6.06-3.59-12.44-3.96-18.81c-0.22-3.81,5.25-4.8,6.41-1.16
						c3.73,11.64,6.69,23.53,8.88,35.56c0.39,2.15,3.11,10.85,2.01,12.7c-1.81,3.03-3.58-4.05-4.14-5.45
						C216.81,1161.38,213.32,1153.94,210.68,1146.16z"/>
					<path class="st2" d="M223.09,1176.06c-0.06,0-0.12,0-0.17-0.01c-1.57-0.18-2.51-2.69-3.5-5.72c-0.14-0.44-0.26-0.8-0.35-1.02
						c-1.02-2.52-2.1-5.07-3.15-7.54c-2.11-4.97-4.29-10.11-6.07-15.34c-2.32-6.82-3.66-13.22-4-19.04
						c-0.15-2.48,1.65-3.96,3.38-4.28c1.74-0.33,3.97,0.41,4.74,2.8c3.73,11.65,6.72,23.64,8.91,35.67c0.09,0.49,0.32,1.4,0.59,2.45
						c1.28,5,2.26,9.26,1.31,10.85C224.21,1175.83,223.57,1176.06,223.09,1176.06z M223.15,1174.33L223.15,1174.33L223.15,1174.33z
						 M210.05,1124.79c-0.17,0-0.34,0.02-0.5,0.05c-0.96,0.18-2.04,0.93-1.96,2.46c0.33,5.66,1.65,11.92,3.91,18.58l0,0
						c1.75,5.16,3.92,10.27,6.02,15.22c1.05,2.47,2.14,5.03,3.16,7.57c0.1,0.24,0.23,0.64,0.39,1.13c0.86,2.64,1.53,4.15,1.99,4.48
						c0.05-0.05,0.12-0.13,0.2-0.28c0.65-1.09-0.85-7-1.5-9.52c-0.29-1.13-0.52-2.02-0.62-2.57c-2.17-11.95-5.15-23.87-8.85-35.45
						C211.91,1125.21,210.93,1124.79,210.05,1124.79z"/>
				</g>
				<g>
					<path class="st1" d="M177.85,1147.01c-2.87-5.72-5.25-11.84-6.49-18.1c-0.74-3.74,4.54-5.47,6.19-2.03
						c5.28,11.02,9.85,22.39,13.66,34.01c0.68,2.08,4.57,10.32,3.72,12.31c-1.38,3.25-4.1-3.53-4.85-4.83
						C186,1161.25,181.53,1154.35,177.85,1147.01z"/>
					<path class="st2" d="M194.02,1174.95c-1.56,0-2.83-2.35-4.21-5.19c-0.2-0.41-0.37-0.75-0.48-0.96
						c-1.35-2.36-2.77-4.74-4.15-7.04c-2.77-4.64-5.64-9.43-8.11-14.36l0,0c-3.23-6.44-5.44-12.6-6.57-18.32
						c-0.48-2.44,1.09-4.14,2.76-4.7c1.68-0.56,3.99-0.14,5.08,2.13c5.28,11.02,9.89,22.5,13.7,34.11c0.15,0.47,0.51,1.34,0.92,2.35
						c1.95,4.78,3.5,8.87,2.78,10.57c-0.48,1.14-1.18,1.39-1.67,1.4C194.05,1174.95,194.03,1174.95,194.02,1174.95z M194.05,1173.21
						L194.05,1173.21L194.05,1173.21z M174.67,1125.9c-0.3,0-0.59,0.05-0.86,0.14c-0.93,0.31-1.9,1.2-1.6,2.7
						c1.1,5.56,3.26,11.58,6.42,17.87l0,0c2.44,4.87,5.29,9.64,8.05,14.25c1.38,2.31,2.81,4.69,4.17,7.07
						c0.13,0.22,0.31,0.6,0.54,1.06c1.22,2.5,2.08,3.9,2.58,4.17c0.04-0.06,0.1-0.15,0.16-0.31c0.5-1.17-1.81-6.82-2.79-9.23
						c-0.44-1.08-0.79-1.93-0.96-2.46c-3.78-11.54-8.37-22.95-13.61-33.9C176.28,1126.25,175.45,1125.9,174.67,1125.9z"/>
				</g>
				<g>
					<path class="st1" d="M206.13,1139.53c0.22-6.39,1.05-12.91,2.95-19c1.14-3.64,6.61-2.63,6.41,1.18
						c-0.63,12.21-2.06,24.37-4.27,36.4c-0.4,2.15-0.92,11.25-2.62,12.59c-2.77,2.19-1.91-5.06-1.94-6.56
						C206.48,1155.94,205.85,1147.74,206.13,1139.53z"/>
					<path class="st2" d="M207.7,1171.99c-0.28,0-0.51-0.07-0.69-0.17c-1.41-0.72-1.4-3.41-1.25-6.59c0.02-0.46,0.04-0.84,0.03-1.07
						c-0.06-2.72-0.17-5.49-0.28-8.17c-0.22-5.4-0.44-10.98-0.25-16.49c0,0,0,0,0,0c0.25-7.2,1.25-13.67,2.99-19.23
						c0.74-2.37,2.94-3.12,4.67-2.81c1.75,0.31,3.57,1.79,3.44,4.29c-0.63,12.2-2.07,24.49-4.29,36.51
						c-0.09,0.49-0.19,1.42-0.31,2.49c-0.57,5.13-1.17,9.47-2.62,10.62C208.58,1171.84,208.09,1171.99,207.7,1171.99z
						 M207.84,1170.29h0.01H207.84z M207,1139.56c-0.18,5.45,0.04,10.99,0.25,16.36c0.11,2.69,0.22,5.46,0.28,8.2
						c0,0.26-0.01,0.68-0.04,1.19c-0.13,2.78-0.04,4.42,0.28,4.9c0.06-0.03,0.16-0.08,0.29-0.19c1-0.79,1.68-6.86,1.97-9.45
						c0.13-1.15,0.23-2.07,0.33-2.61c2.2-11.95,3.63-24.16,4.26-36.29c0.08-1.56-1.03-2.31-2-2.49c-0.96-0.17-2.24,0.15-2.7,1.61
						C208.23,1126.2,207.25,1132.52,207,1139.56L207,1139.56z"/>
				</g>
				<g>
					<path class="st1" d="M224.7,1146.29c0.22-6.39,1.05-12.91,2.95-19c1.14-3.64,6.61-2.63,6.41,1.18
						c-0.63,12.21-2.06,24.37-4.27,36.4c-0.4,2.15-0.92,11.25-2.62,12.59c-2.77,2.19-1.91-5.06-1.94-6.56
						C225.06,1162.7,224.42,1154.5,224.7,1146.29z"/>
					<path class="st2" d="M226.27,1178.75c-0.28,0-0.51-0.07-0.69-0.17c-1.41-0.72-1.4-3.41-1.25-6.59
						c0.02-0.46,0.04-0.84,0.03-1.07c-0.06-2.72-0.17-5.49-0.28-8.17c-0.22-5.4-0.44-10.98-0.25-16.49c0,0,0,0,0,0
						c0.25-7.2,1.25-13.67,2.99-19.23c0.74-2.37,2.94-3.12,4.67-2.81c1.75,0.31,3.57,1.79,3.44,4.29
						c-0.63,12.2-2.07,24.49-4.29,36.51c-0.09,0.49-0.19,1.42-0.31,2.49c-0.57,5.13-1.17,9.47-2.62,10.62
						C227.15,1178.6,226.66,1178.75,226.27,1178.75z M226.41,1177.05L226.41,1177.05L226.41,1177.05z M225.57,1146.32
						c-0.18,5.45,0.04,11,0.25,16.36c0.11,2.69,0.22,5.46,0.28,8.2c0,0.26-0.01,0.68-0.04,1.19c-0.13,2.77-0.04,4.42,0.28,4.9
						c0.06-0.03,0.16-0.08,0.29-0.19c1-0.79,1.68-6.86,1.97-9.45c0.13-1.15,0.23-2.07,0.33-2.61c2.2-11.95,3.63-24.16,4.26-36.29
						c0.08-1.56-1.03-2.31-2.01-2.49c-0.96-0.18-2.24,0.15-2.7,1.61C226.8,1132.97,225.82,1139.28,225.57,1146.32L225.57,1146.32z"
						/>
				</g>
				<g>
					<path class="st1" d="M230.96,1147.13c-1.19-6.28-1.8-12.82-1.28-19.18c0.31-3.8,5.87-4.01,6.51-0.25
						c2.06,12.05,3.33,24.23,3.8,36.45c0.08,2.19,1.56,11.18,0.2,12.86c-2.22,2.75-2.97-4.52-3.33-5.98
						C234.89,1163.07,232.48,1155.21,230.96,1147.13z"/>
					<path class="st2" d="M239.26,1178.5c-0.14,0-0.27-0.02-0.38-0.05c-1.53-0.39-2.11-3.02-2.66-6.15
						c-0.08-0.46-0.15-0.83-0.2-1.06c-0.65-2.64-1.37-5.32-2.06-7.92c-1.39-5.22-2.83-10.61-3.86-16.03l0,0
						c-1.34-7.08-1.77-13.61-1.29-19.42c0.2-2.48,2.19-3.69,3.94-3.76c1.76-0.08,3.88,0.97,4.3,3.44
						c2.06,12.05,3.34,24.35,3.81,36.56c0.02,0.5,0.12,1.43,0.24,2.51c0.56,5.13,0.93,9.49-0.23,10.93
						C240.28,1178.29,239.71,1178.5,239.26,1178.5z M231.81,1146.97c1.01,5.35,2.44,10.72,3.83,15.9c0.69,2.6,1.41,5.29,2.07,7.95
						c0.06,0.25,0.14,0.67,0.22,1.17c0.48,2.73,0.93,4.32,1.34,4.72c0.05-0.04,0.13-0.12,0.24-0.25c0.8-0.99,0.14-7.05-0.15-9.64
						c-0.13-1.16-0.23-2.07-0.25-2.63c-0.47-12.14-1.75-24.36-3.79-36.34c-0.26-1.54-1.48-2.01-2.5-1.99
						c-0.97,0.04-2.16,0.63-2.28,2.16C230.08,1133.67,230.51,1140.05,231.81,1146.97L231.81,1146.97z"/>
				</g>
				<g>
					<path class="st1" d="M248.2,1147.28c-1.19-6.28-1.8-12.82-1.28-19.18c0.31-3.8,5.87-4.01,6.51-0.25
						c2.06,12.05,3.33,24.23,3.8,36.45c0.09,2.19,1.56,11.18,0.2,12.86c-2.22,2.75-2.97-4.52-3.33-5.98
						C252.14,1163.21,249.73,1155.35,248.2,1147.28z"/>
					<path class="st2" d="M256.51,1178.64c-0.14,0-0.27-0.02-0.38-0.05c-1.53-0.4-2.11-3.02-2.66-6.15
						c-0.08-0.46-0.15-0.83-0.2-1.06c-0.65-2.65-1.37-5.33-2.06-7.92c-1.39-5.22-2.83-10.61-3.85-16.02l0,0
						c-1.34-7.08-1.77-13.61-1.29-19.42c0.2-2.47,2.19-3.69,3.94-3.76c1.75-0.08,3.87,0.97,4.3,3.44
						c2.06,12.04,3.34,24.34,3.81,36.56c0.02,0.5,0.12,1.43,0.24,2.5c0.56,5.13,0.94,9.5-0.23,10.94
						C257.53,1178.44,256.96,1178.64,256.51,1178.64z M249.06,1147.12c1.01,5.35,2.44,10.71,3.83,15.9c0.69,2.6,1.41,5.29,2.07,7.95
						c0.06,0.25,0.14,0.67,0.22,1.17c0.48,2.73,0.93,4.32,1.34,4.72c0.05-0.04,0.13-0.12,0.24-0.25c0.8-0.99,0.14-7.06-0.15-9.65
						c-0.13-1.15-0.23-2.07-0.25-2.62c-0.47-12.15-1.75-24.37-3.79-36.34c-0.26-1.54-1.51-2.01-2.5-1.99
						c-0.97,0.04-2.16,0.63-2.28,2.16C247.33,1133.82,247.75,1140.2,249.06,1147.12L249.06,1147.12z"/>
				</g>
				<g>
					<path class="st1" d="M279.91,1140.69c-1.63-6.18-2.71-12.66-2.63-19.04c0.04-3.82,5.57-4.42,6.48-0.71
						c2.9,11.87,5.03,23.94,6.37,36.09c0.24,2.18,2.35,11.04,1.11,12.81c-2.02,2.9-3.28-4.29-3.75-5.73
						C284.96,1156.3,282,1148.63,279.91,1140.69z"/>
					<path class="st2" d="M290.3,1171.39c-0.1,0-0.19-0.01-0.28-0.03c-1.55-0.29-2.32-2.86-3.09-5.95c-0.11-0.45-0.2-0.82-0.27-1.04
						c-0.84-2.59-1.74-5.22-2.62-7.75c-1.76-5.1-3.57-10.38-4.98-15.71l0,0c-1.83-6.96-2.73-13.45-2.66-19.28
						c0.03-2.48,1.92-3.83,3.67-4.03c1.78-0.19,3.93,0.69,4.53,3.13c2.9,11.87,5.05,24.05,6.39,36.2c0.05,0.49,0.22,1.41,0.42,2.48
						c0.92,5.08,1.6,9.4,0.55,10.92C291.37,1171.17,290.77,1171.39,290.3,1171.39z M280.75,1140.46c1.39,5.27,3.19,10.51,4.94,15.59
						c0.88,2.54,1.78,5.18,2.63,7.78c0.08,0.25,0.18,0.65,0.31,1.15c0.67,2.69,1.24,4.24,1.67,4.61c0.05-0.05,0.13-0.13,0.22-0.27
						c0.73-1.05-0.36-7.05-0.83-9.61c-0.21-1.14-0.37-2.05-0.43-2.6c-1.33-12.08-3.47-24.19-6.35-35.98
						c-0.37-1.51-1.65-1.92-2.64-1.81c-0.97,0.11-2.1,0.78-2.12,2.32C278.09,1127.32,278.96,1133.65,280.75,1140.46L280.75,1140.46z
						"/>
				</g>
				<g>
					<path class="st1" d="M288.49,1139.53c0.22-6.39,1.05-12.91,2.95-19c1.14-3.64,6.61-2.63,6.41,1.18
						c-0.63,12.21-2.06,24.37-4.27,36.4c-0.4,2.15-0.92,11.25-2.62,12.59c-2.77,2.19-1.91-5.06-1.94-6.56
						C288.84,1155.94,288.21,1147.74,288.49,1139.53z"/>
					<path class="st2" d="M290.06,1171.99c-0.28,0-0.51-0.07-0.69-0.17c-1.41-0.72-1.4-3.41-1.25-6.59
						c0.02-0.46,0.04-0.84,0.04-1.07c-0.06-2.73-0.17-5.5-0.28-8.18c-0.22-5.39-0.44-10.97-0.25-16.48l0,0
						c0.25-7.19,1.25-13.66,2.99-19.23c0.74-2.37,2.94-3.12,4.67-2.81c1.75,0.31,3.57,1.79,3.44,4.3
						c-0.63,12.2-2.07,24.48-4.29,36.51c-0.09,0.49-0.19,1.42-0.31,2.5c-0.57,5.13-1.17,9.47-2.62,10.62
						C290.94,1171.84,290.45,1171.99,290.06,1171.99z M290.19,1170.29L290.19,1170.29L290.19,1170.29z M294.5,1119.14
						c-0.87,0-1.84,0.42-2.22,1.65c-1.69,5.42-2.67,11.73-2.91,18.77l0,0c-0.18,5.44,0.04,10.99,0.25,16.35
						c0.11,2.69,0.22,5.47,0.28,8.21c0,0.26-0.01,0.68-0.04,1.19c-0.13,2.78-0.04,4.42,0.28,4.9c0.06-0.03,0.16-0.08,0.29-0.19
						c1-0.79,1.68-6.85,1.97-9.44c0.13-1.16,0.23-2.07,0.33-2.62c2.2-11.95,3.63-24.16,4.26-36.29c0.08-1.56-1.03-2.31-2-2.49
						C294.82,1119.16,294.66,1119.14,294.5,1119.14z M288.49,1139.53L288.49,1139.53L288.49,1139.53z"/>
				</g>
				<g>
					<path class="st1" d="M200.73,1135.9c0.22-6.39,1.05-12.91,2.95-19c1.14-3.64,6.61-2.63,6.41,1.18
						c-0.63,12.21-2.06,24.37-4.27,36.4c-0.4,2.15-0.92,11.25-2.62,12.59c-2.77,2.19-1.91-5.06-1.94-6.56
						C201.08,1152.31,200.45,1144.11,200.73,1135.9z"/>
					<path class="st2" d="M202.29,1168.36c-0.28,0-0.51-0.07-0.69-0.17c-1.41-0.72-1.4-3.41-1.25-6.59
						c0.02-0.46,0.04-0.84,0.04-1.07c-0.06-2.72-0.17-5.5-0.28-8.18c-0.22-5.39-0.44-10.97-0.25-16.48l0,0
						c0.25-7.19,1.25-13.66,2.99-19.23c0.74-2.37,2.95-3.12,4.67-2.81c1.75,0.31,3.57,1.79,3.44,4.29
						c-0.63,12.2-2.08,24.49-4.29,36.51c-0.09,0.49-0.19,1.42-0.31,2.5c-0.57,5.13-1.17,9.47-2.62,10.62
						C203.17,1168.21,202.69,1168.36,202.29,1168.36z M202.43,1166.66L202.43,1166.66L202.43,1166.66z M206.74,1115.51
						c-0.87,0-1.84,0.42-2.22,1.65c-1.69,5.42-2.67,11.73-2.91,18.77l0,0c-0.18,5.44,0.04,10.99,0.25,16.35
						c0.11,2.69,0.22,5.47,0.28,8.21c0,0.26-0.01,0.68-0.04,1.19c-0.13,2.78-0.04,4.42,0.28,4.9c0.06-0.03,0.16-0.08,0.29-0.19
						c1-0.79,1.68-6.85,1.97-9.44c0.13-1.16,0.23-2.07,0.33-2.62c2.2-11.95,3.63-24.16,4.26-36.28c0.08-1.56-1.03-2.31-2.01-2.49
						C207.06,1115.53,206.9,1115.51,206.74,1115.51z M200.73,1135.9L200.73,1135.9L200.73,1135.9z"/>
				</g>
				<g>
					<path class="st1" d="M251.66,1144.39c0.22-6.39,1.05-12.91,2.95-19c1.14-3.64,6.61-2.63,6.41,1.18
						c-0.63,12.21-2.06,24.37-4.27,36.4c-0.4,2.15-0.92,11.25-2.62,12.59c-2.77,2.19-1.91-5.06-1.94-6.56
						C252.01,1160.8,251.38,1152.6,251.66,1144.39z"/>
					<path class="st2" d="M253.22,1176.85c-0.28,0-0.51-0.07-0.69-0.17c-1.4-0.72-1.4-3.41-1.25-6.58c0.02-0.46,0.04-0.84,0.03-1.08
						c-0.06-2.73-0.17-5.5-0.28-8.18c-0.22-5.39-0.44-10.97-0.25-16.48l0,0c0.25-7.19,1.25-13.66,2.99-19.23
						c0.74-2.37,2.94-3.12,4.67-2.81c1.75,0.31,3.57,1.79,3.44,4.29c-0.63,12.21-2.08,24.49-4.29,36.51
						c-0.09,0.49-0.19,1.42-0.31,2.5c-0.57,5.13-1.17,9.46-2.62,10.61C254.1,1176.7,253.62,1176.85,253.22,1176.85z M253.36,1175.15
						L253.36,1175.15L253.36,1175.15z M257.67,1124c-0.87,0-1.84,0.42-2.22,1.65c-1.69,5.42-2.67,11.73-2.91,18.77l0,0
						c-0.18,5.44,0.04,10.99,0.25,16.35c0.11,2.69,0.22,5.47,0.28,8.21c0.01,0.26-0.01,0.68-0.04,1.19
						c-0.13,2.77-0.04,4.42,0.28,4.89c0.06-0.03,0.16-0.08,0.29-0.19c1-0.79,1.68-6.85,1.97-9.44c0.13-1.16,0.23-2.07,0.33-2.62
						c2.2-11.94,3.63-24.15,4.26-36.28c0.08-1.56-1.03-2.31-2.01-2.49C257.99,1124.02,257.83,1124,257.67,1124z M251.66,1144.39
						L251.66,1144.39L251.66,1144.39z"/>
				</g>
				<g>
					<path class="st1" d="M267.2,1144.39c0.22-6.39,1.05-12.91,2.95-19c1.14-3.64,6.61-2.63,6.41,1.18
						c-0.63,12.21-2.06,24.37-4.27,36.4c-0.4,2.15-0.92,11.25-2.62,12.59c-2.77,2.19-1.91-5.06-1.94-6.56
						C267.55,1160.8,266.92,1152.6,267.2,1144.39z"/>
					<path class="st2" d="M268.76,1176.85c-0.28,0-0.51-0.07-0.69-0.17c-1.41-0.72-1.4-3.41-1.25-6.59
						c0.02-0.46,0.04-0.84,0.04-1.07c-0.06-2.73-0.17-5.5-0.28-8.18c-0.22-5.39-0.44-10.97-0.25-16.48l0,0
						c0.25-7.19,1.25-13.66,2.99-19.23c0.74-2.37,2.94-3.12,4.67-2.81c1.75,0.31,3.57,1.79,3.44,4.3
						c-0.63,12.2-2.07,24.48-4.29,36.51c-0.09,0.49-0.19,1.42-0.31,2.5c-0.57,5.13-1.17,9.46-2.62,10.61
						C269.64,1176.7,269.16,1176.85,268.76,1176.85z M268.9,1175.15L268.9,1175.15L268.9,1175.15z M273.21,1124
						c-0.87,0-1.84,0.42-2.22,1.65c-1.69,5.42-2.67,11.73-2.91,18.77l0,0c-0.18,5.44,0.04,10.99,0.25,16.35
						c0.11,2.69,0.22,5.47,0.28,8.21c0,0.26-0.01,0.68-0.04,1.19c-0.13,2.78-0.04,4.42,0.28,4.9c0.06-0.03,0.16-0.08,0.29-0.19
						c1-0.79,1.68-6.85,1.97-9.44c0.13-1.16,0.23-2.07,0.33-2.62c2.2-11.95,3.63-24.16,4.26-36.28c0.08-1.56-1.03-2.31-2-2.49
						C273.53,1124.02,273.37,1124,273.21,1124z M267.2,1144.39L267.2,1144.39L267.2,1144.39z"/>
				</g>
				<g>
					<path class="st1" d="M272.74,1149.33c-1.63-6.18-2.71-12.66-2.63-19.04c0.04-3.82,5.57-4.42,6.48-0.71
						c2.9,11.87,5.03,23.94,6.37,36.09c0.24,2.18,2.35,11.04,1.11,12.81c-2.02,2.9-3.28-4.29-3.75-5.73
						C277.79,1164.94,274.83,1157.27,272.74,1149.33z"/>
					<path class="st2" d="M283.13,1180.03c-0.1,0-0.19-0.01-0.28-0.03c-1.55-0.29-2.32-2.86-3.09-5.94
						c-0.11-0.45-0.2-0.82-0.28-1.04c-0.84-2.59-1.74-5.21-2.62-7.75c-1.76-5.11-3.58-10.39-4.98-15.72
						c-1.83-6.96-2.73-13.45-2.66-19.28c0.03-2.48,1.92-3.83,3.67-4.03c1.76-0.19,3.93,0.69,4.53,3.13
						c2.9,11.87,5.05,24.05,6.39,36.2c0.05,0.49,0.22,1.41,0.42,2.48c0.92,5.08,1.6,9.4,0.55,10.92
						C284.2,1179.81,283.6,1180.03,283.13,1180.03z M283.21,1178.3L283.21,1178.3L283.21,1178.3z M273.41,1127.96
						c-0.11,0-0.21,0.01-0.31,0.02c-0.97,0.11-2.1,0.78-2.12,2.32c-0.07,5.67,0.81,12,2.6,18.81l0,0
						c1.39,5.27,3.19,10.52,4.94,15.59c0.88,2.54,1.78,5.17,2.62,7.78c0.08,0.25,0.18,0.66,0.31,1.15c0.67,2.69,1.24,4.24,1.67,4.61
						c0.05-0.05,0.13-0.13,0.22-0.27c0.73-1.05-0.36-7.05-0.83-9.61c-0.21-1.14-0.37-2.05-0.43-2.6
						c-1.33-12.08-3.47-24.19-6.35-35.98C275.4,1128.43,274.34,1127.96,273.41,1127.96z"/>
				</g>
			</g>
			<g>
				<g>
					<path class="st1" d="M909.96,1147.24c-2.06-6.06-3.59-12.44-3.96-18.81c-0.22-3.81,5.25-4.8,6.41-1.16
						c3.73,11.64,6.69,23.53,8.88,35.56c0.39,2.15,3.11,10.85,2.01,12.7c-1.81,3.03-3.58-4.05-4.14-5.45
						C916.1,1162.46,912.61,1155.02,909.96,1147.24z"/>
					<path class="st2" d="M922.38,1177.14c-0.06,0-0.12,0-0.17-0.01c-1.57-0.18-2.51-2.69-3.5-5.72c-0.14-0.44-0.26-0.8-0.35-1.02
						c-1.02-2.53-2.1-5.08-3.15-7.55c-2.11-4.97-4.29-10.11-6.07-15.33l0,0c-2.32-6.82-3.66-13.23-4-19.04
						c-0.15-2.48,1.65-3.96,3.38-4.28c1.75-0.32,3.97,0.41,4.74,2.8c3.72,11.64,6.72,23.64,8.91,35.67
						c0.09,0.49,0.32,1.39,0.59,2.44c1.28,5,2.26,9.27,1.31,10.86C923.49,1176.91,922.86,1177.14,922.38,1177.14z M910.79,1146.96
						c1.75,5.16,3.92,10.27,6.02,15.21c1.05,2.48,2.14,5.04,3.16,7.58c0.1,0.24,0.23,0.64,0.39,1.13c0.86,2.64,1.53,4.15,1.99,4.48
						c0.05-0.05,0.12-0.14,0.2-0.28c0.65-1.1-0.86-7.01-1.5-9.53c-0.29-1.13-0.52-2.02-0.62-2.56c-2.17-11.96-5.15-23.88-8.85-35.45
						c-0.48-1.48-1.78-1.8-2.76-1.62c-0.96,0.18-2.05,0.93-1.96,2.46C907.21,1134.04,908.53,1140.29,910.79,1146.96L910.79,1146.96z
						"/>
				</g>
				<g>
					<path class="st1" d="M959.41,1155.96c-2.06-6.06-3.59-12.44-3.96-18.81c-0.22-3.81,5.25-4.8,6.41-1.16
						c3.73,11.64,6.69,23.53,8.88,35.56c0.39,2.15,3.11,10.85,2.01,12.7c-1.81,3.03-3.58-4.05-4.14-5.45
						C965.54,1171.18,962.05,1163.73,959.41,1155.96z"/>
					<path class="st2" d="M971.82,1185.86c-0.06,0-0.12,0-0.17-0.01c-1.57-0.18-2.51-2.69-3.5-5.72c-0.14-0.44-0.26-0.8-0.35-1.02
						c-1.02-2.53-2.1-5.09-3.16-7.56c-2.11-4.97-4.29-10.1-6.06-15.32l0,0c-2.32-6.82-3.66-13.23-4-19.04
						c-0.15-2.48,1.65-3.96,3.38-4.28c1.75-0.32,3.97,0.41,4.74,2.8c3.72,11.64,6.72,23.64,8.91,35.67
						c0.09,0.49,0.32,1.39,0.59,2.44c1.28,5,2.26,9.27,1.31,10.86C972.93,1185.63,972.3,1185.86,971.82,1185.86z M960.23,1155.68
						c1.75,5.15,3.92,10.26,6.02,15.2c1.05,2.48,2.14,5.04,3.17,7.59c0.1,0.24,0.23,0.64,0.39,1.13c0.86,2.64,1.53,4.15,1.99,4.48
						c0.05-0.05,0.12-0.13,0.2-0.28c0.66-1.1-0.86-7.01-1.5-9.53c-0.29-1.13-0.52-2.02-0.62-2.56c-2.17-11.96-5.15-23.88-8.85-35.45
						c-0.48-1.49-1.79-1.8-2.76-1.62c-0.96,0.18-2.05,0.93-1.96,2.46C956.65,1142.75,957.97,1149,960.23,1155.68L960.23,1155.68z"/>
				</g>
				<g>
					<path class="st1" d="M933.59,1152.39c-2.06-6.06-3.59-12.44-3.96-18.81c-0.22-3.81,5.25-4.8,6.41-1.16
						c3.73,11.64,6.69,23.53,8.88,35.56c0.39,2.15,3.11,10.85,2.01,12.7c-1.81,3.03-3.58-4.05-4.14-5.45
						C939.73,1167.61,936.24,1160.16,933.59,1152.39z"/>
					<path class="st2" d="M946.01,1182.29c-0.06,0-0.12,0-0.17-0.01c-1.57-0.18-2.51-2.69-3.5-5.72c-0.14-0.44-0.26-0.8-0.35-1.02
						c-1.02-2.53-2.1-5.08-3.15-7.55c-2.11-4.97-4.29-10.11-6.07-15.33l0,0c-2.32-6.82-3.66-13.23-4-19.04
						c-0.15-2.48,1.65-3.96,3.38-4.28c1.76-0.32,3.97,0.41,4.74,2.8c3.73,11.64,6.72,23.64,8.91,35.67
						c0.09,0.49,0.32,1.39,0.59,2.44c1.28,5,2.26,9.27,1.31,10.86C947.12,1182.06,946.49,1182.29,946.01,1182.29z M934.42,1152.11
						c1.75,5.16,3.92,10.27,6.02,15.21c1.05,2.48,2.14,5.04,3.16,7.58c0.1,0.24,0.23,0.64,0.39,1.13c0.86,2.64,1.53,4.15,1.99,4.48
						c0.05-0.05,0.12-0.14,0.2-0.28c0.65-1.1-0.86-7.01-1.5-9.53c-0.29-1.13-0.51-2.02-0.62-2.56c-2.17-11.96-5.15-23.88-8.85-35.45
						c-0.48-1.48-1.78-1.8-2.76-1.62c-0.96,0.18-2.05,0.93-1.96,2.46C930.84,1139.18,932.15,1145.44,934.42,1152.11L934.42,1152.11z
						"/>
				</g>
				<g>
					<path class="st1" d="M900.76,1153.24c-2.87-5.72-5.25-11.84-6.49-18.1c-0.74-3.74,4.54-5.47,6.19-2.03
						c5.28,11.02,9.85,22.39,13.66,34.01c0.68,2.08,4.57,10.32,3.72,12.31c-1.38,3.25-4.1-3.53-4.85-4.83
						C908.92,1167.48,904.44,1160.58,900.76,1153.24z"/>
					<path class="st2" d="M916.93,1181.17c-1.56,0-2.83-2.35-4.21-5.18c-0.2-0.42-0.37-0.76-0.48-0.96
						c-1.36-2.37-2.78-4.75-4.16-7.06c-2.77-4.63-5.63-9.42-8.1-14.35l0,0c-3.23-6.44-5.44-12.6-6.57-18.32
						c-0.48-2.44,1.09-4.14,2.76-4.7c1.69-0.56,3.99-0.13,5.08,2.13c5.28,11.02,9.89,22.5,13.7,34.11c0.15,0.47,0.51,1.34,0.92,2.34
						c1.95,4.78,3.5,8.87,2.78,10.58c-0.48,1.14-1.18,1.39-1.67,1.4C916.96,1181.17,916.95,1181.17,916.93,1181.17z M901.54,1152.84
						c2.44,4.87,5.28,9.63,8.04,14.23c1.38,2.31,2.81,4.7,4.18,7.09c0.13,0.22,0.31,0.6,0.54,1.07c1.21,2.5,2.08,3.9,2.58,4.17
						c0.04-0.06,0.1-0.15,0.16-0.31c0.5-1.18-1.81-6.82-2.79-9.24c-0.44-1.08-0.79-1.93-0.96-2.46
						c-3.79-11.55-8.37-22.95-13.61-33.9c-0.67-1.4-2.01-1.54-2.95-1.23c-0.92,0.31-1.9,1.2-1.6,2.7
						C896.23,1140.53,898.39,1146.55,901.54,1152.84L901.54,1152.84z"/>
				</g>
				<g>
					<path class="st1" d="M929.05,1145.75c0.22-6.39,1.05-12.91,2.95-19c1.14-3.64,6.61-2.63,6.41,1.18
						c-0.63,12.21-2.06,24.37-4.27,36.4c-0.4,2.15-0.92,11.25-2.62,12.59c-2.77,2.19-1.91-5.06-1.94-6.56
						C929.4,1162.16,928.77,1153.96,929.05,1145.75z"/>
					<path class="st2" d="M930.61,1178.21c-0.28,0-0.51-0.07-0.69-0.17c-1.4-0.72-1.4-3.41-1.25-6.58c0.02-0.46,0.04-0.84,0.03-1.08
						c-0.06-2.73-0.17-5.5-0.28-8.18c-0.22-5.39-0.44-10.97-0.25-16.48l0,0c0.25-7.19,1.25-13.66,2.99-19.23
						c0.74-2.37,2.94-3.12,4.67-2.81c1.75,0.31,3.57,1.79,3.44,4.3c-0.63,12.21-2.08,24.49-4.29,36.51
						c-0.09,0.49-0.19,1.42-0.31,2.5c-0.57,5.13-1.17,9.47-2.62,10.62C931.49,1178.06,931,1178.21,930.61,1178.21z M930.75,1176.51
						L930.75,1176.51L930.75,1176.51z M935.05,1125.36c-0.87,0-1.84,0.42-2.22,1.65c-1.69,5.42-2.67,11.73-2.91,18.77l0,0
						c-0.18,5.44,0.04,10.99,0.25,16.35c0.11,2.69,0.22,5.47,0.28,8.21c0.01,0.26-0.01,0.68-0.04,1.19
						c-0.13,2.77-0.04,4.42,0.28,4.9c0.06-0.03,0.16-0.08,0.29-0.19c1-0.79,1.68-6.85,1.97-9.44c0.13-1.16,0.23-2.07,0.33-2.62
						c2.2-11.94,3.63-24.15,4.26-36.28c0.08-1.56-1.03-2.31-2.01-2.49C935.38,1125.38,935.22,1125.36,935.05,1125.36z
						 M929.05,1145.75L929.05,1145.75L929.05,1145.75z"/>
				</g>
				<g>
					<path class="st1" d="M947.62,1152.52c0.22-6.39,1.05-12.91,2.95-19c1.14-3.64,6.61-2.63,6.41,1.18
						c-0.63,12.21-2.06,24.38-4.27,36.4c-0.4,2.15-0.92,11.25-2.62,12.59c-2.77,2.19-1.91-5.06-1.94-6.56
						C947.97,1168.92,947.34,1160.73,947.62,1152.52z"/>
					<path class="st2" d="M949.18,1184.97c-0.28,0-0.51-0.07-0.69-0.17c-1.4-0.72-1.4-3.41-1.25-6.58c0.02-0.46,0.04-0.84,0.03-1.08
						c-0.06-2.73-0.17-5.5-0.28-8.18c-0.22-5.39-0.44-10.97-0.25-16.48l0,0c0.25-7.19,1.25-13.66,2.99-19.23
						c0.74-2.37,2.93-3.12,4.67-2.81c1.75,0.31,3.57,1.79,3.44,4.29c-0.63,12.21-2.08,24.49-4.29,36.51
						c-0.09,0.49-0.19,1.42-0.31,2.5c-0.57,5.13-1.17,9.47-2.62,10.62C950.06,1184.82,949.58,1184.97,949.18,1184.97z
						 M949.32,1183.27L949.32,1183.27L949.32,1183.27z M953.62,1132.13c-0.87,0-1.84,0.42-2.22,1.65
						c-1.69,5.42-2.67,11.73-2.91,18.77l0,0c-0.18,5.44,0.04,10.99,0.25,16.35c0.11,2.69,0.22,5.47,0.28,8.21
						c0.01,0.26-0.01,0.68-0.04,1.19c-0.13,2.77-0.03,4.42,0.28,4.89c0.06-0.03,0.16-0.08,0.29-0.19c1-0.79,1.68-6.85,1.97-9.44
						c0.13-1.16,0.23-2.07,0.33-2.62c2.2-11.94,3.63-24.15,4.26-36.29c0.08-1.56-1.03-2.31-2.01-2.49
						C953.95,1132.14,953.79,1132.13,953.62,1132.13z M947.62,1152.52L947.62,1152.52L947.62,1152.52z"/>
				</g>
				<g>
					<path class="st1" d="M953.87,1153.36c-1.19-6.28-1.8-12.82-1.28-19.18c0.31-3.8,5.87-4.01,6.51-0.25
						c2.06,12.05,3.33,24.23,3.8,36.45c0.09,2.19,1.56,11.18,0.2,12.86c-2.22,2.75-2.97-4.52-3.33-5.98
						C957.81,1169.29,955.4,1161.43,953.87,1153.36z"/>
					<path class="st2" d="M962.17,1184.72c-0.14,0-0.27-0.02-0.38-0.05c-1.53-0.4-2.11-3.02-2.66-6.15
						c-0.08-0.46-0.15-0.83-0.2-1.06c-0.65-2.65-1.37-5.33-2.06-7.92c-1.39-5.22-2.83-10.61-3.85-16.02
						c-1.34-7.08-1.77-13.61-1.29-19.42c0.2-2.47,2.19-3.68,3.95-3.76c1.75-0.09,3.87,0.97,4.3,3.44
						c2.06,12.05,3.34,24.35,3.81,36.56c0.02,0.5,0.12,1.42,0.24,2.5c0.56,5.13,0.94,9.5-0.23,10.94
						C963.19,1184.52,962.62,1184.72,962.17,1184.72z M954.73,1153.2c1.01,5.35,2.44,10.71,3.83,15.9c0.69,2.6,1.41,5.29,2.07,7.95
						c0.06,0.25,0.14,0.67,0.22,1.17c0.48,2.73,0.93,4.32,1.34,4.72c0.05-0.04,0.13-0.12,0.24-0.25c0.8-0.99,0.14-7.06-0.15-9.65
						c-0.13-1.15-0.23-2.07-0.25-2.62c-0.47-12.14-1.75-24.36-3.79-36.34c-0.26-1.54-1.51-2.01-2.5-1.99
						c-0.97,0.04-2.16,0.63-2.28,2.16C952.99,1139.9,953.42,1146.28,954.73,1153.2L954.73,1153.2z"/>
				</g>
				<g>
					<path class="st1" d="M971.11,1153.51c-1.19-6.28-1.8-12.82-1.28-19.18c0.31-3.8,5.87-4.01,6.51-0.25
						c2.06,12.05,3.33,24.23,3.8,36.45c0.08,2.19,1.56,11.18,0.2,12.86c-2.22,2.75-2.97-4.52-3.33-5.98
						C975.05,1169.44,972.64,1161.58,971.11,1153.51z"/>
					<path class="st2" d="M979.42,1184.87c-0.14,0-0.27-0.02-0.38-0.05c-1.53-0.39-2.11-3.02-2.66-6.15
						c-0.08-0.46-0.15-0.83-0.2-1.06c-0.65-2.64-1.37-5.32-2.06-7.9c-1.39-5.22-2.84-10.62-3.86-16.04
						c-1.34-7.08-1.77-13.61-1.29-19.42c0.2-2.47,2.19-3.69,3.94-3.76c1.77-0.1,3.88,0.96,4.3,3.44
						c2.06,12.05,3.34,24.35,3.81,36.56c0.02,0.5,0.12,1.43,0.24,2.51c0.56,5.13,0.93,9.49-0.23,10.93
						C980.44,1184.66,979.87,1184.87,979.42,1184.87z M979.51,1183.14L979.51,1183.14L979.51,1183.14z M973.1,1132.23
						c-0.04,0-0.08,0-0.12,0c-0.97,0.04-2.16,0.63-2.28,2.16c-0.47,5.65-0.04,12.03,1.27,18.95l0,0c1.01,5.36,2.44,10.72,3.83,15.91
						c0.69,2.6,1.41,5.28,2.07,7.94c0.06,0.25,0.14,0.67,0.22,1.17c0.48,2.73,0.93,4.32,1.34,4.72c0.05-0.04,0.13-0.12,0.24-0.25
						c0.8-0.99,0.14-7.05-0.15-9.64c-0.13-1.16-0.23-2.07-0.25-2.63c-0.47-12.14-1.75-24.36-3.79-36.34
						C975.24,1132.75,974.07,1132.23,973.1,1132.23z"/>
				</g>
				<g>
					<path class="st1" d="M1002.82,1146.91c-1.63-6.18-2.71-12.66-2.63-19.04c0.04-3.82,5.57-4.42,6.48-0.71
						c2.9,11.87,5.03,23.94,6.37,36.09c0.24,2.18,2.35,11.04,1.11,12.81c-2.02,2.9-3.28-4.3-3.75-5.73
						C1007.88,1162.52,1004.91,1154.85,1002.82,1146.91z"/>
					<path class="st2" d="M1013.22,1177.61c-0.1,0-0.19-0.01-0.28-0.03c-1.55-0.29-2.32-2.86-3.09-5.95
						c-0.11-0.45-0.2-0.81-0.27-1.04c-0.84-2.59-1.74-5.21-2.61-7.74c-1.76-5.11-3.58-10.39-4.98-15.72l0,0
						c-1.83-6.96-2.73-13.45-2.66-19.28c0.03-2.48,1.92-3.83,3.67-4.03c1.75-0.21,3.93,0.69,4.53,3.13
						c2.9,11.87,5.05,24.05,6.39,36.2c0.05,0.49,0.22,1.42,0.42,2.48c0.92,5.08,1.6,9.4,0.55,10.92
						C1014.28,1177.39,1013.68,1177.61,1013.22,1177.61z M1013.29,1175.88L1013.29,1175.88L1013.29,1175.88z M1003.5,1125.54
						c-0.11,0-0.21,0.01-0.31,0.02c-0.97,0.11-2.1,0.78-2.12,2.32c-0.07,5.67,0.81,12,2.6,18.81l0,0c1.39,5.27,3.2,10.52,4.94,15.6
						c0.87,2.54,1.78,5.17,2.62,7.77c0.08,0.25,0.18,0.65,0.31,1.15c0.68,2.69,1.24,4.24,1.67,4.61c0.05-0.05,0.13-0.13,0.22-0.27
						c0.73-1.05-0.36-7.05-0.83-9.61c-0.21-1.14-0.37-2.05-0.43-2.6c-1.33-12.07-3.47-24.18-6.35-35.98
						C1005.49,1126.01,1004.42,1125.54,1003.5,1125.54z"/>
				</g>
				<g>
					<path class="st1" d="M1011.4,1145.75c0.22-6.39,1.05-12.91,2.95-19c1.14-3.64,6.61-2.63,6.41,1.18
						c-0.63,12.21-2.06,24.37-4.27,36.4c-0.4,2.15-0.92,11.25-2.62,12.59c-2.77,2.19-1.91-5.06-1.94-6.56
						C1011.75,1162.16,1011.12,1153.96,1011.4,1145.75z"/>
					<path class="st2" d="M1012.97,1178.21c-0.28,0-0.51-0.07-0.69-0.17c-1.41-0.72-1.4-3.41-1.25-6.59
						c0.02-0.46,0.04-0.84,0.03-1.07c-0.06-2.72-0.17-5.49-0.28-8.17c-0.22-5.4-0.44-10.98-0.25-16.49c0,0,0,0,0,0
						c0.25-7.2,1.25-13.67,2.99-19.23c0.74-2.37,2.94-3.12,4.67-2.81c1.75,0.31,3.57,1.79,3.44,4.3
						c-0.63,12.2-2.07,24.48-4.29,36.51c-0.09,0.49-0.19,1.42-0.31,2.49c-0.57,5.13-1.17,9.47-2.62,10.62
						C1013.85,1178.06,1013.36,1178.21,1012.97,1178.21z M1013.1,1176.51L1013.1,1176.51L1013.1,1176.51z M1012.27,1145.78
						c-0.18,5.45,0.04,11,0.25,16.36c0.11,2.69,0.22,5.46,0.28,8.2c0,0.26-0.01,0.68-0.04,1.19c-0.13,2.77-0.04,4.42,0.28,4.9
						c0.06-0.03,0.16-0.08,0.29-0.19c1-0.79,1.68-6.86,1.97-9.45c0.13-1.15,0.23-2.07,0.33-2.61c2.2-11.95,3.63-24.16,4.26-36.28
						c0.08-1.56-1.03-2.31-2.01-2.49c-0.96-0.17-2.24,0.15-2.7,1.61C1013.5,1132.43,1012.52,1138.74,1012.27,1145.78
						L1012.27,1145.78z"/>
				</g>
				<g>
					<path class="st1" d="M923.64,1142.13c0.22-6.39,1.05-12.91,2.95-19c1.14-3.64,6.61-2.63,6.41,1.18
						c-0.63,12.21-2.06,24.37-4.27,36.4c-0.4,2.15-0.92,11.25-2.62,12.59c-2.77,2.19-1.91-5.06-1.94-6.56
						C923.99,1158.53,923.36,1150.34,923.64,1142.13z"/>
					<path class="st2" d="M925.2,1174.58c-0.28,0-0.51-0.07-0.69-0.17c-1.41-0.72-1.4-3.41-1.25-6.59c0.02-0.46,0.04-0.84,0.03-1.07
						c-0.06-2.72-0.17-5.49-0.28-8.17c-0.22-5.4-0.44-10.98-0.25-16.49c0,0,0,0,0,0c0.25-7.2,1.25-13.67,2.99-19.23
						c0.74-2.37,2.95-3.12,4.67-2.81c1.75,0.31,3.57,1.79,3.44,4.3c-0.63,12.2-2.07,24.49-4.29,36.51
						c-0.09,0.49-0.19,1.42-0.31,2.49c-0.57,5.13-1.17,9.47-2.62,10.62C926.08,1174.43,925.6,1174.58,925.2,1174.58z
						 M925.34,1172.88h0.01H925.34z M924.51,1142.15c-0.18,5.45,0.04,11,0.25,16.36c0.11,2.69,0.22,5.46,0.28,8.2
						c0,0.26-0.01,0.68-0.04,1.19c-0.13,2.78-0.03,4.42,0.28,4.9c0.06-0.03,0.16-0.08,0.29-0.19c1-0.79,1.68-6.86,1.97-9.45
						c0.13-1.15,0.23-2.07,0.33-2.61c2.2-11.95,3.63-24.16,4.26-36.29c0.08-1.56-1.03-2.31-2.01-2.49c-0.96-0.17-2.24,0.15-2.7,1.61
						C925.73,1128.8,924.75,1135.11,924.51,1142.15L924.51,1142.15z"/>
				</g>
				<g>
					<path class="st1" d="M974.57,1150.62c0.22-6.39,1.05-12.91,2.95-19c1.14-3.64,6.61-2.63,6.41,1.18
						c-0.63,12.21-2.06,24.37-4.27,36.4c-0.4,2.15-0.92,11.25-2.62,12.59c-2.77,2.19-1.91-5.06-1.94-6.56
						C974.92,1167.02,974.29,1158.83,974.57,1150.62z"/>
					<path class="st2" d="M976.13,1183.07c-0.28,0-0.51-0.07-0.69-0.17c-1.41-0.72-1.4-3.41-1.25-6.59
						c0.02-0.46,0.04-0.84,0.04-1.07c-0.06-2.72-0.17-5.49-0.28-8.16c-0.22-5.4-0.44-10.98-0.25-16.5
						c0.25-7.19,1.25-13.66,2.99-19.23c0.74-2.37,2.94-3.12,4.67-2.81c1.75,0.31,3.57,1.79,3.44,4.29
						c-0.63,12.2-2.07,24.49-4.29,36.51c-0.09,0.49-0.19,1.42-0.31,2.49c-0.57,5.13-1.17,9.47-2.62,10.62
						C977.02,1182.93,976.53,1183.07,976.13,1183.07z M976.27,1181.38h0.01H976.27z M980.58,1130.23c-0.87,0-1.84,0.42-2.22,1.65
						c-1.69,5.42-2.67,11.73-2.91,18.77l0,0c-0.19,5.45,0.04,11,0.25,16.37c0.11,2.69,0.22,5.46,0.28,8.2
						c0,0.26-0.01,0.68-0.04,1.19c-0.13,2.78-0.04,4.42,0.28,4.9c0.06-0.03,0.16-0.08,0.29-0.19c1-0.79,1.68-6.86,1.97-9.45
						c0.13-1.15,0.23-2.07,0.33-2.61c2.2-11.95,3.63-24.16,4.26-36.29c0.08-1.56-1.03-2.31-2-2.49
						C980.9,1130.24,980.74,1130.23,980.58,1130.23z M974.57,1150.62L974.57,1150.62L974.57,1150.62z"/>
				</g>
				<g>
					<path class="st1" d="M990.11,1150.62c0.22-6.39,1.05-12.91,2.95-19c1.14-3.64,6.61-2.63,6.41,1.18
						c-0.63,12.21-2.06,24.37-4.27,36.4c-0.4,2.15-0.92,11.25-2.62,12.59c-2.77,2.19-1.91-5.06-1.94-6.56
						C990.46,1167.02,989.83,1158.83,990.11,1150.62z"/>
					<path class="st2" d="M991.67,1183.07c-0.28,0-0.51-0.07-0.69-0.17c-1.41-0.72-1.4-3.41-1.25-6.59
						c0.02-0.46,0.04-0.84,0.04-1.07c-0.06-2.72-0.17-5.49-0.28-8.17c-0.22-5.4-0.44-10.98-0.25-16.49c0,0,0,0,0,0
						c0.25-7.2,1.25-13.67,2.99-19.23c0.74-2.37,2.94-3.12,4.67-2.81c1.75,0.31,3.57,1.79,3.44,4.29
						c-0.63,12.2-2.07,24.49-4.29,36.51c-0.09,0.49-0.19,1.42-0.31,2.49c-0.57,5.13-1.17,9.47-2.62,10.62
						C992.55,1182.93,992.07,1183.07,991.67,1183.07z M991.81,1181.38h0.01H991.81z M990.98,1150.65
						c-0.18,5.45,0.04,10.99,0.25,16.36c0.11,2.69,0.22,5.46,0.28,8.2c0,0.26-0.01,0.68-0.04,1.19c-0.13,2.78-0.04,4.42,0.28,4.9
						c0.06-0.03,0.16-0.08,0.29-0.19c1-0.79,1.68-6.86,1.97-9.45c0.13-1.15,0.23-2.07,0.33-2.61c2.2-11.95,3.63-24.16,4.26-36.29
						c0.08-1.56-1.03-2.31-2-2.49c-0.96-0.17-2.24,0.14-2.7,1.61C992.2,1137.29,991.22,1143.61,990.98,1150.65L990.98,1150.65z"/>
				</g>
				<g>
					<path class="st1" d="M995.65,1155.56c-1.63-6.18-2.71-12.66-2.63-19.04c0.04-3.82,5.57-4.42,6.48-0.71
						c2.9,11.87,5.03,23.94,6.37,36.09c0.24,2.18,2.35,11.04,1.11,12.81c-2.02,2.9-3.28-4.29-3.75-5.73
						C1000.7,1171.17,997.74,1163.5,995.65,1155.56z"/>
					<path class="st2" d="M1006.04,1186.26c-0.1,0-0.19-0.01-0.28-0.03c-1.55-0.29-2.32-2.86-3.09-5.95
						c-0.11-0.45-0.2-0.81-0.27-1.04c-0.84-2.59-1.74-5.21-2.61-7.75c-1.76-5.11-3.58-10.39-4.98-15.72l0,0
						c-1.83-6.96-2.73-13.45-2.66-19.28c0.03-2.48,1.92-3.83,3.67-4.03c1.77-0.21,3.93,0.69,4.53,3.13
						c2.9,11.87,5.05,24.05,6.39,36.2c0.05,0.49,0.22,1.42,0.42,2.48c0.92,5.08,1.6,9.4,0.55,10.92
						C1007.11,1186.04,1006.51,1186.26,1006.04,1186.26z M996.49,1155.33c1.39,5.27,3.19,10.52,4.94,15.59
						c0.88,2.54,1.78,5.17,2.62,7.78c0.08,0.25,0.18,0.65,0.31,1.15c0.68,2.69,1.24,4.24,1.67,4.61c0.05-0.05,0.13-0.13,0.22-0.27
						c0.73-1.05-0.36-7.05-0.83-9.61c-0.21-1.15-0.37-2.05-0.43-2.6c-1.33-12.07-3.46-24.18-6.35-35.98
						c-0.37-1.51-1.65-1.92-2.64-1.81c-0.97,0.11-2.1,0.78-2.12,2.32C993.82,1142.19,994.7,1148.52,996.49,1155.33L996.49,1155.33z"
						/>
				</g>
			</g>
			<g>
				<g>
					<g>
						<path class="st1" d="M898.17,953.16c-1.94-7.85-7.26-14.74-8.04-22.79c-1.88-19.49,22.47-32.33,25.2-51.73
							c1.72-12.24-5.65-23.84-13.65-33.26c-8-9.42-17.28-18.53-20.63-30.43c-2.68-9.52-1.21-19.64-0.08-29.47
							c1.13-9.83,1.81-20.2-2.26-29.21c-4.07-9.01-14.45-15.93-23.84-12.82c-9.85,3.27-13.7,15.03-15.12,25.3
							c-2.42,17.47-1.95,35.7-8.76,51.98c-4.38,10.47-11.53,19.51-17.2,29.35c-5.67,9.84-9.94,21.28-7.69,32.4
							c3.82,18.87,25.18,31.89,24.95,51.14c-0.12,9.64-5.9,18.62-5.56,28.26c0.35,10.04,7.57,18.93,16.48,23.58
							C864.28,997.12,906.11,985.26,898.17,953.16z"/>
						<path class="st2" d="M861.37,990.68c-7.09,0-14.07-1.44-19.8-4.44c-9.96-5.2-16.61-14.75-16.94-24.32
							c-0.18-5.14,1.34-10.12,2.81-14.93c1.33-4.35,2.7-8.85,2.76-13.37c0.12-10.2-5.94-18.54-12.36-27.36
							c-5.31-7.29-10.79-14.83-12.56-23.59c-1.96-9.71,0.58-20.51,7.79-33.01c2-3.47,4.21-6.89,6.35-10.19
							c3.93-6.06,7.99-12.33,10.8-19.06c4.82-11.52,5.97-24.32,7.09-36.7c0.45-4.95,0.91-10.07,1.6-15.06
							c1.38-9.95,5.22-22.53,15.71-26.01c10.16-3.37,20.84,4.27,24.91,13.29c4.22,9.35,3.42,20.22,2.33,29.67l-0.25,2.11
							c-1.06,9.02-2.15,18.35,0.29,27.02c2.78,9.85,9.82,17.9,16.63,25.68c1.29,1.47,2.57,2.94,3.83,4.42
							c6.86,8.08,15.76,20.39,13.85,33.95c-1.29,9.14-7.24,16.84-12.99,24.28c-6.78,8.77-13.19,17.05-12.2,27.24
							c0.43,4.45,2.27,8.49,4.22,12.76c1.45,3.17,2.94,6.45,3.8,9.9l0,0c2.87,11.59-0.51,21.86-9.49,28.92
							C882.19,987.64,871.66,990.68,861.37,990.68z M859.67,743.56c-1.5,0-3.02,0.23-4.52,0.73c-9.64,3.2-13.22,15.14-14.53,24.59
							c-0.69,4.94-1.15,10.04-1.59,14.98c-1.13,12.51-2.3,25.45-7.22,37.22c-2.87,6.87-6.97,13.21-10.94,19.33
							c-2.13,3.29-4.33,6.68-6.31,10.11c-6.98,12.12-9.47,22.52-7.59,31.79c1.7,8.4,7.07,15.78,12.27,22.91
							c6.31,8.67,12.83,17.63,12.7,28.41c-0.06,4.77-1.47,9.39-2.83,13.86c-1.43,4.68-2.9,9.51-2.73,14.37
							c0.31,8.96,6.6,17.92,16.01,22.84c13.5,7.05,34.17,5.16,46.08-4.2c5.95-4.68,12.32-13.18,8.87-27.13
							c-0.81-3.29-2.28-6.5-3.69-9.6c-1.92-4.22-3.91-8.58-4.37-13.32c-1.05-10.88,5.87-19.83,12.56-28.48
							c5.62-7.26,11.42-14.77,12.65-23.46c1.38-9.79-2.9-20.14-13.45-32.58c-1.25-1.47-2.53-2.93-3.81-4.4
							c-6.94-7.93-14.11-16.13-16.99-26.36c-2.54-9.01-1.42-18.51-0.35-27.7l0.25-2.1c1.06-9.22,1.85-19.81-2.19-28.75
							C874.78,749.67,867.41,743.56,859.67,743.56z"/>
					</g>
					<g>
						<path class="st1" d="M878.31,1009.57c-0.36-6.58,2.78-13.83,8.94-16.16c3.61-1.36,7.69-0.89,11.35-2.11
							c5.96-1.99,9.62-8.08,11.25-14.14c1.64-6.06,1.77-12.45,3.44-18.51c4.77-17.35,23.35-29.72,41.2-27.42
							c11.34,1.46,21.72,8.01,33.14,8.37c8.01,0.26,15.82-2.57,23.83-2.94c8.01-0.37,17.29,2.88,19.7,10.52
							c3.05,9.66-6.78,18.72-16.41,21.86c-9.63,3.15-20.6,3.68-28.35,10.21c-7.12,6.01-9.78,15.76-10.98,25
							c-1.21,9.24-1.41,18.82-5.14,27.37c-3.73,8.54-12.3,15.92-21.52,14.6c-6.18-0.89-11.6-5.46-17.84-5.26
							c-9.17,0.3-15.48,10.62-24.62,11.44c-6.03,0.54-11.75-3.41-15.07-8.48C885.97,1035.89,878.83,1019.18,878.31,1009.57z"/>
						<path class="st2" d="M905.24,1053.33c-5.45,0-11.13-3.4-14.73-8.92c-5.09-7.79-12.52-24.79-13.07-34.79
							c-0.34-6.34,2.48-14.37,9.51-17.02c1.98-0.75,4.08-0.97,6.11-1.18c1.86-0.2,3.61-0.38,5.27-0.94
							c6.98-2.33,9.8-10.25,10.69-13.54c0.8-2.95,1.24-6.06,1.67-9.07c0.45-3.12,0.91-6.34,1.76-9.45
							c4.9-17.83,23.82-30.41,42.15-28.06c5.23,0.67,10.29,2.42,15.18,4.11c5.78,2,11.76,4.06,17.88,4.26
							c4.35,0.14,8.78-0.67,13.05-1.46c3.49-0.64,7.1-1.31,10.72-1.47c8.08-0.37,17.99,2.95,20.58,11.13
							c1.48,4.67,0.19,9.72-3.61,14.2c-3.28,3.86-8.14,7.05-13.35,8.75c-2.95,0.96-6.05,1.69-9.05,2.39
							c-7.08,1.66-13.77,3.23-19.01,7.66c-5.74,4.85-9.13,12.61-10.68,24.44c-0.27,2.05-0.49,4.16-0.71,6.2
							c-0.76,7.2-1.55,14.64-4.5,21.4c-4.94,11.33-15.03,16.17-22.44,15.12c-2.83-0.41-5.49-1.54-8.06-2.65
							c-3.26-1.4-6.35-2.73-9.63-2.6c-4.43,0.14-8.16,2.77-12.12,5.55c-3.81,2.69-7.76,5.46-12.46,5.88
							C906,1053.32,905.62,1053.33,905.24,1053.33z M950.11,931.83c-16.09,0-31.68,11.42-35.98,27.06c-0.83,3-1.28,6.17-1.72,9.23
							c-0.44,3.06-0.89,6.22-1.72,9.27c-2.04,7.54-6.35,12.91-11.82,14.74c-1.84,0.62-3.78,0.82-5.64,1.02
							c-2.01,0.21-3.9,0.41-5.67,1.08c-5.93,2.24-8.7,9.39-8.38,15.3l0,0c0.53,9.71,7.8,26.31,12.79,33.93
							c3.51,5.37,9.1,8.54,14.26,8.09c4.23-0.38,7.81-2.9,11.61-5.57c3.99-2.81,8.11-5.71,13.06-5.87c3.7-0.1,7.09,1.34,10.38,2.75
							c2.47,1.06,5.02,2.15,7.62,2.52c8.93,1.27,17.12-6.12,20.6-14.09c2.84-6.51,3.61-13.82,4.36-20.89
							c0.22-2.05,0.44-4.17,0.71-6.24c1.01-7.73,3.28-18.79,11.29-25.55c5.56-4.7,12.77-6.39,19.73-8.02
							c2.96-0.7,6.03-1.42,8.9-2.36c9.77-3.19,18.61-12.04,15.85-20.77c-2.3-7.3-11.38-10.26-18.83-9.91
							c-3.5,0.16-7.05,0.81-10.48,1.45c-4.36,0.8-8.87,1.63-13.42,1.49c-6.38-0.2-12.49-2.31-18.39-4.35
							c-4.81-1.66-9.79-3.38-14.83-4.03C952.95,931.92,951.53,931.83,950.11,931.83z"/>
					</g>
					<g>
						<path class="st1" d="M853.39,934.63c-6.36-5.81-15.76-8.36-20.22-15.73c-8.06-13.32,5.82-30.34,2.58-45.57
							c-3.19-14.99-20.58-21.34-31.61-31.98c-8.02-7.74-12.82-18.12-18.37-27.79c-5.55-9.67-12.55-19.29-22.83-23.59
							c-10.28-4.3-24.41-0.99-28.5,9.38c-4.31,10.92,3.77,22.32,9.72,32.44c9.93,16.87,14.75,36.7,13.67,56.24
							c-0.72,13.02-3.88,26.73,1.41,38.65c6.48,14.61,23.95,22.22,29.79,37.11c3.41,8.7,2.62,19.39,9,26.22
							c7.88,8.43,21.57,6,32.68,2.93c14.86-4.11,21.86-9.25,26.27-23.72C860.62,957.3,864.04,944.36,853.39,934.63z"/>
						<path class="st2" d="M813.54,996.66c-6.15,0-11.92-1.54-16.15-6.05c-4.21-4.51-5.42-10.63-6.6-16.56
							c-0.66-3.35-1.35-6.82-2.58-9.94c-2.92-7.44-9-13.19-14.88-18.75c-5.73-5.42-11.66-11.03-14.9-18.32
							c-4.2-9.47-3.19-20.07-2.21-30.32c0.28-2.88,0.56-5.86,0.72-8.74c1.07-19.3-3.74-39.1-13.55-55.75
							c-0.59-1.01-1.21-2.03-1.83-3.06c-5.62-9.33-11.99-19.91-7.95-30.14c1.73-4.39,5.21-7.79,10.06-9.83
							c6.03-2.55,13.54-2.56,19.59-0.03c11.09,4.63,18.25,15.24,23.25,23.96c1.09,1.9,2.15,3.83,3.21,5.76
							c4.25,7.72,8.64,15.71,15,21.83c3.48,3.35,7.69,6.34,11.76,9.23c8.78,6.23,17.86,12.67,20.1,23.2
							c1.48,6.95-0.48,14.2-2.38,21.21c-2.36,8.73-4.6,16.98-0.3,24.08c2.58,4.27,6.89,6.85,11.45,9.58
							c2.97,1.77,6.03,3.61,8.61,5.96l0,0c11.47,10.48,7.06,24.93,3.84,35.49c-4.75,15.58-12.78,20.41-26.87,24.31
							C825.46,995.3,819.33,996.66,813.54,996.66z M753.51,789.03c-3.17,0-6.33,0.6-9.15,1.79c-3.07,1.3-7.15,3.89-9.11,8.87
							c-3.72,9.42,2.15,19.17,7.82,28.6c0.63,1.04,1.24,2.06,1.84,3.08c9.98,16.95,14.87,37.09,13.79,56.73
							c-0.16,2.91-0.45,5.91-0.73,8.8c-0.96,10.02-1.95,20.39,2.06,29.44c3.09,6.97,8.89,12.45,14.5,17.76
							c6.02,5.69,12.24,11.58,15.3,19.38c1.28,3.26,1.98,6.81,2.66,10.24c1.18,5.95,2.29,11.56,6.16,15.71
							c7.56,8.09,20.97,5.68,31.81,2.68c15.58-4.31,21.58-9.72,25.67-23.13c4-13.11,6.5-24.69-3.35-33.69l0,0
							c-2.45-2.24-5.44-4.02-8.33-5.75c-4.54-2.72-9.24-5.53-12.05-10.17c-4.68-7.74-2.25-16.74,0.11-25.44
							c1.85-6.81,3.75-13.86,2.36-20.39c-2.1-9.86-10.51-15.82-19.41-22.14c-4.12-2.92-8.39-5.95-11.96-9.39
							c-6.55-6.31-11.01-14.41-15.32-22.25c-1.06-1.92-2.11-3.84-3.2-5.73c-4.87-8.48-11.81-18.78-22.41-23.21
							C759.8,789.62,756.66,789.03,753.51,789.03z"/>
					</g>
					<g>
						<path class="st2" d="M864.28,1281.61c-0.48,0-0.87-0.39-0.87-0.87V839.28c0-0.48,0.39-0.87,0.87-0.87
							c0.48,0,0.87,0.39,0.87,0.87v441.45C865.16,1281.22,864.77,1281.61,864.28,1281.61z"/>
					</g>
					<g>
						<path class="st2" d="M864.55,1010.35c-0.26,0-0.52-0.12-0.69-0.34c-25.47-33.14-44.61-70.2-56.88-110.16
							c-1.59-5.16-3.08-10.44-4.52-15.55c-3.55-12.57-7.21-25.57-12.56-37.68c-6.03-13.64-17.05-31.88-35.33-41.36
							c-0.43-0.22-0.59-0.75-0.37-1.18c0.22-0.43,0.75-0.6,1.18-0.37c18.73,9.72,29.98,28.31,36.12,42.21
							c5.4,12.22,9.08,25.28,12.65,37.91c1.44,5.1,2.93,10.37,4.5,15.51c12.22,39.75,31.26,76.63,56.6,109.61
							c0.29,0.38,0.22,0.93-0.16,1.22C864.92,1010.29,864.73,1010.35,864.55,1010.35z"/>
					</g>
					<g>
						<path class="st2" d="M864.54,1076.85c-0.19,0-0.38-0.06-0.54-0.19c-0.38-0.3-0.44-0.85-0.15-1.22
							c12.19-15.55,23.87-29.93,35.17-43.83c11.29-13.9,22.97-28.27,35.15-43.81c8.37-10.68,18.79-23.98,33.5-29.09
							c7.12-2.47,14.91-2.92,22.45-3.36c10.68-0.61,20.77-1.19,28.99-7.07c0.39-0.28,0.94-0.19,1.22,0.2
							c0.28,0.39,0.19,0.94-0.2,1.22c-8.63,6.17-19.45,6.79-29.91,7.39c-7.42,0.43-15.09,0.87-21.98,3.26
							c-14.23,4.95-24.47,18.02-32.7,28.52c-12.19,15.55-23.87,29.93-35.17,43.83c-11.29,13.9-22.97,28.26-35.15,43.81
							C865.06,1076.73,864.8,1076.85,864.54,1076.85z"/>
					</g>
				</g>
				<g>
					<path class="st3" d="M566.78,808.27c-0.22,0-0.42-0.08-0.59-0.23c-1.51-1.37-36.81-33.71-30.89-54
						c6.95-23.8,34.26-39.59,55.94-48.65c23.39-9.77,45.45-14.03,45.67-14.07c0.05-0.01,0.11-0.02,0.16-0.02
						c0.28,0,0.55,0.14,0.72,0.38c0.2,0.28,0.21,0.66,0.03,0.95l-70.3,115.21c-0.14,0.22-0.36,0.37-0.62,0.41
						C566.86,808.27,566.82,808.27,566.78,808.27z"/>
					<path class="st2" d="M637.08,692.19l-70.3,115.21c0,0-36.48-33.11-30.64-53.11C549.41,708.87,637.08,692.19,637.08,692.19
						 M637.08,690.44c-0.11,0-0.22,0.01-0.33,0.03c-0.22,0.04-22.37,4.32-45.84,14.12c-13.83,5.78-25.44,12.33-34.48,19.46
						c-11.44,9.02-18.83,19.03-21.96,29.75c-6.08,20.8,29.62,53.51,31.14,54.89c0.32,0.29,0.74,0.45,1.17,0.45
						c0.08,0,0.17-0.01,0.25-0.02c0.51-0.07,0.97-0.37,1.24-0.82l70.3-115.21c0.36-0.59,0.34-1.33-0.05-1.9
						C638.18,690.72,637.65,690.44,637.08,690.44L637.08,690.44z M637.08,693.93L637.08,693.93L637.08,693.93L637.08,693.93z"/>
				</g>
				<g>
					<polygon class="st3" points="696.78,823.24 660.55,820.3 666.44,796.31 693.38,798.86 					"/>
					<path class="st2" d="M696.78,824.11c-0.02,0-0.05,0-0.07,0l-36.23-2.94c-0.26-0.02-0.49-0.15-0.64-0.36
						c-0.15-0.21-0.2-0.47-0.14-0.72l5.89-23.99c0.1-0.42,0.51-0.71,0.93-0.66l26.94,2.55c0.4,0.04,0.73,0.35,0.78,0.75l3.4,24.38
						c0.04,0.26-0.05,0.53-0.23,0.72C697.25,824.01,697.02,824.11,696.78,824.11z M661.64,819.51l34.12,2.77l-3.16-22.62l-25.5-2.41
						L661.64,819.51z"/>
				</g>
				<g>
					<polygon class="st3" points="710.6,1163.04 744.11,1150.33 750.55,1177.35 727.16,1186.51 					"/>
					<path class="st2" d="M743.49,1151.5l6.03,25.31l-22.05,8.63l-15.51-21.99L743.49,1151.5 M744.73,1149.17l-35.49,13.46
						l17.6,24.94l24.73-9.68L744.73,1149.17L744.73,1149.17z"/>
				</g>
				<g>
					<path class="st4" d="M603.68,878.11l-84.3,62.42l132.89,72.78l51.17,155.77l46.73-13.62l-26.2-166.86
						c-3.24-20.65-14.91-39.04-32.21-50.77L603.68,878.11z"/>
					<path class="st2" d="M703.44,1169.95c-0.37,0-0.71-0.23-0.83-0.6l-51.07-155.44L518.96,941.3c-0.26-0.14-0.43-0.41-0.45-0.71
						c-0.02-0.3,0.11-0.58,0.35-0.76l84.3-62.42c0.3-0.22,0.7-0.23,1.01-0.02l88.07,59.71c17.44,11.82,29.32,30.54,32.59,51.36
						l26.2,166.86c0.07,0.43-0.2,0.85-0.62,0.97l-46.73,13.62C703.6,1169.94,703.52,1169.95,703.44,1169.95z M520.99,940.42
						l131.69,72.12c0.19,0.11,0.34,0.28,0.41,0.49L704,1168l45.18-13.17L723.1,988.73c-3.19-20.34-14.8-38.63-31.84-50.19
						l-87.56-59.36L520.99,940.42z"/>
				</g>
				<polygon class="st2" points="496.82,1258.24 545.57,1290.75 467.85,1290.75 470.26,1258.24 				"/>
				<g>
					<polygon class="st3" points="471.2,1258.35 472.49,1240.3 504.19,1240.3 496.25,1258.35 					"/>
					<path class="st2" d="M502.86,1241.18l-7.17,16.3h-23.55l1.17-16.3H502.86 M505.53,1239.43h-33.85l-1.42,19.79h26.56
						L505.53,1239.43L505.53,1239.43z"/>
				</g>
				<g>
					<path class="st4" d="M518.4,895.76l-5.67,186.19l-49.12,158.69l49.33,0.82l69.28-130.3c7.13-13.41,11.6-28.08,13.16-43.19
						l17.21-172.22H518.4z"/>
					<path class="st2" d="M512.93,1242.34c0,0-0.01,0-0.01,0l-49.33-0.82c-0.27,0-0.53-0.14-0.69-0.36
						c-0.16-0.22-0.21-0.51-0.13-0.77l49.09-158.58l5.67-186.07c0.01-0.47,0.4-0.85,0.87-0.85h94.19c0.25,0,0.48,0.1,0.65,0.29
						c0.17,0.18,0.25,0.43,0.22,0.67l-17.21,172.22c-1.58,15.3-6.04,29.93-13.26,43.51l-69.28,130.3
						C513.55,1242.16,513.26,1242.34,512.93,1242.34z M464.79,1239.79l47.63,0.8l69.03-129.83c7.11-13.38,11.51-27.8,13.06-42.87
						l17.12-171.26h-92.38l-5.64,185.34c0,0.08-0.02,0.16-0.04,0.23L464.79,1239.79z M512.73,1081.95L512.73,1081.95L512.73,1081.95
						z"/>
				</g>
				<g>
					<path class="st3" d="M666.86,716.1c-0.21,0-0.42-0.08-0.58-0.22l-25.08-22.57c-0.31-0.28-0.38-0.74-0.17-1.09l19.36-32.6
						c-0.97-2.59-0.62-5.56,1.05-8.83c2.19-4.29,5.15-6.47,8.8-6.47c3.59,0,6.81,2.17,8.27,3.32l8.14-13.76
						c0.12-0.21,0.33-0.35,0.56-0.41c0.06-0.01,0.13-0.02,0.19-0.02c0.17,0,0.34,0.05,0.49,0.15l31.49,21.42
						c0.37,0.25,0.49,0.75,0.27,1.14l-9.01,16.24l1.87,4.45c0.71,1.7,0.53,3.63-0.49,5.16c-1.02,1.54-2.73,2.46-4.55,2.46
						c-0.2,0-0.4-0.01-0.61-0.03l-1.58-0.17c-6.73,14.63-16.13,16.83-21.17,16.83c0,0,0,0,0,0c-2.46,0-4.9-0.48-7.27-1.44l-9.22,16
						c-0.13,0.23-0.36,0.38-0.62,0.43C666.95,716.09,666.9,716.1,666.86,716.1z"/>
					<path class="st2" d="M687.39,634.31l31.49,21.42l-9.21,16.61l2.03,4.84c1.29,3.08-1.01,6.41-4.24,6.41
						c-0.17,0-0.34-0.01-0.51-0.03l-2.21-0.24c-5.5,12.35-13.35,16.9-20.64,16.9c-2.67,0-5.27-0.61-7.64-1.67l-9.61,16.66
						l-25.08-22.57l19.59-32.98l-0.01,0c-0.94-2.15-0.97-4.93,0.85-8.5c2.33-4.57,5.27-5.99,8.03-5.99c4.5,0,8.49,3.78,8.49,3.78
						L687.39,634.31 M687.39,632.57c-0.13,0-0.25,0.01-0.38,0.04c-0.47,0.11-0.88,0.4-1.12,0.81l-7.64,12.93
						c-1.77-1.25-4.73-2.91-8.01-2.91c-2.76,0-6.66,1.2-9.58,6.94c-1.7,3.33-2.11,6.4-1.22,9.13l-19.15,32.25
						c-0.42,0.72-0.29,1.63,0.33,2.19l25.08,22.57c0.32,0.29,0.74,0.45,1.17,0.45c0.09,0,0.18-0.01,0.27-0.02
						c0.52-0.08,0.97-0.4,1.24-0.85l8.85-15.35c2.25,0.82,4.56,1.23,6.89,1.23c5.18,0,14.78-2.21,21.7-16.77l0.96,0.1
						c0.23,0.03,0.47,0.04,0.7,0.04c2.12,0,4.1-1.06,5.28-2.85c1.18-1.78,1.39-4.01,0.56-5.98l-1.71-4.06l8.8-15.87
						c0.44-0.79,0.2-1.78-0.54-2.29l-31.49-21.42C688.08,632.67,687.73,632.57,687.39,632.57L687.39,632.57z"/>
				</g>
				<path class="st2" d="M703.39,664.82c-0.54,1.2-0.37,2.45,0.37,2.79c0.74,0.33,1.79-0.37,2.33-1.58c0.54-1.2,0.37-2.45-0.37-2.79
					C704.97,662.9,703.93,663.61,703.39,664.82z"/>
				<g>
					<path class="st2" d="M710.06,662.15c-0.35,0-0.68-0.21-0.81-0.56c-0.07-0.17-1.52-3.68-6.01-2.81
						c-0.47,0.1-0.93-0.22-1.02-0.69c-0.09-0.47,0.22-0.93,0.69-1.02c4.76-0.93,7.3,2.14,7.97,3.89c0.17,0.45-0.05,0.95-0.5,1.13
						C710.27,662.13,710.16,662.15,710.06,662.15z"/>
				</g>
				<g>
					<path class="st2" d="M664.23,654.53c-0.16,0-0.31-0.04-0.46-0.13c-0.41-0.25-0.54-0.79-0.29-1.2c1.73-2.82,3.8-4.45,6.14-4.84
						c3.18-0.53,5.6,1.44,5.7,1.53c0.37,0.31,0.42,0.86,0.12,1.23c-0.3,0.37-0.85,0.43-1.23,0.12c-0.03-0.02-1.96-1.55-4.32-1.15
						c-1.82,0.31-3.47,1.67-4.92,4.03C664.82,654.38,664.53,654.53,664.23,654.53z"/>
				</g>
				<g>
					<path class="st2" d="M670.3,660.39c-0.05,0-0.1,0-0.16-0.01c-0.47-0.09-0.79-0.54-0.7-1.02c0.92-5.04-2.36-8.74-2.4-8.78
						c-0.32-0.36-0.3-0.91,0.06-1.23c0.36-0.32,0.91-0.3,1.23,0.06c0.16,0.17,3.9,4.35,2.82,10.26
						C671.08,660.09,670.71,660.39,670.3,660.39z"/>
				</g>
				<g>
					<path class="st2" d="M692.03,692.61c-0.23,0-0.47-0.09-0.64-0.28c-1.61-1.75-2.92-3.76-3.91-5.97c-0.2-0.44,0-0.96,0.44-1.15
						c0.44-0.19,0.96,0,1.15,0.44c0.91,2.04,2.12,3.89,3.6,5.5c0.33,0.35,0.3,0.91-0.05,1.23
						C692.45,692.53,692.24,692.61,692.03,692.61z"/>
				</g>
				<g>
					<g>
						<path class="st3" d="M519.07,896.97c17.89-98.05,86.68-192.84,125.07-209.9l22.03,28.68c0.03,0.04,0.07,0.08,0.11,0.12
							c13.62,12.2,3.23,81.58-3.2,107.13c-7.12,28.29-14.06,47.29-24.56,76.04l-0.62,1.7L519.07,896.97z"/>
						<path class="st2" d="M643.87,688.15l21.61,28.13c0.07,0.09,0.14,0.17,0.22,0.24c5.8,5.19,7.74,22.85,5.46,49.73
							c-1.96,23.16-6.52,46.97-8.93,56.54c-7.11,28.24-14.04,47.21-24.52,75.92l-0.41,1.13l-117.18-3.71
							c8.15-43.8,27.35-91.14,54.19-133.57C597.73,725.52,624.24,697.21,643.87,688.15 M644.41,686
							c-39.87,16.98-108.91,114.08-126.39,211.81l120.47,3.82c10.82-29.64,18.1-49.32,25.42-78.41c5.22-20.76,17.72-94.76,2.94-108
							L644.41,686L644.41,686z"/>
					</g>
				</g>
				<g>
					<path class="st2" d="M663.8,665.28c-0.21,0-0.42-0.08-0.59-0.23c-2.35-2.17-3.66-5.25-3.72-5.38
						c-0.19-0.44,0.02-0.95,0.46-1.14c0.44-0.19,0.95,0.02,1.14,0.46c0.01,0.03,1.23,2.87,3.3,4.78c0.35,0.33,0.38,0.88,0.05,1.23
						C664.27,665.19,664.04,665.28,663.8,665.28z"/>
				</g>
				<path class="st2" d="M723.66,631.23c0.25-1.33,0.41-2.76,0.22-4.34c-0.6-4.82-3.74-9.1-8.31-10.75
					c-1.21-0.44-2.44-0.68-3.66-0.75c-4.45-0.25-8.5-2.43-11.77-5.45c-0.78-0.72-1.71-1.4-2.81-2c-4.19-2.3-12.65-3.84-23.12,6.63
					c-5.13,5.14-17.4,22.07-20.54,32.44c-2.4,7.91,3.74,10.98,5.88,13.55c0,0-0.36-3.18,0.58-6.8c0.48-1.84,2.03-4.21,3.44-6.1
					c1.78-2.38,4.66-3.73,7.63-3.55c0.85,0.05,1.58,0.17,2.09,0.36c6.07,2.22,5.42,4.49,5.42,4.49l8.45-11.43
					c0,0,9.85,6.04,26.46,17.37c0.63,0.43,1.23,0.8,1.81,1.14c1.6,1.48,3.67,2.53,6.12,2.8c4.65,0.52,9.19-2.15,11.01-6.46
					c1.49-3.53-1.27-7.99-3.77-11.03C727.16,639.35,722.63,636.7,723.66,631.23z"/>
				<g>
					<g>
						<path class="st3" d="M745.88,1206.31l99.86-25.99c0,0,17.31,99.89-24.48,110.77S745.88,1206.31,745.88,1206.31z"/>
						<path class="st2" d="M814.72,1292.8c-15.53,0-31.83-13.51-47.57-39.57c-13.51-22.37-22.01-46.39-22.09-46.63
							c-0.08-0.23-0.06-0.48,0.05-0.7c0.11-0.22,0.31-0.37,0.55-0.43l99.86-25.99c0.24-0.06,0.49-0.02,0.69,0.11
							c0.21,0.13,0.35,0.34,0.39,0.58c0.04,0.25,4.33,25.36,3.45,51.48c-1.19,34.88-11.06,55.72-28.56,60.28
							C819.25,1292.51,816.99,1292.8,814.72,1292.8z M747.03,1206.91c3.55,9.64,35.62,93.31,74.01,83.33
							c38.41-10,25.59-98.69,23.99-108.84L747.03,1206.91z"/>
					</g>
					<g>
						<path class="st2" d="M804.67,1228.23c-0.39,0-0.74-0.26-0.84-0.65l-8.86-34.05c-0.12-0.47,0.16-0.94,0.62-1.06
							c0.47-0.12,0.94,0.16,1.06,0.62l8.86,34.05c0.12,0.47-0.16,0.94-0.62,1.06C804.82,1228.22,804.74,1228.23,804.67,1228.23z"/>
					</g>
					
						<rect x="730.27" y="716.08" transform="matrix(0.9678 -0.2519 0.2519 0.9678 -217.7886 215.9957)" class="st2" width="8.89" height="485.05"/>
					
						<rect x="784.92" y="1170.76" transform="matrix(0.9678 -0.2519 0.2519 0.9678 -272.305 237.8966)" class="st2" width="16.14" height="23.43"/>
				</g>
				<polygon class="st2" points="751.57,1177.89 808.81,1190.38 736.44,1218.72 726.84,1187.57 				"/>
				<g>
					<path class="st2" d="M522.46,1221.73c-0.01,0-0.02,0-0.04,0l-50.77-2.09c-0.48-0.02-0.86-0.43-0.84-0.91
						c0.02-0.48,0.41-0.88,0.91-0.84l50.77,2.09c0.48,0.02,0.86,0.43,0.84,0.91C523.31,1221.36,522.92,1221.73,522.46,1221.73z"/>
				</g>
				<g>
					<path class="st2" d="M698.21,1150.04c-0.38,0-0.72-0.25-0.84-0.63c-0.14-0.46,0.13-0.95,0.59-1.08l47.39-13.97
						c0.46-0.14,0.95,0.13,1.08,0.59c0.14,0.46-0.13,0.95-0.59,1.08L698.46,1150C698.37,1150.03,698.29,1150.04,698.21,1150.04z"/>
				</g>
				<g>
					<path class="st4" d="M555.49,899c0,0,50.72-96.84,49.68-131.38l66.45,11.14c0,0-11.33,93.11-32.08,123.91L555.49,899z"/>
					<path class="st2" d="M639.54,903.55c-0.01,0-0.03,0-0.04,0l-84.05-3.67c-0.3-0.01-0.57-0.18-0.72-0.44
						c-0.15-0.26-0.15-0.58-0.02-0.84c0.51-0.97,50.6-97.03,49.58-130.95c-0.01-0.26,0.1-0.51,0.3-0.68c0.2-0.17,0.46-0.24,0.72-0.2
						l66.46,11.14c0.46,0.08,0.78,0.5,0.72,0.97c-0.11,0.93-11.6,93.67-32.23,124.29C640.1,903.4,639.83,903.55,639.54,903.55z
						 M556.9,898.19l82.19,3.59c19.2-29.12,30.38-113.03,31.57-122.3l-64.6-10.83c0.02,14.67-8.23,40.89-24.54,77.96
						C570.68,871.26,559.62,892.92,556.9,898.19z"/>
				</g>
				<g>
					<g>
						<path class="st3" d="M713.18,903.55c-0.39,0-0.79-0.02-1.2-0.07c-0.07-0.01-0.14-0.02-0.2-0.05
							c-0.21-0.08-20.87-7.59-26.82-10.01c-52.56-21.34-75.63-58.75-85.73-86.38c-10.94-29.93-9.43-55.17-9.41-55.42
							c0.03-0.43,0.37-0.78,0.8-0.81c0,0,58.09-4.71,58.11-4.71c0.24,0,0.48,0.1,0.64,0.28c0.18,0.2,0.26,0.47,0.22,0.73
							c-5.88,35.28,4.28,63.94,13.83,81.77c11.62,21.69,26.01,34.58,32.57,37.78c0.08,0.01,0.15,0.02,0.22,0.05l6.34,2.53l0.54,0.27
							l18.97,6.17c2.47,0.91,3.73,3.63,2.84,6.07c-0.49,1.34-1.92,2.1-3.19,2.52c1.74,1.59,2.44,4.14,1.58,6.48
							c-0.88,2.24-2.77,3.45-5.46,3.53c1.37,1.55,2.08,3.61,1.37,5.55C718.35,902.16,716.1,903.55,713.18,903.55z"/>
						<path class="st2" d="M648.74,746.97c-10.94,65.62,32.35,113.72,47.14,120.6l0.02-0.04l6.34,2.53l0.53,0.27l19.03,6.19
							c2,0.73,3.02,2.94,2.29,4.94c-0.73,2-4.65,2.44-4.65,2.44c2.65,0.97,4.01,3.91,3.04,6.56c-0.95,2.39-3.1,2.97-4.94,2.97
							c-1.7,0-3.14-0.49-3.14-0.49c2.65,0.97,4.96,3.96,3.98,6.61v0c-0.64,1.74-2.35,3.13-5.19,3.13c-0.35,0-0.72-0.02-1.1-0.06
							c0,0-20.79-7.56-26.79-9.99c-101.17-41.08-94.6-140.94-94.6-140.94L648.74,746.97 M648.74,745.22c-0.05,0-0.09,0-0.14,0.01
							l-58.04,4.71c-0.86,0.07-1.54,0.76-1.6,1.62c-0.07,1.03-1.54,25.68,9.46,55.78c6.47,17.69,15.93,33.53,28.12,47.09
							c15.23,16.94,34.78,30.33,58.1,39.8c5.96,2.42,26,9.71,26.85,10.02c0.13,0.05,0.26,0.08,0.4,0.09
							c0.44,0.05,0.88,0.08,1.3,0.08c3.3,0,5.85-1.6,6.83-4.27c0.65-1.76,0.3-3.59-0.62-5.16c2.24-0.46,3.88-1.8,4.7-3.89
							c0.83-2.27,0.41-4.68-0.91-6.48c1.08-0.54,2.09-1.35,2.54-2.56c0.51-1.4,0.45-2.92-0.18-4.28c-0.63-1.36-1.75-2.39-3.15-2.9
							c-0.02-0.01-0.04-0.01-0.06-0.02l-18.91-6.15l-0.42-0.21c-0.04-0.02-0.09-0.04-0.13-0.06l-6.34-2.53
							c-0.09-0.04-0.19-0.07-0.28-0.09c-6.51-3.25-20.6-15.97-32.06-37.35c-9.49-17.71-19.58-46.17-13.74-81.22
							c0.09-0.53-0.07-1.07-0.44-1.47C649.69,745.43,649.22,745.22,648.74,745.22L648.74,745.22z M648.74,748.71L648.74,748.71
							L648.74,748.71L648.74,748.71z"/>
					</g>
					<g>
						<path class="st2" d="M717.48,895.14c-0.11,0-0.23-0.02-0.34-0.07l-7.08-3.04c-0.44-0.19-0.65-0.7-0.46-1.15
							c0.19-0.44,0.71-0.65,1.14-0.46l7.08,3.04c0.44,0.19,0.65,0.7,0.46,1.14C718.14,894.94,717.82,895.14,717.48,895.14z"/>
					</g>
					<g>
						<path class="st2" d="M721.81,885.37c-0.08,0-0.17-0.01-0.25-0.04l-7.37-2.23c-0.46-0.14-0.72-0.63-0.58-1.09
							c0.14-0.46,0.63-0.72,1.09-0.58l7.37,2.23c0.46,0.14,0.72,0.63,0.58,1.09C722.53,885.12,722.18,885.37,721.81,885.37z"/>
					</g>
				</g>
				<path class="st3" d="M587.16,760.9l66.32-0.67c0,0,9.11-70.08-20.05-68.04C594.58,694.89,587.16,760.9,587.16,760.9z"/>
				<g>
					<path class="st2" d="M587.16,761.78c-0.25,0-0.49-0.11-0.66-0.3c-0.17-0.19-0.24-0.45-0.21-0.7
						c0.02-0.17,2.51-17.17,9.83-34.16c9.77-22.67,23.69-35.04,40.25-35.76c0.47-0.05,0.89,0.35,0.91,0.83
						c0.02,0.48-0.35,0.89-0.83,0.91c-35.83,1.56-46.85,59.05-48.27,67.41l64.5-0.65c0.3-3.4,1.41-17.34,0.25-29.23
						c-0.05-0.48,0.3-0.91,0.78-0.95c0.48-0.05,0.91,0.3,0.95,0.78c1.34,13.75-0.31,30.18-0.33,30.35
						c-0.04,0.44-0.41,0.78-0.86,0.78L587.16,761.78C587.17,761.78,587.16,761.78,587.16,761.78z"/>
				</g>
				<g>
					<path class="st3" d="M698.61,803.37l-0.22-3.85c-0.07-1.22,0.86-2.27,2.08-2.34l2.96-0.17c1.22-0.07,2.27,0.86,2.34,2.08
						l0.22,3.85c0.07,1.22-0.86,2.27-2.08,2.34l-2.96,0.17C699.72,805.53,698.68,804.59,698.61,803.37z"/>
					<path class="st2" d="M700.81,806.33c-1.62,0-2.98-1.27-3.07-2.9l-0.22-3.86c-0.05-0.82,0.23-1.61,0.78-2.22
						c0.55-0.61,1.3-0.98,2.12-1.02l2.97-0.17c0.81-0.04,1.61,0.23,2.22,0.78c0.61,0.55,0.98,1.3,1.02,2.12l0.22,3.86
						c0.05,0.82-0.23,1.61-0.78,2.22c-0.55,0.61-1.3,0.98-2.12,1.02l-2.97,0.17C700.93,806.33,700.87,806.33,700.81,806.33z
						 M703.57,797.89c-0.03,0-0.05,0-0.08,0l-2.97,0.17c-0.36,0.02-0.68,0.18-0.92,0.44c-0.24,0.27-0.36,0.61-0.33,0.96l0.22,3.86
						l0,0c0.02,0.36,0.18,0.68,0.44,0.92c0.27,0.24,0.61,0.36,0.96,0.34l2.97-0.17c0.36-0.02,0.68-0.18,0.92-0.44
						c0.24-0.27,0.36-0.61,0.34-0.96l-0.22-3.86c-0.02-0.36-0.18-0.68-0.44-0.92C704.21,798.01,703.89,797.89,703.57,797.89z"/>
				</g>
				<g>
					<path class="st3" d="M699.09,811.73l-0.22-3.85c-0.07-1.22,0.86-2.27,2.08-2.34l2.96-0.17c1.22-0.07,2.27,0.86,2.34,2.08
						l0.22,3.85c0.07,1.22-0.86,2.27-2.08,2.34l-2.96,0.17C700.2,813.88,699.16,812.95,699.09,811.73z"/>
					<path class="st2" d="M701.29,814.69c-1.62,0-2.98-1.27-3.07-2.9c0,0,0,0,0,0l-0.22-3.86c-0.05-0.82,0.23-1.61,0.78-2.22
						c0.55-0.61,1.3-0.98,2.12-1.02l2.97-0.17c1.67-0.09,3.15,1.2,3.25,2.9l0.22,3.86c0.05,0.82-0.23,1.61-0.78,2.22
						c-0.55,0.61-1.3,0.98-2.12,1.02l-2.97,0.17C701.41,814.69,701.35,814.69,701.29,814.69z M699.96,811.69
						c0.04,0.73,0.68,1.31,1.41,1.26l2.97-0.17c0.36-0.02,0.68-0.18,0.92-0.44c0.24-0.27,0.36-0.61,0.34-0.96l-0.22-3.86
						c-0.04-0.73-0.69-1.3-1.41-1.25l-2.97,0.17c-0.36,0.02-0.68,0.18-0.92,0.44c-0.24,0.27-0.36,0.61-0.34,0.96L699.96,811.69z"/>
				</g>
				<g>
					<path class="st3" d="M699.57,820.25l-0.22-3.85c-0.07-1.22,0.86-2.27,2.08-2.34l2.96-0.17c1.22-0.07,2.27,0.86,2.34,2.08
						l0.22,3.85c0.07,1.22-0.86,2.27-2.08,2.34l-2.96,0.17C700.69,822.41,699.64,821.47,699.57,820.25z"/>
					<path class="st2" d="M701.77,823.21c-0.75,0-1.48-0.27-2.04-0.78c-0.61-0.55-0.98-1.3-1.02-2.12l-0.22-3.86
						c-0.1-1.69,1.2-3.15,2.9-3.25l2.97-0.17c1.72-0.09,3.15,1.21,3.25,2.9l0.22,3.86c0.05,0.82-0.23,1.61-0.78,2.22
						c-0.55,0.61-1.3,0.98-2.12,1.02l-2.97,0.17C701.89,823.21,701.83,823.21,701.77,823.21z M704.53,814.77c-0.03,0-0.05,0-0.08,0
						l-2.97,0.17c-0.36,0.02-0.68,0.18-0.92,0.44c-0.24,0.27-0.36,0.61-0.33,0.96l0.22,3.86l0,0c0.02,0.36,0.18,0.68,0.44,0.92
						c0.27,0.24,0.62,0.36,0.96,0.33l2.98-0.17c0.36-0.02,0.68-0.18,0.92-0.44c0.24-0.27,0.36-0.61,0.34-0.96l-0.22-3.86
						C705.82,815.32,705.23,814.77,704.53,814.77z"/>
				</g>
				<path class="st3" d="M679.57,805l-0.04-0.15c-0.62-2.15,0.63-4.4,2.78-5.02l9.27-2.65c2.15-0.62,4.4,0.63,5.02,2.78l0.04,0.15
					c0.62,2.15-0.63,4.4-2.78,5.02l-9.27,2.65C682.43,808.4,680.18,807.16,679.57,805z"/>
				<g>
					<path class="st2" d="M678.91,817.17c-0.32,0-0.63-0.18-0.78-0.48c-0.22-0.43-0.04-0.95,0.39-1.17c3.98-2,5.27-7.88,5.29-7.94
						c0.07-0.32,0.3-0.57,0.61-0.66l9.12-2.61c1.73-0.5,2.74-2.31,2.24-4.04c-0.5-1.73-2.31-2.73-4.04-2.24l-9.12,2.61
						c-0.47,0.14-0.95-0.14-1.08-0.6c-0.13-0.46,0.14-0.95,0.6-1.08l9.12-2.61c2.66-0.76,5.44,0.78,6.2,3.44
						c0.76,2.66-0.78,5.44-3.44,6.2l-8.63,2.47c-0.44,1.63-2.08,6.6-6.08,8.62C679.18,817.14,679.05,817.17,678.91,817.17z"/>
				</g>
				<g>
					<path class="st2" d="M588.3,739.87c-0.27,0-0.53-0.12-0.7-0.36l-17.5-23.77c-0.29-0.39-0.2-0.93,0.19-1.22
						c0.39-0.28,0.93-0.2,1.22,0.19l17.5,23.77c0.29,0.39,0.2,0.93-0.19,1.22C588.66,739.81,588.48,739.87,588.3,739.87z"/>
				</g>
				<path class="st2" d="M801.96,1291.94H926.6c0,0-21.94-34.74-62.32-34.74C823.91,1257.2,801.96,1291.94,801.96,1291.94z"/>
				<g>
					<path class="st2" d="M676.13,700.35c-0.2,0-0.4-0.07-0.57-0.21l-8.95-7.63c-0.37-0.31-0.41-0.86-0.1-1.23
						c0.31-0.37,0.87-0.41,1.23-0.1l8.95,7.63c0.37,0.31,0.41,0.86,0.1,1.23C676.62,700.24,676.38,700.35,676.13,700.35z"/>
				</g>
			</g>
		</g>
	</g>
</g>
</svg>
