<?xml version="1.0" encoding="utf-8"?>
<!-- Generator: Adobe Illustrator 24.2.0, SVG Export Plug-In . SVG Version: 6.00 Build 0)  -->
<svg version="1.1" id="_1" xmlns="http://www.w3.org/2000/svg" xmlns:xlink="http://www.w3.org/1999/xlink" x="0px" y="0px"
	 viewBox="0 0 1230.53 1152" style="enable-background:new 0 0 1230.53 1152;" xml:space="preserve">
<style type="text/css">
	.st0{fill:#FFFFFF;}
	.st1{fill:#404040;}
	.st2{fill:#CCCCCC;}
	.st3{fill:#32C787;}
	.st4{fill:none;stroke:#FFFFFF;stroke-linecap:round;stroke-linejoin:round;stroke-miterlimit:10;}
	.st5{fill:none;stroke:#404040;stroke-width:1.75;stroke-linecap:round;stroke-linejoin:round;stroke-miterlimit:10;}
	.st6{fill:#C9C9C9;}
</style>
<g>
	<rect class="st0" width="1230.53" height="1152"/>
	<g>
		<g>
			<g>
				<path class="st0" d="M524.24,743.79c-40.16,0-76.92-22.03-95.93-57.49c-8.36-15.6-25.05-25.29-43.55-25.29
					c-0.54,0-1.08,0.01-1.62,0.02l-1.03,0.03c-0.78,0.02-1.55,0.03-2.33,0.03c-24.02,0-47.81-8.26-66.99-23.26
					c-19.22-15.03-32.94-36.17-38.64-59.52c-6.18-25.34-3.44-50.97,7.92-74.12c15.93-32.44,19.9-67.48,11.19-98.69
					c-1.28-4.58-2.27-9.31-2.95-14.06c-5.37-37.67,8.89-74.72,38.15-99.12c20.81-17.36,30.89-43.65,26.96-70.32l-0.08-0.53
					c-4.28-30.03,3.78-59.64,22.71-83.36c18.91-23.71,46.05-38.14,76.4-40.65c2.92-0.24,5.88-0.36,8.8-0.36
					c24.75,0,49.14,8.74,68.66,24.62c19.63,15.96,33.16,38.2,38.1,62.63c0.19,0.95,0.37,1.91,0.54,2.86
					c4.94,28.18,23.91,52.91,50.75,66.13c32.34,15.94,54.68,46.73,59.77,82.38c0.68,4.74,1.04,9.55,1.1,14.29
					c0.36,32.41,13.98,64.97,38.34,91.66c17.39,19.05,27.18,42.9,28.32,68.97c2.21,50.44-31.66,96.54-80.54,109.62
					c-0.33,0.09-0.66,0.18-0.99,0.26c-18.58,4.79-32.49,18.91-36.28,36.86c-9.44,44.59-46.11,78.88-91.25,85.32
					C534.62,743.42,529.4,743.79,524.24,743.79C524.24,743.79,524.24,743.79,524.24,743.79z"/>
				<path class="st1" d="M463.25,97.97c24.55,0,48.74,8.67,68.11,24.42c19.47,15.83,32.89,37.89,37.79,62.12
					c0.19,0.94,0.37,1.89,0.54,2.84c4.99,28.46,24.14,53.42,51.22,66.77c32.08,15.81,54.25,46.36,59.29,81.72
					c0.67,4.7,1.04,9.47,1.09,14.18c0.37,32.63,14.07,65.39,38.57,92.24c17.25,18.9,26.96,42.55,28.09,68.42
					c2.19,50.03-31.41,95.76-79.89,108.74c-0.33,0.09-0.66,0.17-0.99,0.26c-18.91,4.87-33.05,19.25-36.92,37.52
					c-4.54,21.47-15.39,40.84-31.36,56.03c-16.32,15.52-36.78,25.41-59.16,28.61c-5.1,0.73-10.28,1.1-15.4,1.1
					c-19.62,0-38.89-5.39-55.74-15.57c-16.64-10.06-30.28-24.4-39.42-41.46c-8.52-15.88-25.5-25.75-44.32-25.75
					c-0.55,0-1.1,0.01-1.65,0.03c-0.34,0.01-0.68,0.02-1.02,0.03c-0.77,0.02-1.54,0.03-2.31,0.03c-23.83,0-47.43-8.19-66.45-23.07
					c-19.06-14.91-32.68-35.88-38.33-59.04c-6.13-25.14-3.42-50.57,7.86-73.52c16.03-32.63,20.02-67.9,11.25-99.31
					c-1.27-4.55-2.25-9.24-2.92-13.94c-2.65-18.57-0.43-37.56,6.43-54.9c6.65-16.82,17.51-31.84,31.42-43.43
					c21.05-17.55,31.24-44.14,27.26-71.12l-0.08-0.52c-2.14-15.01-1.17-29.96,2.9-44.43c3.93-13.98,10.53-26.86,19.63-38.26
					c18.76-23.52,45.68-37.84,75.79-40.32C457.42,98.09,460.36,97.97,463.25,97.97 M463.25,96.22c-2.94,0-5.89,0.12-8.87,0.37
					c-63.6,5.25-108.78,62.75-99.9,125c0.03,0.18,0.05,0.35,0.08,0.53c3.89,26.38-6.17,52.45-26.65,69.52
					c-28.27,23.57-44.04,60.8-38.46,99.92c0.69,4.85,1.69,9.58,2.97,14.17c9.15,32.77,3.87,67.53-11.13,98.07
					c-10.88,22.16-14.44,48.25-7.99,74.71c11.89,48.75,56.48,83.45,106.48,83.45c0.78,0,1.56-0.01,2.35-0.03
					c0.35-0.01,0.69-0.02,1.04-0.03c0.53-0.02,1.07-0.02,1.6-0.02c17.73,0,34.37,9.14,42.78,24.83
					c18.8,35.07,55.78,57.95,96.7,57.95c5.16,0,10.39-0.36,15.65-1.11c46.95-6.7,82.7-42.15,91.98-86.01
					c3.79-17.92,17.91-31.62,35.64-36.19c0.33-0.09,0.67-0.17,1-0.26c49.23-13.17,83.42-59.59,81.18-110.5
					c-1.19-27.21-11.9-51.28-28.55-69.52c-22.95-25.14-37.73-57.04-38.11-91.08c-0.05-4.76-0.42-9.57-1.11-14.41
					c-5.32-37.31-28.81-67.55-60.25-83.04c-26.18-12.9-45.23-36.75-50.27-65.5c-0.17-0.96-0.35-1.92-0.54-2.88
					C560.53,133.07,514.66,96.22,463.25,96.22L463.25,96.22z"/>
			</g>
			<g>
				<path class="st2" d="M486.82,582.69c0-34.06-15.51-64.5-39.85-84.64c-25.97-21.49-41-53.98-39.65-87.66
					c0.52-13.04-1.23-26.66-5.66-40.5c-10.21-31.92-35.27-57.34-67.11-67.78c-76.32-25.01-146.83,31.16-146.83,103.8
					c0,0.25,0,0.5,0,0.76c0.23,34.63-13.97,68.18-41.22,89.55c-25.64,20.1-42.11,51.35-42.11,86.46c0,39.27,20.61,73.71,51.59,93.12
					c19.85,12.44,31.97,33.88,31.74,57.31c-0.02,2.15,0.02,4.32,0.13,6.5c2.67,55.38,47.44,100.82,102.78,104.21
					c63.81,3.92,116.78-46.67,116.78-109.63c0-1-0.01-1.99-0.04-2.98c-0.62-23.1,11.35-44.31,30.56-57.15
					C467.4,654.37,486.82,620.8,486.82,582.69z"/>
				<path class="st1" d="M297.64,844.92c-2.35,0-4.7-0.07-7.07-0.22c-26.97-1.66-52.44-13.33-71.71-32.87
					c-19.26-19.54-30.59-45.17-31.89-72.17c-0.1-2.17-0.15-4.38-0.13-6.55c0.22-22.98-11.49-44.12-31.33-56.56
					c-32.56-20.4-52-55.49-52-93.87c0-34.23,15.47-66,42.44-87.14c26.23-20.56,41.13-52.95,40.89-88.86l0-0.76
					c0-35.39,17.13-68.93,45.82-89.72c29.23-21.18,66.46-26.62,102.15-14.92c32.05,10.5,57.35,36.05,67.68,68.34
					c4.32,13.52,6.24,27.25,5.7,40.8c-1.32,32.97,13.38,65.47,39.33,86.95c25.53,21.12,40.17,52.21,40.17,85.31
					c0,37.06-18.42,71.49-49.28,92.11c-19.49,13.02-30.77,34.11-30.17,56.4c0.03,1,0.04,2,0.04,3.01
					c0,30.87-12.39,59.51-34.88,80.67C352.64,834.39,325.97,844.92,297.64,844.92z M297.6,297c-22.92,0-45.1,7-63.9,20.63
					c-28.24,20.46-45.1,53.47-45.1,88.3l0,0.75c0.25,36.45-14.9,69.34-41.56,90.24c-26.55,20.81-41.77,52.08-41.77,85.77
					c0,37.77,19.13,72.3,51.18,92.38c20.36,12.76,32.38,34.46,32.16,58.06c-0.02,2.14,0.02,4.31,0.12,6.45
					c1.28,26.57,12.43,51.8,31.39,71.03c18.97,19.24,44.03,30.73,70.57,32.36c30.45,1.87,59.4-8.56,81.52-29.36
					c22.14-20.82,34.33-49.02,34.33-79.39c0-0.99-0.01-1.98-0.04-2.96c-0.61-22.9,10.96-44.54,30.95-57.9
					c30.37-20.29,48.5-54.18,48.5-90.65c0-32.57-14.41-63.17-39.53-83.96c-26.37-21.82-41.31-54.85-39.97-88.37
					c0.54-13.35-1.35-26.87-5.61-40.2c-10.16-31.76-35.04-56.88-66.55-67.21C322.1,298.96,309.74,297,297.6,297z"/>
			</g>
			<g>
				<path class="st1" d="M352.74,1041.6c-0.38,0-0.73-0.25-0.84-0.63c-32.14-110.37-53.15-224.82-62.46-340.19
					c-9.31-115.36-6.92-231.71,7.11-345.8c0.06-0.48,0.49-0.82,0.98-0.76c0.48,0.06,0.82,0.5,0.76,0.98
					c-14.01,113.98-16.4,230.2-7.1,345.44c9.3,115.24,30.29,229.58,62.4,339.84c0.13,0.46-0.13,0.95-0.6,1.08
					C352.9,1041.59,352.82,1041.6,352.74,1041.6z"/>
			</g>
			<g>
				<path class="st1" d="M506.2,1041.6c-0.05,0-0.1,0-0.15-0.01c-0.48-0.08-0.79-0.54-0.71-1.01C525.41,927.5,534,811.57,530.86,696
					c-3.14-115.58-18-230.87-44.18-342.68c-0.11-0.47,0.18-0.94,0.65-1.05c0.47-0.11,0.94,0.18,1.05,0.65
					c26.21,111.93,41.09,227.34,44.23,343.03c3.14,115.69-5.45,231.74-25.54,344.93C506.99,1041.3,506.62,1041.6,506.2,1041.6z"/>
			</g>
		</g>
		<g>
			<path class="st1" d="M643.91,651.29l44.31,107.5c4.53,10.98,3.69,23.44-2.26,33.72l-82.79,142.96l-52.78-18.61l64.33-140.65
				l-41.22-62.81l-28.17,103.44c-2.02,7.43-5.84,14.24-11.12,19.85L432.5,944.66l-42.98-36.25l92.93-118.13l26.17-138.99
				L643.91,651.29z"/>
			<polygon class="st1" points="589.39,929.76 614.95,981.21 548.87,943.24 566.81,916.78 			"/>
			<polygon class="st1" points="427.1,937.39 414.67,993.49 387.11,922.43 417.68,913.11 			"/>
			<g>
				<path class="st0" d="M503.62,683.2c-0.82,0-1.29-0.04-1.33-0.04c-0.48-0.04-0.84-0.47-0.8-0.95c0.04-0.48,0.47-0.83,0.95-0.8
					c0.29,0.03,28.58,2.05,38.97-29.34c0.15-0.46,0.65-0.71,1.11-0.56c0.46,0.15,0.71,0.65,0.56,1.11
					C533.56,681.38,509.54,683.2,503.62,683.2z"/>
			</g>
			<g>
				<path class="st0" d="M655.47,680.22c-0.03,0-0.07,0-0.1-0.01c-21.34-2.48-22.63-28.63-22.64-28.89
					c-0.02-0.48,0.36-0.89,0.84-0.91c0.49-0.05,0.89,0.36,0.91,0.84c0.01,0.25,1.24,24.91,21.09,27.22
					c0.48,0.06,0.82,0.49,0.77,0.97C656.29,679.89,655.91,680.22,655.47,680.22z"/>
			</g>
			<g>
				<path class="st0" d="M573.49,714.27c-0.07,0-0.14-0.01-0.22-0.03c-0.47-0.12-0.75-0.6-0.63-1.07l4.45-17.32
					c0.03-0.13,0.09-0.24,0.18-0.34l11.49-13.73c0.31-0.37,0.86-0.42,1.23-0.11c0.37,0.31,0.42,0.86,0.11,1.23l-11.36,13.58
					l-4.4,17.13C574.24,714,573.88,714.27,573.49,714.27z"/>
			</g>
			<g>
				<g>
					<path class="st0" d="M787.01,294.69c1.38-1.67,1.14-4.14-0.53-5.52l0,0c-1.67-1.38-3.96-1.42-5.34,0.25
						c1.83-2.22,1.51-5.5-0.71-7.33l0,0c-3.3-2.52-7.56,0.96-9.38,3.18c1.83-2.22,3.79-7.06,1.11-9.06l0,0
						c-1.64-1.35-4.23-1.61-7.11,0.55l0,0c-4.36-0.98-7.08,1.74-9.29,5.62l-10.34,18.17l17.75,15.59L787.01,294.69z"/>
					<path class="st1" d="M763.18,317.02c-0.21,0-0.41-0.07-0.58-0.22l-17.75-15.59c-0.31-0.27-0.39-0.73-0.18-1.09L755,281.94
						c1.76-3.09,4.68-7.05,9.84-6.12c2.8-1.95,5.72-2.06,7.87-0.29c0.88,0.65,1.44,1.66,1.59,2.9c0.12,0.98-0.03,2.07-0.35,3.14
						c2.16-1.32,4.74-1.91,7.01-0.18c1.82,1.5,2.55,3.81,2.11,5.94c1.31-0.22,2.75,0.16,3.96,1.16c2.04,1.68,2.33,4.71,0.65,6.75
						c-0.03,0.03-0.06,0.06-0.09,0.09l-23.83,21.45C763.6,316.94,763.39,317.02,763.18,317.02z M746.54,300.36l16.63,14.61
						l23.2-20.89c1.03-1.29,0.83-3.19-0.45-4.24c-0.67-0.55-1.44-0.84-2.2-0.82c-0.75,0.02-1.41,0.35-1.91,0.95l0,0
						c-0.31,0.37-0.86,0.43-1.23,0.12c-0.37-0.31-0.43-0.86-0.12-1.23l0,0c1.52-1.84,1.26-4.58-0.59-6.1
						c-2.73-2.08-6.53,1.09-8.15,3.06c-0.31,0.37-0.86,0.43-1.23,0.12c-0.21-0.17-0.32-0.42-0.32-0.68c0-0.2,0.07-0.39,0.2-0.56
						c1.24-1.5,2.43-4.14,2.19-6.07c-0.09-0.77-0.4-1.33-0.93-1.73c-1.62-1.33-3.79-1.13-6.01,0.51c-0.21,0.18-0.49,0.26-0.76,0.19
						c-3.35-0.75-5.84,0.81-8.33,5.2L746.54,300.36z M787.01,294.69L787.01,294.69L787.01,294.69z"/>
				</g>
				<g>
					<path class="st1" d="M762.42,280.66c-0.18,0-0.37-0.06-0.52-0.17c-0.39-0.29-0.47-0.84-0.18-1.22
						c1.06-1.42,2.18-2.58,3.31-3.43c0.39-0.29,0.94-0.21,1.22,0.18c0.29,0.39,0.21,0.94-0.18,1.22c-1,0.75-1.99,1.78-2.95,3.07
						C762.95,280.54,762.68,280.66,762.42,280.66z"/>
				</g>
			</g>
			<g>
				<g>
					<path class="st0" d="M326.67,388.86c-3.47-2.31-6.96-4.7-10.48-7.16l-12.98,2.35c-1.78,0.32-3.49-0.86-3.81-2.64
						c-0.32-1.78,0.86-3.49,2.64-3.81l12.98-2.35l0.05,0.01l-15.92-3.46c-2.18-0.47-3.57-2.63-3.09-4.81v0
						c0.47-2.18,2.63-3.57,4.81-3.09l15.92,3.46l0.25-0.08l-15.5-7.55c-2.01-0.97-2.86-3.39-1.89-5.4c0.97-2.01,3.39-2.86,5.4-1.89
						l14.05,6.85c-1.18-2.78-1.7-5.33-1.78-7.63c-0.17-5.15,7.32-6.01,8.44-0.98c1.2,5.4,2.4,9.79,2.4,9.79
						c2.29,1.32,6.73,3.85,8.98,5.11L326.67,388.86z"/>
					<path class="st1" d="M326.67,389.74c-0.17,0-0.34-0.05-0.49-0.15c-3.4-2.26-6.83-4.6-10.2-6.96l-12.62,2.29
						c-1.09,0.2-2.19-0.04-3.11-0.67c-0.91-0.63-1.52-1.58-1.72-2.67c-0.41-2.25,1.09-4.42,3.34-4.83l8.67-1.57l-11.59-2.52
						c-2.65-0.58-4.34-3.2-3.76-5.85c0.28-1.28,1.04-2.38,2.15-3.09c1.11-0.71,2.42-0.95,3.71-0.67l9.55,2.08l-9.45-4.6
						c-2.44-1.18-3.47-4.12-2.3-6.57c1.18-2.44,4.12-3.48,6.57-2.3l12.08,5.89c-0.64-1.97-1-3.93-1.06-5.86
						c-0.11-3.17,2.23-4.92,4.45-5.2c2.26-0.28,5.01,0.84,5.71,4c0.99,4.46,1.99,8.26,2.3,9.4c2.37,1.36,6.52,3.73,8.66,4.92
						c0.4,0.22,0.56,0.71,0.37,1.12l-10.47,23.29c-0.11,0.23-0.31,0.41-0.56,0.48C326.84,389.73,326.76,389.74,326.67,389.74z
						 M316.19,380.83c0.18,0,0.35,0.05,0.5,0.16c3.17,2.22,6.4,4.43,9.61,6.57l9.72-21.62c-2.37-1.33-6.21-3.52-8.29-4.72
						c-0.2-0.12-0.35-0.3-0.41-0.53c-0.01-0.04-1.22-4.47-2.41-9.83c-0.47-2.1-2.24-2.84-3.79-2.64c-1.5,0.19-2.99,1.32-2.92,3.4
						c0.08,2.38,0.65,4.84,1.71,7.32c0.14,0.34,0.06,0.73-0.2,0.98c-0.26,0.25-0.66,0.31-0.99,0.15l-14.05-6.85
						c-1.57-0.75-3.47-0.09-4.23,1.48c-0.76,1.58-0.09,3.47,1.48,4.23l15.5,7.55c0.32,0.16,0.51,0.49,0.49,0.84
						c-0.02,0.36-0.26,0.66-0.6,0.77l-0.25,0.08c-0.15,0.05-0.31,0.06-0.46,0.02l-15.92-3.46c-0.83-0.18-1.68-0.03-2.39,0.43
						c-0.71,0.46-1.2,1.17-1.38,1.99c-0.37,1.71,0.72,3.4,2.42,3.77l15.92,3.46c0.46,0.1,0.76,0.54,0.68,1.01
						c-0.07,0.42-0.44,0.72-0.86,0.72c0,0,0,0,0,0l-12.87,2.33c-1.3,0.24-2.17,1.49-1.94,2.79c0.11,0.63,0.47,1.18,1,1.55
						c0.53,0.37,1.17,0.5,1.8,0.39l12.98-2.35C316.09,380.84,316.14,380.83,316.19,380.83z"/>
				</g>
				<g>
					<path class="st1" d="M324.35,373.49c-0.16,0-0.33-0.05-0.48-0.14c-7.45-4.87-5.81-13.8-5.74-14.18
						c0.09-0.47,0.55-0.79,1.02-0.69c0.47,0.09,0.78,0.55,0.69,1.02c-0.06,0.33-1.47,8.16,4.98,12.38c0.4,0.26,0.52,0.81,0.25,1.21
						C324.92,373.35,324.64,373.49,324.35,373.49z"/>
				</g>
			</g>
			<g>
				<path class="st3" d="M767.65,319.79l-25.49-22.39c0,0-27.86,57.88-150.68,120.97l-37.97,0.11l-16.7,2.07
					c-83.77,0.99-198.93-58.1-198.93-58.1l-14.45,29.15c54.79,58.32,154.79,79.8,181.95,84.37c-3.02,52.5,3.71,175.13,3.71,175.13
					s134.63,2.81,134.82,0.19c0.2-2.62,4.97-74.12-15.57-182.4C628.34,468.88,721,423.47,767.65,319.79z"/>
				<path class="st1" d="M611.64,653.28c-9.68,0-21.48-0.08-35.23-0.23c-33.3-0.37-67.01-1.07-67.35-1.08
					c-0.46-0.01-0.83-0.37-0.86-0.83c-0.07-1.22-6.63-122.06-3.75-174.44c-10.31-1.77-43.02-8.06-80.01-21.94
					c-43.97-16.51-78.17-37.56-101.66-62.56c-0.25-0.27-0.31-0.66-0.15-0.99l14.45-29.15c0.1-0.21,0.29-0.37,0.51-0.44
					c0.22-0.07,0.47-0.05,0.67,0.05c0.29,0.15,29.21,14.92,67.98,29.39c35.75,13.34,87.38,29.14,130.55,28.62l16.6-2.06
					c0.04,0,0.07-0.01,0.11-0.01l37.76-0.11c34.95-17.97,84.25-47.08,120.99-83.89c21.96-22,29.05-36.45,29.11-36.59
					c0.12-0.25,0.35-0.42,0.61-0.48c0.27-0.06,0.55,0.02,0.75,0.2l25.49,22.39c0.29,0.25,0.38,0.67,0.22,1.02
					c-24.16,53.71-60.86,91.5-87.38,113.74c-26.19,21.96-47.92,33.52-51.74,35.48c8.37,44.28,13.71,89.32,15.45,130.3
					c1.38,32.59,0.02,51.49,0.01,51.68c-0.08,1.1-0.13,1.7-22.01,1.88C619.44,653.26,615.73,653.28,611.64,653.28z M509.91,650.24
					c50.9,1.06,126.63,2.03,133.15,0.5c0.41-6.52,4.2-77.37-15.59-181.69c-0.07-0.39,0.12-0.78,0.47-0.95
					c0.23-0.11,23.44-11.61,52.03-35.59c26.28-22.04,62.58-59.42,86.6-112.49l-24.17-21.23c-2.02,3.68-10.05,17.16-28.92,36.06
					c-20.41,20.44-58.07,51.66-121.62,84.3c-0.12,0.06-0.26,0.1-0.4,0.1l-37.92,0.11l-16.65,2.06c-24.08,0.3-66.27-4.47-131.3-28.73
					c-35.29-13.17-62.45-26.6-67.35-29.06l-13.79,27.81c23.29,24.62,57.13,45.37,100.59,61.68c37.83,14.2,71.15,20.42,80.46,21.99
					c0.44,0.07,0.75,0.47,0.73,0.91C503.39,525.64,509.34,639.48,509.91,650.24z"/>
			</g>
			<g>
				<g>
					<path class="st0" d="M966.27,794.85c-0.16-0.26-0.44-0.42-0.75-0.42H834.04c-11.48,0-20.82-9.34-20.82-20.82v-67l55.81,2.99
						l-5.99,43.37c-0.06,0.44,0.22,0.86,0.66,0.97l105.02,26.14c6.08,8.18,8.68,15.31,7.52,20.64c-0.64,2.93-2.25,4.61-3.17,5.36
						L966.27,794.85z"/>
					<path class="st1" d="M814.09,707.53l53.93,2.89l-5.86,42.43c-0.12,0.89,0.44,1.72,1.31,1.94l104.71,26.06
						c7.25,9.84,7.93,16.07,7.2,19.58c-0.42,2.05-1.36,3.43-2.15,4.28l-6.23-10.31c-0.32-0.52-0.89-0.84-1.5-0.84H834.04
						c-11,0-19.95-8.95-19.95-19.95V707.53 M812.34,705.69v67.92c0,11.98,9.71,21.7,21.7,21.7h131.48l7.27,12.03
						c0,0,12.39-6.76-3.57-28.03L863.9,753.09l6.12-44.31L812.34,705.69L812.34,705.69z"/>
				</g>
				<g>
					<path class="st0" d="M978.96,939.45l1.53-14.31c0.02-0.22-0.04-0.45-0.17-0.62L896.7,814.84
						c-8.61-11.14-13.42-24.47-13.91-38.53l-2.27-68.01l58.59,2.39l-11.6,76.66c-0.03,0.18,0,0.37,0.09,0.53l66.1,129.37l4.58,8.34
						l-14.24,17.84L978.96,939.45z"/>
					<path class="st1" d="M881.42,709.21l56.68,2.31l-11.46,75.7c-0.05,0.36,0.01,0.73,0.17,1.06l66.1,129.37
						c0.01,0.02,0.02,0.03,0.02,0.05l4.29,7.81l-13.34,16.71l-4.01-3.15l1.48-13.83c0.05-0.44-0.08-0.89-0.35-1.25L897.39,814.3
						c-8.49-10.99-13.24-24.14-13.73-38.02L881.42,709.21 M879.61,707.38l2.3,68.95c0.5,14.16,5.43,27.82,14.09,39.03l83.61,109.67
						l-1.58,14.8l6.13,4.82l15.15-18.98l-4.85-8.83l-66.1-129.37l11.75-77.63L879.61,707.38L879.61,707.38z"/>
				</g>
				<g>
					<path class="st3" d="M1020.74,361.6c-49.76,33.12-118.13,44.58-118.87,44.46c0,0-2.07,8.82-14.76,8.82
						c-4.92,0-15.84-7.9-18.48-7.37c-24.05-18.92-74.11-87.76-74.11-87.76l-20.06,13.78c13.56,37.29,52.21,85.08,65.87,101.28
						c-0.61,11.11-0.67,29.64-0.67,29.64s3.12,66.65,11.49,90.88h58.47l1.59-6.45c0,0,9.13-55.77,15.85-104.39
						c42.83-11.36,105.12-61.41,105.12-61.41L1020.74,361.6z"/>
					<path class="st1" d="M909.61,556.22h-58.47c-0.37,0-0.71-0.24-0.83-0.59c-8.31-24.07-11.5-90.46-11.53-91.13
						c0-0.23,0.06-18.35,0.65-29.39c-46.01-54.64-61.34-89.02-65.8-101.28c-0.14-0.38,0-0.79,0.33-1.02l20.06-13.78
						c0.39-0.27,0.92-0.18,1.2,0.21c0.5,0.68,49.88,68.44,73.67,87.37c1.46,0.01,3.89,1.19,7.72,3.19c3.78,1.97,8.07,4.2,10.49,4.2
						c11.8,0,13.83-7.82,13.91-8.15c0.1-0.4,0.45-0.67,0.85-0.67c0,0,0.01,0,0.01,0c1.25-0.14,68.28-10.97,118.38-44.31
						c0.21-0.14,0.46-0.18,0.7-0.12c0.24,0.06,0.44,0.22,0.56,0.44l11.43,21.49c0.2,0.37,0.1,0.83-0.22,1.09
						c-0.62,0.5-62.38,49.85-104.88,61.42c-6.63,47.95-15.68,103.29-15.77,103.84l-1.61,6.52
						C910.36,555.95,910.01,556.22,909.61,556.22z M851.77,554.47h57.16l1.43-5.79c0.08-0.49,9.19-56.25,15.83-104.3
						c0.05-0.35,0.3-0.63,0.64-0.73c40-10.61,97.88-55.77,104.23-60.79l-10.63-20c-47.58,31.33-110.01,42.72-117.87,43.95
						c-0.3,0.85-1.05,2.56-2.67,4.26c-2.04,2.14-5.91,4.68-12.77,4.68c-2.86,0-7.15-2.24-11.3-4.4c-2.71-1.41-6.08-3.16-7.01-2.98
						c-0.25,0.05-0.51-0.01-0.72-0.17c-22.58-17.76-68.45-79.98-73.77-87.24l-18.8,12.92c4.73,12.72,20.26,46.72,65.48,100.38
						c0.14,0.17,0.22,0.39,0.2,0.61c-0.61,10.96-0.67,29.42-0.67,29.6C840.56,465.09,843.68,530.16,851.77,554.47z"/>
				</g>
				<path class="st1" d="M913.43,296.83c2.64-1.89,5.75-3.34,8.99-3.2c3.24,0.14,6.54,2.21,7.31,5.36c0.78,3.15-1.85,6.89-5.08,6.58
					c5.89,0.17,11.81,2.54,15.76,6.92c3.95,4.38,5.7,10.81,3.94,16.44c-0.48,1.54-1.22,3.03-2.37,4.16
					c-2.94,2.93-7.8,2.86-11.72,1.49c0.46,1.51-0.52,3.11-1.77,4.07c-2.66,2.04-6.72,1.97-9.31-0.15c-0.85-0.7-1.54-1.58-2.22-2.45
					c-3.16-4.05-6.33-8.11-9.49-12.16c-3.58-4.59-5.98-8.56-3.82-14.27C905.59,304.52,909,300,913.43,296.83z"/>
				<path class="st1" d="M978.03,939.84c11.84-2.13,16.43-22.99,16.43-22.99l16.49,11.04l-40.25,33.52L978.03,939.84z"/>
				<path class="st1" d="M972.79,807.34c7.23-9.61-3.57-28.03-3.57-28.03l19.6-3.11l-6.74,51.95L972.79,807.34z"/>
				<g>
					<path class="st4" d="M945.58,703.31"/>
				</g>
				<g>
					<path class="st4" d="M802.15,703.31"/>
				</g>
				<g>
					<path class="st2" d="M909.61,555.35c58.58,44.66,39.15,159.39,39.15,159.39l-69.16-3.56l-0.3-60.37l-5.88,59.26l-72.15-3.87
						c1.7-65.76,17.26-96.28,17.26-96.28s14.2-39.71,32.43-54.56H909.61z"/>
					<path class="st1" d="M948.76,715.61c-0.02,0-0.03,0-0.05,0l-69.16-3.56c-0.46-0.02-0.83-0.41-0.83-0.87l-0.22-43.54
						l-4.22,42.51c-0.05,0.47-0.44,0.81-0.92,0.79l-72.15-3.87c-0.47-0.03-0.84-0.42-0.83-0.9c0.88-34.05,5.54-58.49,9.29-73
						c3.95-15.27,7.66-22.86,8.03-23.61c0.29-0.8,3.83-10.5,9.4-21.75c7.79-15.75,15.62-26.9,23.28-33.14
						c0.16-0.13,0.35-0.2,0.55-0.2h58.65c0.19,0,0.38,0.06,0.53,0.18c16.85,12.84,37.79,40.11,41.89,97.08
						c2.44,33.98-2.35,62.87-2.4,63.15C949.56,715.3,949.19,715.61,948.76,715.61z M880.48,710.35l67.54,3.48
						c0.74-4.79,4.47-31.31,2.26-62c-2.23-30.99-11.16-72.69-40.97-95.59h-58.04c-17.72,14.69-31.78,53.59-31.92,53.98
						c-0.01,0.04-0.03,0.07-0.04,0.1c-0.04,0.08-3.91,7.78-7.95,23.39c-3.69,14.28-8.27,38.28-9.19,71.67l70.46,3.78l5.8-58.43
						c0.05-0.46,0.43-0.83,0.91-0.79c0.47,0.02,0.83,0.4,0.83,0.87L880.48,710.35z"/>
				</g>
				<g>
					<path class="st1" d="M879.3,651.68c-0.23,0-0.47-0.09-0.64-0.28l-18.57-19.99c-0.33-0.35-0.31-0.91,0.05-1.24
						c0.35-0.33,0.91-0.31,1.24,0.04l18.57,19.99c0.33,0.35,0.31,0.91-0.05,1.24C879.73,651.6,879.52,651.68,879.3,651.68z"/>
				</g>
				<g>
					<path class="st1" d="M872.46,566.51c-1.2,0-2.37-0.37-3.29-1.05c-1.33-0.99-2.08-2.58-1.96-4.16c0.12-1.68,1.16-3.27,3.19-4.84
						c0.22-0.17,0.43-0.35,0.64-0.52c0.94-0.78,1.91-1.6,3.03-1.45c0.63,0.08,1.18,0.45,1.64,1.11c1.22,1.73,1.69,4.59,1.52,6.53
						c-0.12,1.29-0.55,2.35-1.27,3.08c-0.59,0.59-1.4,1.01-2.36,1.2C873.21,566.47,872.84,566.51,872.46,566.51z M873.79,556.22
						c-0.37,0-1.07,0.59-1.64,1.06c-0.23,0.19-0.45,0.38-0.69,0.56l0,0c-1.61,1.25-2.43,2.43-2.52,3.59c-0.07,0.97,0.43,2,1.26,2.63
						c0.82,0.61,1.95,0.84,3.03,0.63c0.43-0.08,1.03-0.28,1.46-0.71c0.54-0.55,0.72-1.39,0.77-2c0.14-1.6-0.27-4.04-1.2-5.36
						c-0.09-0.13-0.28-0.36-0.44-0.38C873.82,556.22,873.81,556.22,873.79,556.22z M870.93,557.15L870.93,557.15L870.93,557.15z"/>
				</g>
				<g>
					<path class="st1" d="M877.79,566.2c-1.18,0-2.34-0.42-3.2-1.21c-1.25-1.14-1.84-2.94-1.82-5.51c0-0.27,0-0.55-0.01-0.83
						c-0.03-1.22-0.06-2.48,0.75-3.27c0.45-0.44,1.1-0.64,1.89-0.6c2.11,0.11,4.65,1.53,6.06,2.87c0.94,0.89,1.5,1.89,1.62,2.91
						c0.1,0.83-0.08,1.73-0.53,2.6c-0.73,1.41-2.03,2.49-3.48,2.88C878.65,566.15,878.22,566.2,877.79,566.2z M875.19,556.53
						c-0.16,0-0.36,0.02-0.46,0.11c-0.26,0.25-0.23,1.21-0.22,1.97c0.01,0.29,0.01,0.59,0.01,0.88l0,0
						c-0.02,2.04,0.39,3.42,1.25,4.2c0.72,0.66,1.83,0.91,2.84,0.64c0.98-0.26,1.87-1,2.38-1.98c0.2-0.39,0.42-0.98,0.35-1.58
						c-0.09-0.76-0.64-1.43-1.09-1.85c-1.17-1.11-3.33-2.3-4.95-2.39C875.27,556.54,875.23,556.53,875.19,556.53z M873.65,559.49
						L873.65,559.49L873.65,559.49z"/>
				</g>
				<g>
					<path class="st0" d="M1055.73,358.2l11.1,1.05c1.52,0.14,2.64,1.49,2.5,3.02l0,0c-0.14,1.52-1.49,2.64-3.02,2.5l-11.1-1.05
						c-7.87,7-15.57,13.45-23.04,19.39l-11.42-21.49c7.42-4.51,15.05-9.47,22.86-14.92c0,0,1.36-7.41,1.98-14.2
						c0.21-2.25,3.18-2.96,4.34-1.02c1.83,3.04,3.19,7.59,1.22,13.59l11.34-6.78c1.63-0.96,3.72-0.42,4.68,1.2l0,0
						c0.96,1.63,0.42,3.72-1.2,4.68l-12.51,7.47l0.21,0.05l13.16-4.06c1.8-0.56,3.72,0.45,4.28,2.26l0,0
						c0.56,1.8-0.45,3.72-2.26,4.28l-13.16,4.06L1055.73,358.2z"/>
					<path class="st1" d="M1032.17,383.97c-0.06,0-0.12-0.01-0.18-0.02c-0.25-0.05-0.47-0.22-0.59-0.45l-11.42-21.49
						c-0.22-0.41-0.08-0.92,0.32-1.16c7.54-4.58,15.11-9.53,22.52-14.69c0.27-1.55,1.37-7.93,1.91-13.77
						c0.13-1.42,1.11-2.54,2.51-2.86c1.38-0.32,2.73,0.26,3.46,1.46c1.57,2.61,3.06,6.74,1.88,12.18l9.47-5.67
						c0.99-0.58,2.15-0.75,3.26-0.46c1.11,0.29,2.04,0.99,2.63,1.97c0.58,0.99,0.75,2.14,0.46,3.25c-0.29,1.11-0.99,2.04-1.97,2.63
						l-6.66,3.98l6.81-2.1c1.09-0.34,2.26-0.23,3.27,0.31c1.01,0.54,1.76,1.43,2.1,2.53c0.34,1.1,0.23,2.26-0.31,3.27
						c-0.54,1.01-1.43,1.76-2.53,2.1l-8.93,2.76l6.74,0.64c0.97,0.09,1.84,0.55,2.47,1.3c0.62,0.75,0.91,1.7,0.82,2.67
						c-0.09,0.97-0.55,1.84-1.3,2.46c-0.75,0.62-1.7,0.91-2.67,0.82l-10.72-1.01c-7.47,6.63-15.14,13.08-22.79,19.16
						C1032.56,383.91,1032.36,383.97,1032.17,383.97z M1021.9,361.92l10.54,19.83c7.46-5.95,14.91-12.23,22.18-18.7
						c0.18-0.16,0.42-0.24,0.66-0.22l11.1,1.05c0.5,0.05,1-0.1,1.39-0.43c0.39-0.32,0.63-0.78,0.68-1.28c0.05-0.5-0.1-1-0.43-1.39
						c-0.32-0.39-0.78-0.63-1.28-0.68l-11-1.04c-0.41,0.04-0.8-0.24-0.91-0.65c-0.12-0.45,0.14-0.92,0.59-1.05l13.16-4.06
						c0.65-0.2,1.18-0.64,1.5-1.24c0.32-0.6,0.38-1.29,0.18-1.94c-0.2-0.65-0.64-1.18-1.24-1.5c-0.6-0.32-1.29-0.38-1.94-0.18
						l-13.16,4.06c-0.15,0.05-0.31,0.05-0.46,0.02l-0.21-0.05c-0.35-0.08-0.61-0.37-0.66-0.72c-0.05-0.35,0.11-0.7,0.42-0.88
						l12.51-7.47c0.59-0.35,1-0.9,1.17-1.56c0.17-0.66,0.07-1.34-0.27-1.93c-0.35-0.58-0.9-1-1.56-1.17
						c-0.66-0.17-1.34-0.07-1.93,0.27l-11.33,6.78c-0.31,0.19-0.71,0.16-1-0.07c-0.29-0.23-0.4-0.61-0.29-0.96
						c1.55-4.71,1.17-9.04-1.14-12.87c-0.4-0.66-1.07-0.77-1.57-0.66c-0.51,0.12-1.08,0.52-1.15,1.31c-0.62,6.76-1.98,14.21-2,14.28
						c-0.04,0.23-0.17,0.43-0.36,0.56C1036.8,352.5,1029.34,357.38,1021.9,361.92z"/>
				</g>
				<g>
					<path class="st0" d="M907.8,353.82l-1.4-16.15l-19.59-9.23l-28.4,19.46l-0.57,24.27c-0.34,7.78,3.79,14.72,10.11,18.34
						l0.03-0.04l-0.03,16.86l0,0c4.75,9.71,16.67,12.8,26.25,7.79c3.74-1.96,7.96-7.88,7.96-7.88l4.87-35.69
						c0,0,13.71,3.65,13.63-8.96C920.58,349.97,907.8,353.82,907.8,353.82"/>
					<path class="st1" d="M884.63,418.35c-2.16,0-4.31-0.33-6.35-1c-4.91-1.61-8.86-5.04-11.11-9.64c-0.06-0.12-0.09-0.25-0.09-0.39
						l0.03-16.3c-6.6-3.98-10.48-11.17-10.14-18.89l0.57-24.25c0.01-0.28,0.15-0.54,0.38-0.7l28.4-19.46
						c0.26-0.18,0.59-0.2,0.87-0.07l19.59,9.23c0.28,0.13,0.47,0.41,0.5,0.72l1.32,15.14c1.96-0.4,6.28-0.91,9.43,1.42
						c2.31,1.7,3.49,4.54,3.51,8.42c0.02,3.75-1.12,6.54-3.38,8.3c-3.4,2.63-8.31,2.1-10.38,1.72l-4.74,34.76
						c-0.02,0.14-0.07,0.27-0.15,0.39c-0.18,0.25-4.38,6.12-8.26,8.15C891.48,417.52,888.04,418.35,884.63,418.35z M868.82,407.11
						c2.06,4.09,5.6,7.12,9.99,8.57c4.84,1.59,10.3,1.1,14.97-1.35c3.17-1.66,6.81-6.47,7.52-7.44l4.84-35.47
						c0.03-0.25,0.17-0.47,0.38-0.61c0.21-0.14,0.47-0.18,0.71-0.12c0.06,0.02,6.21,1.6,9.83-1.21c1.81-1.4,2.72-3.72,2.7-6.9
						c-0.02-3.3-0.96-5.66-2.79-7.02c-3.4-2.52-8.88-0.92-8.93-0.9c-0.25,0.08-0.52,0.03-0.74-0.11c-0.22-0.15-0.36-0.39-0.38-0.65
						l-1.36-15.65l-18.68-8.81l-27.62,18.92l-0.56,23.82c-0.31,7.17,3.32,13.84,9.49,17.45c0.38,0.11,0.65,0.43,0.65,0.82
						L868.82,407.11z"/>
				</g>
				<g>
					<path class="st1" d="M871.46,373.79c-0.24,0-0.48-0.1-0.66-0.3l-2.43-2.75c-0.19-0.22-0.26-0.52-0.19-0.8l3.31-12.86
						c0.12-0.47,0.6-0.75,1.07-0.63c0.47,0.12,0.75,0.6,0.63,1.07l-3.2,12.41l2.12,2.41c0.32,0.36,0.28,0.92-0.08,1.23
						C871.87,373.72,871.67,373.79,871.46,373.79z"/>
				</g>
				<path class="st1" d="M858.6,334.69c0.36-8.15,5.57-15.31,13.28-18.2c8.22-3.08,20.1-4.66,35.16,1.63
					c7.83,3.27,12.66,11.18,12.29,19.59l-0.81,18.38c-3.67-4.15-10.84-1.07-10.84-1.07l0,0c-15.23-8.87-17.26-20.03-17.26-20.03
					s-16.35,15.18-33.33,14.44L858.6,334.69z"/>
				<g>
					<path class="st1" d="M887.82,352.52c-0.21,0-0.42-0.08-0.59-0.23c-3.23-2.97-6.04-0.55-6.35-0.27
						c-0.35,0.33-0.91,0.31-1.23-0.05c-0.33-0.35-0.31-0.9,0.04-1.23c1.45-1.36,5.13-3.05,8.73,0.26c0.36,0.33,0.38,0.88,0.05,1.24
						C888.29,352.43,888.06,352.52,887.82,352.52z"/>
				</g>
				<g>
					<path class="st1" d="M861.98,351.15c-0.23,0-0.46-0.09-0.64-0.28c-0.33-0.35-0.31-0.91,0.04-1.24c2.77-2.6,5.83-1.35,7.06-0.33
						c0.37,0.31,0.42,0.86,0.11,1.23c-0.31,0.37-0.86,0.42-1.23,0.12c-0.25-0.2-2.46-1.88-4.74,0.26
						C862.42,351.07,862.2,351.15,861.98,351.15z"/>
				</g>
				<g>
					<path class="st1" d="M881.8,394.2c-0.01,0-0.03,0-0.04,0l-4.77-0.21c-3.38-0.15-6.57-1.07-9.48-2.73
						c-0.42-0.24-0.56-0.77-0.33-1.19s0.77-0.57,1.19-0.33c2.67,1.53,5.59,2.37,8.69,2.51l4.77,0.21c0.48,0.02,0.86,0.43,0.84,0.91
						C882.65,393.83,882.27,394.2,881.8,394.2z"/>
				</g>
				<g>
					<path class="st1" d="M887.82,360.17c-0.34,0-0.67-0.2-0.81-0.53c-0.01-0.03-1.13-2.61-2.98-3c-0.96-0.2-2.02,0.24-3.16,1.31
						c-0.35,0.33-0.91,0.31-1.24-0.04c-0.33-0.35-0.31-0.91,0.04-1.24c1.58-1.49,3.17-2.07,4.72-1.74c2.75,0.59,4.16,3.9,4.22,4.04
						c0.19,0.44-0.02,0.96-0.47,1.14C888.05,360.15,887.94,360.17,887.82,360.17z"/>
				</g>
				<g>
					<path class="st1" d="M867.88,359.36c-0.34,0-0.66-0.2-0.81-0.53c-0.01-0.03-1.13-2.61-2.98-3c-0.95-0.2-2.02,0.24-3.16,1.31
						c-0.35,0.33-0.91,0.31-1.24-0.04c-0.33-0.35-0.31-0.91,0.04-1.24c1.58-1.49,3.17-2.07,4.72-1.74c2.75,0.59,4.16,3.9,4.22,4.04
						c0.19,0.45-0.02,0.96-0.47,1.14C868.11,359.33,868,359.36,867.88,359.36z"/>
				</g>
				<g>
					<path class="st1" d="M1051.75,358.05c-0.16,0-0.32-0.04-0.46-0.13c-0.41-0.26-0.53-0.8-0.28-1.21
						c3.42-5.46-0.52-11.05-0.56-11.11c-0.28-0.39-0.19-0.94,0.2-1.22c0.39-0.28,0.94-0.19,1.22,0.2c0.19,0.27,4.66,6.61,0.62,13.06
						C1052.33,357.9,1052.05,358.05,1051.75,358.05z"/>
				</g>
				<g>
					<path class="st0" d="M765.06,300.58l-10.33-4.2c-1.42-0.58-3.03,0.11-3.61,1.52l0,0c-0.58,1.42,0.11,3.03,1.52,3.61l10.33,4.2
						c3.75,9.84,7.59,19.12,11.48,27.84l20.06-13.78c-4.49-7.43-8.97-15.35-13.38-23.8l-12.86-16.19c-1-1.6-3.11-2.09-4.71-1.1h0
						c-1.6,1-2.09,3.11-1.1,4.71l7.64,12.4l-0.21-0.05l-9.79-9.68c-1.34-1.33-3.51-1.31-4.84,0.03l0,0
						c-1.33,1.34-1.31,3.51,0.03,4.84l9.79,9.68L765.06,300.58z"/>
					<path class="st1" d="M774.45,334.42c-0.08,0-0.16-0.01-0.24-0.03c-0.25-0.07-0.46-0.25-0.56-0.49
						c-3.98-8.93-7.8-18.19-11.36-27.53l-9.98-4.06c-1.86-0.76-2.76-2.89-2-4.75c0.76-1.86,2.89-2.76,4.75-2l6.27,2.55l-6.65-6.57
						c-1.68-1.66-1.7-4.39-0.04-6.07c1.67-1.68,4.39-1.7,6.07-0.04l5.07,5.01l-4.07-6.6c-0.6-0.97-0.79-2.12-0.53-3.24
						c0.26-1.12,0.94-2.07,1.91-2.67c0.97-0.61,2.13-0.79,3.24-0.54c1.1,0.26,2.04,0.92,2.64,1.87l12.83,16.15
						c0.03,0.04,0.07,0.09,0.09,0.14c4.24,8.11,8.73,16.1,13.35,23.75c0.24,0.4,0.13,0.91-0.25,1.17l-20.06,13.78
						C774.8,334.37,774.63,334.42,774.45,334.42z M753.69,297.05c-0.75,0-1.46,0.45-1.76,1.18c-0.39,0.97,0.07,2.07,1.04,2.47
						l10.33,4.2c0.23,0.09,0.4,0.27,0.49,0.5c3.46,9.09,7.17,18.11,11.03,26.83l18.51-12.72c-4.48-7.44-8.83-15.19-12.94-23.06
						l-12.81-16.13c-0.02-0.03-0.04-0.05-0.06-0.08c-0.36-0.58-0.92-0.98-1.58-1.13c-0.66-0.15-1.34-0.04-1.92,0.32
						c-1.19,0.74-1.56,2.31-0.82,3.5l7.64,12.41c0.19,0.3,0.17,0.69-0.04,0.98c-0.21,0.29-0.58,0.41-0.92,0.33l-0.21-0.05
						c-0.15-0.04-0.29-0.12-0.4-0.23l-9.79-9.68c-1-0.99-2.61-0.98-3.6,0.02c-0.99,1-0.98,2.61,0.02,3.6l9.79,9.68
						c0.33,0.33,0.35,0.86,0.03,1.21c-0.29,0.32-0.76,0.38-1.11,0.16l-10.23-4.16C754.17,297.09,753.93,297.05,753.69,297.05z"/>
				</g>
				<path class="st1" d="M874.37,384.35c0.25,0.04,0.51,0.03,0.74-0.07c0.18-0.08,0.32-0.2,0.46-0.34c0.38-0.4,0.66-0.91,0.78-1.45
					c0.22-0.95-0.03-1.94-0.3-2.87c-0.19-0.65-0.43-1.33-0.98-1.72c-1.06-0.74-3.15-0.52-3.64,0.83c-0.43,1.19,0.26,3.09,0.87,4.09
					C872.75,383.58,873.48,384.22,874.37,384.35z"/>
				<g>
					<path class="st1" d="M919.49,576.6c-4.22,0-7.99-1.04-11.26-3.13c-8.84-5.63-10.81-16.73-10.89-17.2
						c-0.08-0.48,0.24-0.93,0.72-1.01c0.47-0.09,0.93,0.24,1.01,0.72c0.02,0.11,1.93,10.82,10.11,16.03
						c4.89,3.11,11.06,3.67,18.34,1.67c0.46-0.13,0.95,0.15,1.08,0.61c0.13,0.47-0.15,0.95-0.61,1.08
						C924.98,576.18,922.15,576.6,919.49,576.6z"/>
				</g>
				<g>
					<path class="st1" d="M833.35,578.88c-0.45,0-0.83-0.34-0.87-0.8c-0.04-0.48,0.31-0.91,0.8-0.95
						c23.6-2.05,23.68-20.97,23.67-21.77c0-0.48,0.38-0.88,0.87-0.88c0,0,0.01,0,0.01,0c0.48,0,0.87,0.39,0.88,0.87
						c0,0.21-0.08,21.34-25.27,23.53C833.4,578.88,833.38,578.88,833.35,578.88z"/>
				</g>
				<g>
					<path class="st1" d="M915.64,368.18c-0.15,0-0.3-0.04-0.44-0.12c-0.42-0.24-0.56-0.78-0.31-1.2c1.4-2.39,1.82-4.48,1.26-6.21
						c-0.72-2.2-2.86-3.14-2.88-3.15c-0.44-0.19-0.65-0.7-0.46-1.15c0.19-0.44,0.7-0.65,1.14-0.47c0.12,0.05,2.87,1.23,3.86,4.19
						c0.75,2.24,0.27,4.82-1.4,7.67C916.24,368.02,915.94,368.18,915.64,368.18z"/>
				</g>
				<g>
					<path class="st1" d="M910.73,364.97c-0.23,0-0.46-0.09-0.63-0.27c-0.33-0.35-0.32-0.9,0.03-1.24c0.13-0.13,3.24-3.06,6.88-3.48
						c0.48-0.05,0.91,0.29,0.97,0.77c0.06,0.48-0.29,0.91-0.77,0.97c-3.05,0.35-5.85,2.98-5.87,3.01
						C911.16,364.89,910.95,364.97,910.73,364.97z"/>
				</g>
			</g>
			<g>
				<path class="st5" d="M509.16,651.29"/>
			</g>
			<path class="st6" d="M597.12,322.2"/>
			<g>
				<path class="st0" d="M577.85,442.03c-0.19,0-0.38-0.06-0.54-0.19l-27.51-21.48c-0.22-0.17-0.34-0.43-0.34-0.7l0.46-35.07
					c-0.68,0.09-1.63,0.18-2.72,0.18c-2.62,0-6.24-0.53-8.66-3.07c-1.84-1.93-2.68-4.7-2.5-8.22c0.44-8.89,6.36-10.22,9.84-10.22
					c1.6,0,3.04,0.26,4,0.49c-0.12-4.05-0.01-16.88,5.7-22.98c2.03-2.17,4.57-3.27,7.53-3.27c0.36,0,0.73,0.02,1.11,0.05
					c3.46,0.3,7.27,0.31,11.3,0.32c13.65,0.03,27.76,0.06,27.76,12.07v36.77c0,8.88-5.53,16.71-13.83,19.7l0.68,13.83
					c0.01,0.16-0.03,0.32-0.11,0.46l-11.42,20.86c-0.12,0.23-0.34,0.38-0.59,0.44C577.97,442.03,577.91,442.03,577.85,442.03z"/>
				<path class="st1" d="M563.11,338.39c0.34,0,0.68,0.02,1.04,0.05c15.17,1.33,38.26-2.96,38.26,11.52l0,36.77
					c0,8.91-5.82,16.47-13.86,19.08l0.09,1.92l0.62,12.56l-11.42,20.86l-27.51-21.48l0.47-36.12c0,0-1.55,0.34-3.61,0.34
					c-4.26,0-10.73-1.45-10.29-10.38c0.39-7.78,5.13-9.39,8.97-9.39c2.69,0,4.93,0.79,4.93,0.79S549.07,338.39,563.11,338.39
					 M563.12,336.64C563.12,336.64,563.11,336.64,563.12,336.64c-3.22,0-5.97,1.19-8.17,3.54c-5.47,5.84-6,17.48-5.96,22.5
					c-0.89-0.16-1.96-0.29-3.11-0.29c-6.46,0-10.36,4.03-10.71,11.05c-0.19,3.77,0.73,6.75,2.74,8.87c2.08,2.19,5.3,3.35,9.29,3.35
					c0.67,0,1.29-0.03,1.83-0.08l-0.44,34.08c-0.01,0.55,0.24,1.07,0.67,1.4l27.51,21.48c0.31,0.24,0.69,0.37,1.08,0.37
					c0.12,0,0.24-0.01,0.35-0.04c0.5-0.1,0.93-0.42,1.18-0.87l11.42-20.86c0.15-0.28,0.23-0.6,0.21-0.93l-0.62-12.56l-0.03-0.63
					c8.31-3.27,13.8-11.26,13.8-20.29l0-36.77c0-12.89-15.21-12.92-28.63-12.95c-4.01-0.01-7.81-0.02-11.23-0.32
					C563.9,336.65,563.5,336.64,563.12,336.64L563.12,336.64z"/>
			</g>
			<g>
				<path class="st1" d="M586.49,385.95c-0.27,0-0.53-0.12-0.7-0.35c-0.29-0.39-0.21-0.93,0.17-1.23l3.86-2.9
					c0.53-0.4,0.85-0.98,0.92-1.64c0.06-0.66-0.14-1.29-0.59-1.78l-3.11-3.45c-0.15-0.17-0.23-0.4-0.22-0.63l0.39-8.43
					c0.02-0.48,0.42-0.87,0.91-0.83c0.48,0.02,0.86,0.43,0.83,0.91l-0.37,8.08l2.87,3.18c0.76,0.85,1.14,1.99,1.03,3.12
					c-0.11,1.14-0.7,2.18-1.61,2.87l-3.86,2.9C586.86,385.89,586.67,385.95,586.49,385.95z"/>
			</g>
			<g>
				<path class="st1" d="M589.35,407.49c-0.01,0-0.01,0-0.02,0c-0.44-0.01-10.84-0.28-15.56-2.35c-0.44-0.19-0.64-0.71-0.45-1.15
					c0.2-0.44,0.71-0.64,1.15-0.45c4.41,1.94,14.8,2.2,14.9,2.21c0.48,0.01,0.87,0.41,0.85,0.9
					C590.21,407.11,589.82,407.49,589.35,407.49z"/>
			</g>
			<path class="st1" d="M578.1,465.66c0,1.29,0.65,2.34,1.45,2.34c0.8,0,1.45-1.05,1.45-2.34c0-1.29-0.65-2.34-1.45-2.34
				C578.75,463.32,578.1,464.36,578.1,465.66z"/>
			<path class="st1" d="M578.1,452.24c0,1.29,0.65,2.34,1.45,2.34c0.8,0,1.45-1.05,1.45-2.34c0-1.29-0.65-2.34-1.45-2.34
				C578.75,449.89,578.1,450.94,578.1,452.24z"/>
			<g>
				<path class="st1" d="M580.5,359.58c-0.27,0-0.54-0.12-0.71-0.36c-0.1-0.13-2.36-3.09-6.38-1.13c-0.43,0.21-0.96,0.03-1.17-0.4
					c-0.21-0.43-0.03-0.96,0.4-1.17c4.29-2.1,7.48,0.18,8.56,1.68c0.28,0.39,0.2,0.94-0.2,1.22
					C580.86,359.53,580.68,359.58,580.5,359.58z"/>
			</g>
			<g>
				<path class="st1" d="M599.6,359.58c-0.22,0-0.44-0.08-0.61-0.25c-0.12-0.11-2.82-2.68-6.47-0.1c-0.4,0.28-0.94,0.18-1.22-0.21
					c-0.28-0.4-0.18-0.94,0.21-1.22c3.9-2.75,7.41-1.01,8.72,0.29c0.34,0.34,0.34,0.9,0,1.24
					C600.05,359.5,599.82,359.58,599.6,359.58z"/>
			</g>
			<path class="st1" d="M573.08,393.33c-1.54-2.9-1.85-6.91-1.88-9.29c-0.01-0.7,0.84-1.02,1.32-0.52
				c5.29,5.51,11.69,7.27,14.75,7.82c0.65,0.12,0.87,0.95,0.35,1.36c-1.12,0.87-2.12,1.53-3.07,2.07c-0.3,0.17-0.67,0.12-0.91-0.12
				c-1.02-1.02-4.12-3.34-9.57-1C573.7,393.8,573.26,393.68,573.08,393.33z"/>
			<g>
				<path class="st1" d="M560.07,453.11c-0.23,0-0.47-0.09-0.64-0.27l-29.92-31.74c-0.33-0.35-0.31-0.91,0.04-1.24
					c0.35-0.33,0.9-0.32,1.24,0.04l29.43,31.21l17.17-10.7c0.23-0.14,0.5-0.17,0.75-0.08l18.66,6.61l1.93-32.86
					c0.03-0.48,0.46-0.84,0.92-0.82c0.48,0.03,0.85,0.44,0.82,0.92l-1.99,34.02c-0.02,0.28-0.16,0.53-0.39,0.68
					c-0.23,0.15-0.52,0.19-0.78,0.1l-19.36-6.85l-17.42,10.85C560.39,453.07,560.23,453.11,560.07,453.11z"/>
			</g>
			<g>
				<path class="st1" d="M335.4,404.12c-0.12,0-0.25-0.03-0.36-0.08c-0.44-0.2-0.63-0.72-0.43-1.16l15.29-33.46
					c0.2-0.44,0.72-0.63,1.16-0.43c0.44,0.2,0.63,0.72,0.43,1.16l-15.29,33.46C336.05,403.93,335.73,404.12,335.4,404.12z"/>
			</g>
			<g>
				<path class="st0" d="M776.54,299.39L776.54,299.39c-1.43-1.56-1.32-3.98,0.24-5.41l5.34-4.89c1.56-1.43,3.98-1.32,5.41,0.24l0,0
					c1.43,1.56,1.32,3.98-0.24,5.41l-5.34,4.89C780.39,301.06,777.97,300.95,776.54,299.39z"/>
				<path class="st1" d="M779.37,301.51c-0.07,0-0.14,0-0.21,0c-1.26-0.06-2.41-0.6-3.26-1.52l0,0c-0.85-0.93-1.29-2.13-1.23-3.38
					c0.06-1.26,0.6-2.41,1.52-3.26l5.34-4.89c1.91-1.75,4.89-1.62,6.65,0.29c0.85,0.93,1.29,2.13,1.23,3.38
					c-0.06,1.26-0.6,2.41-1.52,3.26l-5.34,4.89C781.67,301.07,780.55,301.51,779.37,301.51z M784.7,288.96
					c-0.74,0-1.44,0.27-1.99,0.78l-5.34,4.89c-1.2,1.1-1.28,2.97-0.18,4.17c0,0,0,0,0,0c0.53,0.58,1.26,0.92,2.05,0.96
					c0.79,0.04,1.54-0.24,2.13-0.77l5.34-4.89c0.58-0.53,0.92-1.26,0.96-2.05c0.03-0.79-0.24-1.54-0.77-2.13
					c-0.53-0.58-1.26-0.92-2.05-0.96C784.79,288.96,784.75,288.96,784.7,288.96z"/>
			</g>
			<g>
				<path class="st0" d="M769.24,294.06L769.24,294.06c-1.74-1.9-1.61-4.84,0.29-6.58l5.83-5.34c1.9-1.74,4.84-1.61,6.58,0.29l0,0
					c1.74,1.9,1.61,4.84-0.29,6.58l-5.83,5.34C773.92,296.09,770.97,295.96,769.24,294.06z"/>
				<path class="st1" d="M772.68,296.45c-0.08,0-0.17,0-0.25-0.01c-1.48-0.06-2.84-0.7-3.84-1.79c-1-1.09-1.51-2.5-1.45-3.98
					c0.06-1.48,0.7-2.84,1.79-3.84l5.83-5.34c2.25-2.06,5.76-1.91,7.82,0.34c1,1.09,1.51,2.5,1.45,3.98
					c-0.07,1.48-0.7,2.84-1.79,3.84l-5.83,5.34C775.38,295.94,774.06,296.45,772.68,296.45z M778.5,281.79
					c-0.91,0-1.83,0.33-2.55,0.99l-5.83,5.34c-0.75,0.68-1.18,1.61-1.22,2.62c-0.04,1.01,0.31,1.98,0.99,2.72v0
					c0.68,0.75,1.61,1.18,2.62,1.22c1.01,0.04,1.98-0.31,2.72-0.99l5.83-5.34c0.75-0.68,1.18-1.61,1.22-2.62
					c0.04-1.01-0.31-1.98-0.99-2.72C780.55,282.2,779.53,281.79,778.5,281.79z"/>
			</g>
			<g>
				<path class="st0" d="M760.31,287.88L760.31,287.88c-1.74-1.9-1.61-4.84,0.29-6.58l5.83-5.34c1.9-1.74,4.84-1.61,6.58,0.29l0,0
					c1.74,1.9,1.61,4.84-0.29,6.58l-5.83,5.34C765,289.91,762.05,289.78,760.31,287.88z"/>
				<path class="st1" d="M763.76,290.27c-0.08,0-0.17,0-0.25-0.01c-1.48-0.07-2.84-0.7-3.84-1.79h0c-1-1.09-1.51-2.5-1.45-3.98
					c0.06-1.48,0.7-2.84,1.79-3.84l5.83-5.34c2.25-2.06,5.76-1.91,7.82,0.34c1,1.09,1.51,2.5,1.45,3.98
					c-0.06,1.48-0.7,2.84-1.79,3.84l-5.83,5.34C766.46,289.76,765.14,290.27,763.76,290.27z M769.58,275.61
					c-0.91,0-1.83,0.33-2.55,0.99l-5.83,5.34c-0.75,0.68-1.18,1.61-1.22,2.62c-0.04,1.01,0.31,1.98,0.99,2.72h0
					c0.68,0.75,1.61,1.18,2.62,1.22c1.01,0.04,1.98-0.31,2.72-0.99l5.83-5.34c0.75-0.68,1.18-1.61,1.22-2.62
					c0.04-1.01-0.31-1.98-0.99-2.72C771.63,276.02,770.61,275.61,769.58,275.61z"/>
			</g>
			<path class="st0" d="M756.21,282.24c6.99-1.33,13.36,5.25,17.04,9.36c1.63,1.82,1.81,4.51,0.47,6.56l0,0
				c-1.79,2.73-5.57,3.26-8.04,1.14l-5.19-4.45c-1.17,6.04-5.59,9.9-5.59,9.9l-7.79-5.26L756.21,282.24z"/>
			<g>
				<path class="st1" d="M754.89,305.61c-0.24,0-0.49-0.1-0.66-0.3c-0.32-0.36-0.28-0.92,0.08-1.23c0.04-0.04,4.22-3.76,5.31-9.41
					c0.06-0.31,0.28-0.56,0.57-0.66c0.29-0.1,0.62-0.04,0.86,0.16l5.19,4.45c0.99,0.85,2.29,1.23,3.59,1.05
					c1.29-0.18,2.44-0.91,3.16-2c1.13-1.72,0.97-3.98-0.39-5.49c-4.34-4.84-10.1-10.25-16.23-9.09c-0.47,0.09-0.93-0.22-1.02-0.7
					c-0.09-0.47,0.22-0.93,0.7-1.02c6.98-1.33,13.21,4.45,17.86,9.64c1.89,2.1,2.11,5.24,0.55,7.62c-0.99,1.51-2.59,2.52-4.37,2.77
					c-1.79,0.25-3.6-0.28-4.97-1.45l-4.11-3.52c-1.55,5.43-5.36,8.81-5.54,8.96C755.3,305.54,755.09,305.61,754.89,305.61z"/>
			</g>
			<g>
				<path class="st1" d="M541.35,380.43c-0.28,0-0.55-0.13-0.72-0.38c-5.52-8.1,2.33-13.86,2.41-13.92c0.39-0.28,0.94-0.19,1.22,0.2
					c0.28,0.39,0.19,0.94-0.2,1.22c-0.27,0.19-6.53,4.84-1.98,11.51c0.27,0.4,0.17,0.94-0.23,1.22
					C541.69,380.38,541.52,380.43,541.35,380.43z"/>
			</g>
			<g>
				<path class="st1" d="M546.41,376.2c-0.32,0-0.63-0.17-0.78-0.48c-1.55-3.05-5.64-3.61-5.68-3.62c-0.48-0.06-0.82-0.5-0.76-0.98
					c0.06-0.48,0.49-0.82,0.98-0.76c0.2,0.03,5.05,0.67,7.02,4.56c0.22,0.43,0.05,0.96-0.38,1.18
					C546.68,376.17,546.55,376.2,546.41,376.2z"/>
			</g>
			<path class="st1" d="M592,316.6c-1.16,0-2.3,0.07-3.42,0.21c-3.95-1.81-8.77-2.81-14.58-2.7c-22.47,1.02-30.47,17.36-30.47,33.11
				v17.16l10.67,2.48c1.65-19.65,4.93-25.6,4.93-25.6c5.84,2.04,11.93,6.33,17.28,7.84c4.09,1.16,11.63,2.89,17.7,2.04
				c13.45-1.87,19.85-8.23,19.85-17.59C613.96,324.18,604.13,316.6,592,316.6z"/>
			<g>
				<path class="st1" d="M599.6,366.46c-0.28,0-0.55-0.13-0.72-0.38c-0.62-0.91-1.31-1.38-2.09-1.45c-1.62-0.13-3.25,1.54-3.26,1.55
					c-0.33,0.35-0.89,0.37-1.24,0.04c-0.35-0.33-0.37-0.89-0.04-1.24c0.09-0.09,2.19-2.29,4.67-2.1c1.33,0.1,2.47,0.85,3.4,2.2
					c0.27,0.4,0.17,0.94-0.23,1.22C599.94,366.41,599.77,366.46,599.6,366.46z"/>
			</g>
			<g>
				<path class="st1" d="M579.75,365.54c-0.28,0-0.55-0.13-0.72-0.38c-0.62-0.91-1.31-1.38-2.09-1.45
					c-1.63-0.13-3.25,1.54-3.26,1.55c-0.33,0.35-0.89,0.37-1.24,0.04c-0.35-0.33-0.37-0.89-0.04-1.24c0.09-0.09,2.2-2.29,4.67-2.1
					c1.33,0.1,2.47,0.85,3.4,2.2c0.27,0.4,0.17,0.94-0.23,1.22C580.09,365.5,579.92,365.54,579.75,365.54z"/>
			</g>
		</g>
		<g>
			<path class="st1" d="M1047.23,1041.6H183.6c-0.43,0-0.77-0.39-0.77-0.88s0.35-0.88,0.77-0.88h863.62c0.43,0,0.77,0.39,0.77,0.88
				S1047.65,1041.6,1047.23,1041.6z"/>
		</g>
		<g>
			<path class="st0" d="M774.57,216.61c5.06-15.17,18.5-19.27,28.37-20.15c6.96-0.62,13.04-5,15.82-11.4
				c26.06-59.9,80.09-47.04,103.14-38.19c6.1,2.34,12.95,1.32,18.17-2.61c7.24-5.46,19.96-11.14,38.84-6.19
				c17.09,4.49,24.24,15.59,27.2,24.93c2.5,7.89,9.76,13.29,18.03,13.73c37.65,1.99,42.59,39.89,42.59,39.89H774.57z"/>
			<path class="st1" d="M1066.74,217.48H774.57c-0.28,0-0.55-0.14-0.71-0.36c-0.16-0.23-0.21-0.52-0.12-0.79
				c5.16-15.47,18.68-19.82,29.12-20.74c6.65-0.59,12.43-4.76,15.1-10.88c26.48-60.85,81.73-47.3,104.25-38.66
				c5.82,2.23,12.3,1.3,17.33-2.5c7.5-5.66,20.46-11.36,39.59-6.33c17.79,4.67,24.94,16.45,27.81,25.51
				c2.35,7.42,9.28,12.69,17.24,13.12c37.94,2.01,43.36,40.26,43.41,40.65c0.03,0.25-0.04,0.5-0.21,0.69
				C1067.23,217.38,1066.99,217.48,1066.74,217.48z M775.81,215.73h289.89c-1.12-5.92-8.52-36.39-41.6-38.14
				c-8.69-0.46-16.25-6.22-18.82-14.33c-2.74-8.64-9.57-19.88-26.59-24.35c-18.45-4.84-30.9,0.61-38.09,6.04
				c-5.52,4.16-12.62,5.19-19.01,2.73c-22.06-8.47-76.15-21.74-102.02,37.72c-2.92,6.71-9.26,11.28-16.55,11.93
				C793.36,198.19,780.94,202.1,775.81,215.73z"/>
		</g>
	</g>
</g>
</svg>
